<svg width="20" height="20" viewBox="0 0 20 20" fill="none" xmlns="http://www.w3.org/2000/svg">
<path fill-rule="evenodd" clip-rule="evenodd" d="M18.9437 7.93251L17.7871 10.0005L18.9346 12.0776C18.9912 12.18 19.0058 12.3005 18.9753 12.4135C18.9448 12.5264 18.8716 12.6232 18.7711 12.6832L16.7335 13.8943L16.7032 16.2651C16.7017 16.3835 16.654 16.4965 16.5703 16.5802C16.4866 16.6639 16.3735 16.7116 16.2551 16.7132L13.8845 16.7435L12.6734 18.7812C12.6129 18.8811 12.5162 18.9538 12.4034 18.9843C12.2906 19.0147 12.1705 19.0006 12.0679 18.9447L10 17.7881L7.92303 18.9356C7.8206 18.9923 7.70018 19.0069 7.5872 18.9763C7.47421 18.9458 7.37751 18.8726 7.3175 18.7721L6.10643 16.7344L3.73578 16.7041C3.61742 16.7026 3.50436 16.6548 3.42066 16.5711C3.33697 16.4874 3.28925 16.3744 3.28768 16.256L3.25741 13.8852L1.21979 12.6741C1.11932 12.6141 1.0461 12.5174 1.0156 12.4044C0.985091 12.2914 0.999686 12.171 1.0563 12.0685L2.21287 10.0005L1.0563 7.92645C0.999686 7.82402 0.985091 7.70359 1.0156 7.5906C1.0461 7.47761 1.11932 7.3809 1.21979 7.32088L3.26649 6.10672L3.29677 3.73593C3.29834 3.61757 3.34605 3.5045 3.42974 3.4208C3.51344 3.3371 3.62651 3.28938 3.74486 3.28782L6.11552 3.25754L7.32658 1.21981C7.38659 1.11933 7.4833 1.04611 7.59628 1.0156C7.70927 0.98509 7.82969 0.999686 7.93211 1.0563L10 2.21294L12.0739 1.0563C12.1764 0.999686 12.2968 0.98509 12.4098 1.0156C12.5228 1.04611 12.6195 1.11933 12.6795 1.21981L13.8936 3.26662L16.2642 3.2969C16.3826 3.29847 16.4956 3.34618 16.5793 3.42988C16.663 3.51358 16.7107 3.62666 16.7123 3.74502L16.7426 6.11581L18.7802 7.32694C18.8807 7.38695 18.9539 7.48367 18.9844 7.59666C19.0149 7.70965 19.0003 7.83007 18.9437 7.93251ZM8.86266 11.0846L12.4375 7.45772C12.7428 7.14884 13.245 7.14884 13.57 7.46769C13.8753 7.77657 13.8753 8.28472 13.57 8.5936L9.43385 12.7784C9.27628 12.9279 9.06947 13.0076 8.87251 13.0076C8.66571 13.0076 8.46875 12.9378 8.31118 12.7784L6.42037 10.8653C6.11508 10.5565 6.11508 10.0483 6.42037 9.73944C6.72566 9.43056 7.2279 9.43056 7.53319 9.73944L8.86266 11.0846Z" fill="#00B67B"/>
</svg>
