<svg width="33" height="38" viewBox="0 0 33 38" fill="none" xmlns="http://www.w3.org/2000/svg">
<path d="M17.968 37.128C15.056 37.128 12.544 36.664 10.432 35.736C8.352 34.808 6.768 33.576 5.68 32.04C4.624 30.504 4.064 28.824 4 27C4 26.712 4.096 26.472 4.288 26.28C4.48 26.088 4.72 25.992 5.008 25.992H11.776C12.544 25.992 13.072 26.296 13.36 26.904C13.808 27.96 14.4 28.728 15.136 29.208C15.904 29.688 16.848 29.928 17.968 29.928C19.344 29.928 20.48 29.512 21.376 28.68C22.304 27.848 22.768 26.68 22.768 25.176C22.768 23.864 22.32 22.776 21.424 21.912C20.528 21.048 19.376 20.616 17.968 20.616C17.168 20.616 16.528 20.728 16.048 20.952C15.568 21.144 15.104 21.416 14.656 21.768C14.176 22.152 13.76 22.344 13.408 22.344H6.736C6.448 22.344 6.192 22.248 5.968 22.056C5.776 21.832 5.68 21.576 5.68 21.288L7.456 4.44C7.488 3.992 7.648 3.64 7.936 3.384C8.256 3.128 8.624 3 9.04 3H28.576C28.928 3 29.216 3.112 29.44 3.336C29.664 3.56 29.776 3.848 29.776 4.2V9C29.776 9.32 29.664 9.608 29.44 9.864C29.216 10.088 28.928 10.2 28.576 10.2H14.608L14.032 16.104C14.8 15.56 15.664 15.16 16.624 14.904C17.584 14.616 18.832 14.472 20.368 14.472C22.416 14.472 24.336 14.936 26.128 15.864C27.92 16.76 29.344 18.04 30.4 19.704C31.488 21.368 32.032 23.272 32.032 25.416C32.032 27.656 31.472 29.672 30.352 31.464C29.232 33.224 27.6 34.616 25.456 35.64C23.344 36.632 20.848 37.128 17.968 37.128Z" fill="#CAAAD8"/>
<path d="M7.22828 34.1926L7.23086 34.1938C9.42056 35.1559 12.0043 35.628 14.968 35.628C17.9047 35.628 20.4764 35.1222 22.6686 34.0926L22.6715 34.0912C24.888 33.0326 26.5968 31.582 27.7738 29.7324L27.776 29.729C28.9487 27.8527 29.532 25.7438 29.532 23.416C29.532 21.184 28.9645 19.1844 27.8204 17.4333C26.7157 15.6936 25.2241 14.3537 23.3548 13.4184C21.4916 12.4541 19.4936 11.972 17.368 11.972C15.8101 11.972 14.511 12.1171 13.4877 12.4229C12.8267 12.5997 12.2062 12.8421 11.6274 13.1504L12.0616 8.7H25.576C26.0445 8.7 26.465 8.54616 26.7936 8.21755L26.8053 8.20578L26.8163 8.19325C27.1146 7.85235 27.276 7.44916 27.276 7V2.2C27.276 1.73154 27.1222 1.31105 26.7936 0.982448C26.465 0.653846 26.0445 0.5 25.576 0.5H6.04C5.51233 0.5 5.03376 0.665483 4.62365 0.993567L4.61352 1.00167L4.60382 1.0103C4.20437 1.36536 3.9991 1.84433 3.95792 2.39554L2.18276 19.2356L2.18 19.2617V19.288C2.18 19.6985 2.32077 20.0692 2.58837 20.3814L2.6134 20.4106L2.64261 20.4356C2.95481 20.7032 3.3255 20.844 3.736 20.844H10.408C10.9309 20.844 11.4579 20.5664 11.9666 20.1598C12.3804 19.835 12.8028 19.5886 13.2337 19.4162L13.2467 19.411L13.2594 19.4051C13.6482 19.2237 14.2072 19.116 14.968 19.116C16.2649 19.116 17.2866 19.5098 18.0769 20.2719C18.8695 21.0361 19.268 21.9916 19.268 23.176C19.268 24.5699 18.8428 25.59 18.0422 26.3077L18.0422 26.3077L18.0358 26.3136C17.2441 27.0488 16.2349 27.428 14.968 27.428C13.9217 27.428 13.0761 27.2047 12.4051 26.7866C11.776 26.3749 11.2403 25.6988 10.8203 24.7087L10.8163 24.6993L10.8119 24.69C10.629 24.304 10.3588 23.9947 9.99748 23.7867C9.64024 23.581 9.22509 23.492 8.776 23.492H2.008C1.59632 23.492 1.22634 23.6346 0.934447 23.9264C0.642548 24.2183 0.5 24.5883 0.5 25V25.0088L0.500308 25.0175C0.567719 26.9388 1.15927 28.7106 2.26798 30.3233L2.26794 30.3233L2.27199 30.329C3.42173 31.9522 5.0836 33.2358 7.22828 34.1926Z" fill="#FFE9A9" stroke="#A788CE"/>
</svg>
