<svg width="35" height="37" viewBox="0 0 35 37" fill="none" xmlns="http://www.w3.org/2000/svg">
<path d="M21.28 36.6C20.96 36.6 20.672 36.488 20.416 36.264C20.192 36.008 20.08 35.72 20.08 35.4V30.12H5.2C4.88 30.12 4.592 30.008 4.336 29.784C4.112 29.528 4 29.24 4 28.92V24.072C4 23.592 4.176 23.112 4.528 22.632L18.448 3.816C18.896 3.272 19.488 3 20.224 3H27.52C27.872 3 28.16 3.112 28.384 3.336C28.64 3.56 28.768 3.848 28.768 4.2V22.68H32.992C33.376 22.68 33.68 22.808 33.904 23.064C34.128 23.288 34.24 23.56 34.24 23.88V28.92C34.24 29.24 34.128 29.528 33.904 29.784C33.68 30.008 33.392 30.12 33.04 30.12H28.768V35.4C28.768 35.752 28.64 36.04 28.384 36.264C28.16 36.488 27.872 36.6 27.52 36.6H21.28ZM12.544 23.016H20.272V12.216L12.544 23.016Z" fill="#CAAAD8"/>
<path d="M17.0397 34.5933L17.0617 34.6183L17.0868 34.6403C17.4277 34.9386 17.8308 35.1 18.28 35.1H24.52C24.9828 35.1 25.3989 34.9498 25.7257 34.6293C26.0862 34.308 26.268 33.8849 26.268 33.4V28.62H30.04C30.5085 28.62 30.929 28.4662 31.2576 28.1376L31.2693 28.1258L31.2803 28.1133C31.5786 27.7724 31.74 27.3692 31.74 26.92V21.88C31.74 21.4344 31.5804 21.0391 31.2692 20.7222C30.9385 20.3517 30.4938 20.18 29.992 20.18H26.268V2.2C26.268 1.71509 26.0862 1.29203 25.7257 0.970691C25.3989 0.650174 24.9828 0.5 24.52 0.5H17.224C16.3462 0.5 15.6098 0.833049 15.062 1.49815L15.0538 1.50818L15.046 1.51863L1.12604 20.3346L1.1248 20.3363C0.725232 20.8812 0.5 21.4624 0.5 22.072V26.92C0.5 27.3692 0.661424 27.7724 0.959711 28.1133L0.981662 28.1383L1.00675 28.1603C1.34765 28.4586 1.75084 28.62 2.2 28.62H16.58V33.4C16.58 33.8492 16.7414 34.2524 17.0397 34.5933ZM16.772 11.774V20.516H10.5166L16.772 11.774Z" fill="#FFE9A9" stroke="#A788CE"/>
</svg>
