<svg width="40" height="40" viewBox="0 0 40 40" fill="none" xmlns="http://www.w3.org/2000/svg">
<path d="M24.2961 38.0004C23.9761 38.0004 23.6881 37.8884 23.4321 37.6644C23.2081 37.4084 23.0961 37.1204 23.0961 36.8004V14.3364L16.6641 19.2804C16.4081 19.4404 16.1681 19.5204 15.9441 19.5204C15.5601 19.5204 15.2241 19.3284 14.9361 18.9444L11.9601 15.1044C11.8321 14.8804 11.7681 14.6404 11.7681 14.3844C11.7681 13.9364 11.9441 13.5844 12.2961 13.3284L23.4321 4.73639C23.7521 4.51239 24.1201 4.40039 24.5361 4.40039H30.8721C31.2241 4.40039 31.5121 4.51239 31.7361 4.73639C31.9921 4.96039 32.1201 5.24839 32.1201 5.60039V36.8004C32.1201 37.1524 31.9921 37.4404 31.7361 37.6644C31.5121 37.8884 31.2241 38.0004 30.8721 38.0004H24.2961Z" fill="#CAAAD8"/>
<path d="M20.0558 35.9936L20.0777 36.0187L20.1028 36.0407C20.4437 36.339 20.8469 36.5004 21.2961 36.5004H27.8721C28.3349 36.5004 28.7509 36.3502 29.0777 36.0297C29.4382 35.7084 29.6201 35.2853 29.6201 34.8004V3.60039C29.6201 3.11548 29.4382 2.69241 29.0777 2.37108C28.7509 2.05056 28.3349 1.90039 27.8721 1.90039H21.5361C21.0245 1.90039 20.555 2.04003 20.1453 2.32678L20.1358 2.33343L20.1266 2.34052L8.99585 10.9285C8.51411 11.2816 8.26807 11.7845 8.26807 12.3844C8.26807 12.7281 8.35513 13.0535 8.52594 13.3525L8.54336 13.3829L8.56486 13.4107L11.5386 17.2477C11.8945 17.7208 12.365 18.0204 12.9441 18.0204C13.289 18.0204 13.6204 17.8973 13.9291 17.7044L13.9496 17.6916L13.9688 17.6768L19.5961 13.3514V34.8004C19.5961 35.2495 19.7575 35.6527 20.0558 35.9936Z" fill="#FFE9A9" stroke="#A788CE"/>
</svg>
