<svg width="46" height="12" viewBox="0 0 46 12" fill="none" xmlns="http://www.w3.org/2000/svg">
<circle cx="5" cy="6" r="5" fill="#B3E9D7"/>
<circle cx="5" cy="6" r="2" fill="#00B67B"/>
<path d="M17.784 9.08C17.0533 9.08 16.4853 8.896 16.08 8.528C15.6747 8.16 15.4613 7.61333 15.44 6.888C15.4347 6.73333 15.432 6.50667 15.432 6.208C15.432 5.904 15.4347 5.67467 15.44 5.52C15.4613 4.81067 15.68 4.26667 16.096 3.888C16.512 3.50933 17.0747 3.32 17.784 3.32C18.488 3.32 19.048 3.50933 19.464 3.888C19.8853 4.26667 20.1067 4.81067 20.128 5.52C20.1387 5.82933 20.144 6.05867 20.144 6.208C20.144 6.352 20.1387 6.57867 20.128 6.888C20.1067 7.61333 19.8907 8.16 19.48 8.528C19.0747 8.896 18.5093 9.08 17.784 9.08ZM17.784 8.152C18.1413 8.152 18.424 8.04533 18.632 7.832C18.84 7.61867 18.952 7.29067 18.968 6.848C18.9787 6.528 18.984 6.312 18.984 6.2C18.984 6.07733 18.9787 5.86133 18.968 5.552C18.952 5.11467 18.8373 4.78933 18.624 4.576C18.4107 4.35733 18.1307 4.248 17.784 4.248C17.432 4.248 17.1493 4.35733 16.936 4.576C16.7227 4.78933 16.6107 5.11467 16.6 5.552C16.5947 5.70667 16.592 5.92267 16.592 6.2C16.592 6.472 16.5947 6.688 16.6 6.848C16.6107 7.28533 16.72 7.61333 16.928 7.832C17.1413 8.04533 17.4267 8.152 17.784 8.152ZM21.6185 9C21.5652 9 21.5198 8.98133 21.4825 8.944C21.4452 8.90667 21.4265 8.86133 21.4265 8.808V3.6C21.4265 3.54133 21.4425 3.49333 21.4745 3.456C21.5118 3.41867 21.5598 3.4 21.6185 3.4H22.2425C22.3438 3.4 22.4212 3.44533 22.4745 3.536L24.7625 7.088V3.6C24.7625 3.54133 24.7785 3.49333 24.8105 3.456C24.8478 3.41867 24.8958 3.4 24.9545 3.4H25.6425C25.7012 3.4 25.7492 3.41867 25.7865 3.456C25.8238 3.49333 25.8425 3.54133 25.8425 3.6V8.8C25.8425 8.85867 25.8238 8.90667 25.7865 8.944C25.7492 8.98133 25.7038 9 25.6505 9H25.0185C24.9118 9 24.8318 8.95467 24.7785 8.864L22.4985 5.392V8.808C22.4985 8.86133 22.4798 8.90667 22.4425 8.944C22.4105 8.98133 22.3652 9 22.3065 9H21.6185ZM27.5147 9C27.4614 9 27.4161 8.98133 27.3787 8.944C27.3414 8.90667 27.3227 8.86133 27.3227 8.808V3.592C27.3227 3.53333 27.3414 3.488 27.3787 3.456C27.4161 3.41867 27.4614 3.4 27.5147 3.4H28.2667C28.3254 3.4 28.3707 3.41867 28.4027 3.456C28.4401 3.488 28.4587 3.53333 28.4587 3.592V8.04H30.9947C31.0534 8.04 31.1014 8.05867 31.1387 8.096C31.1761 8.13333 31.1947 8.17867 31.1947 8.232V8.808C31.1947 8.86133 31.1761 8.90667 31.1387 8.944C31.1014 8.98133 31.0534 9 30.9947 9H27.5147ZM32.4032 9C32.3499 9 32.3045 8.98133 32.2672 8.944C32.2299 8.90667 32.2112 8.86133 32.2112 8.808V3.592C32.2112 3.53333 32.2299 3.488 32.2672 3.456C32.3045 3.41867 32.3499 3.4 32.4032 3.4H33.1712C33.2299 3.4 33.2752 3.41867 33.3072 3.456C33.3445 3.488 33.3632 3.53333 33.3632 3.592V8.808C33.3632 8.86133 33.3445 8.90667 33.3072 8.944C33.2752 8.98133 33.2299 9 33.1712 9H32.4032ZM35.0416 9C34.9883 9 34.943 8.98133 34.9056 8.944C34.8683 8.90667 34.8496 8.86133 34.8496 8.808V3.6C34.8496 3.54133 34.8656 3.49333 34.8976 3.456C34.935 3.41867 34.983 3.4 35.0416 3.4H35.6656C35.767 3.4 35.8443 3.44533 35.8976 3.536L38.1856 7.088V3.6C38.1856 3.54133 38.2016 3.49333 38.2336 3.456C38.271 3.41867 38.319 3.4 38.3776 3.4H39.0656C39.1243 3.4 39.1723 3.41867 39.2096 3.456C39.247 3.49333 39.2656 3.54133 39.2656 3.6V8.8C39.2656 8.85867 39.247 8.90667 39.2096 8.944C39.1723 8.98133 39.127 9 39.0736 9H38.4416C38.335 9 38.255 8.95467 38.2016 8.864L35.9216 5.392V8.808C35.9216 8.86133 35.903 8.90667 35.8656 8.944C35.8336 8.98133 35.7883 9 35.7296 9H35.0416ZM40.9379 9C40.8845 9 40.8392 8.98133 40.8019 8.944C40.7645 8.90667 40.7459 8.86133 40.7459 8.808V3.6C40.7459 3.54133 40.7619 3.49333 40.7939 3.456C40.8312 3.41867 40.8792 3.4 40.9379 3.4H44.4659C44.5245 3.4 44.5725 3.41867 44.6099 3.456C44.6472 3.49333 44.6659 3.54133 44.6659 3.6V4.136C44.6659 4.19467 44.6472 4.24267 44.6099 4.28C44.5725 4.312 44.5245 4.328 44.4659 4.328H41.8419V5.728H44.2899C44.3485 5.728 44.3965 5.74667 44.4339 5.784C44.4712 5.82133 44.4899 5.86933 44.4899 5.928V6.432C44.4899 6.49067 44.4712 6.53867 44.4339 6.576C44.3965 6.608 44.3485 6.624 44.2899 6.624H41.8419V8.072H44.5299C44.5885 8.072 44.6365 8.09067 44.6739 8.128C44.7112 8.16 44.7299 8.20533 44.7299 8.264V8.808C44.7299 8.86667 44.7112 8.91467 44.6739 8.952C44.6365 8.984 44.5885 9 44.5299 9H40.9379Z" fill="#475569"/>
</svg>
