<svg width="255" height="244" viewBox="0 0 255 244" fill="none" xmlns="http://www.w3.org/2000/svg">
<path d="M179.155 47.4751C190.068 53.1185 194.144 71.2298 206.636 86.7163C218.996 102.072 239.771 114.802 243.715 129.764C247.792 144.725 235.169 161.918 221.757 175.829C208.477 189.61 194.407 199.978 179.417 202.603C164.428 205.228 148.518 199.978 132.739 199.453C116.96 199.059 101.576 203.259 84.8771 201.684C68.3095 199.978 50.427 192.497 42.2747 179.11C34.1224 165.855 35.7003 146.563 35.5688 127.27C35.4373 108.109 33.5965 88.685 39.2505 71.0986C45.036 53.5122 58.1849 37.7632 75.0154 35.5321C91.846 33.301 112.095 44.719 131.293 46.9501C150.358 49.05 168.109 41.9629 179.155 47.4751Z" fill="white" fill-opacity="0.3"/>
<path d="M32.7434 199.716L58.5314 199.599L84.3242 199.555L135.905 199.472L187.486 199.555L213.279 199.599L239.066 199.716L213.279 199.838L187.486 199.877L135.905 199.96L84.3242 199.877L58.5314 199.838L32.7434 199.716Z" fill="#1E437D"/>
<path d="M223.983 58.7468C236.086 58.7468 245.898 48.9361 245.898 36.8341C245.898 24.732 236.086 14.9214 223.983 14.9214C211.88 14.9214 202.069 24.732 202.069 36.8341C202.069 48.9361 211.88 58.7468 223.983 58.7468Z" fill="#C8DEFE"/>
<path d="M223.592 56.8327C235.139 56.8327 244.5 47.4724 244.5 35.9259C244.5 24.3793 235.139 15.019 223.592 15.019C212.045 15.019 202.683 24.3793 202.683 35.9259C202.683 47.4724 212.045 56.8327 223.592 56.8327Z" fill="white"/>
<path fill-rule="evenodd" clip-rule="evenodd" d="M223.592 56.1342C234.754 56.1342 243.802 47.0866 243.802 35.9259C243.802 24.7651 234.754 15.7176 223.592 15.7176C212.43 15.7176 203.382 24.7651 203.382 35.9259C203.382 47.0866 212.43 56.1342 223.592 56.1342ZM244.5 35.9259C244.5 47.4724 235.139 56.8327 223.592 56.8327C212.045 56.8327 202.683 47.4724 202.683 35.9259C202.683 24.3793 212.045 15.019 223.592 15.019C235.139 15.019 244.5 24.3793 244.5 35.9259Z" fill="#1E437D"/>
<path opacity="0.3" d="M242.74 31.7697C233.819 37.1693 219.156 46.0405 210.962 50.8953C208.646 48.9524 206.812 46.4993 205.604 43.7284L232.708 18.5815C235.242 19.9143 237.453 21.7856 239.186 24.064C240.919 26.3423 242.132 28.9725 242.74 31.7697Z" fill="#E1EDF8"/>
<path opacity="0.3" d="M243.166 36.6104C243.099 38.7894 242.662 40.9411 241.874 42.9739L217.424 54.5275C216.358 54.1748 215.325 53.7308 214.336 53.2003C221.734 48.9393 235.223 41.1787 243.166 36.6104Z" fill="#E1EDF8"/>
<path fill-rule="evenodd" clip-rule="evenodd" d="M223.403 17.7573H223.781V20.7261H223.403V17.7573ZM214.345 20.2726L214.671 20.084L216.156 22.655L215.829 22.8436L214.345 20.2726ZM207.94 26.6684L207.752 26.995L210.323 28.4794L210.511 28.1527L207.94 26.6684ZM205.422 35.7373H208.391V36.1145H205.422V35.7373ZM210.336 43.3626L207.765 44.847L207.953 45.1736L210.524 43.6893L210.336 43.3626ZM214.332 51.5541L215.815 48.9823L216.142 49.1707L214.659 51.7425L214.332 51.5541ZM223.781 51.1188H223.403V54.0876H223.781V51.1188ZM231.031 49.1827L231.358 48.9941L232.842 51.5651L232.515 51.7537L231.031 49.1827ZM236.837 43.3509L236.648 43.6776L239.22 45.1619L239.408 44.8353L236.837 43.3509ZM238.793 35.7373H241.762V36.1145H238.793V35.7373ZM239.231 26.6789L236.659 28.1632L236.848 28.4899L239.419 27.0055L239.231 26.6789ZM231.04 22.6777L232.523 20.1062L232.85 20.2947L231.366 22.8662L231.04 22.6777Z" fill="#D3DBE7"/>
<path d="M235.237 23.6392L221.95 36.017L223.285 37.3163L235.601 23.9954L235.237 23.6392Z" fill="#475569"/>
<path d="M219.827 23.073L222.949 37.2111L224.731 36.6872L220.309 22.9263L219.827 23.073Z" fill="#1D293F"/>
<path d="M223.145 35.4719C223.036 35.5925 222.978 35.7503 222.981 35.9128C222.985 36.0754 223.051 36.2303 223.166 36.3457C223.28 36.4611 223.435 36.5282 223.597 36.5333C223.76 36.5384 223.918 36.481 224.039 36.373C224.158 36.2528 224.224 36.091 224.224 35.9224C224.224 35.7539 224.158 35.592 224.039 35.4719C223.92 35.3541 223.76 35.2881 223.592 35.2881C223.425 35.2881 223.264 35.3541 223.145 35.4719Z" fill="#FFC727"/>
<path d="M224.114 164.042C224.114 164.042 236.55 161.231 243.33 154.965C250.111 148.698 253.934 137.469 253.934 137.469C249.217 138.371 244.567 139.592 240.016 141.124C238.902 142.313 236.772 144.762 235.804 147.071C235.686 145.655 235.675 144.233 235.771 142.816C234.18 143.51 232.692 144.42 231.348 145.519C225.709 150.439 224.114 164.042 224.114 164.042Z" fill="#B3E9D7"/>
<path d="M246.185 142.924C247.877 141.756 249.596 140.626 251.283 139.442C251.301 139.427 251.312 139.406 251.315 139.383C251.318 139.36 251.313 139.337 251.301 139.318C251.288 139.298 251.27 139.284 251.248 139.277C251.226 139.27 251.202 139.271 251.181 139.28C247.98 141.189 244.827 143.232 241.778 145.368C240.696 146.114 239.669 146.887 238.636 147.682L238.853 147.314C239.226 146.687 239.62 146.076 240.01 145.465C240.79 144.223 241.673 143.047 242.648 141.951C242.681 141.908 242.621 141.848 242.584 141.892C241.621 143.005 240.653 144.108 239.772 145.292C239.35 145.833 238.966 146.433 238.593 147.028C238.398 147.341 238.215 147.65 238.052 147.969L237.863 148.288C236.241 149.547 234.7 150.861 233.208 152.251C232.285 153.108 231.396 153.997 230.542 154.916C231.018 153.413 231.44 151.894 231.997 150.418C231.999 150.411 232 150.404 231.999 150.397C231.998 150.39 231.995 150.384 231.991 150.378C231.987 150.372 231.982 150.368 231.976 150.364C231.97 150.361 231.963 150.359 231.956 150.359C231.949 150.359 231.942 150.361 231.936 150.364C231.93 150.368 231.924 150.372 231.92 150.378C231.916 150.384 231.914 150.39 231.913 150.397C231.912 150.404 231.913 150.411 231.915 150.418C231.375 151.969 230.78 153.527 230.364 155.122C229.412 156.149 228.504 157.208 227.66 158.317C227.66 158.252 227.687 158.182 227.703 158.117C227.844 157.533 227.99 156.949 228.147 156.365C228.45 155.246 228.779 154.127 229.158 153.029C229.873 150.742 231.004 148.607 232.494 146.73C232.526 146.693 232.467 146.633 232.429 146.676C230.007 149.542 228.585 152.986 227.676 156.598C227.547 157.138 227.417 157.679 227.298 158.187C227.233 158.474 227.163 158.76 227.114 159.047C226.735 159.555 226.368 160.069 226.033 160.593C223.921 163.82 222.16 167.264 220.782 170.866C219.231 174.924 217.903 179.065 216.803 183.268C216.803 183.35 216.905 183.377 216.932 183.268C219.36 176.007 221.837 168.671 225.995 162.15C226.872 160.782 227.818 159.46 228.828 158.187C230.883 158.053 232.912 157.65 234.862 156.987C236.994 156.269 239.027 155.287 240.913 154.062C241.987 153.338 243.021 152.556 244.011 151.721C244.017 151.718 244.022 151.714 244.026 151.708C244.03 151.703 244.032 151.697 244.034 151.691C244.035 151.685 244.035 151.678 244.033 151.672C244.031 151.665 244.029 151.66 244.024 151.655C244.02 151.65 244.015 151.646 244.009 151.643C244.003 151.64 243.997 151.639 243.99 151.639C243.984 151.639 243.977 151.641 243.972 151.644C243.966 151.647 243.961 151.651 243.957 151.656C242.225 153.055 240.311 154.214 238.269 155.1C236.263 156.022 234.164 156.725 232.007 157.198C231.094 157.398 230.164 157.549 229.234 157.673C230.38 156.257 231.602 154.904 232.894 153.618C233.31 153.202 233.743 152.802 234.176 152.397C235.623 151.383 237.159 150.503 238.766 149.769C240.799 148.785 242.8 147.741 244.811 146.72C245.947 146.141 247.077 145.552 248.223 144.995C248.272 144.968 248.223 144.898 248.174 144.919C246.136 145.909 244.065 146.828 242.005 147.769C240.069 148.655 238.106 149.547 236.246 150.591L236.014 150.731C237.696 149.272 239.437 147.877 241.216 146.53C242.816 145.314 244.498 144.097 246.185 142.924Z" fill="#1E437D"/>
<path d="M183.799 101.504C186.09 104.462 187.389 108.069 187.508 111.809C187.546 112.923 187.373 114.474 187.243 116.296C191.871 118.767 195.353 123.217 195.353 123.217C192.726 121.638 189.114 121 187.167 121.26C187.231 122.506 187.39 123.746 187.643 124.969C188.503 124.92 190.163 125.034 192.904 126.007C191.275 125.991 189.66 126.313 188.162 126.953C190.374 133.981 196.949 141.221 215.105 144.292C215.105 144.292 218.609 131.965 211.894 118.74C206.438 108.035 183.799 101.504 183.799 101.504Z" fill="#B3E9D7"/>
<path d="M221.383 174.429C221.07 171.423 220.67 168.422 220.205 165.438C219.288 159.454 218.066 153.52 216.544 147.661C215.835 144.907 214.959 142.199 213.922 139.551C213.975 139.068 213.998 138.582 213.992 138.096C213.992 137.518 213.992 136.934 213.992 136.355C213.992 135.188 213.927 134.031 213.83 132.868C213.644 130.572 213.269 128.296 212.711 126.061C212.381 124.769 211.991 123.493 211.629 122.212C211.624 122.203 211.617 122.195 211.607 122.191C211.597 122.188 211.587 122.187 211.577 122.19C211.567 122.194 211.559 122.2 211.554 122.209C211.548 122.218 211.546 122.229 211.548 122.239C212.147 124.463 212.592 126.727 212.878 129.013C213.206 131.271 213.41 133.545 213.489 135.826C213.489 136.453 213.522 137.075 213.527 137.702C213.527 137.967 213.527 138.242 213.527 138.502C212.623 136.335 211.59 134.225 210.434 132.182C208.589 128.935 206.511 125.827 204.216 122.882C204.211 122.539 204.162 122.197 204.07 121.866C203.984 121.46 203.897 121.055 203.805 120.649C203.616 119.822 203.41 118.995 203.183 118.178C202.735 116.556 202.14 114.934 201.621 113.312C201.618 113.304 201.612 113.297 201.605 113.292C201.598 113.287 201.589 113.284 201.58 113.284C201.571 113.284 201.563 113.287 201.555 113.292C201.548 113.297 201.543 113.304 201.54 113.312C202.021 114.934 202.34 116.589 202.707 118.227C202.891 119.033 203.07 119.849 203.248 120.655L203.508 121.871V121.963C202.787 121.04 202.037 120.128 201.258 119.227C197.787 115.161 193.986 111.409 190.163 107.684C189.693 107.225 189.206 106.781 188.73 106.327C188.692 106.289 188.633 106.327 188.671 106.392C192.331 110.177 195.932 114.064 199.339 118.103C200.15 119.065 200.961 120.033 201.734 121.017L200.496 120.195C199.415 119.503 198.366 118.833 197.252 118.216C196.138 117.6 195.04 116.994 193.91 116.432C192.78 115.87 191.499 115.389 190.379 114.734C190.331 114.707 190.288 114.788 190.336 114.81C191.485 115.339 192.592 115.951 193.651 116.643C194.732 117.297 195.857 117.957 196.944 118.649C198.03 119.341 199.106 119.99 200.145 120.682C201.026 121.255 201.896 121.882 202.816 122.412C204.921 125.116 206.864 127.943 208.634 130.879C209.732 132.727 210.736 134.631 211.64 136.583L210.986 136.296L209.353 135.588C208.271 135.112 207.19 134.652 206.141 134.182C204.103 133.301 202.032 132.484 200.036 131.511C198.916 130.982 197.832 130.379 196.792 129.705C196.749 129.673 196.706 129.749 196.749 129.776C200.474 132.344 204.649 134.15 208.769 135.977L210.559 136.766C211.051 136.983 211.537 137.226 212.045 137.415C213.266 140.144 214.292 142.955 215.117 145.828C216.747 151.61 218.071 157.473 219.085 163.394C220.124 169.341 220.827 175.289 221.373 181.295C221.443 182.041 221.508 182.788 221.594 183.534C221.603 183.59 221.631 183.641 221.674 183.678C221.718 183.715 221.773 183.736 221.83 183.736C221.886 183.736 221.941 183.715 221.985 183.678C222.028 183.641 222.056 183.59 222.065 183.534C222.011 180.479 221.702 177.43 221.383 174.429Z" fill="#1E437D"/>
<path opacity="0.1" d="M224.34 142.529C224.34 142.529 235.825 139.788 241.102 132.084C246.142 124.725 247.769 112.187 247.899 111.084C247.688 112.096 245.32 123.055 237.501 128.159C231.521 132.089 225.725 135.306 224.34 142.529Z" fill="#263238"/>
<path d="M234.944 122.703C232.901 124.581 231.431 127 230.705 129.679C230.705 129.679 230.737 129.717 230.743 129.679C231.587 127.065 233.047 124.691 234.998 122.758C235.036 122.73 234.982 122.666 234.944 122.703Z" fill="#263238"/>
<path d="M224.34 142.529C224.34 142.529 235.825 139.788 241.102 132.084C246.141 124.725 247.769 112.187 247.899 111.085C247.901 111.058 247.901 111.03 247.899 111.003C247.899 111.003 242.394 118.832 236.603 120.833C230.812 122.833 222.68 129.748 224.34 142.529Z" fill="#B3E9D7"/>
<path d="M245.871 115.339C244.846 117.449 243.664 119.478 242.335 121.411C240.996 123.246 239.405 124.884 237.609 126.277C236.052 127.515 234.403 128.64 232.824 129.851L232.857 129.797C233.154 129.353 233.473 128.926 233.797 128.51C234.457 127.672 235.176 126.888 235.901 126.093C237.328 124.547 238.783 123.028 240.064 121.352C240.773 120.425 241.388 119.43 241.903 118.383C241.93 118.335 241.849 118.308 241.821 118.356C239.961 122.238 236.241 124.72 233.587 127.996C233.208 128.467 232.851 128.948 232.505 129.451C232.243 129.821 232.022 130.218 231.846 130.635C230.391 131.798 229.078 133.126 227.931 134.592C228.029 133.84 228.183 133.095 228.39 132.365C228.659 131.343 229.068 130.364 229.607 129.456C229.634 129.407 229.564 129.364 229.537 129.407C228.98 130.317 228.53 131.288 228.196 132.3C227.953 133.105 227.813 133.937 227.779 134.776C227.212 135.546 226.693 136.352 226.228 137.188C226.276 136.944 226.32 136.696 226.368 136.452C226.595 135.306 226.849 134.165 227.147 133.041C227.684 130.734 228.619 128.539 229.91 126.553C229.942 126.51 229.872 126.461 229.84 126.504C228.521 128.457 227.49 130.589 226.779 132.835C226.411 133.96 226.119 135.106 225.86 136.263C225.736 136.831 225.622 137.398 225.514 137.966C225.454 138.258 225.395 138.561 225.346 138.864C224.206 141.364 223.318 143.972 222.697 146.649C221.567 151.43 220.749 156.279 220.247 161.166C219.653 166.285 219.387 171.438 219.453 176.591C219.453 177.234 219.501 177.883 219.534 178.527C219.534 178.694 219.793 178.716 219.799 178.527C219.912 175.975 219.977 173.428 220.128 170.882C220.28 168.335 220.502 165.789 220.777 163.253C221.3 158.264 222.097 153.307 223.167 148.406C224.103 144.205 225.33 139.977 227.601 136.301C228.741 134.47 230.138 132.811 231.748 131.375C233.37 129.926 235.117 128.672 236.815 127.326C238.53 126.018 240.091 124.518 241.465 122.855C242.869 120.993 244.093 119.002 245.12 116.907C245.39 116.367 245.661 115.875 245.942 115.356C245.963 115.339 245.893 115.291 245.871 115.339Z" fill="#1E437D"/>
<path d="M182.198 137.469C182.198 137.469 182.014 153.786 191.774 158.5C201.533 163.215 206.762 159.284 213.402 160.863C213.148 160.474 208.417 153.667 200.89 151.796C193.131 149.861 184.544 144.27 182.198 137.469Z" fill="#B3E9D7"/>
<path d="M214.035 161.155C212.875 160.098 211.569 159.214 210.158 158.528C209.947 158.425 209.731 158.344 209.52 158.252C209.417 158.122 209.303 157.998 209.19 157.879C208.898 157.576 208.595 157.284 208.271 157.008C207.661 156.478 207.004 156.004 206.308 155.592C204.686 154.64 202.923 153.97 201.269 153.094C201.22 153.067 201.177 153.143 201.225 153.164C202.042 153.592 202.847 154.056 203.631 154.521C204.416 154.986 205.194 155.403 205.946 155.889C206.623 156.325 207.268 156.81 207.876 157.338C208.049 157.49 208.217 157.652 208.379 157.819C207.301 157.452 206.199 157.16 205.081 156.944C203.296 156.581 201.49 156.327 199.706 155.943C198.831 155.757 197.966 155.524 197.116 155.246C196.305 154.592 195.494 153.948 194.731 153.24C193.804 152.39 192.958 151.454 192.206 150.445C192.174 150.396 192.104 150.445 192.136 150.488C193.32 152.088 194.661 153.565 196.137 154.9C195.716 154.741 195.299 154.561 194.888 154.359C191.537 152.856 188.662 150.464 186.572 147.444C186.545 147.401 186.47 147.444 186.502 147.487C188.272 150.091 190.562 152.3 193.228 153.975C194.564 154.805 195.99 155.48 197.478 155.987C199.209 156.522 200.974 156.939 202.761 157.236C204.513 157.52 206.242 157.93 207.935 158.463C209.487 158.994 210.947 159.764 212.261 160.744C214.746 162.675 216.747 165.157 218.106 167.995C219.955 171.698 220.837 175.84 221.35 179.927C221.35 180.1 221.642 180.1 221.626 179.927C221.161 173.055 219.328 165.919 214.035 161.155Z" fill="#1E437D"/>
<path d="M234.901 211.556H208.877L213.486 176.546H230.194L234.901 211.556Z" fill="#6AA6DA"/>
<path fill-rule="evenodd" clip-rule="evenodd" d="M207.224 210.932L211.897 176.642L211.19 176.546L206.406 211.646H233.642L230.762 190.53L230.055 190.626L232.824 210.932H207.224Z" fill="#1E437D"/>
<path d="M230.615 174.125H208.827V180.177H230.615V174.125Z" fill="#1E437D"/>
<path d="M22.6475 229.833C23.8832 230.228 59.0323 229.862 60.3652 228.998C60.8744 228.672 61.1147 223.552 61.2348 217.351C61.2634 216.013 61.2806 214.634 61.292 213.227C61.3778 204.114 61.252 194.441 61.252 194.441L37.7563 194.624L38.4486 213.404L38.5973 217.529C38.5973 217.529 25.1704 223.689 23.8203 224.788C22.4702 225.886 21.4175 229.433 22.6475 229.833Z" fill="#F7A9A0"/>
<path d="M22.6475 229.833C23.8832 230.234 59.0323 229.833 60.3652 228.998C60.8744 228.672 61.1204 223.552 61.2348 217.357C61.2634 216.018 61.2863 214.634 61.292 213.232C61.2977 211.831 61.292 210.326 61.292 208.891H38.2541L38.42 213.404L38.5744 217.523C38.5744 217.523 25.1704 223.689 23.8203 224.788C22.4702 225.886 21.4175 229.433 22.6475 229.833Z" fill="#EBEBEB"/>
<path d="M22.5445 229.884C23.7802 230.285 59.1581 229.913 60.4681 229.044C61.0917 228.643 61.3263 221.126 61.4007 213.187L38.4084 213.364L38.5572 217.511C38.5572 217.511 25.0845 223.706 23.7172 224.81C22.3499 225.914 21.303 229.484 22.5445 229.884Z" fill="#FFC727"/>
<path d="M23.0368 228.466C28.9579 228.254 52.8712 227.974 58.7465 228.22C58.7923 228.22 58.7923 228.254 58.7465 228.26C52.8769 228.592 28.9636 228.678 23.0368 228.563C22.9109 228.557 22.9109 228.472 23.0368 228.466Z" fill="#1E437D"/>
<path d="M37.7049 216.202C40.0333 215.744 42.888 216.07 44.6901 217.712C44.7587 217.775 44.6901 217.872 44.5928 217.849C42.3587 217.157 40.0575 216.705 37.7278 216.499C37.6883 216.502 37.6493 216.489 37.6192 216.464C37.5892 216.438 37.5706 216.401 37.5676 216.362C37.5645 216.322 37.5773 216.283 37.6031 216.253C37.6288 216.223 37.6654 216.205 37.7049 216.202Z" fill="#1E437D"/>
<path d="M36.0402 217.237C38.3686 216.773 41.2233 217.099 43.0197 218.747C43.094 218.81 43.0197 218.907 42.9224 218.884C40.6827 218.196 38.3753 217.751 36.0402 217.557C35.9977 217.557 35.957 217.54 35.9269 217.51C35.8969 217.48 35.88 217.439 35.88 217.397C35.88 217.354 35.8969 217.314 35.9269 217.284C35.957 217.254 35.9977 217.237 36.0402 217.237Z" fill="#1E437D"/>
<path d="M34.3637 218.266C36.6864 217.809 39.5411 218.135 41.3432 219.777C41.4118 219.84 41.3432 219.937 41.2459 219.914C39.012 219.22 36.7107 218.766 34.3809 218.558C34.3465 218.554 34.3148 218.537 34.2912 218.512C34.2676 218.487 34.2535 218.454 34.2515 218.419C34.2494 218.385 34.2595 218.351 34.28 218.323C34.3005 218.295 34.3301 218.275 34.3637 218.266Z" fill="#1E437D"/>
<path d="M32.6875 219.273C35.0159 218.816 37.8707 219.142 39.6727 220.784C39.7414 220.852 39.6727 220.949 39.5755 220.927C37.3423 220.23 35.0407 219.776 32.7104 219.571C32.6909 219.572 32.6713 219.57 32.6526 219.564C32.634 219.558 32.6168 219.548 32.6019 219.535C32.587 219.523 32.5748 219.507 32.5659 219.49C32.5571 219.472 32.5517 219.453 32.5502 219.433C32.5487 219.414 32.5511 219.394 32.5572 219.376C32.5633 219.357 32.573 219.34 32.5857 219.325C32.5985 219.31 32.614 219.298 32.6315 219.289C32.649 219.28 32.668 219.275 32.6875 219.273Z" fill="#1E437D"/>
<path d="M34.421 214.165C36.0858 215.429 38.2369 215.933 40.1419 216.625C40.186 216.635 40.232 216.636 40.2762 216.626C40.3204 216.615 40.3616 216.595 40.3966 216.566C40.4316 216.537 40.4594 216.501 40.4777 216.459C40.4961 216.418 40.5045 216.373 40.5023 216.327C40.5424 216.327 40.5767 216.293 40.5595 216.247C39.8286 214.189 38.57 212.358 36.9096 210.939C35.9313 210.132 34.2151 209.583 33.3112 210.859C32.4073 212.134 33.4542 213.427 34.421 214.165ZM33.8089 212.294C33.3684 209.743 36.1316 211.059 36.8295 211.682C37.2767 212.086 37.6953 212.52 38.0824 212.981C38.8657 213.959 39.5989 214.977 40.2792 216.03C39.3524 215.629 38.397 215.315 37.4531 214.954C36.3318 214.543 34.0492 213.702 33.8089 212.294Z" fill="#1E437D"/>
<path d="M48.3343 212.609C47.7622 211.162 45.9601 211.293 44.8159 211.848C42.8777 212.839 41.2327 214.32 40.0447 216.144C40.0388 216.152 40.035 216.162 40.0336 216.172C40.0322 216.182 40.0332 216.192 40.0365 216.202C40.0399 216.211 40.0455 216.22 40.0529 216.227C40.0603 216.234 40.0693 216.239 40.079 216.241C40.0654 216.285 40.0622 216.331 40.07 216.376C40.0777 216.421 40.096 216.463 40.1235 216.499C40.1509 216.536 40.1866 216.565 40.2276 216.585C40.2687 216.605 40.3138 216.614 40.3594 216.613C42.4017 216.396 44.61 216.413 46.5265 215.572C47.6249 215.08 48.8835 213.976 48.3343 212.609ZM43.3685 215.646C42.3674 215.778 41.3662 215.864 40.3708 216.03C41.309 215.194 42.2015 214.314 43.2312 213.581C43.7154 213.217 44.2238 212.887 44.753 212.592C45.5825 212.151 48.5745 211.522 47.5505 213.902C46.9784 215.212 44.5642 215.492 43.3685 215.646Z" fill="#1E437D"/>
<path d="M68.323 93.8071C68.323 93.8071 61.4579 151.549 61.3206 152.327C61.3206 152.43 63.2657 214.039 63.2657 214.039H37.6248C37.6248 214.039 36.9325 160.05 37.8822 150.92C39.095 139.273 46.7381 93.8071 46.7381 93.8071H68.323Z" fill="#6AA6DA"/>
<path d="M61.7839 208.765C57.8422 208.685 58.9749 208.65 55.0332 208.616C53.1053 208.616 40.4336 208.484 38.6372 208.782C38.5972 208.782 38.5972 208.856 38.6372 208.862C40.4336 209.165 53.1053 209.051 55.0332 209.033C58.9749 208.993 57.8422 208.965 61.7839 208.879C61.7991 208.879 61.8136 208.873 61.8243 208.862C61.8351 208.852 61.8411 208.837 61.8411 208.822C61.8411 208.807 61.8351 208.792 61.8243 208.781C61.8136 208.771 61.7991 208.765 61.7839 208.765Z" fill="#1E437D"/>
<path d="M57.934 147.596C58.2944 144.335 58.7636 141.08 59.1869 137.826C60.0488 131.278 60.9203 124.724 61.8013 118.164C62.8025 110.728 63.8666 103.32 64.9192 95.9005C64.9192 95.809 65.0737 95.8147 65.0622 95.9005C64.2689 102.525 63.4661 109.147 62.6537 115.768C61.8414 122.323 60.9775 128.879 60.1194 135.429C59.2613 141.979 58.1514 148.443 58.18 155.01C58.18 158.316 58.3402 161.617 58.4317 164.923C58.5233 168.23 58.6205 171.53 58.7063 174.837C58.9066 182.319 59.1926 198.325 59.1182 205.813C59.1182 205.833 59.1104 205.851 59.0965 205.865C59.0825 205.879 59.0636 205.887 59.0439 205.887C59.0242 205.887 59.0052 205.879 58.9913 205.865C58.9773 205.851 58.9695 205.833 58.9695 205.813C58.5118 199.143 58.3688 183.938 58.1514 177.256C57.934 170.575 57.6995 164.037 57.5793 157.424C57.4829 154.144 57.6014 150.861 57.934 147.596Z" fill="#1E437D"/>
<path d="M84.3587 228.649C85.6002 228.289 114.496 208.267 115.114 206.808C115.354 206.236 112.683 201.877 109.307 196.678C108.575 195.533 107.82 194.389 107.019 193.245C101.973 185.654 96.4469 177.714 96.4469 177.714L77.076 191.054L88.1803 206.214L90.6174 209.543C90.6174 209.543 82.98 222.128 82.4766 223.844C81.9731 225.56 83.1116 228.998 84.3587 228.649Z" fill="#F7A9A0"/>
<path d="M84.3585 228.649C85.6 228.288 114.496 208.267 115.114 206.814C115.354 206.242 112.688 201.877 109.302 196.683C108.581 195.539 107.82 194.395 107.013 193.251C106.207 192.107 105.4 190.831 104.605 189.641L85.5141 202.575L88.1801 206.213L90.6172 209.542C90.6172 209.542 83.0027 222.133 82.4935 223.849C81.9844 225.565 83.1171 228.998 84.3585 228.649Z" fill="#EBEBEB"/>
<path d="M84.2955 228.752C85.5484 228.392 114.616 208.256 115.228 206.791C115.514 206.111 111.493 199.755 107.105 193.137L88.1686 206.179L90.6171 209.549C90.6171 209.549 82.9511 222.214 82.4248 223.895C81.8985 225.577 83.0484 229.118 84.2955 228.752Z" fill="#FFC727"/>
<path d="M83.9064 227.282C88.6948 223.787 108.34 210.12 113.335 207.054C113.38 207.026 113.398 207.054 113.335 207.083C108.666 210.652 88.9122 224.136 83.9408 227.362C83.8607 227.453 83.8092 227.379 83.9064 227.282Z" fill="#263238"/>
<path d="M89.1812 208.925C90.846 207.209 93.3975 205.905 95.806 206.259C95.8976 206.259 95.8804 206.402 95.806 206.425C93.5635 207.104 91.4002 208.02 89.3529 209.159C89.3218 209.173 89.287 209.176 89.2543 209.167C89.2215 209.158 89.1927 209.139 89.1726 209.111C89.1526 209.084 89.1425 209.05 89.1441 209.017C89.1456 208.983 89.1588 208.95 89.1812 208.925Z" fill="#263238"/>
<path d="M88.3746 210.692C90.0394 208.976 92.5909 207.678 94.9994 208.027C95.0966 208.027 95.0738 208.175 94.9994 208.198C92.758 208.877 90.5948 209.792 88.5462 210.927C88.5152 210.941 88.4804 210.943 88.4476 210.935C88.4148 210.926 88.386 210.906 88.366 210.879C88.3459 210.851 88.3359 210.818 88.3374 210.784C88.339 210.75 88.3521 210.718 88.3746 210.692Z" fill="#263238"/>
<path d="M87.5679 212.506C89.2384 210.824 91.7841 209.491 94.1926 209.84C94.2899 209.84 94.267 209.989 94.1926 210.012C91.9501 210.69 89.7868 211.607 87.7395 212.746C87.7076 212.763 87.6704 212.768 87.6351 212.76C87.5997 212.752 87.5685 212.731 87.5474 212.702C87.5263 212.672 87.5167 212.636 87.5205 212.6C87.5242 212.564 87.5411 212.53 87.5679 212.506Z" fill="#263238"/>
<path d="M86.7612 214.302C88.4317 212.614 90.9774 211.282 93.3917 211.636C93.4832 211.636 93.4603 211.779 93.3917 211.802C91.1545 212.48 88.9968 213.397 86.9557 214.536C86.9246 214.562 86.8845 214.575 86.8443 214.571C86.804 214.567 86.7669 214.548 86.7411 214.516C86.7153 214.485 86.703 214.445 86.7067 214.405C86.7105 214.365 86.7301 214.328 86.7612 214.302Z" fill="#263238"/>
<path d="M85.3198 209.079C87.4022 209.194 89.4674 208.399 91.4583 207.89C91.5013 207.875 91.5401 207.85 91.5714 207.817C91.6028 207.784 91.6259 207.744 91.6388 207.7C91.6516 207.657 91.6539 207.611 91.6454 207.566C91.6369 207.521 91.6179 207.479 91.5899 207.443C91.5981 207.438 91.6049 207.43 91.6095 207.421C91.6142 207.412 91.6166 207.402 91.6166 207.392C91.6166 207.382 91.6142 207.372 91.6095 207.363C91.6049 207.354 91.5981 207.346 91.5899 207.34C89.8294 206.05 87.7629 205.242 85.5944 204.995C84.3301 204.881 82.6024 205.384 82.5681 206.946C82.5337 208.404 84.0955 209.011 85.3198 209.079ZM83.7637 207.872C81.9674 206.008 84.988 205.544 85.9205 205.67C86.5199 205.762 87.1124 205.893 87.694 206.065C88.8931 206.432 90.0714 206.863 91.2238 207.358C90.234 207.546 89.2672 207.821 88.2832 208.05C87.1104 208.319 84.7534 208.902 83.7637 207.872Z" fill="#263238"/>
<path d="M95.9604 199.99C94.6732 199.115 93.2602 200.23 92.6251 201.328C91.5674 203.238 91.0307 205.392 91.0691 207.575C91.0687 207.585 91.0707 207.595 91.0748 207.604C91.079 207.613 91.0853 207.621 91.0931 207.627C91.1009 207.633 91.11 207.637 91.1198 207.639C91.1295 207.641 91.1396 207.641 91.1492 207.638C91.1635 207.681 91.1874 207.72 91.2192 207.751C91.2511 207.783 91.2898 207.807 91.3325 207.822C91.3751 207.836 91.4206 207.841 91.4652 207.834C91.5098 207.828 91.5524 207.812 91.5897 207.787C93.1572 206.46 95.0222 205.235 96.1149 203.468C96.7613 202.432 97.1847 200.814 95.9604 199.99ZM93.5576 205.287C92.8025 205.962 92.0187 206.591 91.2693 207.289C91.5782 206.071 91.8414 204.846 92.259 203.662C92.4575 203.088 92.6945 202.528 92.9684 201.986C93.4032 201.157 95.5256 198.954 96.0119 201.5C96.2979 202.902 94.4558 204.486 93.5576 205.287Z" fill="#263238"/>
<path d="M46.738 93.8071C46.738 93.8071 50.7427 106.112 55.245 112.318C55.245 112.318 56.4235 157.819 58.2599 163.047C61.3091 171.702 85.005 206.705 85.005 206.705L106.716 191.707C106.716 191.707 84.0096 158.843 82.8196 155.696C82.0359 153.608 79.7361 117.541 80.0679 116.637C84.0725 105.723 78.0484 93.8071 78.0484 93.8071H46.738Z" fill="#6AA6DA"/>
<path d="M102.088 187.136C98.7982 189.304 99.7078 188.635 96.4469 190.843C94.8451 191.918 84.353 199.023 83.0429 200.293C83.0371 200.3 83.0338 200.308 83.0335 200.317C83.0331 200.326 83.0358 200.335 83.0411 200.342C83.0464 200.349 83.0539 200.355 83.0626 200.357C83.0712 200.36 83.0804 200.359 83.0887 200.356C84.742 199.583 95.1025 192.296 96.6815 191.203C99.9024 188.915 98.9699 189.55 102.151 187.244C102.208 187.187 102.145 187.096 102.088 187.136Z" fill="#263238"/>
<path d="M77.3219 115.322C77.648 113.903 78.0027 112.49 78.2201 111.049C78.4324 109.592 78.4938 108.118 78.4032 106.65C78.1712 103.675 77.6325 100.733 76.7956 97.8687C76.6011 97.1537 76.3952 96.4386 76.1835 95.7236C76.1434 95.5977 76.3494 95.5462 76.3837 95.6721C77.3351 98.473 78.0751 101.341 78.5977 104.253C79.0273 107.066 78.9518 109.933 78.3746 112.719C77.8025 115.579 76.9444 118.394 77.0588 121.363C77.116 122.901 78.9467 151.486 78.9467 152.974C78.8746 154.43 79.0685 155.888 79.5188 157.275C80.07 158.585 80.7463 159.837 81.5382 161.017C82.322 162.298 83.1115 163.568 83.9067 164.838C87.036 169.837 94.2043 179.957 97.5338 184.819L98.8096 186.667C98.8553 186.73 98.7523 186.787 98.7066 186.724C95.1997 181.89 87.8369 171.851 84.6332 166.806C83.0485 164.346 81.4295 161.88 79.9879 159.329C79.2821 158.147 78.8119 156.84 78.6034 155.479C78.4203 154.101 76.4867 120.996 76.6011 119.509C76.7368 118.097 76.9778 116.698 77.3219 115.322Z" fill="#263238"/>
<path d="M67.4134 97.9999C67.9569 100.214 67.8768 102.982 69.4501 104.807C70.2711 105.655 71.3452 106.213 72.5107 106.397C73.8295 106.652 75.1768 106.725 76.5154 106.615C76.5255 106.618 76.5342 106.625 76.5404 106.634C76.5466 106.642 76.5499 106.653 76.5499 106.663C76.5499 106.674 76.5466 106.685 76.5404 106.693C76.5342 106.702 76.5255 106.709 76.5154 106.712C74.1355 107.473 70.8345 107.347 69.0325 105.385C68.2568 104.455 67.7784 103.313 67.6594 102.107C67.4573 100.749 67.3465 99.3786 67.3276 98.0056C67.3318 97.9982 67.3378 97.9919 67.345 97.9874C67.3523 97.9828 67.3605 97.9802 67.369 97.9796C67.3775 97.979 67.386 97.9806 67.3938 97.9841C67.4015 97.9877 67.4083 97.9931 67.4134 97.9999Z" fill="#263238"/>
<path d="M55.0851 112.399C55.0925 112.358 55.1141 112.321 55.146 112.294C55.1778 112.268 55.2181 112.253 55.2596 112.253C55.3011 112.253 55.3413 112.268 55.3732 112.294C55.4051 112.321 55.4267 112.358 55.4341 112.399C55.5256 113.405 55.5085 114.418 55.5428 115.425C55.5771 116.431 55.5885 117.335 55.6172 118.285C55.6686 120.253 55.7087 122.215 55.7545 124.183C55.846 128.113 55.9604 132.037 56.1263 135.967C56.2922 139.897 56.4638 143.815 56.6641 147.739C56.767 149.701 56.8815 151.664 56.9959 153.62C57.0607 155.513 57.2518 157.399 57.568 159.266C58.3422 163.109 59.7827 166.788 61.8243 170.135C61.8758 170.209 61.7557 170.272 61.6984 170.198C59.5936 167.392 58.0831 164.186 57.259 160.776C56.3723 157.104 56.2751 153.3 56.0634 149.547C55.6172 141.618 55.3254 133.69 55.1252 125.756C55.0737 123.525 55.0222 121.294 55.0165 119.063C55.0165 117.976 55.0165 116.889 55.0165 115.802C55.0165 114.715 54.9936 113.537 55.0851 112.399Z" fill="#1E437D"/>
<path d="M51.0804 110.476C53.6834 111.38 56.2056 112.502 58.6205 113.829C58.6303 113.833 58.6391 113.839 58.6464 113.847C58.6537 113.855 58.6593 113.865 58.6631 113.875C58.6668 113.885 58.6685 113.895 58.668 113.906C58.6676 113.917 58.6651 113.928 58.6606 113.937C58.6561 113.947 58.6497 113.956 58.6418 113.963C58.6339 113.97 58.6246 113.976 58.6145 113.98C58.6044 113.984 58.5937 113.985 58.5829 113.985C58.5722 113.984 58.5616 113.982 58.5519 113.977C56.0118 112.936 53.4031 111.941 50.9431 110.768C50.7486 110.677 50.8802 110.413 51.0804 110.476Z" fill="#1E437D"/>
<path d="M50.3423 93.8756C50.3423 93.7955 50.5025 93.7726 50.5025 93.8756C50.5006 96.5813 50.6438 99.2852 50.9315 101.976C51.0459 103.223 52.0757 110.122 54.364 109.618C54.7416 109.538 54.9361 109.178 54.9991 108.634C54.9885 107.919 54.8866 107.207 54.6959 106.518C54.4441 105.07 54.2439 103.623 54.1238 102.164C53.8596 99.4481 53.8903 96.7111 54.2153 94.0014C54.2153 93.9817 54.2231 93.9628 54.2371 93.9488C54.251 93.9349 54.27 93.927 54.2897 93.927C54.3094 93.927 54.3283 93.9349 54.3423 93.9488C54.3562 93.9628 54.364 93.9817 54.364 94.0014C54.2942 97.7684 54.5256 101.535 55.0563 105.265C55.3366 107.061 56.2863 109.761 54.3183 110.036C52.3503 110.31 51.0173 105.791 50.7713 104.556C50.1455 101.031 50.0012 97.4386 50.3423 93.8756Z" fill="#1E437D"/>
<path d="M54.2783 109.796C54.4812 110.261 54.6532 110.738 54.7932 111.226C54.9353 111.59 55.0071 111.979 55.0048 112.37C55.0048 112.45 54.8904 112.456 54.8447 112.404C54.6111 112.052 54.4336 111.666 54.3183 111.26C54.1467 110.82 53.9636 110.379 53.8035 109.933C53.7005 109.664 54.1524 109.51 54.2783 109.796Z" fill="#1E437D"/>
<path d="M43.2434 73.7733C42.7026 77.4381 39.2939 95.3743 33.928 97.7056C27.4267 100.528 18.4018 101.715 14.098 101.074C11.6843 100.713 13.7373 88.8559 15.9487 88.9054C19.4307 88.9884 26.9176 87.9258 28.1608 87.6322C29.4041 87.3385 34.627 77.3362 38.2424 72.312C41.5022 67.8004 43.6254 71.1907 43.2434 73.7733Z" fill="#FFAE9D"/>
<path d="M7.97642 100.715C10.4179 101.505 16.047 101.176 17.3733 100.573C18.6996 99.9706 18.4429 90.3763 17.2362 89.4934C16.0294 88.6106 7.59759 86.5771 5.14639 87.5029C2.69518 88.4286 5.44418 99.8929 7.97642 100.715Z" fill="#FFAE9D"/>
<path d="M15.8595 88.8933C15.8595 88.8933 13.263 86.7893 11.7153 84.2853C10.4232 82.1737 8.74248 78.8938 7.58289 79.5463C5.19904 80.8848 9.39436 89.0638 9.39436 89.0638C9.39436 89.0638 11.823 92.3792 14.3011 91.2608C14.7548 91.0496 15.1408 90.7164 15.416 90.2983C15.6912 89.8803 15.8447 89.3938 15.8595 88.8933Z" fill="#FFAE9D"/>
<path d="M9.21119 86.8305C10.1005 87.8602 8.37932 88.3184 8.37932 88.3184C8.37932 88.3184 11.018 88.2565 11.5264 89.6689C12.0348 91.0812 9.91526 91.5201 9.7639 91.5565C9.90493 91.5528 12.3284 91.5562 12.6931 93.0334C13.073 94.5673 10.8827 94.6889 10.7408 94.6973C10.8727 94.734 12.6147 95.2845 12.6385 96.4685C12.6748 98.5022 8.17866 97.2209 6.7753 98.0817C6.7753 98.0817 7.95783 100.619 7.98474 100.709C7.98474 100.709 3.67255 99.5669 2.62437 97.619C2.46554 97.3367 2.40814 97.0086 2.46172 96.6894C2.51531 96.3701 2.67665 96.079 2.91887 95.8645C2.91887 95.8645 1.49624 95.6479 1.16844 94.4996C1.00252 93.9078 1.80552 93.1173 1.80552 93.1173C1.80552 93.1173 0.668949 92.899 0.443995 91.8589C0.2669 91.0214 1.09247 90.3628 1.09247 90.3628C1.09247 90.3628 0.0993562 89.6484 0.18783 88.7392C0.359563 86.9077 7.29247 84.6345 9.21119 86.8305Z" fill="#FFAE9D"/>
<path d="M1.20093 90.2426C1.19918 90.2455 1.19671 90.248 1.19377 90.2498C1.19083 90.2515 1.18751 90.2525 1.18409 90.2526C1.18067 90.2528 1.17726 90.2521 1.17418 90.2506C1.17111 90.2491 1.16845 90.2468 1.16646 90.244C1.16446 90.2412 1.16319 90.238 1.16276 90.2346C1.16233 90.2312 1.16276 90.2278 1.16399 90.2246C1.16523 90.2214 1.16723 90.2185 1.16984 90.2163C1.17244 90.2141 1.17556 90.2126 1.17891 90.2119C3.35326 88.8474 5.89199 88.1777 8.45754 88.2918C8.53985 88.3005 8.56164 88.4372 8.47416 88.4448C5.97501 88.6877 3.5249 89.2933 1.20093 90.2426Z" fill="#1E437D"/>
<path d="M1.75792 93.1217C1.73557 93.1377 1.71192 93.087 1.72789 93.0798C3.8964 91.7473 6.96026 90.9455 9.80128 91.4789C9.89919 91.4976 9.96689 91.6099 9.85301 91.5984C7.95856 91.3897 3.92587 92.1957 1.75792 93.1217Z" fill="#1E437D"/>
<path d="M10.9172 94.808C8.17945 94.3952 5.58537 94.9031 3.0051 95.8197C2.97717 95.8397 2.9571 95.7822 2.97307 95.775C4.11846 94.9846 5.82617 94.5784 7.18423 94.3802C8.44089 94.1674 9.73171 94.2892 10.9271 94.7333C10.9774 94.7268 10.9747 94.8175 10.9172 94.808Z" fill="#1E437D"/>
<path d="M8.40138 88.29C8.49887 88.2963 8.38043 88.4318 8.47713 88.443C8.88671 88.4839 11.3237 88.9428 11.4302 89.8351C11.5112 90.5384 10.6148 91.1336 10.1802 91.2289L9.08393 91.4681L10.1908 91.6273C10.6827 91.6916 11.1607 91.8368 11.6054 92.0569C11.8174 92.1474 12.008 92.2816 12.1647 92.4507C12.3215 92.6198 12.4408 92.82 12.515 93.0382C12.5807 93.2415 12.5749 93.461 12.4985 93.6603C12.4221 93.8596 12.2798 94.0267 12.0953 94.1338C11.6773 94.3655 11.2071 94.4867 10.7291 94.4859L9.40672 94.5274L10.6526 94.9044C11.0032 95.0115 11.3383 95.164 11.6493 95.3581C11.9524 95.5289 12.1981 95.7858 12.3552 96.0962C12.4239 96.2386 12.451 96.3975 12.4333 96.5545C12.4157 96.7116 12.3541 96.8604 12.2555 96.9838C11.9946 97.2256 11.6684 97.3856 11.3174 97.444C10.566 97.5868 9.80435 97.6696 9.03971 97.6915C8.65621 97.7165 8.26792 97.7407 7.88125 97.7849C7.49054 97.8074 7.10902 97.9119 6.76147 98.0916C7.1205 97.9534 7.50305 97.8864 7.88781 97.8943C8.27173 97.8817 8.65806 97.8843 9.05362 97.9056C9.83599 97.934 10.6192 97.8901 11.3934 97.7744C11.8145 97.7186 12.2098 97.54 12.53 97.261C12.6871 97.0903 12.7913 96.8777 12.83 96.6488C12.8686 96.42 12.8401 96.1848 12.7478 95.9717C12.5648 95.5806 12.2686 95.2533 11.8977 95.0323C11.5546 94.8115 11.1845 94.6358 10.7966 94.5094L10.7322 94.9447C11.2986 94.9544 11.8576 94.8153 12.3532 94.5413C12.622 94.3809 12.828 94.1335 12.937 93.84C13.0331 93.5473 13.0387 93.2323 12.9532 92.9361C12.8599 92.6598 12.7092 92.4064 12.5109 92.1926C12.3127 91.9788 12.0714 91.8094 11.803 91.6955C11.3102 91.4598 10.7816 91.3079 10.239 91.2461L10.266 91.6497C10.8107 91.5135 11.883 90.9574 11.9016 89.8444C11.6951 88.364 8.91194 88.2713 8.40138 88.29Z" fill="#1E437D"/>
<path d="M28.9922 85.5411L42.379 82.2404C43.2856 77.2545 43.8969 72.2194 44.2097 67.1614C44.6388 59.4331 41.8527 60.3941 36.6467 68.6201C33.3798 73.9087 30.8072 79.5958 28.9922 85.5411Z" fill="#A788CE"/>
<path d="M33.8603 78.2934C33.6666 78.7803 33.5452 79.2929 33.4999 79.815C33.8074 79.3932 34.0557 78.9312 34.2379 78.4421C34.4308 77.9589 34.5522 77.4501 34.5983 76.9319C34.2917 77.3502 34.0434 77.8082 33.8603 78.2934ZM41.2459 62.6651C41.1173 63.0347 41.0365 63.4192 41.0057 63.8092C41.3162 63.3884 41.5665 62.9263 41.7494 62.4363C41.7738 62.3746 41.7948 62.3116 41.8123 62.2476C41.6156 62.3756 41.4265 62.5151 41.2459 62.6651ZM40.6167 70.8625C40.1467 71.077 39.7079 71.3541 39.3123 71.6863C40.3457 71.5185 41.3176 71.0848 42.1327 70.4278C41.6097 70.502 41.0995 70.6483 40.6167 70.8625Z" fill="white"/>
<path d="M41.8182 79.7578C38.2295 80.8681 34.5815 81.7772 30.8914 82.4807C30.8456 82.4807 30.8399 82.4178 30.8914 82.4064C31.7838 82.2348 37.7049 80.5072 41.8297 79.6777C41.864 79.6949 41.864 79.7407 41.8182 79.7578Z" fill="#1E437D"/>
<path opacity="0.1" d="M44.2094 67.1611C43.8966 72.2191 43.2853 77.2543 42.3787 82.2402L36.3146 83.7332L43.3455 62.0356C44.0492 62.5333 44.3696 64.2494 44.2094 67.1611Z" fill="black"/>
<path d="M44.7014 100.671L79.347 93.8069C79.347 93.8069 67.9453 70.3531 51.2003 61.2748C47.3272 59.1697 41.3375 60.7028 40.7368 64.3924C38.683 77.1032 44.7014 100.671 44.7014 100.671Z" fill="#A788CE"/>
<path d="M50.1537 69.8841C49.9562 70.3682 49.8328 70.8792 49.7875 71.4C50.1002 70.9826 50.3507 70.5221 50.5313 70.0328C50.7247 69.5475 50.848 69.0371 50.8974 68.5169C50.5884 68.9367 50.3381 69.3966 50.1537 69.8841ZM47.0129 90.695C46.8182 91.1783 46.693 91.6868 46.6411 92.2052C46.9559 91.7871 47.2065 91.3244 47.3848 90.8323C47.5763 90.3484 47.6996 89.8401 47.7509 89.3221C47.44 89.7418 47.1914 90.2042 47.0129 90.695ZM58.8037 88.5384C58.6114 89.0242 58.4882 89.5344 58.4375 90.0543C58.7477 89.6344 58.9997 89.1745 59.187 88.6872C59.3793 88.2038 59.5007 87.6951 59.5474 87.177C59.2379 87.5944 58.9877 88.0525 58.8037 88.5384ZM41.0689 63.3685C41.0689 63.5116 41.0232 63.6488 41.0117 63.7976C41.3223 63.3768 41.5726 62.9147 41.7554 62.4247C41.7579 62.3961 41.7579 62.3674 41.7554 62.3389C41.4721 62.6458 41.2385 62.9951 41.0632 63.3743L41.0689 63.3685ZM65.3197 73.0361C65.1767 72.9617 65.0337 72.9045 64.8907 72.8416C64.4072 72.6493 63.8985 72.5279 63.3804 72.4812C63.7951 72.7948 64.2539 73.0454 64.7419 73.2248C65.0646 73.3435 65.3954 73.439 65.7316 73.5109C65.5943 73.3564 65.457 73.1962 65.314 73.0418L65.3197 73.0361ZM67.139 92.3311C66.6559 92.1375 66.1471 92.0161 65.6287 91.9707C66.4703 92.5795 67.4563 92.9581 68.4891 93.069C68.0717 92.7657 67.6158 92.5195 67.1333 92.3368L67.139 92.3311ZM46.4122 78.1845C45.9292 77.9879 45.4207 77.8608 44.9019 77.8069C45.3198 78.1202 45.7802 78.3726 46.2692 78.5563C46.7544 78.7492 47.2651 78.8706 47.7852 78.9167C47.3633 78.6091 46.8988 78.3643 46.4065 78.1902L46.4122 78.1845ZM74.4445 86.9596C74.237 86.4815 73.9635 86.0348 73.6322 85.6325C73.7976 86.6654 74.2294 87.6374 74.885 88.4526C74.8148 87.94 74.6742 87.4396 74.4674 86.9653L74.4445 86.9596ZM57.9398 76.0908C57.7312 75.6115 57.4579 75.163 57.1274 74.7579C57.201 75.2769 57.3514 75.782 57.5737 76.2567C57.7784 76.735 58.05 77.1818 58.3803 77.5838C58.307 77.0792 58.1665 76.5867 57.9627 76.1194L57.9398 76.0908ZM66.1435 82.4118C65.6638 82.6139 65.2166 82.8857 64.8163 83.2184C65.3316 83.1448 65.833 82.9944 66.3037 82.7722C66.7844 82.572 67.2319 82.3001 67.631 81.9657C67.122 82.0505 66.6284 82.2106 66.1664 82.4405L66.1435 82.4118ZM53.4489 95.7118C52.969 95.9159 52.5217 96.1896 52.1217 96.5241C52.6364 96.4478 53.1374 96.2976 53.6091 96.0779C54.0879 95.8717 54.5348 95.5982 54.9363 95.2657C54.4216 95.342 53.9206 95.4922 53.4489 95.7118ZM40.617 70.8623L40.2909 71.0282V71.4172C40.4589 71.3653 40.6233 71.3022 40.7829 71.2284C41.2614 71.0217 41.7083 70.7482 42.1101 70.4161C41.5944 70.496 41.092 70.6462 40.617 70.8623ZM52.3105 83.8477C51.8294 84.0496 51.3819 84.3235 50.9832 84.66C51.4985 84.5864 51.9999 84.436 52.4706 84.2138C52.9517 84.0118 53.3992 83.7379 53.7979 83.4015C53.2918 83.4833 52.7991 83.6334 52.3333 83.8477H52.3105ZM56.275 64.5698C56.2384 64.5913 56.204 64.6162 56.172 64.6442C56.2263 64.6402 56.28 64.6307 56.3322 64.6156L56.275 64.5698Z" fill="white"/>
<path d="M50.9142 63.1053C57.9681 60.8744 76.3035 55.9033 79.2554 50.3774C83.1342 43.1239 80.3081 26.8779 78.3516 24.1492C77.276 22.6448 67.0299 26.7349 65.9544 28.3938C64.8789 30.0527 66.8297 42.6548 66.4407 44.0849C66.0517 45.515 53.3799 53.3806 47.8135 57.9226C40.794 63.6774 45.3764 64.8558 50.9142 63.1053Z" fill="#FFAE9D"/>
<path d="M69.5417 57.5679L58.0484 49.9482C58.0484 49.9482 53.8264 52.9629 47.8481 57.8825C41.8698 62.802 42.2416 65.8911 51.8527 64.1749C61.4638 62.4588 69.5417 57.5679 69.5417 57.5679Z" fill="#A788CE"/>
<path d="M60.5824 56.4585C60.099 56.2662 59.5903 56.1448 59.0721 56.0981C59.4903 56.4064 59.9483 56.6566 60.4337 56.8418C60.9191 57.0341 61.4297 57.1555 61.9497 57.2022C61.5309 56.8917 61.0706 56.6414 60.5824 56.4585ZM50.5251 59.6219C50.3197 59.1427 50.0461 58.6957 49.7128 58.2948C49.788 58.8109 49.9363 59.3136 50.1533 59.7878C50.3587 60.267 50.6323 60.714 50.9656 61.115C50.8913 60.5987 50.7429 60.0959 50.5251 59.6219Z" fill="white"/>
<path d="M56.595 52.0537C59.8467 53.944 62.9905 56.0142 66.0116 58.2546C66.0459 58.2546 66.0116 58.3347 65.9601 58.3061C65.2278 57.7341 59.9475 54.5821 56.5435 52.1109C56.5035 52.0823 56.555 52.0251 56.595 52.0537Z" fill="#1E437D"/>
<path d="M51.8239 64.1638C52.304 63.9844 52.7976 63.8429 53.2998 63.7405C53.8015 63.6208 54.3126 63.5442 54.8273 63.5117C54.3622 63.7404 53.8702 63.9095 53.3628 64.0151C52.8588 64.1333 52.3412 64.1834 51.8239 64.1638Z" fill="#1E437D"/>
<path d="M52.5907 64.4669C52.9554 64.213 53.3378 63.9855 53.7349 63.7861C53.6 63.9712 53.4237 64.122 53.22 64.2266C53.0235 64.3379 52.8114 64.4189 52.5907 64.4669Z" fill="#1E437D"/>
<path d="M43.0196 67.5733C44.9247 67.6133 47.3275 63.8893 48.0712 61.3838C48.1227 61.2122 47.6478 59.9251 47.03 57.9515C46.6581 56.7731 46.2691 55.4517 46.0059 54.2161C45.9544 53.9644 38.6775 57.757 38.6775 57.757C39.4506 59.205 40.0442 60.7417 40.4452 62.3334C40.4775 62.5052 40.4967 62.6792 40.5025 62.8539C40.5 62.8825 40.5 62.9112 40.5025 62.9398C40.5597 63.958 41.189 67.5332 43.0196 67.5733Z" fill="#FFAE9D"/>
<path d="M41.3089 62.8308C41.046 62.8965 40.7781 62.9405 40.508 62.9624C40.5055 62.9339 40.5055 62.9052 40.508 62.8766C40.5022 62.7019 40.4831 62.5279 40.4508 62.3561C40.0505 60.765 39.4588 59.2284 38.6887 57.7797C38.6887 57.7797 44.5869 54.7021 45.7998 54.2788C45.857 55.7604 45.8455 61.7497 41.3089 62.8308Z" fill="#1D293F"/>
<path d="M43.2256 44.9374C45.0678 47.2255 46.7325 55.2799 45.5598 57.6996C43.8435 61.212 39.5643 63.2141 36.2004 60.823C32.9395 58.5348 30.9601 47.9635 32.4132 45.6066C34.5471 42.1401 40.5025 41.568 43.2256 44.9374Z" fill="#FFAE9D"/>
<path d="M38.9633 52.2368C38.9633 52.2368 39.009 52.2368 39.0147 52.2769C39.112 52.8203 39.318 53.4209 39.8443 53.5068V53.5411C39.2321 53.5926 38.969 52.8089 38.9633 52.2368Z" fill="#1D293F"/>
<path d="M39.3296 51.579C40.1877 51.3273 40.6282 53.0663 39.8273 53.2952C39.0264 53.524 38.6088 51.7907 39.3296 51.579Z" fill="#1D293F"/>
<path d="M35.7425 52.9805C35.7425 52.9805 35.7081 53.0205 35.7425 53.0377C35.8969 53.5754 35.977 54.1818 35.5365 54.5078C35.5365 54.5078 35.5365 54.5479 35.5365 54.5421C36.0914 54.3076 35.9713 53.461 35.7425 52.9805Z" fill="#1D293F"/>
<path d="M35.119 52.5402C34.2379 52.6946 34.6098 54.4451 35.4279 54.3021C36.246 54.1591 35.8627 52.4143 35.119 52.5402Z" fill="#1D293F"/>
<path d="M39.7988 50.3775C39.5558 50.4069 39.3113 50.4221 39.0665 50.4233C38.8097 50.4775 38.5422 50.4453 38.3056 50.3318C38.2388 50.2813 38.1903 50.2104 38.1676 50.1299C38.1449 50.0493 38.1491 49.9635 38.1798 49.8856C38.2659 49.7421 38.3887 49.6241 38.5355 49.5437C38.6822 49.4633 38.8477 49.4233 39.015 49.4279C39.3535 49.3829 39.6965 49.4666 39.9761 49.6625C40.0388 49.7097 40.0862 49.7744 40.1125 49.8484C40.1387 49.9223 40.1426 50.0024 40.1237 50.0786C40.1048 50.1548 40.064 50.2237 40.0062 50.2769C39.9484 50.33 39.8763 50.365 39.7988 50.3775Z" fill="#1D293F"/>
<path d="M34.2324 51.8365C34.4532 51.7317 34.6672 51.6133 34.8731 51.4818C35.1103 51.3869 35.3107 51.2185 35.4452 51.0013C35.4762 50.9229 35.4802 50.8364 35.4563 50.7555C35.4325 50.6747 35.3822 50.6041 35.3136 50.5551C35.1644 50.4797 34.9979 50.4453 34.8311 50.4553C34.6642 50.4654 34.503 50.5195 34.364 50.6123C34.0524 50.7573 33.8071 51.0148 33.6775 51.3331C33.6476 51.4088 33.6415 51.4917 33.66 51.571C33.6785 51.6502 33.7207 51.7219 33.7809 51.7766C33.8412 51.8312 33.9167 51.8662 33.9973 51.8769C34.078 51.8876 34.16 51.8735 34.2324 51.8365Z" fill="#1D293F"/>
<path d="M39.821 57.6659C39.7238 57.826 39.6437 58.032 39.4492 58.0949C39.2474 58.1378 39.0388 58.1378 38.837 58.0949C38.837 58.0949 38.837 58.0949 38.837 58.1292C38.9411 58.2162 39.0669 58.2733 39.2009 58.2945C39.3349 58.3157 39.4721 58.3 39.5979 58.2493C39.7003 58.1958 39.7841 58.1124 39.8382 58.0103C39.8924 57.9082 39.9143 57.7921 39.9011 57.6773C39.884 57.643 39.8382 57.643 39.821 57.6659Z" fill="#1D293F"/>
<path d="M37.3456 55.5831C37.214 55.6975 36.4461 56.2466 36.4004 56.0292C35.9796 54.1504 35.7496 52.2339 35.7139 50.3088C35.7139 50.2952 35.7193 50.2821 35.7289 50.2724C35.7386 50.2628 35.7517 50.2573 35.7654 50.2573C35.779 50.2573 35.7921 50.2628 35.8018 50.2724C35.8114 50.2821 35.8168 50.2952 35.8168 50.3088C36.2173 52.0249 36.3088 53.8383 36.6864 55.5831C36.9281 55.3871 37.3456 55.2068 37.9027 54.7374C38.5 54.2343 37.9027 55.0867 37.3456 55.5831Z" fill="#1D293F"/>
<path d="M37.4297 57.2541C37.7237 57.4699 38.0686 57.6059 38.4308 57.6488C38.63 57.667 38.8298 57.623 39.0029 57.5229C39.3748 57.2998 39.2775 56.9223 39.1116 56.6306C39.021 56.4729 38.9115 56.3269 38.7855 56.1958C38.4604 56.6863 37.9845 57.0578 37.4297 57.2541Z" fill="#1D293F"/>
<path d="M38.4307 57.6491C38.6298 57.6673 38.8297 57.6233 39.0028 57.5232C39.3747 57.3001 39.2774 56.9226 39.1115 56.6309C38.8996 56.6986 38.717 56.8362 38.5933 57.0211C38.4697 57.2061 38.4124 57.4274 38.4307 57.6491Z" fill="#EE684E"/>
<path d="M46.4577 50.7782C44.4268 51.682 42.4531 49.5883 42.2014 47.4146C42.2014 47.4146 36.9267 50.1546 35.0503 45.8014C34.8816 46.5443 34.5323 47.2342 34.0334 47.8099C33.5345 48.3856 32.9013 48.8294 32.1899 49.1021V50.9669C31.5606 51.007 30.3706 49.6112 31.3031 47.8436C30.9075 46.4462 31.0674 44.95 31.7493 43.6677C32.0525 43.1256 32.506 42.6828 33.0551 42.3925C33.6043 42.1022 34.2256 41.9769 34.8443 42.0316C35.5556 40.9831 36.6472 40.2526 37.8878 39.9952C38.5384 39.8723 39.2088 39.9063 39.8436 40.0944C40.4783 40.2824 41.0591 40.619 41.5378 41.0763C41.5378 41.0763 44.4726 40.6073 45.6454 42.3863C45.9855 42.8821 46.2182 43.4436 46.3286 44.0347C46.4389 44.6258 46.4245 45.2334 46.2861 45.8186C46.2861 45.8186 47.2529 46.3334 47.5046 48.1067C47.6191 49.2966 47.0641 50.5208 46.4577 50.7782Z" fill="#1D293F"/>
<path d="M35.0276 45.3721C35.1165 45.7487 35.245 46.115 35.4109 46.4647C35.5622 46.8122 35.7542 47.1406 35.983 47.4429C36.4394 48.0443 37.105 48.4526 37.848 48.587C38.5974 48.6879 39.3602 48.6095 40.0734 48.3581C40.4338 48.2208 40.8 48.1007 41.1489 47.9405C41.4979 47.7804 41.8412 47.5973 42.1958 47.4371C41.8755 47.6488 41.5379 47.849 41.2061 48.0607C40.8743 48.2723 40.5025 48.3925 40.142 48.5583C39.3993 48.8517 38.5948 48.954 37.8022 48.8558C36.9998 48.7048 36.2878 48.2472 35.8171 47.5802C35.3736 46.9216 35.1022 46.1625 35.0276 45.3721Z" fill="#1D293F"/>
<path d="M41.4918 41.0761C42.1982 40.8285 42.9476 40.7273 43.6944 40.7786C44.4671 40.8182 45.2009 41.1303 45.7653 41.6596C46.0294 41.9389 46.2459 42.2597 46.4061 42.6091C46.5789 42.9474 46.6912 43.3133 46.7379 43.6903C46.8465 44.4443 46.6689 45.2116 46.2402 45.8412C46.5645 45.186 46.6669 44.4431 46.5319 43.7246C46.3992 43.0213 46.0653 42.3715 45.5708 41.854C45.3194 41.6133 45.0268 41.4195 44.707 41.282C44.3739 41.1499 44.0263 41.0577 43.6715 41.0074C42.9458 40.9163 42.2103 40.9394 41.4918 41.0761Z" fill="#1D293F"/>
<path d="M34.7988 42.0312C34.2157 42.0295 33.6361 42.1222 33.0826 42.3057C32.5341 42.4815 32.0398 42.7946 31.6466 43.2153C31.2697 43.6545 31.0099 44.1818 30.8915 44.7484C30.7691 45.3272 30.7324 45.9208 30.7828 46.5102C30.6275 45.9226 30.5944 45.3093 30.6855 44.7083C30.7594 44.0861 31.024 43.5021 31.4429 43.0361C31.8617 42.5701 32.4145 42.2451 33.0253 42.1055C33.6043 41.9538 34.2092 41.9284 34.7988 42.0312Z" fill="#1D293F"/>
<path d="M33.1052 48.9702C33.6348 48.5417 34.0908 48.0297 34.4554 47.4543C34.6299 47.1702 34.7665 46.8644 34.8615 46.5447C34.9527 46.2143 35.0064 45.8747 35.0217 45.5322C35.1114 45.8778 35.127 46.2385 35.0675 46.5905C35.0081 46.9474 34.8798 47.2893 34.6899 47.5973C34.5021 47.9019 34.2686 48.1759 33.9977 48.4096C33.7321 48.643 33.4308 48.8322 33.1052 48.9702Z" fill="#1D293F"/>
<path d="M34.8617 56.3728C33.9463 56.5615 32.9623 55.5948 32.6706 54.2162C32.3788 52.8375 32.888 51.5504 33.8148 51.3559C34.7415 51.1614 35.7141 52.1282 36.0058 53.5125C36.2976 54.8969 35.777 56.1783 34.8617 56.3728ZM33.872 51.6934C33.1397 51.8479 32.7564 52.9462 33.0081 54.1418C33.2598 55.3374 34.0607 56.1897 34.793 56.0352C35.5253 55.8808 35.9372 54.7825 35.6512 53.5812C35.3651 52.3799 34.5985 51.539 33.872 51.6934Z" fill="#1E437D"/>
<path d="M40.4796 55.1829C39.9837 55.3233 39.457 55.3112 38.968 55.1483C38.4791 54.9854 38.0504 54.6791 37.7378 54.2694C37.4252 53.8597 37.2431 53.3654 37.2152 52.8508C37.1873 52.3362 37.3148 51.8251 37.5812 51.3839C37.8476 50.9428 38.2405 50.5919 38.709 50.377C39.1774 50.1621 39.6997 50.0931 40.2079 50.1789C40.7161 50.2648 41.1867 50.5015 41.5586 50.8583C41.9305 51.2151 42.1864 51.6755 42.2931 52.1797C42.4472 52.8182 42.3432 53.4918 42.0037 54.0541C41.6641 54.6163 41.1165 55.022 40.4796 55.1829ZM39.4727 50.5208C39.0294 50.5835 38.6152 50.7784 38.2844 51.0801C37.9536 51.3818 37.7215 51.7763 37.6185 52.212C37.5154 52.6478 37.5462 53.1044 37.7068 53.5224C37.8674 53.9403 38.1504 54.3 38.5187 54.5546C38.8871 54.8092 39.3236 54.9468 39.7714 54.9494C40.2191 54.9519 40.6573 54.8194 41.0285 54.569C41.3997 54.3187 41.6868 53.9622 41.8522 53.5461C42.0176 53.1301 42.0536 52.6738 41.9556 52.2369C41.8512 51.6815 41.5319 51.1898 41.067 50.8684C40.6021 50.5471 40.0292 50.4222 39.4727 50.5208Z" fill="#1E437D"/>
<path d="M37.6763 52.9176C36.3262 52.746 35.8457 53.278 35.8399 53.2837L35.5768 53.0606C35.5768 53.032 36.1489 52.3799 37.7164 52.5801L37.6763 52.9176Z" fill="#1E437D"/>
<path d="M42.0754 51.9965L41.9438 51.6761C42.1555 51.5903 45.5194 50.1831 46.0686 50.0344C46.6178 49.8856 48.1796 50.3547 48.357 50.4062L48.254 50.7323C47.5899 50.4987 46.8926 50.3732 46.1887 50.3604C45.7654 50.4806 43.8375 51.2643 42.0754 51.9965Z" fill="#1E437D"/>
<path d="M44.261 51.6646C44.261 51.6646 45.039 48.5641 46.3834 48.7529C47.7278 48.9417 47.7908 52.9746 46.6695 53.9585C46.5348 54.0944 46.3739 54.2016 46.1967 54.2737C46.0194 54.3459 45.8294 54.3814 45.6381 54.3782C45.4468 54.375 45.2581 54.3331 45.0834 54.2551C44.9086 54.1771 44.7515 54.0645 44.6214 53.9242L44.261 51.6646Z" fill="#FFAE9D"/>
<path d="M46.3722 49.9028V49.9372C45.5941 50.6522 45.4397 51.6876 45.4339 52.6944C45.4531 52.5832 45.4959 52.4773 45.5595 52.3841C45.6231 52.2908 45.7059 52.2122 45.8024 52.1536C45.8989 52.0951 46.0069 52.0579 46.119 52.0446C46.2311 52.0313 46.3447 52.0422 46.4522 52.0766C46.4866 52.0766 46.4522 52.1281 46.4522 52.1338C46.272 52.1451 46.0996 52.2116 45.9584 52.3241C45.8172 52.4367 45.714 52.5899 45.6628 52.763C45.5818 53.0525 45.5319 53.3497 45.514 53.6497C45.514 53.747 45.3367 53.7584 45.331 53.6497C44.879 52.4713 45.1937 50.5206 46.3722 49.9028Z" fill="#1D293F"/>
<path d="M40.2506 64.3069C40.6625 65.8171 41.7209 69.2894 44.1408 68.2425C45.0883 67.7595 45.8812 67.0202 46.4292 66.1088C47.0027 65.2615 47.4823 64.3542 47.8594 63.4031C48.3129 62.3619 48.6784 61.2846 48.9521 60.1824C48.9521 60.1367 49.0322 60.1824 49.0264 60.1824C48.8684 61.3053 48.5844 62.4067 48.1797 63.466C47.8103 64.5222 47.2983 65.523 46.658 66.4406C46.0709 67.3832 45.2221 68.1345 44.2152 68.6029C43.774 68.7844 43.2846 68.812 42.8258 68.6812C42.367 68.5504 41.9657 68.269 41.6866 67.8821C40.9295 66.822 40.4371 65.5961 40.2506 64.3069Z" fill="#1E437D"/>
<path d="M64.3528 30.1787C64.165 29.7333 64.1231 29.2399 64.2331 28.7693C64.343 28.2986 64.5992 27.8748 64.9649 27.5587C64.9649 27.5587 62.8253 27.1297 62.4477 25.3735C62.2532 24.464 63.5404 23.3485 63.5404 23.3485C63.5404 23.3485 61.8242 22.9309 61.6068 21.3464C61.4123 20.0821 62.7509 19.1497 62.7509 19.1497C62.7509 19.1497 61.3207 18.0056 61.5381 16.6384C61.9901 13.8984 72.6995 11.0324 75.3826 14.499C76.6298 16.1122 73.9753 16.6728 73.9753 16.6728C73.9753 16.6728 77.9799 16.7815 78.6092 18.9609C79.2385 21.1404 75.7488 21.6495 75.7488 21.6495C75.7488 21.6495 79.6275 21.7926 80.0509 24.1093C80.4914 26.5233 76.9158 26.449 76.9158 26.449C76.9158 26.449 79.7191 27.41 79.6332 29.2634C79.4902 32.3239 73.7236 30.0643 71.5153 31.2484L71.5497 35.35C71.5497 35.35 65.0736 31.9921 64.3528 30.1787Z" fill="#FFAE9D"/>
<path d="M62.928 18.9722C62.8937 18.9722 62.8708 18.9378 62.8994 18.9207C66.3214 17.052 70.226 16.2548 74.1066 16.6325C74.2325 16.6325 74.2554 16.8556 74.1066 16.8613C70.2988 17.0284 66.5345 17.7392 62.928 18.9722Z" fill="#1E437D"/>
<path d="M63.5004 23.3372C63.4603 23.3372 63.4375 23.2857 63.5004 23.2686C66.9329 21.438 71.6355 20.4713 75.8746 21.5124C76.0177 21.5467 76.1149 21.724 75.9433 21.6954C73.0314 21.2206 66.8585 22.1245 63.5004 23.3372Z" fill="#1E437D"/>
<path d="M77.1847 26.6092C73.0829 25.774 69.1069 26.3289 65.1022 27.4787C65.0508 27.4787 65.0336 27.4158 65.0736 27.3929C66.8872 26.3003 69.513 25.8312 71.584 25.6367C73.5088 25.4272 75.4549 25.7229 77.2305 26.4948C77.2877 26.4948 77.2705 26.6264 77.1847 26.6092Z" fill="#1E437D"/>
<path d="M177.809 7.14258H79.3754C78.0554 7.15454 76.7507 7.42638 75.5357 7.94257C74.3208 8.45875 73.2194 9.20917 72.2945 10.151C71.3696 11.0928 70.6393 12.2076 70.1453 13.4316C69.6513 14.6556 69.4033 15.965 69.4153 17.2849V219.902C69.3925 222.568 70.4287 225.133 72.2962 227.035C74.1638 228.936 76.71 230.019 79.3754 230.045H177.809C180.475 230.019 183.023 228.937 184.892 227.035C186.761 225.134 187.8 222.569 187.78 219.902V17.2849C187.802 14.6182 186.763 12.052 184.894 10.1503C183.024 8.24855 180.476 7.16675 177.809 7.14258ZM181.55 213.65C181.55 218.981 177.546 223.295 172.631 223.295H84.5699C79.6328 223.295 75.6339 218.981 75.6339 213.65V24.9674C75.6339 14.0986 79.6385 13.5723 84.5699 13.5723H102.207C103.237 13.5723 104.072 14.7164 104.072 16.1809V16.8044C104.072 20.1852 105.926 20.1966 108.197 20.1966H148.987C151.275 20.1966 153.123 20.1966 153.123 16.8044V16.198C153.123 14.7507 153.953 13.5895 154.994 13.5895H172.631C177.557 13.5895 181.55 15.031 181.55 24.9846V213.65Z" fill="#1D293F"/>
<path d="M181.556 25.1334V213.805C181.556 219.136 177.551 223.449 172.637 223.449H84.5757C79.6385 223.449 75.6396 219.136 75.6396 213.805V25.1334C75.6396 14.2646 79.6443 13.7383 84.5757 13.7383H102.219C103.243 13.7383 104.078 14.8824 104.078 16.3468V16.9703C104.078 20.3511 105.932 20.3625 108.203 20.3625H148.993C151.281 20.3625 153.129 20.3625 153.129 16.9703V16.3468C153.129 14.8995 153.958 13.7383 155 13.7383H172.637C177.563 13.7383 181.556 15.1798 181.556 25.1334Z" fill="white"/>
<path d="M181.556 25.1334V42.2489H75.6396V25.1334C75.6396 14.2646 79.6443 13.7383 84.5757 13.7383H102.219C103.243 13.7383 104.078 14.8824 104.078 16.3468V16.9703C104.078 20.3511 105.932 20.3625 108.203 20.3625H148.993C151.281 20.3625 153.129 20.3625 153.129 16.9703V16.3468C153.129 14.9053 153.958 13.7383 155 13.7383H172.637C177.563 13.7383 181.556 15.1856 181.556 25.1334Z" fill="#6AA6DA"/>
<path d="M134.158 15.9691H123.031C122.849 15.9691 122.675 15.8968 122.546 15.768C122.417 15.6393 122.345 15.4647 122.345 15.2826C122.345 15.1006 122.417 14.926 122.546 14.7973C122.675 14.6685 122.849 14.5962 123.031 14.5962H134.158C134.341 14.5962 134.515 14.6685 134.644 14.7973C134.773 14.926 134.845 15.1006 134.845 15.2826C134.846 15.373 134.828 15.4626 134.794 15.5462C134.76 15.6299 134.709 15.7058 134.646 15.7697C134.582 15.8336 134.506 15.8842 134.422 15.9184C134.338 15.9526 134.249 15.9699 134.158 15.9691Z" fill="white"/>
<path d="M99.1639 17.8056L98.9922 17.9772C98.9922 18.0115 98.9293 18.0401 98.895 18.0745C98.4594 17.6392 97.8689 17.3947 97.2531 17.3947C96.6373 17.3947 96.0468 17.6392 95.6112 18.0745L95.5197 17.9829L95.3538 17.8113L95.5654 17.6225C95.7194 17.4955 95.8885 17.3879 96.0689 17.3022C96.2773 17.199 96.4986 17.124 96.7268 17.0791L97.0586 17.0391H97.3446C97.419 17.0391 97.4991 17.0391 97.5735 17.0391C97.779 17.0609 97.9809 17.1089 98.1742 17.1821C98.3177 17.2328 98.4557 17.298 98.5861 17.3766C98.7258 17.4536 98.858 17.5436 98.9808 17.6454L99.1581 17.8113L99.1639 17.8056Z" fill="white"/>
<path d="M96.1488 18.6121L95.8799 18.3433C96.1713 18.0345 96.5582 17.833 96.9783 17.7712C97.2763 17.7272 97.5804 17.7535 97.8665 17.8478C98.1525 17.9422 98.4126 18.102 98.6259 18.3147C98.5344 18.4062 98.4485 18.4977 98.357 18.5835C98.0633 18.2927 97.6662 18.1302 97.2529 18.1316C97.046 18.1337 96.8417 18.1773 96.6521 18.2599C96.4624 18.3424 96.2913 18.4622 96.1488 18.6121Z" fill="white"/>
<path d="M98.0882 18.881L97.8193 19.1442C97.7442 19.0696 97.6548 19.0109 97.5565 18.9716C97.4582 18.9323 97.353 18.9132 97.2472 18.9153C97.1408 18.9126 97.035 18.932 96.9365 18.9724C96.838 19.0128 96.749 19.0732 96.6751 19.1499L96.4062 18.881C96.5134 18.7649 96.6434 18.6722 96.7882 18.6088C96.9329 18.5454 97.0892 18.5127 97.2472 18.5127C97.4052 18.5127 97.5615 18.5454 97.7063 18.6088C97.851 18.6722 97.981 18.7649 98.0882 18.881Z" fill="white"/>
<path d="M97.4989 19.3902C97.5 19.4391 97.4866 19.4872 97.4602 19.5284C97.4339 19.5696 97.3959 19.602 97.3511 19.6215C97.3062 19.641 97.2566 19.6467 97.2085 19.6379C97.1604 19.629 97.116 19.6061 97.0811 19.5719C97.0461 19.5378 97.0221 19.4939 97.0121 19.4461C97.0022 19.3982 97.0067 19.3485 97.0251 19.3032C97.0436 19.2579 97.0751 19.2191 97.1156 19.1919C97.1562 19.1646 97.204 19.15 97.2529 19.15C97.2849 19.1492 97.3168 19.1549 97.3466 19.1666C97.3764 19.1783 97.4036 19.1959 97.4265 19.2183C97.4494 19.2407 97.4676 19.2674 97.4801 19.2969C97.4925 19.3265 97.4989 19.3582 97.4989 19.3902Z" fill="white"/>
<path d="M82.5447 18.326C82.5436 18.1866 82.5839 18.05 82.6605 17.9336C82.7371 17.8171 82.8466 17.726 82.9751 17.6719C83.1036 17.6178 83.2452 17.603 83.3821 17.6295C83.519 17.656 83.6449 17.7226 83.7439 17.8208C83.8429 17.9189 83.9105 18.0443 83.9381 18.1809C83.9657 18.3176 83.9521 18.4593 83.899 18.5882C83.8459 18.7171 83.7557 18.8274 83.6399 18.9049C83.5241 18.9825 83.3878 19.0239 83.2484 19.0239C83.0627 19.0239 82.8846 18.9506 82.7528 18.8199C82.621 18.6891 82.5462 18.5117 82.5447 18.326Z" fill="white"/>
<path d="M84.753 18.326C84.7518 18.1866 84.7921 18.05 84.8688 17.9336C84.9454 17.8171 85.0549 17.726 85.1834 17.6719C85.3118 17.6178 85.4535 17.603 85.5904 17.6295C85.7272 17.656 85.8531 17.7226 85.9521 17.8208C86.0511 17.9189 86.1187 18.0443 86.1463 18.1809C86.1739 18.3176 86.1603 18.4593 86.1073 18.5882C86.0542 18.7171 85.964 18.8274 85.8481 18.9049C85.7323 18.9825 85.596 19.0239 85.4566 19.0239C85.271 19.0239 85.0929 18.9506 84.9611 18.8199C84.8293 18.6891 84.7545 18.5117 84.753 18.326Z" fill="white"/>
<path d="M86.9555 18.326C86.9543 18.1866 86.9946 18.05 87.0713 17.9336C87.1479 17.8171 87.2574 17.726 87.3859 17.6719C87.5143 17.6178 87.656 17.603 87.7929 17.6295C87.9297 17.656 88.0557 17.7226 88.1546 17.8208C88.2536 17.9189 88.3212 18.0443 88.3488 18.1809C88.3764 18.3176 88.3629 18.4593 88.3098 18.5882C88.2567 18.7171 88.1665 18.8274 88.0507 18.9049C87.9348 18.9825 87.7985 19.0239 87.6591 19.0239C87.4735 19.0239 87.2954 18.9506 87.1636 18.8199C87.0318 18.6891 86.957 18.5117 86.9555 18.326Z" fill="white"/>
<path d="M89.1753 18.326C89.1742 18.1866 89.2145 18.05 89.2911 17.9336C89.3677 17.8171 89.4772 17.726 89.6057 17.6719C89.7342 17.6178 89.8758 17.603 90.0127 17.6295C90.1496 17.656 90.2755 17.7226 90.3745 17.8208C90.4735 17.9189 90.5411 18.0443 90.5687 18.1809C90.5963 18.3176 90.5827 18.4593 90.5296 18.5882C90.4765 18.7171 90.3863 18.8274 90.2705 18.9049C90.1547 18.9825 90.0184 19.0239 89.879 19.0239C89.6933 19.0239 89.5152 18.9506 89.3834 18.8199C89.2516 18.6891 89.1768 18.5117 89.1753 18.326Z" fill="white"/>
<path d="M91.3892 18.3259C91.3881 18.187 91.4281 18.0509 91.5042 17.9347C91.5804 17.8185 91.6892 17.7275 91.817 17.673C91.9448 17.6186 92.0859 17.6032 92.2224 17.6287C92.359 17.6543 92.4849 17.7198 92.5843 17.8168C92.6837 17.9138 92.7522 18.0381 92.7811 18.174C92.81 18.3098 92.798 18.4512 92.7467 18.5803C92.6954 18.7094 92.607 18.8204 92.4926 18.8993C92.3783 18.9782 92.2432 19.0216 92.1043 19.0238C92.0114 19.0253 91.9191 19.0085 91.8328 18.9741C91.7465 18.9398 91.6678 18.8887 91.6013 18.8238C91.5349 18.759 91.4819 18.6816 91.4455 18.5961C91.4091 18.5106 91.3899 18.4188 91.3892 18.3259Z" fill="white"/>
<path d="M173.604 19.8533H167.883V17.2104H173.604V19.8533ZM168.192 19.5615H173.341V17.5022H168.192V19.5615Z" fill="white"/>
<path d="M172.048 17.6567H168.364V19.4072H172.048V17.6567Z" fill="white"/>
<path d="M174.119 17.8228H173.61V19.2414H174.119V17.8228Z" fill="white"/>
<path d="M85.674 35.6989L82.5447 32.77L85.674 29.8354L86.1603 30.356L83.5802 32.77L86.1603 35.1841L85.674 35.6989Z" fill="white"/>
<path d="M94.3182 136.653V136.224L96.6066 136.195V136.624L94.3182 136.653ZM91.4578 136.653C90.6798 136.653 89.9189 136.653 89.1694 136.618V136.189C89.9322 136.189 90.695 136.201 91.4578 136.224V136.653ZM99.467 136.561V136.132L101.755 136.052V136.481L99.467 136.561ZM86.309 136.561C85.5367 136.527 84.7701 136.493 84.0207 136.447V136.023L86.309 136.132V136.561ZM104.616 136.378V135.949C105.365 135.909 106.126 135.869 106.904 135.818V136.247L104.616 136.378ZM81.1602 136.258C80.3879 136.201 79.627 136.132 78.8719 136.058L78.9176 135.634C79.6614 135.703 80.4165 135.772 81.206 135.829L81.1602 136.258ZM109.765 136.064L109.736 135.634L112.024 135.463L112.059 135.892L109.765 136.064ZM76.0114 135.749C75.2391 135.657 74.4782 135.554 73.7231 135.446L73.786 135.022C74.524 135.131 75.2792 135.228 76.0744 135.326L76.0114 135.749ZM114.885 135.657L114.845 135.228L117.133 135.022L117.173 135.451L114.885 135.657ZM120.034 135.177L119.994 134.748L122.282 134.508L122.328 134.937L120.034 135.177ZM70.937 134.954C70.1704 134.816 69.421 134.668 68.683 134.519L68.7688 134.096C69.5011 134.25 70.2505 134.393 71.0114 134.53L70.937 134.954ZM125.159 134.588L125.114 134.159L125.686 134.096L127.368 133.884L127.425 134.307C126.853 134.387 126.281 134.456 125.709 134.519L125.159 134.588ZM130.274 133.895L130.205 133.472C130.96 133.352 131.71 133.226 132.465 133.089L132.539 133.512C131.773 133.644 131.006 133.775 130.263 133.895H130.274ZM65.8912 133.895C65.1418 133.707 64.3981 133.506 63.6715 133.323L63.7916 132.912C64.5125 133.117 65.2505 133.318 65.9942 133.484L65.8912 133.895ZM135.354 132.986L135.268 132.563C136.018 132.408 136.761 132.248 137.505 132.082L137.597 132.5C136.842 132.654 136.092 132.814 135.343 132.969L135.354 132.986ZM60.9369 132.442C60.1989 132.191 59.4724 131.922 58.7802 131.653L58.9346 131.253C59.6268 131.521 60.3477 131.785 61.0742 132.036L60.9369 132.442ZM140.388 131.842L140.285 131.43C141.023 131.247 141.761 131.058 142.494 130.858L142.608 131.27C141.876 131.453 141.115 131.642 140.377 131.825L140.388 131.842ZM56.1371 130.52C55.4334 130.194 54.7412 129.845 54.0833 129.496L54.2893 129.113C54.9414 129.462 55.6222 129.805 56.3202 130.131L56.1371 130.52ZM145.383 130.52L145.263 130.109L147.448 129.462L147.574 129.874L145.383 130.52ZM150.308 129.016L150.177 128.604L152.345 127.889L152.482 128.295C151.733 128.513 151.029 128.759 150.28 128.993L150.308 129.016ZM51.6176 128.049C50.9712 127.637 50.3304 127.197 49.7183 126.751L49.9757 126.402C50.5478 126.848 51.2114 127.277 51.8522 127.689L51.6176 128.049ZM155.165 127.351L155.022 126.945C155.743 126.688 156.458 126.425 157.168 126.161L157.322 126.562C156.601 126.808 155.886 127.065 155.16 127.328L155.165 127.351ZM160 125.538L159.839 125.137C160.555 124.863 161.264 124.565 161.968 124.291L162.128 124.691C161.418 124.954 160.709 125.235 159.994 125.515L160 125.538ZM47.4585 124.966C46.8864 124.457 46.3144 123.925 45.7823 123.381L46.0912 123.084C46.6176 123.622 47.1725 124.142 47.7389 124.646L47.4585 124.966ZM164.759 123.576L164.593 123.175C165.297 122.878 166.001 122.603 166.693 122.277L166.865 122.666C166.178 122.975 165.475 123.273 164.759 123.576ZM169.485 121.505L169.308 121.116L171.384 120.161L171.567 120.55L169.485 121.505ZM43.8601 121.213C43.3703 120.617 42.932 119.979 42.55 119.308L42.9219 119.097C43.2952 119.749 43.7219 120.369 44.1976 120.95L43.8601 121.213ZM174.159 119.32L173.97 118.937C174.662 118.599 175.349 118.267 176.024 117.93L176.218 118.319L174.159 119.32ZM178.776 117.032L178.581 116.648C179.273 116.299 179.948 115.945 180.618 115.596L180.812 115.979C180.16 116.305 179.479 116.677 178.787 117.032H178.776ZM41.4745 116.58C41.3081 115.877 41.2236 115.157 41.2228 114.435V114.257H41.6518V114.423C41.6516 115.113 41.7323 115.8 41.8921 116.471L41.4745 116.58ZM183.352 114.635L183.146 114.257C183.833 113.891 184.502 113.525 185.16 113.165L185.366 113.536C184.714 113.903 184.044 114.269 183.358 114.635H183.352ZM187.866 112.141L187.654 111.769L189.639 110.625L189.857 110.991C189.222 111.374 188.558 111.729 187.872 112.141H187.866ZM42.1095 111.523L41.7033 111.391C41.9375 110.654 42.2381 109.94 42.6015 109.258L42.9791 109.452C42.631 110.116 42.3401 110.809 42.1095 111.523ZM192.334 109.544L192.117 109.177C192.799 108.773 193.451 108.379 194.073 107.993L194.296 108.359C193.673 108.743 193.021 109.137 192.334 109.544ZM44.5066 107.078L44.1633 106.821C44.6038 106.249 45.1073 105.642 45.6507 105.053L45.9654 105.345C45.4333 105.923 44.9414 106.506 44.5066 107.078ZM196.739 106.849L196.51 106.489C197.208 106.048 197.855 105.637 198.444 105.253L198.673 105.614C198.084 106.008 197.437 106.409 196.739 106.849ZM201.076 104.041L200.835 103.68C202.071 102.856 202.729 102.387 202.729 102.387L202.981 102.736C202.981 102.736 202.317 103.205 201.076 104.041ZM47.9906 103.354L47.7045 103.034C48.2766 102.536 48.8487 102.038 49.4608 101.546L49.7297 101.884C49.1176 102.37 48.5341 102.862 47.9906 103.354ZM51.9952 100.179L51.7435 99.8246C52.3556 99.3956 52.9963 98.9665 53.6542 98.5432L53.8888 98.9036C53.2538 99.3269 52.6302 99.7502 52.0124 100.179H51.9952ZM56.3202 97.422L56.1085 97.0502C56.7607 96.6669 57.4357 96.2951 58.1165 95.9061L58.3168 96.2836C57.6589 96.6669 56.9895 97.0445 56.3373 97.4277L56.3202 97.422ZM60.8626 95.008L60.6738 94.6247C61.366 94.2872 62.0639 93.9612 62.7562 93.6522L62.9278 94.047C62.2584 94.3501 61.5662 94.6762 60.8797 95.008H60.8626ZM65.5594 92.9372L65.4049 92.5425C66.1315 92.2508 66.8409 91.9704 67.5102 91.7588L67.6532 92.1649C67.0068 92.3938 66.3031 92.6512 65.5766 92.9372H65.5594Z" fill="#1E437D"/>
<path d="M206.463 91.5357L202.482 103.423L211.299 96.1526L245.398 82.7603L206.463 91.5357Z" fill="#89B8FF"/>
<path d="M212.53 98.8678L202.482 103.423L211.299 96.1523L212.53 98.8678Z" fill="#1E437D"/>
<path d="M211.299 96.1526L245.398 82.7603L231.645 96.9118L217.893 111.063L211.299 96.1526Z" fill="#C8DEFE"/>
<path d="M211.299 96.1526L245.398 82.7603L231.645 96.9118L217.893 111.063L211.299 96.1526Z" fill="white" fill-opacity="0.7"/>
<path d="M206.463 91.5353L191.906 82.6777L245.398 82.7598L206.463 91.5353Z" fill="#C8DEFE"/>
<path d="M206.463 91.5353L191.906 82.6777L245.398 82.7598L206.463 91.5353Z" fill="white" fill-opacity="0.7"/>
<path fill-rule="evenodd" clip-rule="evenodd" d="M245.561 82.6963C245.596 82.7861 245.552 82.8874 245.462 82.9227L211.532 96.2484L218.053 110.993C218.092 111.081 218.052 111.184 217.964 111.223C217.875 111.262 217.772 111.222 217.733 111.134L211.066 96.0565L245.334 82.5976C245.424 82.5623 245.525 82.6065 245.561 82.6963Z" fill="#1E437D"/>
<path fill-rule="evenodd" clip-rule="evenodd" d="M191.757 82.5873C191.807 82.5049 191.915 82.4788 191.997 82.5289L206.312 91.2396C206.428 91.3103 206.567 91.3331 206.7 91.3032L245.36 82.5898C245.454 82.5686 245.547 82.6277 245.568 82.7217C245.589 82.8158 245.53 82.9093 245.436 82.9305L206.777 91.6439C206.556 91.6937 206.324 91.6557 206.131 91.538L191.816 82.8273C191.733 82.7771 191.707 82.6697 191.757 82.5873Z" fill="#1E437D"/>
<path d="M169.234 168.522C169.234 169.68 168.296 170.618 167.139 170.618H90.3347C89.1773 170.618 88.239 169.68 88.239 168.522V113.042C88.239 112.325 88.6057 111.658 89.2109 111.274L127.603 79.2013C128.289 78.7657 129.165 78.7656 129.85 79.201L168.262 111.274C168.868 111.658 169.234 112.325 169.234 113.043V168.522Z" fill="#FFC727"/>
<path d="M163.291 153.135V83.0469L146.157 65.9146H93.7891C93.0175 65.9146 92.392 66.54 92.392 67.3116V153.135C92.392 153.906 93.0175 154.532 93.7891 154.532H161.894C162.666 154.532 163.291 153.906 163.291 153.135Z" fill="white"/>
<path fill-rule="evenodd" clip-rule="evenodd" d="M163.291 83.0469L146.157 65.9146H93.7891C93.0175 65.9146 92.392 66.54 92.392 67.3116V153.135C92.392 153.906 93.0175 154.532 93.7891 154.532H161.894C162.666 154.532 163.291 153.906 163.291 153.135V83.0469ZM145.868 66.6131L162.593 83.3363V153.135C162.593 153.521 162.28 153.833 161.894 153.833H93.7891C93.4033 153.833 93.0905 153.521 93.0905 153.135V67.3116C93.0905 66.9258 93.4033 66.6131 93.7891 66.6131H145.868Z" fill="#1E437D"/>
<path fill-rule="evenodd" clip-rule="evenodd" d="M131.387 89.2778H101.255V90.4594H131.387V89.2778ZM101.254 94.0041H131.386V95.1857H101.254V94.0041ZM142.612 103.457H101.254V104.638H142.612V103.457ZM147.339 115.272H101.254V116.454H147.339V115.272ZM147.339 134.177H101.254V135.359H147.339V134.177ZM101.254 119.998H140.249V121.18H101.254V119.998ZM101.254 98.7302H154.429V99.9118H101.254V98.7302ZM154.429 124.725H101.254V125.906H154.429V124.725ZM101.254 138.903H154.429V140.085H101.254V138.903ZM148.52 129.451H101.254V130.633H148.52V129.451ZM101.254 143.63H148.52V144.811H101.254V143.63Z" fill="#CAD1DD"/>
<rect x="101.474" y="77.0903" width="26.546" height="4.19114" fill="#CAD1DD"/>
<path d="M146.157 65.9141L163.291 83.0469H146.157L146.157 65.9141Z" fill="#1E437D"/>
<path d="M99.8205 150.772H158.359V148.401H99.8205V150.772Z" fill="#DBDBDB"/>
<path d="M99.8205 156.756H158.359V154.384H99.8205V156.756Z" fill="#DBDBDB"/>
<path d="M169.236 119.258V168.522C169.236 169.679 168.297 170.618 167.14 170.618H90.3559C89.1984 170.618 88.2601 169.679 88.2601 168.522V119.258C91.7433 121.242 95.2066 123.296 98.6004 125.311C101.994 127.325 105.458 129.429 108.861 131.522C112.659 133.838 116.449 136.179 120.234 138.548L120.363 138.478C120.363 138.478 120.303 138.538 120.263 138.557L128.768 143.876C131.586 142.1 134.424 140.314 137.252 138.557C137.221 138.529 137.188 138.502 137.153 138.478L137.282 138.538C141.066 136.176 144.857 133.831 148.654 131.502C152.058 129.429 155.472 127.355 158.905 125.311C162.339 123.267 165.762 121.232 169.236 119.258Z" fill="#FFE9A9"/>
<path fill-rule="evenodd" clip-rule="evenodd" d="M108.861 131.522C105.458 129.429 101.994 127.325 98.6004 125.311C95.4335 123.431 92.2062 121.517 88.9587 119.657C88.7259 119.524 88.4931 119.391 88.2601 119.258V168.522C88.2601 169.679 89.1984 170.618 90.3559 170.618H167.14C168.297 170.618 169.236 169.679 169.236 168.522V119.258C169.003 119.39 168.77 119.523 168.537 119.656C165.303 121.505 162.108 123.404 158.905 125.311C155.472 127.355 152.058 129.429 148.654 131.502C145.052 133.711 141.456 135.935 137.866 138.174C137.671 138.295 137.477 138.416 137.282 138.538L137.153 138.478C137.188 138.502 137.221 138.529 137.252 138.557C137.189 138.597 137.125 138.636 137.062 138.676C137.036 138.692 137.01 138.708 136.985 138.724C136.965 138.736 136.945 138.749 136.925 138.761C134.205 140.452 131.477 142.168 128.768 143.876L120.74 138.856L120.263 138.557C120.303 138.538 120.363 138.478 120.363 138.478L120.234 138.548C120.01 138.407 119.786 138.267 119.562 138.127C116.001 135.902 112.434 133.701 108.861 131.522ZM120.215 139.351L120.207 139.355L119.863 139.14C116.081 136.773 112.293 134.433 108.498 132.119L108.495 132.117C105.094 130.025 101.634 127.923 98.2438 125.911C95.1894 124.098 92.0835 122.256 88.9587 120.462V168.522C88.9587 169.294 89.5842 169.919 90.3559 169.919H167.14C167.912 169.919 168.537 169.294 168.537 168.522V120.461C165.427 122.244 162.352 124.072 159.263 125.911C155.833 127.953 152.422 130.025 149.019 132.098C145.472 134.273 141.931 136.462 138.396 138.666L138.398 138.668L137.621 139.151C134.795 140.906 131.958 142.691 129.14 144.467L128.769 144.701L120.215 139.351Z" fill="#FFC727"/>
<path d="M169.236 119.258C165.971 121.56 162.636 123.763 159.312 126.025C155.988 128.287 152.663 130.451 149.319 132.634C145.826 134.929 142.326 137.198 138.82 139.441L138.503 139.659L129.174 145.612L128.708 145.89L128.262 145.612L118.943 139.659L118.616 139.46C115.103 137.208 111.6 134.946 108.107 132.644C104.773 130.47 101.438 128.258 98.1239 126.045C94.8095 123.832 91.495 121.58 88.2004 119.278C91.6836 121.262 95.1469 123.316 98.5407 125.331C101.935 127.345 105.398 129.448 108.802 131.542C112.599 133.857 116.39 136.199 120.174 138.567L128.678 143.886C131.497 142.11 134.335 140.324 137.163 138.567C140.947 136.206 144.738 133.861 148.535 131.532C151.939 129.458 155.353 127.384 158.786 125.34C162.22 123.296 165.762 121.232 169.236 119.258Z" fill="#FFC727"/>
<path d="M120.343 138.478C120.343 138.478 120.283 138.538 120.243 138.557C119.817 138.925 119.39 139.292 118.963 139.639C116.979 141.356 114.855 143.003 112.741 144.6C110.161 146.585 107.521 148.46 104.872 150.336C102.222 152.211 99.5231 153.997 96.7942 155.744C94.0652 157.49 91.2966 159.207 88.4386 160.784C90.8897 158.631 93.4004 156.617 96.0201 154.662C98.6399 152.707 101.26 150.802 103.899 148.937C106.539 147.071 109.248 145.265 111.987 143.509C114.16 142.11 116.373 140.74 118.636 139.45C119.162 139.143 119.688 138.855 120.214 138.557L120.343 138.478Z" fill="#FFC727"/>
<path d="M169.047 160.774C166.189 159.197 163.41 157.49 160.691 155.734C157.972 153.977 155.273 152.161 152.594 150.326C149.914 148.49 147.305 146.565 144.725 144.59C142.621 143.003 140.547 141.366 138.522 139.629L137.232 138.528C137.201 138.499 137.168 138.472 137.133 138.448L137.262 138.508L138.84 139.411C141.102 140.701 143.305 142.07 145.499 143.469C148.227 145.225 150.907 147.041 153.566 148.897C156.226 150.752 158.865 152.648 161.446 154.622C164.026 156.597 166.586 158.621 169.047 160.774Z" fill="#FFC727"/>
<path d="M147.374 183.965H110.761C109.104 183.965 107.761 185.308 107.761 186.965V200.524C107.761 202.18 109.104 203.524 110.761 203.524H147.374C149.031 203.524 150.374 202.18 150.374 200.524V186.965C150.374 185.308 149.031 183.965 147.374 183.965Z" fill="#00B67B"/>
<path fill-rule="evenodd" clip-rule="evenodd" d="M128.718 187.763C129.104 187.763 129.417 188.076 129.417 188.462V193.499L130.746 192.17C131.018 191.898 131.461 191.898 131.733 192.171C132.006 192.443 132.006 192.886 131.733 193.158L129.212 195.679C128.939 195.952 128.497 195.952 128.224 195.679L125.703 193.158C125.43 192.886 125.43 192.443 125.703 192.171C125.975 191.898 126.418 191.898 126.691 192.17L128.019 193.499V188.462C128.019 188.076 128.332 187.763 128.718 187.763ZM124.134 195.185C124.134 194.799 123.821 194.486 123.435 194.486C123.049 194.486 122.736 194.799 122.736 195.185V198.547C122.736 198.859 122.861 199.159 123.082 199.38C123.303 199.601 123.603 199.725 123.915 199.725H133.521C133.833 199.725 134.133 199.601 134.354 199.38C134.575 199.159 134.7 198.859 134.7 198.547V195.185C134.7 194.799 134.387 194.486 134.001 194.486C133.615 194.486 133.302 194.799 133.302 195.185V198.328H124.134V195.185Z" fill="white"/>
<ellipse cx="158.757" cy="158.818" rx="16.7659" ry="16.7646" fill="#E1EDF8"/>
<path d="M174.126 157.421C174.126 166.68 166.619 174.185 157.36 174.185C148.1 174.185 140.594 166.68 140.594 157.421C140.594 148.162 148.1 140.656 157.36 140.656C166.619 140.656 174.126 148.162 174.126 157.421Z" fill="white"/>
<path fill-rule="evenodd" clip-rule="evenodd" d="M157.36 173.487C166.233 173.487 173.427 166.294 173.427 157.421C173.427 148.548 166.233 141.355 157.36 141.355C148.486 141.355 141.292 148.548 141.292 157.421C141.292 166.294 148.486 173.487 157.36 173.487ZM157.36 174.185C166.619 174.185 174.126 166.68 174.126 157.421C174.126 148.162 166.619 140.656 157.36 140.656C148.1 140.656 140.594 148.162 140.594 157.421C140.594 166.68 148.1 174.185 157.36 174.185Z" fill="#1E437D"/>
<path d="M156.302 165.104L149.675 158.715L151.904 156.62L155.769 160.352L163.808 148.34L166.441 149.941L156.302 165.104Z" fill="#00B67A"/>
</svg>
