<svg width="121" height="16" viewBox="0 0 121 16" fill="none" xmlns="http://www.w3.org/2000/svg">
<path fill-rule="evenodd" clip-rule="evenodd" d="M33.8244 5.87255C30.5051 9.22131 27.9832 8.30541 23.8431 4.58661C20.4175 1.51384 17.6043 3.40085 16.9239 6.04837C16.2349 3.39676 13.4196 1.51384 9.99609 4.59274C5.86453 8.31564 3.34263 9.23563 0.0212199 5.893C-0.30837 9.25812 3.24057 12.4106 7.94201 12.9279C12.299 13.4062 16.1201 11.4579 16.926 8.49554C17.7404 11.462 21.5594 13.4042 25.9185 12.9176C30.6157 12.3922 34.1582 9.23971 33.8244 5.87255Z" fill="#1D293F"/>
<path d="M42.717 12.2978C42.6033 12.2978 42.5067 12.2584 42.4271 12.1798C42.3475 12.1011 42.3077 12.0056 42.3077 11.8933V0.921349C42.3077 0.797753 42.3418 0.696629 42.41 0.617978C42.4896 0.539326 42.5919 0.5 42.717 0.5H47.2869C48.6624 0.5 49.7423 0.820225 50.5267 1.46067C51.3111 2.10112 51.7033 3.03371 51.7033 4.25843C51.7033 5.47191 51.3111 6.39326 50.5267 7.02247C49.7423 7.64045 48.6624 7.94944 47.2869 7.94944H44.7802V11.8933C44.7802 12.0169 44.7405 12.118 44.6609 12.1966C44.5813 12.264 44.479 12.2978 44.354 12.2978H42.717ZM47.2016 6.0618C47.8609 6.0618 48.3611 5.91011 48.7022 5.60674C49.0546 5.29214 49.2308 4.83708 49.2308 4.24157C49.2308 3.6573 49.0602 3.20225 48.7192 2.8764C48.3895 2.55056 47.8837 2.38764 47.2016 2.38764H44.7461V6.0618H47.2016Z" fill="#1D293F"/>
<path d="M55.7516 12.4663C55.1718 12.4663 54.6375 12.3539 54.1487 12.1292C53.6713 11.8933 53.2905 11.5787 53.0063 11.1854C52.7334 10.7921 52.597 10.3596 52.597 9.88764C52.597 9.1236 52.9096 8.50562 53.5349 8.03371C54.1601 7.5618 55.0184 7.24157 56.1097 7.07303L58.4458 6.73595V6.38202C58.4458 5.89888 58.3207 5.53371 58.0706 5.28652C57.8205 5.03933 57.4227 4.91573 56.877 4.91573C56.5019 4.91573 56.2006 4.98315 55.9733 5.11798C55.7459 5.25281 55.5583 5.39326 55.4106 5.53933C55.2741 5.67416 55.1832 5.76405 55.1377 5.80899C55.0923 5.94382 55.007 6.01124 54.882 6.01124H53.5519C53.4496 6.01124 53.3587 5.97753 53.2791 5.91011C53.2109 5.8427 53.1768 5.75281 53.1768 5.64045C53.1881 5.35955 53.3246 5.04494 53.586 4.69663C53.8588 4.33708 54.2738 4.02809 54.8308 3.76966C55.3878 3.5 56.0756 3.36517 56.8941 3.36517C58.2355 3.36517 59.2131 3.66292 59.827 4.25843C60.4408 4.85393 60.7478 5.63483 60.7478 6.60112V11.8933C60.7478 12.0056 60.708 12.1011 60.6284 12.1798C60.5602 12.2584 60.4636 12.2978 60.3385 12.2978H58.9232C58.8095 12.2978 58.7129 12.2584 58.6333 12.1798C58.5538 12.1011 58.514 12.0056 58.514 11.8933V11.236C58.2639 11.5955 57.9115 11.8933 57.4568 12.1292C57.0021 12.3539 56.4337 12.4663 55.7516 12.4663ZM56.3314 10.8483C56.9566 10.8483 57.4681 10.6461 57.866 10.2416C58.2639 9.83708 58.4628 9.25281 58.4628 8.48876V8.15169L56.7576 8.42135C55.4503 8.6236 54.7967 9.05618 54.7967 9.7191C54.7967 10.0787 54.9445 10.3596 55.24 10.5618C55.547 10.7528 55.9107 10.8483 56.3314 10.8483Z" fill="#1D293F"/>
<path d="M63.3612 15.5C63.2475 15.5 63.1509 15.4607 63.0713 15.382C62.9918 15.3146 62.952 15.2191 62.952 15.0955V3.9382C62.952 3.81461 62.9918 3.7191 63.0713 3.65169C63.1509 3.57303 63.2475 3.53371 63.3612 3.53371H64.7254C64.8504 3.53371 64.9527 3.57303 65.0323 3.65169C65.1119 3.73034 65.1516 3.82584 65.1516 3.9382V4.61236C65.7541 3.7809 66.6579 3.36517 67.8629 3.36517C69.011 3.36517 69.892 3.72472 70.5059 4.44382C71.1198 5.15169 71.4494 6.10674 71.4949 7.30899C71.5063 7.44382 71.512 7.64607 71.512 7.91573C71.512 8.18539 71.5063 8.38764 71.4949 8.52247C71.4608 9.70225 71.1311 10.6573 70.5059 11.3876C69.892 12.1067 69.011 12.4663 67.8629 12.4663C66.7261 12.4663 65.8565 12.0674 65.254 11.2697V15.0955C65.254 15.2191 65.2142 15.3146 65.1346 15.382C65.0664 15.4607 64.9698 15.5 64.8447 15.5H63.3612ZM67.2149 10.6461C68.4313 10.6461 69.0792 9.90449 69.1588 8.42135C69.1702 8.30899 69.1759 8.14045 69.1759 7.91573C69.1759 7.69101 69.1702 7.52247 69.1588 7.41011C69.0792 5.92697 68.4313 5.18539 67.2149 5.18539C66.5669 5.18539 66.0838 5.39326 65.7655 5.80899C65.4472 6.22472 65.2767 6.73034 65.254 7.32584C65.2426 7.46067 65.2369 7.67416 65.2369 7.96629C65.2369 8.25843 65.2426 8.47753 65.254 8.6236C65.2767 9.18539 65.4529 9.66292 65.7826 10.0562C66.1122 10.4494 66.5897 10.6461 67.2149 10.6461Z" fill="#1D293F"/>
<path d="M77.2457 12.4663C75.9725 12.4663 74.9608 12.1067 74.2105 11.3876C73.4716 10.6685 73.0794 9.64607 73.034 8.32022L73.0169 7.89888C73.0169 6.49438 73.3864 5.38764 74.1253 4.57865C74.8755 3.76966 75.91 3.36517 77.2287 3.36517C78.5815 3.36517 79.6216 3.76966 80.3492 4.57865C81.0881 5.38764 81.4575 6.46629 81.4575 7.81461V8.16854C81.4575 8.2809 81.4177 8.3764 81.3382 8.45506C81.2586 8.53371 81.1563 8.57303 81.0312 8.57303H75.3701V8.70787C75.3928 9.33708 75.5633 9.85955 75.8816 10.2753C76.2113 10.6798 76.6603 10.882 77.2287 10.882C77.8767 10.882 78.4053 10.6236 78.8145 10.1067C78.9168 9.98315 78.9964 9.91011 79.0532 9.88764C79.1101 9.85393 79.2067 9.83708 79.3431 9.83708H80.8437C80.946 9.83708 81.0312 9.86517 81.0994 9.92135C81.179 9.97753 81.2188 10.0562 81.2188 10.1573C81.2188 10.427 81.054 10.7472 80.7243 11.118C80.406 11.4775 79.9456 11.7921 79.3431 12.0618C78.7406 12.3315 78.0415 12.4663 77.2457 12.4663ZM79.1044 7.14045V7.10674C79.1044 6.44382 78.9339 5.91573 78.5928 5.52247C78.2632 5.11798 77.8085 4.91573 77.2287 4.91573C76.6489 4.91573 76.1942 5.11798 75.8646 5.52247C75.5349 5.91573 75.3701 6.44382 75.3701 7.10674V7.14045H79.1044Z" fill="#1D293F"/>
<path d="M83.6764 12.2978C83.5627 12.2978 83.4661 12.2584 83.3865 12.1798C83.3069 12.1011 83.2671 12.0056 83.2671 11.8933V3.95506C83.2671 3.83146 83.3069 3.73034 83.3865 3.65169C83.4661 3.57303 83.5627 3.53371 83.6764 3.53371H85.0746C85.1997 3.53371 85.302 3.57303 85.3816 3.65169C85.4611 3.73034 85.5009 3.83146 85.5009 3.95506V4.64607C86.0693 3.90449 86.8878 3.53371 87.9564 3.53371H88.6726C88.7976 3.53371 88.8942 3.57303 88.9624 3.65169C89.042 3.7191 89.0818 3.81461 89.0818 3.9382V5.16854C89.0818 5.2809 89.042 5.3764 88.9624 5.45506C88.8942 5.53371 88.7976 5.57303 88.6726 5.57303H87.3255C86.7912 5.57303 86.3706 5.72472 86.0636 6.02809C85.7567 6.33146 85.6032 6.74719 85.6032 7.27528V11.8933C85.6032 12.0056 85.5635 12.1011 85.4839 12.1798C85.4043 12.2584 85.3077 12.2978 85.194 12.2978H83.6764Z" fill="#1D293F"/>
<path d="M91.0248 12.2978C90.9111 12.2978 90.8145 12.2584 90.7349 12.1798C90.6553 12.1011 90.6155 12.0056 90.6155 11.8933V0.921349C90.6155 0.797753 90.6496 0.696629 90.7178 0.617978C90.7974 0.539326 90.8997 0.5 91.0248 0.5H95.1854C98.5389 0.5 100.25 2.02809 100.318 5.08427C100.341 5.73596 100.352 6.17416 100.352 6.39888C100.352 6.61236 100.341 7.04494 100.318 7.69663C100.273 9.26966 99.8405 10.4326 99.0221 11.1854C98.2149 11.927 96.9645 12.2978 95.2707 12.2978H91.0248ZM95.1854 10.3427C96.1289 10.3427 96.811 10.1348 97.2316 9.7191C97.6522 9.30337 97.8739 8.61236 97.8966 7.64607C97.9194 6.97191 97.9307 6.55056 97.9307 6.38202C97.9307 6.20225 97.9194 5.78652 97.8966 5.13483C97.8739 4.21348 97.6409 3.53933 97.1975 3.11236C96.7542 2.67416 96.055 2.45506 95.1001 2.45506H93.0198V10.3427H95.1854Z" fill="#1D293F"/>
<path d="M106.339 12.4663C104.998 12.4663 103.964 12.1292 103.236 11.4551C102.508 10.7809 102.116 9.84831 102.059 8.6573L102.042 7.91573L102.059 7.17416C102.116 5.99438 102.514 5.06742 103.253 4.39326C103.992 3.70787 105.021 3.36517 106.339 3.36517C107.647 3.36517 108.67 3.70787 109.409 4.39326C110.148 5.06742 110.545 5.99438 110.602 7.17416C110.614 7.30899 110.619 7.55618 110.619 7.91573C110.619 8.27528 110.614 8.52247 110.602 8.6573C110.545 9.84831 110.153 10.7809 109.426 11.4551C108.698 12.1292 107.669 12.4663 106.339 12.4663ZM106.339 10.764C106.942 10.764 107.402 10.5787 107.721 10.2079C108.05 9.83708 108.226 9.29214 108.249 8.57303C108.261 8.46067 108.266 8.24157 108.266 7.91573C108.266 7.58989 108.261 7.37079 108.249 7.25843C108.226 6.53933 108.05 5.99438 107.721 5.6236C107.391 5.24157 106.931 5.05056 106.339 5.05056C105.737 5.05056 105.271 5.24157 104.941 5.6236C104.611 5.99438 104.435 6.53933 104.413 7.25843L104.395 7.91573L104.413 8.57303C104.435 9.29214 104.611 9.83708 104.941 10.2079C105.271 10.5787 105.737 10.764 106.339 10.764Z" fill="#1D293F"/>
<path d="M112.918 12.2978C112.804 12.2978 112.707 12.2584 112.628 12.1798C112.548 12.1011 112.508 12.0056 112.508 11.8933V3.9382C112.508 3.81461 112.548 3.7191 112.628 3.65169C112.707 3.57303 112.804 3.53371 112.918 3.53371H114.333C114.458 3.53371 114.554 3.57303 114.623 3.65169C114.702 3.7191 114.742 3.81461 114.742 3.9382V4.62921C115.435 3.78652 116.385 3.36517 117.59 3.36517C118.636 3.36517 119.465 3.70225 120.079 4.3764C120.693 5.05056 121 5.97753 121 7.1573V11.8933C121 12.0056 120.96 12.1011 120.881 12.1798C120.812 12.2584 120.716 12.2978 120.591 12.2978H119.056C118.942 12.2978 118.846 12.2584 118.766 12.1798C118.687 12.1011 118.647 12.0056 118.647 11.8933V7.25843C118.647 6.60674 118.482 6.10112 118.152 5.74157C117.834 5.37079 117.374 5.18539 116.771 5.18539C116.191 5.18539 115.725 5.37079 115.373 5.74157C115.021 6.11236 114.844 6.61798 114.844 7.25843V11.8933C114.844 12.0056 114.805 12.1011 114.725 12.1798C114.657 12.2584 114.56 12.2978 114.435 12.2978H112.918Z" fill="#1D293F"/>
</svg>
