<svg width="61" height="30" viewBox="0 0 61 30" fill="none" xmlns="http://www.w3.org/2000/svg">
<g opacity="0.5">
<path d="M1.49561 29H21.616V14.8135H1.49561V29ZM8.61315 20.7962L10.5101 22.6931L14.9038 18.2994L16.3144 19.7099L10.5101 25.5142L7.20261 22.2067L8.61315 20.7962ZM7.42959 8.52287C7.42959 6.25304 9.27789 4.40475 11.5639 4.40475C13.8338 4.40475 15.6821 6.25304 15.6821 8.52287V12.7869H19.0868V8.52287C19.0706 4.37232 15.6983 1 11.5639 1C7.41338 1 4.04106 4.37232 4.04106 8.52287V12.7869H7.44581V8.52287H7.42959ZM38.1048 13.5814C38.1048 11.5385 36.905 10.3712 35.0081 9.65779L33.257 8.91199C31.8627 8.40938 30.8899 8.06891 30.8899 7.20961C30.8899 6.36653 31.6195 5.89635 32.7058 5.89635C34.1163 5.89635 35.0243 6.31789 36.0295 7.04748L37.6832 4.98842C36.37 3.75622 34.6352 3.09149 32.8841 3.09149C29.7712 3.09149 27.5987 4.98842 27.5987 7.38796C27.5987 9.49566 29.0579 10.7279 30.6792 11.3277L32.5437 12.1222C33.9218 12.6896 34.7811 12.9653 34.7811 13.9867C34.7811 14.7163 34.1325 15.2513 32.7544 15.2513C31.3601 15.2513 30.0144 14.6352 28.9281 13.7435L27.0474 15.9809C28.5877 17.359 30.5819 18.0562 32.5275 18.0562C36.0943 18.0562 38.1048 15.9647 38.1048 13.5814ZM46.0654 9.65779L44.3144 8.91199C42.92 8.40938 41.9473 8.06891 41.9473 7.20961C41.9473 6.36653 42.6768 5.89635 43.7631 5.89635C45.1737 5.89635 46.0816 6.31789 47.0868 7.04748L48.7405 4.98842C47.4273 3.75622 45.6925 3.09149 43.9415 3.09149C40.8286 3.09149 38.656 4.98842 38.656 7.38796C38.656 9.49566 40.1152 10.7279 41.7365 11.3277L43.601 12.1222C44.9791 12.6896 45.8384 12.9653 45.8384 13.9867C45.8384 14.7163 45.1899 15.2513 43.8118 15.2513C42.4174 15.2513 41.0717 14.6352 39.9855 13.7435L38.1048 15.9809C39.645 17.359 41.6392 18.0562 43.5848 18.0562C47.1679 18.0562 49.1783 15.9809 49.1783 13.5814C49.1621 11.5385 47.9785 10.3712 46.0654 9.65779Z" fill="#475569"/>
<path d="M53.653 15.0407V3.35107H50.4104V17.7807H60.0734V15.0407H53.653Z" fill="#475569"/>
<path d="M30.1118 22.9039L29.2363 22.531C28.7013 22.304 28.1176 22.0933 28.1176 21.4934C28.1176 20.9259 28.604 20.5854 29.3336 20.5854C29.9821 20.5854 30.4523 20.8124 30.8739 21.1691L31.2954 20.6503C30.8414 20.1963 30.1605 19.8721 29.366 19.8721C28.1825 19.8721 27.3232 20.5692 27.3232 21.5258C27.3232 22.4337 28.0528 22.8877 28.6689 23.1309L29.5606 23.52C30.1929 23.7956 30.6793 23.9902 30.6793 24.6549C30.6793 25.2386 30.1767 25.6439 29.3174 25.6439C28.604 25.6439 27.9555 25.3359 27.4853 24.8657L27.0151 25.4169C27.5826 25.9844 28.3608 26.3411 29.285 26.3411C30.6631 26.3411 31.4899 25.5467 31.4899 24.5577C31.4899 23.6335 30.8739 23.212 30.1118 22.9039Z" fill="#475569"/>
<path d="M33.9703 23.2928H36.5644V22.6119H33.9703V20.6501H37.0346V19.9854H33.1759V26.2274H37.1319V25.5464H33.9703V23.2928Z" fill="#475569"/>
<path d="M41.2012 25.6438C40.0015 25.6438 39.2232 24.6548 39.2232 23.0821C39.2232 21.5257 40.0015 20.5529 41.2012 20.5529C41.72 20.5529 42.1416 20.7799 42.4496 21.1203L42.9036 20.6177C42.5469 20.2124 41.947 19.8557 41.2012 19.8557C39.5799 19.8557 38.3964 21.0879 38.3964 23.0983C38.3964 25.1412 39.5799 26.3409 41.1202 26.3409C41.947 26.3409 42.5631 26.0005 43.0495 25.433L42.5956 24.9466C42.2227 25.4006 41.7849 25.6438 41.2012 25.6438ZM47.6865 23.8928C47.6865 25.1898 47.119 25.66 46.357 25.66C45.6112 25.66 45.0437 25.1898 45.0437 23.8928V19.9854H44.2493V23.8766C44.2493 25.66 45.141 26.3572 46.357 26.3572C47.573 26.3572 48.4485 25.6762 48.4485 23.8766V19.9854H47.6702V23.8928H47.6865ZM54.2852 21.7364C54.2852 20.4394 53.3773 19.9854 52.1126 19.9854H50.1671V26.2275H50.9615V23.5847H52.0802L53.588 26.2275H54.496L52.9071 23.5037C53.7177 23.2929 54.2852 22.7092 54.2852 21.7364ZM51.9829 22.9362H50.9453V20.6177H51.9829C52.9557 20.6177 53.4907 20.9096 53.4907 21.7364C53.4907 22.5471 52.9557 22.9362 51.9829 22.9362Z" fill="#475569"/>
<path d="M56.7986 23.2928H59.3927V22.6119H56.7986V20.6501H59.8628V19.9854H55.9879V26.2274H59.9601V25.5464H56.7986V23.2928Z" fill="#475569"/>
</g>
</svg>
