<svg width="166" height="30" viewBox="0 0 166 30" fill="none" xmlns="http://www.w3.org/2000/svg">
<g opacity="0.5">
<path d="M20.8229 7.10791L17.4211 23.103H21.5445L24.8431 7.10791H20.8229Z" fill="#C8DEFE"/>
<path d="M14.844 7.10767L10.6176 17.9465L8.86516 8.68614C8.659 7.63383 7.83433 7.10767 7.00966 7.10767H0.103083L0 7.5286C1.44317 7.84429 2.98942 8.37044 4.02025 8.8966C4.63875 9.21229 4.74183 9.52798 4.948 10.2646L8.14358 22.9975H12.4731L19.0704 7.00244H14.844V7.10767Z" fill="#C8DEFE"/>
<path fill-rule="evenodd" clip-rule="evenodd" d="M43.3979 7.10791H46.9028L49.9953 23.103H46.2843L45.7688 20.6827H40.6147L39.79 23.103H35.5636L41.6455 8.26545C41.9548 7.52883 42.5733 7.10791 43.3979 7.10791ZM44.1197 11.4226L41.9549 17.4208H45.3567L44.1197 11.4226Z" fill="#C8DEFE"/>
<path d="M30.2033 11.5274C30.2033 11.0012 30.7187 10.3698 31.9557 10.1594C32.5742 10.0541 34.1204 10.0541 35.9759 10.896L36.6975 7.52861C35.7698 7.21292 34.4297 6.79199 32.8834 6.79199C28.8632 6.79199 26.0799 9.00184 26.0799 12.0535C26.0799 14.3686 28.1416 15.6314 29.5848 16.368C31.131 17.1046 31.6464 17.6308 31.6464 18.3674C31.6464 19.4197 30.4094 19.9459 29.1724 19.9459C27.1108 19.9459 25.9768 19.4197 25.0491 18.8935L24.3275 22.3662C25.2553 22.7871 27.0077 23.208 28.8632 23.208C33.0896 23.208 35.8728 21.1034 35.8728 17.736C35.8728 13.7372 30.1002 13.4215 30.2033 11.5274Z" fill="#C8DEFE"/>
</g>
<g opacity="0.5">
<path fill-rule="evenodd" clip-rule="evenodd" d="M102.63 1.01968e-05C100.197 -0.00307204 97.8176 0.69267 95.7941 1.99901L96.0893 2.23461C98.9976 4.67541 100.668 8.21637 100.668 11.9405C100.668 15.6646 98.9976 19.2055 96.0893 21.6463L95.7941 21.8819C100.196 24.7205 105.979 24.5315 110.174 21.4119C114.368 18.2924 116.041 12.9354 114.335 8.09169C112.628 3.24796 107.921 -0.00623497 102.63 1.01968e-05ZM78.0544 19.8344C82.1331 24.3388 89.03 25.2265 94.1848 21.9105L93.8895 21.6678C90.9812 19.227 89.3108 15.686 89.3108 11.9619C89.3108 8.23779 90.9812 4.69683 93.8895 2.25603L94.1848 2.02043C89.03 -1.29558 82.1331 -0.407911 78.0544 4.09651C73.9757 8.60093 73.9757 15.33 78.0544 19.8344ZM113.031 25.4801V28.3359V29.9136H112.293V29.5281C112.045 29.8348 111.661 30.0076 111.259 29.9922C110.309 29.9922 109.539 29.2474 109.539 28.3287C109.539 27.41 110.309 26.6653 111.259 26.6653C111.661 26.6499 112.045 26.8226 112.293 27.1293V25.4801H113.031ZM92.9447 26.7509H91.7783V25.7871H91.0401V26.7509H90.3758V27.3792H91.0401V28.8071C91.0401 29.521 91.3354 29.9779 92.177 29.9779C92.4924 29.9799 92.802 29.8958 93.0702 29.7352L92.8635 29.1426C92.6731 29.252 92.4573 29.3134 92.236 29.3211C91.8817 29.3211 91.7636 29.1069 91.7636 28.7928V27.3649H92.9299L92.9447 26.7509ZM82.2853 29.9208V27.9289C82.3116 27.5891 82.1845 27.255 81.9368 27.0127C81.6891 26.7704 81.345 26.6437 80.9934 26.6653C80.532 26.6365 80.0909 26.8525 79.8419 27.2293C79.6146 26.8629 79.1981 26.6464 78.7567 26.6653C78.3732 26.647 78.0082 26.8262 77.7971 27.1365V26.7438H77.0589V29.9136H77.7971V28.1645C77.7537 27.9424 77.8216 27.7135 77.9802 27.5475C78.1388 27.3814 78.3693 27.2978 78.6017 27.3221C79.0742 27.3221 79.3399 27.6219 79.3399 28.1574V29.9208H80.0781V28.1645C80.0347 27.9424 80.1026 27.7135 80.2612 27.5475C80.4198 27.3814 80.6503 27.2978 80.8827 27.3221C81.3699 27.3221 81.6209 27.6219 81.6209 28.1574V29.9208H82.2853ZM98.1636 27.1365C98.3419 26.8405 98.6733 26.6625 99.0273 26.6724H99.0199C99.1935 26.6732 99.3657 26.7022 99.5293 26.7581L99.3078 27.4078C99.1668 27.3544 99.0164 27.3277 98.8649 27.3292C98.3999 27.3292 98.1636 27.6219 98.1636 28.1431V29.9208H97.4255V26.7509H98.1636V27.1365ZM89.8295 27.0008C89.4258 26.77 88.9621 26.656 88.4934 26.6724C87.6666 26.6724 87.1278 27.0579 87.1278 27.6862C87.1278 28.2074 87.5264 28.5215 88.2572 28.6214L88.5968 28.6643C88.988 28.7142 89.1725 28.8142 89.1725 28.9927C89.1725 29.1712 88.9142 29.3782 88.4344 29.3782C88.0423 29.3908 87.6574 29.2751 87.3418 29.0498L87.0023 29.5852C87.4169 29.8661 87.9135 30.0112 88.4196 29.9993C89.3645 29.9993 89.896 29.571 89.896 28.9641C89.896 28.3573 89.4604 28.1145 88.7518 28.0146L88.4122 27.9718C88.1022 27.9289 87.8586 27.8718 87.8586 27.6576C87.8586 27.4435 88.0948 27.2864 88.486 27.2864C88.8438 27.2922 89.1943 27.3855 89.5047 27.5577L89.8295 27.0008ZM108.077 27.1365C108.256 26.8405 108.587 26.6625 108.941 26.6724H108.934C109.107 26.6732 109.28 26.7022 109.443 26.7581L109.222 27.4078C109.081 27.3544 108.93 27.3277 108.779 27.3292C108.314 27.3292 108.077 27.6219 108.077 28.1431V29.9208H107.339V26.7509H108.077V27.1365ZM100.244 29.5366C100.579 29.8506 101.035 30.0135 101.5 29.985C101.929 30.0059 102.35 29.8709 102.681 29.6067L102.342 29.0498C102.094 29.2294 101.795 29.3293 101.485 29.3354C100.907 29.3354 100.437 28.8815 100.437 28.3216C100.437 27.7617 100.907 27.3078 101.485 27.3078C101.795 27.3139 102.094 27.4138 102.342 27.5934L102.681 27.0365C102.351 26.7716 101.929 26.6366 101.5 26.6581C101.03 26.629 100.569 26.7957 100.233 27.1161C99.8974 27.4366 99.7192 27.8804 99.7434 28.3359C99.7279 28.7865 99.9098 29.2225 100.244 29.5366ZM106.424 26.7509V28.3359V29.9136H105.686V29.5281C105.439 29.8348 105.054 30.0076 104.652 29.9922C103.702 29.9922 102.932 29.2474 102.932 28.3287C102.932 27.41 103.702 26.6653 104.652 26.6653C105.054 26.6499 105.439 26.8226 105.686 27.1293V26.7509H106.424ZM104.79 27.437C105.327 27.4561 105.75 27.8865 105.743 28.4062C105.736 28.9259 105.3 29.3448 104.763 29.3496C104.488 29.3543 104.224 29.2472 104.034 29.0545C103.845 28.8618 103.748 28.6011 103.766 28.3359C103.799 27.817 104.253 27.4179 104.79 27.437ZM93.4725 28.3537C93.4582 27.435 94.2167 26.6791 95.1666 26.6653L95.1592 26.6581C95.6006 26.6603 96.0206 26.8417 96.3169 27.158C96.6131 27.4744 96.7582 27.8966 96.7168 28.3216V28.5857H94.2808C94.3351 29.06 94.771 29.4056 95.2626 29.3639C95.6089 29.3599 95.944 29.2443 96.2148 29.0355L96.5618 29.5495C96.1856 29.8521 95.7072 30.0097 95.2183 29.9922C94.2684 30.006 93.4867 29.2724 93.4725 28.3537ZM95.7451 27.4991C95.9002 27.6437 95.9895 27.842 95.9934 28.0503H94.2956C94.3194 27.6063 94.7073 27.2631 95.1666 27.2792C95.382 27.2754 95.5901 27.3545 95.7451 27.4991ZM111.402 27.4226C111.946 27.4405 112.374 27.8761 112.365 28.4016C112.356 28.9272 111.913 29.3489 111.37 29.3496C111.095 29.3543 110.831 29.2472 110.641 29.0545C110.452 28.8618 110.355 28.6011 110.373 28.3359C110.401 27.8109 110.859 27.4047 111.402 27.4226ZM86.2862 26.7509V28.3359V29.9136H85.548V29.5281C85.301 29.8348 84.9163 30.0076 84.5146 29.9922C83.5647 29.9922 82.7946 29.2474 82.7946 28.3287C82.7946 27.41 83.5647 26.6653 84.5146 26.6653C84.9163 26.6499 85.301 26.8226 85.548 27.1293V26.7509H86.2862ZM83.6288 28.3359C83.6609 27.817 84.1155 27.4179 84.6525 27.437C85.1896 27.4561 85.6126 27.8865 85.6052 28.4062C85.5978 28.9259 85.1627 29.3448 84.6253 29.3496C84.3543 29.3483 84.0959 29.2386 83.9114 29.0466C83.7268 28.8546 83.6326 28.5974 83.6509 28.3359H83.6288ZM90.2817 11.9369C90.2817 8.47996 91.8322 5.19299 94.5318 2.92712C94.6794 2.79861 94.8344 2.67725 94.9968 2.55588L95.4619 2.92712C98.1614 5.19299 99.7119 8.47996 99.7119 11.9369C99.7119 15.3939 98.1614 18.6808 95.4619 20.9467L94.9968 21.3179C94.8393 21.199 94.6843 21.0752 94.5318 20.9467C91.8322 18.6808 90.2817 15.3939 90.2817 11.9369Z" fill="#C8DEFE"/>
</g>
<g opacity="0.5">
<path fill-rule="evenodd" clip-rule="evenodd" d="M151.084 11.4265L152.086 9.05148L153.061 11.4265H151.084ZM153.378 7.24414H150.836L147.591 14.5253H149.797L150.379 13.0897H153.721L154.32 14.5253H156.581L153.378 7.24414Z" fill="#C8DEFE"/>
<path fill-rule="evenodd" clip-rule="evenodd" d="M162.945 7.24414L161.288 11.7015L159.701 7.24414H156.581V14.5253H158.566V9.49283L160.391 14.5253H162.184L164.022 9.49283V14.5253H165.996V7.24414H162.945Z" fill="#C8DEFE"/>
<path fill-rule="evenodd" clip-rule="evenodd" d="M150.391 15.5703H156.581V17.3069H152.375V18.382H156.501V20.0643H152.375V21.1464H156.581V22.8518H150.391V15.5703Z" fill="#C8DEFE"/>
<path fill-rule="evenodd" clip-rule="evenodd" d="M163.4 15.5703L161.288 17.9091L159.225 15.5703H156.581L160.012 19.2111L156.581 22.8518H159.173L161.288 20.4611L163.4 22.8518H165.996V22.8518L162.565 19.2111L165.996 15.5704V15.5703H163.4Z" fill="#C8DEFE"/>
<path fill-rule="evenodd" clip-rule="evenodd" d="M139.995 2V28H165.995V23.8897H162.864L161.288 22.122L159.64 23.8897H149.302V15.5702H145.937L150.11 6.22098H154.072L155.547 9.42581V6.22098H160.436H162.204H165.995V2H139.995Z" fill="#C8DEFE"/>
<path fill-rule="evenodd" clip-rule="evenodd" d="M164.021 19.2109L165.996 21.303V17.1328L164.021 19.2109Z" fill="#C8DEFE"/>
</g>
</svg>
