<svg width="165" height="30" viewBox="0 0 165 30" fill="none" xmlns="http://www.w3.org/2000/svg">
<g opacity="0.5">
<path d="M21.3231 7.10767L17.9214 23.1028H22.0447L25.3434 7.10767H21.3231Z" fill="#475569"/>
<path d="M15.3442 7.10767L11.1178 17.9465L9.36541 8.68614C9.15924 7.63383 8.33458 7.10767 7.50991 7.10767H0.603327L0.500244 7.5286C1.94341 7.84429 3.48966 8.37044 4.52049 8.8966C5.13899 9.21229 5.24208 9.52798 5.44824 10.2646L8.64383 22.9975H12.9733L19.5707 7.00244H15.3442V7.10767Z" fill="#475569"/>
<path fill-rule="evenodd" clip-rule="evenodd" d="M43.8983 7.10767H47.4031L50.4956 23.1028H46.7846L46.2692 20.6824H41.115L40.2904 23.1028H36.064L42.1459 8.26521C42.4551 7.52859 43.0736 7.10767 43.8983 7.10767ZM44.62 11.4224L42.4553 17.4206H45.857L44.62 11.4224Z" fill="#475569"/>
<path d="M30.7034 11.5274C30.7034 11.0012 31.2188 10.3698 32.4558 10.1594C33.0743 10.0541 34.6206 10.0541 36.4761 10.896L37.1976 7.52861C36.2699 7.21292 34.9298 6.79199 33.3836 6.79199C29.3633 6.79199 26.5801 9.00184 26.5801 12.0535C26.5801 14.3686 28.6417 15.6314 30.0849 16.368C31.6311 17.1046 32.1466 17.6308 32.1466 18.3674C32.1466 19.4197 30.9096 19.9459 29.6726 19.9459C27.6109 19.9459 26.477 19.4197 25.5492 18.8935L24.8276 22.3662C25.7554 22.7871 27.5078 23.208 29.3633 23.208C33.5897 23.208 36.373 21.1034 36.373 17.736C36.373 13.7372 30.6003 13.4215 30.7034 11.5274Z" fill="#475569"/>
</g>
<g opacity="0.5">
<path fill-rule="evenodd" clip-rule="evenodd" d="M102.134 1.01968e-05C99.7014 -0.00307204 97.3223 0.69267 95.2987 1.99901L95.594 2.23461C98.5023 4.67541 100.173 8.21637 100.173 11.9405C100.173 15.6646 98.5023 19.2055 95.594 21.6463L95.2987 21.8819C99.7011 24.7205 105.484 24.5315 109.678 21.4119C113.872 18.2924 115.546 12.9354 113.839 8.09169C112.133 3.24796 107.425 -0.00623497 102.134 1.01968e-05ZM77.559 19.8344C81.6378 24.3388 88.5347 25.2265 93.6895 21.9105L93.3942 21.6678C90.4859 19.227 88.8154 15.686 88.8154 11.9619C88.8154 8.23779 90.4859 4.69683 93.3942 2.25603L93.6895 2.02043C88.5347 -1.29558 81.6378 -0.407911 77.559 4.09651C73.4803 8.60093 73.4803 15.33 77.559 19.8344ZM112.535 25.4801V28.3359V29.9136H111.797V29.5281C111.55 29.8348 111.165 30.0076 110.764 29.9922C109.814 29.9922 109.044 29.2474 109.044 28.3287C109.044 27.41 109.814 26.6653 110.764 26.6653C111.165 26.6499 111.55 26.8226 111.797 27.1293V25.4801H112.535ZM92.4493 26.7509H91.283V25.7871H90.5448V26.7509H89.8804V27.3792H90.5448V28.8071C90.5448 29.521 90.8401 29.9779 91.6816 29.9779C91.997 29.9799 92.3066 29.8958 92.5748 29.7352L92.3681 29.1426C92.1777 29.252 91.962 29.3134 91.7407 29.3211C91.3863 29.3211 91.2682 29.1069 91.2682 28.7928V27.3649H92.4345L92.4493 26.7509ZM81.7899 29.9208V27.9289C81.8162 27.5891 81.6891 27.255 81.4414 27.0127C81.1937 26.7704 80.8497 26.6437 80.4981 26.6653C80.0367 26.6365 79.5955 26.8525 79.3465 27.2293C79.1193 26.8629 78.7027 26.6464 78.2614 26.6653C77.8778 26.647 77.5129 26.8262 77.3017 27.1365V26.7438H76.5635V29.9136H77.3017V28.1645C77.2583 27.9424 77.3262 27.7135 77.4848 27.5475C77.6434 27.3814 77.874 27.2978 78.1063 27.3221C78.5788 27.3221 78.8445 27.6219 78.8445 28.1574V29.9208H79.5827V28.1645C79.5393 27.9424 79.6072 27.7135 79.7658 27.5475C79.9244 27.3814 80.155 27.2978 80.3873 27.3221C80.8745 27.3221 81.1255 27.6219 81.1255 28.1574V29.9208H81.7899ZM97.6683 27.1365C97.8466 26.8405 98.1779 26.6625 98.532 26.6724H98.5246C98.6981 26.6732 98.8703 26.7022 99.0339 26.7581L98.8125 27.4078C98.6714 27.3544 98.521 27.3277 98.3696 27.3292C97.9045 27.3292 97.6683 27.6219 97.6683 28.1431V29.9208H96.9301V26.7509H97.6683V27.1365ZM89.3342 27.0008C88.9305 26.77 88.4667 26.656 87.998 26.6724C87.1713 26.6724 86.6324 27.0579 86.6324 27.6862C86.6324 28.2074 87.031 28.5215 87.7618 28.6214L88.1014 28.6643C88.4926 28.7142 88.6772 28.8142 88.6772 28.9927C88.6772 29.1712 88.4188 29.3782 87.939 29.3782C87.547 29.3908 87.162 29.2751 86.8465 29.0498L86.5069 29.5852C86.9215 29.8661 87.4182 30.0112 87.9242 29.9993C88.8691 29.9993 89.4006 29.571 89.4006 28.9641C89.4006 28.3573 88.9651 28.1145 88.2564 28.0146L87.9168 27.9718C87.6068 27.9289 87.3632 27.8718 87.3632 27.6576C87.3632 27.4435 87.5994 27.2864 87.9907 27.2864C88.3485 27.2922 88.6989 27.3855 89.0094 27.5577L89.3342 27.0008ZM107.582 27.1365C107.76 26.8405 108.092 26.6625 108.446 26.6724H108.438C108.612 26.6732 108.784 26.7022 108.948 26.7581L108.726 27.4078C108.585 27.3544 108.435 27.3277 108.283 27.3292C107.818 27.3292 107.582 27.6219 107.582 28.1431V29.9208H106.844V26.7509H107.582V27.1365ZM99.749 29.5366C100.084 29.8506 100.54 30.0135 101.005 29.985C101.434 30.0059 101.855 29.8709 102.186 29.6067L101.846 29.0498C101.599 29.2294 101.299 29.3293 100.99 29.3354C100.411 29.3354 99.9419 28.8815 99.9419 28.3216C99.9419 27.7617 100.411 27.3078 100.99 27.3078C101.299 27.3139 101.599 27.4138 101.846 27.5934L102.186 27.0365C101.855 26.7716 101.434 26.6366 101.005 26.6581C100.534 26.629 100.073 26.7957 99.7376 27.1161C99.402 27.4366 99.2239 27.8804 99.248 28.3359C99.2325 28.7865 99.4144 29.2225 99.749 29.5366ZM105.929 26.7509V28.3359V29.9136H105.19V29.5281C104.943 29.8348 104.559 30.0076 104.157 29.9922C103.207 29.9922 102.437 29.2474 102.437 28.3287C102.437 27.41 103.207 26.6653 104.157 26.6653C104.559 26.6499 104.943 26.8226 105.19 27.1293V26.7509H105.929ZM104.295 27.437C104.832 27.4561 105.255 27.8865 105.248 28.4062C105.24 28.9259 104.805 29.3448 104.268 29.3496C103.993 29.3543 103.729 29.2472 103.539 29.0545C103.35 28.8618 103.252 28.6011 103.271 28.3359C103.303 27.817 103.758 27.4179 104.295 27.437ZM92.9771 28.3537C92.9628 27.435 93.7213 26.6791 94.6712 26.6653L94.6639 26.6581C95.1052 26.6603 95.5253 26.8417 95.8215 27.158C96.1178 27.4744 96.2629 27.8966 96.2214 28.3216V28.5857H93.7854C93.8397 29.06 94.2757 29.4056 94.7672 29.3639C95.1136 29.3599 95.4486 29.2443 95.7195 29.0355L96.0664 29.5495C95.6903 29.8521 95.2118 30.0097 94.7229 29.9922C93.773 30.006 92.9914 29.2724 92.9771 28.3537ZM95.2498 27.4991C95.4048 27.6437 95.4941 27.842 95.498 28.0503H93.8002C93.8241 27.6063 94.2119 27.2631 94.6712 27.2792C94.8866 27.2754 95.0947 27.3545 95.2498 27.4991ZM110.907 27.4226C111.45 27.4405 111.878 27.8761 111.87 28.4016C111.861 28.9272 111.418 29.3489 110.874 29.3496C110.6 29.3543 110.335 29.2472 110.146 29.0545C109.956 28.8618 109.859 28.6011 109.878 28.3359C109.906 27.8109 110.364 27.4047 110.907 27.4226ZM85.7909 26.7509V28.3359V29.9136H85.0527V29.5281C84.8056 29.8348 84.4209 30.0076 84.0192 29.9922C83.0693 29.9922 82.2992 29.2474 82.2992 28.3287C82.2992 27.41 83.0693 26.6653 84.0192 26.6653C84.4209 26.6499 84.8056 26.8226 85.0527 27.1293V26.7509H85.7909ZM83.1334 28.3359C83.1655 27.817 83.6201 27.4179 84.1572 27.437C84.6942 27.4561 85.1173 27.8865 85.1099 28.4062C85.1025 28.9259 84.6674 29.3448 84.1299 29.3496C83.8589 29.3483 83.6005 29.2386 83.416 29.0466C83.2315 28.8546 83.1372 28.5974 83.1555 28.3359H83.1334ZM89.7864 11.9369C89.7864 8.47996 91.3369 5.19299 94.0364 2.92712C94.184 2.79861 94.3391 2.67725 94.5015 2.55588L94.9665 2.92712C97.666 5.19299 99.2165 8.47996 99.2165 11.9369C99.2165 15.3939 97.666 18.6808 94.9665 20.9467L94.5015 21.3179C94.344 21.199 94.189 21.0752 94.0364 20.9467C91.3369 18.6808 89.7864 15.3939 89.7864 11.9369Z" fill="#475569"/>
</g>
<g opacity="0.5">
<path fill-rule="evenodd" clip-rule="evenodd" d="M149.588 11.4265L150.591 9.05148L151.566 11.4265H149.588ZM151.882 7.24414H149.34L146.096 14.5253H148.301L148.884 13.0897H152.225L152.824 14.5253H155.085L151.882 7.24414Z" fill="#475569"/>
<path fill-rule="evenodd" clip-rule="evenodd" d="M161.45 7.24414L159.793 11.7015L158.206 7.24414H155.086V14.5253H157.071V9.49283L158.896 14.5253H160.689L162.527 9.49283V14.5253H164.5V7.24414H161.45Z" fill="#475569"/>
<path fill-rule="evenodd" clip-rule="evenodd" d="M148.895 15.5703H155.086V17.3069H150.88V18.382H155.005V20.0643H150.88V21.1464H155.086V22.8518H148.895V15.5703Z" fill="#475569"/>
<path fill-rule="evenodd" clip-rule="evenodd" d="M161.905 15.5703L159.793 17.9091L157.729 15.5703H155.086L158.516 19.2111L155.086 22.8518H157.677L159.793 20.4611L161.905 22.8518H164.5V22.8518L161.07 19.2111L164.5 15.5704V15.5703H161.905Z" fill="#475569"/>
<path fill-rule="evenodd" clip-rule="evenodd" d="M138.5 2V28H164.5V23.8897H161.369L159.793 22.122L158.145 23.8897H147.807V15.5702H144.441L148.615 6.22098H152.576L154.052 9.42581V6.22098H158.941H160.709H164.5V2H138.5Z" fill="#475569"/>
<path fill-rule="evenodd" clip-rule="evenodd" d="M162.525 19.2109L164.5 21.303V17.1328L162.525 19.2109Z" fill="#475569"/>
</g>
</svg>
