<svg width="224" height="146" viewBox="0 0 224 146" fill="none" xmlns="http://www.w3.org/2000/svg">
<g filter="url(#filter0_d_1_6098)">
<rect x="28" y="30" width="168" height="80" rx="5" fill="white"/>
<rect x="28.5" y="30.5" width="167" height="79" rx="4.5" stroke="#D3DBE7" stroke-opacity="0.7"/>
</g>
<path d="M29.428 15C29.3347 15 29.2553 14.9673 29.19 14.902C29.1247 14.8367 29.092 14.7573 29.092 14.664V5.55C29.092 5.44733 29.12 5.36333 29.176 5.298C29.2413 5.23267 29.3253 5.2 29.428 5.2H33.18C34.3093 5.2 35.196 5.466 35.84 5.998C36.484 6.53 36.806 7.30467 36.806 8.322C36.806 9.33 36.484 10.0953 35.84 10.618C35.196 11.1313 34.3093 11.388 33.18 11.388H31.122V14.664C31.122 14.7667 31.0893 14.8507 31.024 14.916C30.9587 14.972 30.8747 15 30.772 15H29.428ZM33.11 9.82C33.6513 9.82 34.062 9.694 34.342 9.442C34.6313 9.18067 34.776 8.80267 34.776 8.308C34.776 7.82267 34.636 7.44467 34.356 7.174C34.0853 6.90333 33.67 6.768 33.11 6.768H31.094V9.82H33.11ZM41.3045 15.14C40.2032 15.14 39.3538 14.86 38.7565 14.3C38.1592 13.74 37.8372 12.9653 37.7905 11.976L37.7765 11.36L37.7905 10.744C37.8372 9.764 38.1638 8.994 38.7705 8.434C39.3772 7.86467 40.2218 7.58 41.3045 7.58C42.3778 7.58 43.2178 7.86467 43.8245 8.434C44.4312 8.994 44.7578 9.764 44.8045 10.744C44.8138 10.856 44.8185 11.0613 44.8185 11.36C44.8185 11.6587 44.8138 11.864 44.8045 11.976C44.7578 12.9653 44.4358 13.74 43.8385 14.3C43.2412 14.86 42.3965 15.14 41.3045 15.14ZM41.3045 13.726C41.7992 13.726 42.1772 13.572 42.4385 13.264C42.7092 12.956 42.8538 12.5033 42.8725 11.906C42.8818 11.8127 42.8865 11.6307 42.8865 11.36C42.8865 11.0893 42.8818 10.9073 42.8725 10.814C42.8538 10.2167 42.7092 9.764 42.4385 9.456C42.1678 9.13867 41.7898 8.98 41.3045 8.98C40.8098 8.98 40.4272 9.13867 40.1565 9.456C39.8858 9.764 39.7412 10.2167 39.7225 10.814L39.7085 11.36L39.7225 11.906C39.7412 12.5033 39.8858 12.956 40.1565 13.264C40.4272 13.572 40.8098 13.726 41.3045 13.726ZM48.1522 15C47.9189 15 47.7649 14.8833 47.6902 14.65L45.6882 8.154C45.6789 8.126 45.6742 8.084 45.6742 8.028C45.6742 7.944 45.7022 7.874 45.7582 7.818C45.8142 7.75267 45.8842 7.72 45.9682 7.72H47.0322C47.1256 7.72 47.2049 7.748 47.2702 7.804C47.3449 7.86 47.3916 7.92067 47.4102 7.986L48.7682 12.592L50.2102 8.028C50.2382 7.944 50.2849 7.874 50.3502 7.818C50.4249 7.75267 50.5182 7.72 50.6302 7.72H51.3442C51.4562 7.72 51.5449 7.75267 51.6102 7.818C51.6849 7.874 51.7316 7.944 51.7502 8.028L53.2062 12.592L54.5642 7.986C54.5829 7.92067 54.6249 7.86 54.6902 7.804C54.7556 7.748 54.8396 7.72 54.9422 7.72H55.9922C56.0762 7.72 56.1462 7.75267 56.2022 7.818C56.2676 7.874 56.3002 7.944 56.3002 8.028L56.2722 8.154L54.2702 14.65C54.2329 14.762 54.1769 14.8507 54.1022 14.916C54.0369 14.972 53.9436 15 53.8222 15H52.8982C52.6556 15 52.5016 14.8833 52.4362 14.65L50.9942 10.254L49.5382 14.65C49.4636 14.8833 49.3049 15 49.0622 15H48.1522ZM60.6072 15.14C59.5619 15.14 58.7312 14.8413 58.1152 14.244C57.5085 13.6467 57.1865 12.7973 57.1492 11.696L57.1352 11.346C57.1352 10.1793 57.4385 9.26 58.0452 8.588C58.6612 7.916 59.5105 7.58 60.5932 7.58C61.7039 7.58 62.5579 7.916 63.1552 8.588C63.7619 9.26 64.0652 10.156 64.0652 11.276V11.57C64.0652 11.6633 64.0325 11.7427 63.9672 11.808C63.9019 11.8733 63.8179 11.906 63.7152 11.906H59.0672V12.018C59.0859 12.5407 59.2259 12.9747 59.4872 13.32C59.7579 13.656 60.1265 13.824 60.5932 13.824C61.1252 13.824 61.5592 13.6093 61.8952 13.18C61.9792 13.0773 62.0445 13.0167 62.0912 12.998C62.1379 12.97 62.2172 12.956 62.3292 12.956H63.5612C63.6452 12.956 63.7152 12.9793 63.7712 13.026C63.8365 13.0727 63.8692 13.138 63.8692 13.222C63.8692 13.446 63.7339 13.712 63.4632 14.02C63.2019 14.3187 62.8239 14.58 62.3292 14.804C61.8345 15.028 61.2605 15.14 60.6072 15.14ZM62.1332 10.716V10.688C62.1332 10.1373 61.9932 9.69867 61.7132 9.372C61.4425 9.036 61.0692 8.868 60.5932 8.868C60.1172 8.868 59.7439 9.036 59.4732 9.372C59.2025 9.69867 59.0672 10.1373 59.0672 10.688V10.716H62.1332ZM65.887 15C65.7936 15 65.7143 14.9673 65.649 14.902C65.5836 14.8367 65.551 14.7573 65.551 14.664V8.07C65.551 7.96733 65.5836 7.88333 65.649 7.818C65.7143 7.75267 65.7936 7.72 65.887 7.72H67.035C67.1376 7.72 67.2216 7.75267 67.287 7.818C67.3523 7.88333 67.385 7.96733 67.385 8.07V8.644C67.8516 8.028 68.5236 7.72 69.401 7.72H69.989C70.0916 7.72 70.171 7.75267 70.227 7.818C70.2923 7.874 70.325 7.95333 70.325 8.056V9.078C70.325 9.17133 70.2923 9.25067 70.227 9.316C70.171 9.38133 70.0916 9.414 69.989 9.414H68.883C68.4443 9.414 68.099 9.54 67.847 9.792C67.595 10.044 67.469 10.3893 67.469 10.828V14.664C67.469 14.7573 67.4363 14.8367 67.371 14.902C67.3056 14.9673 67.2263 15 67.133 15H65.887ZM74.4705 15.14C73.4252 15.14 72.5945 14.8413 71.9785 14.244C71.3718 13.6467 71.0498 12.7973 71.0125 11.696L70.9985 11.346C70.9985 10.1793 71.3018 9.26 71.9085 8.588C72.5245 7.916 73.3738 7.58 74.4565 7.58C75.5672 7.58 76.4212 7.916 77.0185 8.588C77.6252 9.26 77.9285 10.156 77.9285 11.276V11.57C77.9285 11.6633 77.8958 11.7427 77.8305 11.808C77.7652 11.8733 77.6812 11.906 77.5785 11.906H72.9305V12.018C72.9492 12.5407 73.0892 12.9747 73.3505 13.32C73.6212 13.656 73.9898 13.824 74.4565 13.824C74.9885 13.824 75.4225 13.6093 75.7585 13.18C75.8425 13.0773 75.9078 13.0167 75.9545 12.998C76.0012 12.97 76.0805 12.956 76.1925 12.956H77.4245C77.5085 12.956 77.5785 12.9793 77.6345 13.026C77.6998 13.0727 77.7325 13.138 77.7325 13.222C77.7325 13.446 77.5972 13.712 77.3265 14.02C77.0652 14.3187 76.6872 14.58 76.1925 14.804C75.6978 15.028 75.1238 15.14 74.4705 15.14ZM75.9965 10.716V10.688C75.9965 10.1373 75.8565 9.69867 75.5765 9.372C75.3058 9.036 74.9325 8.868 74.4565 8.868C73.9805 8.868 73.6072 9.036 73.3365 9.372C73.0658 9.69867 72.9305 10.1373 72.9305 10.688V10.716H75.9965ZM82.1162 15.14C81.1736 15.14 80.4502 14.8413 79.9462 14.244C79.4422 13.6373 79.1669 12.83 79.1202 11.822L79.1062 11.36L79.1202 10.898C79.1576 9.90867 79.4282 9.11067 79.9322 8.504C80.4456 7.888 81.1736 7.58 82.1162 7.58C83.0122 7.58 83.7262 7.888 84.2582 8.504V5.396C84.2582 5.29333 84.2909 5.214 84.3562 5.158C84.4216 5.09267 84.5009 5.06 84.5942 5.06H85.8122C85.9149 5.06 85.9942 5.09267 86.0502 5.158C86.1156 5.214 86.1482 5.29333 86.1482 5.396V14.664C86.1482 14.7573 86.1156 14.8367 86.0502 14.902C85.9942 14.9673 85.9149 15 85.8122 15H84.6782C84.5849 15 84.5056 14.9673 84.4402 14.902C84.3749 14.8367 84.3422 14.7573 84.3422 14.664V14.146C83.8289 14.8087 83.0869 15.14 82.1162 15.14ZM82.6482 13.628C83.1802 13.628 83.5722 13.46 83.8242 13.124C84.0856 12.7787 84.2302 12.354 84.2582 11.85C84.2676 11.738 84.2722 11.5607 84.2722 11.318C84.2722 11.066 84.2676 10.884 84.2582 10.772C84.2396 10.3053 84.0949 9.90867 83.8242 9.582C83.5536 9.25533 83.1616 9.092 82.6482 9.092C81.6496 9.092 81.1176 9.708 81.0522 10.94L81.0382 11.36L81.0522 11.78C81.1176 13.012 81.6496 13.628 82.6482 13.628ZM95.2454 15.14C94.2747 15.14 93.5327 14.8087 93.0194 14.146V14.664C93.0194 14.7573 92.9867 14.8367 92.9214 14.902C92.8561 14.9673 92.7721 15 92.6694 15H91.5494C91.4561 15 91.3767 14.9673 91.3114 14.902C91.2461 14.8367 91.2134 14.7573 91.2134 14.664V5.396C91.2134 5.29333 91.2461 5.214 91.3114 5.158C91.3767 5.09267 91.4561 5.06 91.5494 5.06H92.7674C92.8701 5.06 92.9494 5.09267 93.0054 5.158C93.0707 5.214 93.1034 5.29333 93.1034 5.396V8.504C93.6261 7.888 94.3401 7.58 95.2454 7.58C96.1881 7.58 96.9114 7.888 97.4154 8.504C97.9287 9.11067 98.1994 9.90867 98.2274 10.898C98.2367 11.01 98.2414 11.164 98.2414 11.36C98.2414 11.5467 98.2367 11.7007 98.2274 11.822C98.1901 12.83 97.9194 13.6373 97.4154 14.244C96.9114 14.8413 96.1881 15.14 95.2454 15.14ZM94.7134 13.628C95.7121 13.628 96.2441 13.012 96.3094 11.78C96.3187 11.6867 96.3234 11.5467 96.3234 11.36C96.3234 11.1733 96.3187 11.0333 96.3094 10.94C96.2441 9.708 95.7121 9.092 94.7134 9.092C94.2001 9.092 93.8081 9.25533 93.5374 9.582C93.2667 9.90867 93.1221 10.3053 93.1034 10.772C93.0941 10.884 93.0894 11.066 93.0894 11.318C93.0894 11.5607 93.0941 11.738 93.1034 11.85C93.1221 12.3447 93.2621 12.7647 93.5234 13.11C93.7847 13.4553 94.1814 13.628 94.7134 13.628ZM100.814 17.66C100.74 17.66 100.67 17.632 100.604 17.576C100.548 17.52 100.52 17.4547 100.52 17.38C100.52 17.3147 100.539 17.24 100.576 17.156L101.682 14.566L98.9942 8.224C98.9569 8.14 98.9382 8.07467 98.9382 8.028C98.9476 7.944 98.9802 7.874 99.0362 7.818C99.0922 7.75267 99.1622 7.72 99.2462 7.72H100.408C100.576 7.72 100.698 7.80867 100.772 7.986L102.634 12.55L104.524 7.986C104.618 7.80867 104.748 7.72 104.916 7.72H106.05C106.134 7.72 106.204 7.748 106.26 7.804C106.316 7.86 106.344 7.92533 106.344 8C106.344 8.06533 106.326 8.14 106.288 8.224L102.326 17.394C102.252 17.5713 102.121 17.66 101.934 17.66H100.814Z" fill="white"/>
<path d="M82.0109 53.0001H94.7798V55.3832H89.7591V68.7796H86.9983V55.3832H81.9998V53.0001H82.0109ZM94.2343 57.3542H96.5944V59.5591H96.6389C96.7168 59.2473 96.8616 58.9467 97.0731 58.6571C97.2846 58.3676 97.5406 58.0892 97.8412 57.8554C98.1418 57.6104 98.4758 57.4211 98.8431 57.2652C99.2105 57.1204 99.589 57.0424 99.9675 57.0424C100.257 57.0424 100.468 57.0536 100.58 57.0647C100.691 57.0758 100.802 57.0981 100.925 57.1093V59.5369C100.747 59.5035 100.569 59.4812 100.379 59.4589C100.19 59.4366 100.012 59.4255 99.8339 59.4255C99.4109 59.4255 99.0101 59.5146 98.6316 59.6816C98.2531 59.8487 97.9303 60.1048 97.652 60.4277C97.3737 60.7618 97.151 61.1627 96.984 61.6527C96.817 62.1427 96.7391 62.6995 96.7391 63.3342V68.7685H94.2232V57.3542H94.2343ZM112.491 68.7796H110.02V67.1872H109.976C109.664 67.7663 109.207 68.2228 108.595 68.568C107.983 68.9133 107.359 69.0914 106.725 69.0914C105.222 69.0914 104.131 68.724 103.463 67.9778C102.795 67.2317 102.461 66.107 102.461 64.6037V57.3542H104.977V64.3587C104.977 65.3609 105.166 66.0736 105.556 66.4856C105.934 66.8977 106.48 67.1093 107.17 67.1093C107.705 67.1093 108.139 67.0313 108.495 66.8643C108.851 66.6972 109.141 66.4856 109.352 66.2072C109.575 65.94 109.731 65.6059 109.831 65.2273C109.931 64.8487 109.976 64.4366 109.976 63.9912V57.3654H112.491V68.7796ZM116.777 65.1159C116.855 65.8509 117.134 66.3632 117.612 66.6638C118.102 66.9534 118.681 67.1093 119.36 67.1093C119.594 67.1093 119.861 67.087 120.162 67.0536C120.462 67.0202 120.752 66.9422 121.008 66.842C121.275 66.7418 121.486 66.5859 121.665 66.3854C121.832 66.185 121.909 65.9289 121.898 65.6059C121.887 65.283 121.765 65.0157 121.542 64.8153C121.319 64.6037 121.041 64.4478 120.696 64.3142C120.351 64.1917 119.961 64.0803 119.516 63.9912C119.071 63.9021 118.625 63.8019 118.169 63.7017C117.701 63.6015 117.245 63.4678 116.811 63.3231C116.377 63.1783 115.987 62.9778 115.642 62.7217C115.297 62.4767 115.018 62.1538 114.818 61.764C114.607 61.3743 114.506 60.8954 114.506 60.3164C114.506 59.6928 114.662 59.1805 114.963 58.7574C115.263 58.3342 115.653 58.0001 116.109 57.744C116.577 57.4879 117.089 57.3097 117.657 57.1983C118.225 57.0981 118.77 57.0424 119.282 57.0424C119.872 57.0424 120.44 57.1093 120.974 57.2317C121.509 57.3542 121.998 57.5547 122.433 57.8442C122.867 58.1226 123.223 58.4901 123.513 58.9355C123.802 59.381 123.98 59.9266 124.058 60.5614H121.431C121.308 59.96 121.041 59.548 120.607 59.3476C120.173 59.136 119.672 59.0358 119.115 59.0358C118.937 59.0358 118.726 59.0469 118.481 59.0803C118.236 59.1137 118.013 59.1694 117.79 59.2473C117.579 59.3253 117.401 59.4478 117.245 59.6037C117.1 59.7596 117.022 59.96 117.022 60.2162C117.022 60.528 117.134 60.773 117.345 60.9623C117.557 61.1516 117.835 61.3075 118.18 61.4411C118.525 61.5636 118.915 61.675 119.36 61.764C119.805 61.8531 120.262 61.9534 120.729 62.0536C121.186 62.1538 121.631 62.2874 122.076 62.4322C122.522 62.577 122.911 62.7774 123.256 63.0335C123.602 63.2897 123.88 63.6015 124.091 63.9801C124.303 64.3587 124.414 64.8375 124.414 65.3943C124.414 66.0736 124.258 66.6415 123.947 67.1204C123.635 67.5881 123.234 67.9778 122.744 68.2674C122.255 68.5569 121.698 68.7796 121.097 68.9133C120.496 69.0469 119.894 69.1137 119.304 69.1137C118.581 69.1137 117.913 69.0358 117.301 68.8687C116.688 68.7017 116.154 68.4567 115.709 68.1338C115.263 67.7997 114.907 67.3876 114.651 66.8977C114.395 66.4077 114.261 65.8175 114.239 65.1382H116.777V65.1159ZM125.082 57.3542H126.986V53.9244H129.502V57.3542H131.773V59.2362H129.502V65.3387C129.502 65.6059 129.513 65.8286 129.535 66.0291C129.557 66.2184 129.613 66.3854 129.691 66.5191C129.769 66.6527 129.891 66.7529 130.058 66.8197C130.225 66.8865 130.437 66.9199 130.726 66.9199C130.904 66.9199 131.083 66.9199 131.261 66.9088C131.439 66.8977 131.617 66.8754 131.795 66.8309V68.7796C131.517 68.813 131.238 68.8353 130.982 68.8687C130.715 68.9021 130.448 68.9133 130.17 68.9133C129.502 68.9133 128.967 68.8464 128.567 68.724C128.166 68.6015 127.843 68.4121 127.62 68.1672C127.387 67.9222 127.242 67.6215 127.153 67.254C127.075 66.8865 127.019 66.4634 127.008 65.9957V59.2585H125.104V57.3542H125.082ZM133.554 57.3542H135.936V58.9021H135.981C136.337 58.234 136.827 57.7663 137.461 57.4767C138.096 57.1872 138.775 57.0424 139.521 57.0424C140.423 57.0424 141.202 57.1983 141.87 57.5213C142.538 57.8331 143.094 58.2674 143.54 58.8242C143.985 59.381 144.308 60.0268 144.53 60.7618C144.753 61.4968 144.864 62.2874 144.864 63.1226C144.864 63.891 144.764 64.6371 144.564 65.3498C144.363 66.0736 144.063 66.7084 143.662 67.2652C143.261 67.8219 142.749 68.2562 142.126 68.5903C141.502 68.9244 140.779 69.0914 139.933 69.0914C139.565 69.0914 139.198 69.058 138.831 68.9912C138.463 68.9244 138.107 68.813 137.773 68.6683C137.439 68.5235 137.116 68.3342 136.838 68.1003C136.549 67.8665 136.315 67.5992 136.114 67.2986H136.07V73.0001H133.554V57.3542ZM142.349 63.0781C142.349 62.5658 142.282 62.0647 142.148 61.5747C142.015 61.0848 141.814 60.6616 141.547 60.283C141.28 59.9044 140.946 59.6037 140.556 59.381C140.155 59.1583 139.699 59.0358 139.187 59.0358C138.129 59.0358 137.328 59.4032 136.793 60.1382C136.259 60.8732 135.992 61.8531 135.992 63.0781C135.992 63.6571 136.059 64.1917 136.203 64.6816C136.348 65.1716 136.549 65.5948 136.838 65.9511C137.116 66.3075 137.45 66.5859 137.84 66.7863C138.23 66.9979 138.686 67.0981 139.198 67.0981C139.777 67.0981 140.256 66.9756 140.656 66.7418C141.057 66.5079 141.38 66.1961 141.636 65.8286C141.892 65.45 142.081 65.0268 142.193 64.548C142.293 64.0692 142.349 63.5792 142.349 63.0781ZM146.79 53.0001H149.306V55.3832H146.79V53.0001ZM146.79 57.3542H149.306V68.7796H146.79V57.3542ZM151.555 53.0001H154.071V68.7796H151.555V53.0001ZM161.786 69.0914C160.873 69.0914 160.06 68.9355 159.348 68.6349C158.635 68.3342 158.034 67.911 157.533 67.3877C157.043 66.8531 156.665 66.2184 156.409 65.4834C156.153 64.7485 156.019 63.9355 156.019 63.0558C156.019 62.1872 156.153 61.3854 156.409 60.6505C156.665 59.9155 157.043 59.2807 157.533 58.7462C158.023 58.2117 158.635 57.7997 159.348 57.499C160.06 57.1983 160.873 57.0424 161.786 57.0424C162.699 57.0424 163.511 57.1983 164.224 57.499C164.936 57.7997 165.537 58.2228 166.038 58.7462C166.528 59.2807 166.907 59.9155 167.163 60.6505C167.419 61.3854 167.552 62.1872 167.552 63.0558C167.552 63.9355 167.419 64.7485 167.163 65.4834C166.907 66.2184 166.528 66.8531 166.038 67.3877C165.548 67.9222 164.936 68.3342 164.224 68.6349C163.511 68.9355 162.699 69.0914 161.786 69.0914ZM161.786 67.0981C162.342 67.0981 162.832 66.9756 163.244 66.7418C163.656 66.5079 163.99 66.1961 164.257 65.8175C164.524 65.4389 164.713 65.0046 164.847 64.5257C164.97 64.0469 165.036 63.5569 165.036 63.0558C165.036 62.5658 164.97 62.087 164.847 61.597C164.725 61.107 164.524 60.6839 164.257 60.3052C163.99 59.9266 163.656 59.626 163.244 59.3921C162.832 59.1583 162.342 59.0358 161.786 59.0358C161.229 59.0358 160.739 59.1583 160.327 59.3921C159.915 59.626 159.581 59.9378 159.314 60.3052C159.047 60.6839 158.858 61.107 158.724 61.597C158.602 62.087 158.535 62.5658 158.535 63.0558C158.535 63.5569 158.602 64.0469 158.724 64.5257C158.847 65.0046 159.047 65.4389 159.314 65.8175C159.581 66.1961 159.915 66.5079 160.327 66.7418C160.739 66.9868 161.229 67.0981 161.786 67.0981ZM168.287 57.3542H170.191V53.9244H172.707V57.3542H174.978V59.2362H172.707V65.3387C172.707 65.6059 172.718 65.8286 172.74 66.0291C172.762 66.2184 172.818 66.3854 172.896 66.5191C172.974 66.6527 173.096 66.7529 173.263 66.8197C173.43 66.8865 173.642 66.9199 173.931 66.9199C174.109 66.9199 174.287 66.9199 174.465 66.9088C174.644 66.8977 174.822 66.8754 175 66.8309V68.7796C174.722 68.813 174.443 68.8353 174.187 68.8687C173.92 68.9021 173.653 68.9133 173.374 68.9133C172.707 68.9133 172.172 68.8464 171.771 68.724C171.371 68.6015 171.048 68.4121 170.825 68.1672C170.591 67.9222 170.447 67.6215 170.358 67.254C170.28 66.8865 170.224 66.4634 170.213 65.9957V59.2585H168.309V57.3542H168.287Z" fill="#191919"/>
<path d="M79.1922 52.987H67.6628L64.1016 42L60.5293 52.987L49 52.9759L58.337 59.7731L54.7647 70.7489L64.1016 63.9628L73.4275 70.7489L69.8663 59.7731L79.1922 52.987Z" fill="#00B67B"/>
<path d="M70.6677 62.2578L69.8665 59.7729L64.1018 63.9627L70.6677 62.2578Z" fill="#005128"/>
<path opacity="0.5" d="M75.82 95C75.62 95 75.49 94.9067 75.43 94.72L73.29 88.3C73.2833 88.28 73.28 88.25 73.28 88.21C73.28 88.15 73.3 88.1 73.34 88.06C73.38 88.02 73.43 88 73.49 88H74.38C74.4667 88 74.5367 88.0233 74.59 88.07C74.6433 88.1167 74.68 88.1667 74.7 88.22L76.37 93.34L78.05 88.22C78.0633 88.1667 78.0967 88.1167 78.15 88.07C78.2033 88.0233 78.2733 88 78.36 88H79.26C79.3133 88 79.36 88.02 79.4 88.06C79.4467 88.1 79.47 88.15 79.47 88.21L79.45 88.3L77.32 94.72C77.2533 94.9067 77.1233 95 76.93 95H75.82ZM81.068 95C81.0014 95 80.9447 94.9767 80.898 94.93C80.8514 94.8833 80.828 94.8267 80.828 94.76V88.25C80.828 88.1767 80.848 88.1167 80.888 88.07C80.9347 88.0233 80.9947 88 81.068 88H85.478C85.5514 88 85.6114 88.0233 85.658 88.07C85.7047 88.1167 85.728 88.1767 85.728 88.25V88.92C85.728 88.9933 85.7047 89.0533 85.658 89.1C85.6114 89.14 85.5514 89.16 85.478 89.16H82.198V90.91H85.258C85.3314 90.91 85.3914 90.9333 85.438 90.98C85.4847 91.0267 85.508 91.0867 85.508 91.16V91.79C85.508 91.8633 85.4847 91.9233 85.438 91.97C85.3914 92.01 85.3314 92.03 85.258 92.03H82.198V93.84H85.558C85.6314 93.84 85.6914 93.8633 85.738 93.91C85.7847 93.95 85.808 94.0067 85.808 94.08V94.76C85.808 94.8333 85.7847 94.8933 85.738 94.94C85.6914 94.98 85.6314 95 85.558 95H81.068ZM87.5985 95C87.5318 95 87.4752 94.9767 87.4285 94.93C87.3818 94.8833 87.3585 94.8267 87.3585 94.76V88.25C87.3585 88.1767 87.3785 88.1167 87.4185 88.07C87.4652 88.0233 87.5252 88 87.5985 88H90.1885C91.0085 88 91.6485 88.19 92.1085 88.57C92.5752 88.95 92.8085 89.49 92.8085 90.19C92.8085 90.6767 92.6918 91.0867 92.4585 91.42C92.2252 91.7467 91.8985 91.9833 91.4785 92.13L92.9285 94.68C92.9485 94.72 92.9585 94.7567 92.9585 94.79C92.9585 94.85 92.9352 94.9 92.8885 94.94C92.8485 94.98 92.8018 95 92.7485 95H91.8285C91.7218 95 91.6385 94.9767 91.5785 94.93C91.5185 94.8767 91.4652 94.81 91.4185 94.73L90.1385 92.36H88.7685V94.76C88.7685 94.8267 88.7452 94.8833 88.6985 94.93C88.6518 94.9767 88.5918 95 88.5185 95H87.5985ZM90.1585 91.22C90.5585 91.22 90.8585 91.1333 91.0585 90.96C91.2585 90.78 91.3585 90.52 91.3585 90.18C91.3585 89.84 91.2585 89.58 91.0585 89.4C90.8585 89.2133 90.5585 89.12 90.1585 89.12H88.7685V91.22H90.1585ZM94.6368 95C94.5701 95 94.5135 94.9767 94.4668 94.93C94.4201 94.8833 94.3968 94.8267 94.3968 94.76V88.24C94.3968 88.1667 94.4201 88.11 94.4668 88.07C94.5135 88.0233 94.5701 88 94.6368 88H95.5968C95.6701 88 95.7268 88.0233 95.7668 88.07C95.8135 88.11 95.8368 88.1667 95.8368 88.24V94.76C95.8368 94.8267 95.8135 94.8833 95.7668 94.93C95.7268 94.9767 95.6701 95 95.5968 95H94.6368ZM97.9348 95C97.8682 95 97.8115 94.9767 97.7648 94.93C97.7182 94.8833 97.6948 94.8267 97.6948 94.76V88.25C97.6948 88.1767 97.7148 88.1167 97.7548 88.07C97.8015 88.0233 97.8615 88 97.9348 88H102.285C102.358 88 102.418 88.0233 102.465 88.07C102.512 88.1167 102.535 88.1767 102.535 88.25V88.97C102.535 89.0367 102.512 89.0933 102.465 89.14C102.418 89.1867 102.358 89.21 102.285 89.21H99.0848V91.09H102.085C102.158 91.09 102.218 91.1133 102.265 91.16C102.312 91.2067 102.335 91.2633 102.335 91.33V92.05C102.335 92.1167 102.312 92.1733 102.265 92.22C102.218 92.2667 102.158 92.29 102.085 92.29H99.0848V94.76C99.0848 94.8267 99.0615 94.8833 99.0148 94.93C98.9682 94.9767 98.9082 95 98.8348 95H97.9348ZM104.25 95C104.184 95 104.127 94.9767 104.08 94.93C104.034 94.8833 104.01 94.8267 104.01 94.76V88.24C104.01 88.1667 104.034 88.11 104.08 88.07C104.127 88.0233 104.184 88 104.25 88H105.21C105.284 88 105.34 88.0233 105.38 88.07C105.427 88.11 105.45 88.1667 105.45 88.24V94.76C105.45 94.8267 105.427 94.8833 105.38 94.93C105.34 94.9767 105.284 95 105.21 95H104.25ZM107.549 95C107.482 95 107.425 94.9767 107.379 94.93C107.332 94.8833 107.309 94.8267 107.309 94.76V88.25C107.309 88.1767 107.329 88.1167 107.369 88.07C107.415 88.0233 107.475 88 107.549 88H111.959C112.032 88 112.092 88.0233 112.139 88.07C112.185 88.1167 112.209 88.1767 112.209 88.25V88.92C112.209 88.9933 112.185 89.0533 112.139 89.1C112.092 89.14 112.032 89.16 111.959 89.16H108.679V90.91H111.739C111.812 90.91 111.872 90.9333 111.919 90.98C111.965 91.0267 111.989 91.0867 111.989 91.16V91.79C111.989 91.8633 111.965 91.9233 111.919 91.97C111.872 92.01 111.812 92.03 111.739 92.03H108.679V93.84H112.039C112.112 93.84 112.172 93.8633 112.219 93.91C112.265 93.95 112.289 94.0067 112.289 94.08V94.76C112.289 94.8333 112.265 94.8933 112.219 94.94C112.172 94.98 112.112 95 112.039 95H107.549ZM114.079 95C114.012 95 113.956 94.9767 113.909 94.93C113.862 94.8833 113.839 94.8267 113.839 94.76V88.25C113.839 88.1767 113.859 88.1167 113.899 88.07C113.946 88.0233 114.006 88 114.079 88H116.519C118.486 88 119.489 88.9067 119.529 90.72C119.542 91.1067 119.549 91.3667 119.549 91.5C119.549 91.6267 119.542 91.8833 119.529 92.27C119.502 93.2033 119.249 93.8933 118.769 94.34C118.296 94.78 117.562 95 116.569 95H114.079ZM116.519 93.84C117.072 93.84 117.472 93.7167 117.719 93.47C117.966 93.2233 118.096 92.8133 118.109 92.24C118.122 91.84 118.129 91.59 118.129 91.49C118.129 91.3833 118.122 91.1367 118.109 90.75C118.096 90.2033 117.959 89.8033 117.699 89.55C117.439 89.29 117.029 89.16 116.469 89.16H115.249V93.84H116.519ZM123.986 95C123.919 95 123.862 94.9767 123.816 94.93C123.769 94.8833 123.746 94.8267 123.746 94.76V88.25C123.746 88.1767 123.766 88.1167 123.806 88.07C123.852 88.0233 123.912 88 123.986 88H126.576C127.396 88 128.036 88.19 128.496 88.57C128.962 88.95 129.196 89.49 129.196 90.19C129.196 90.6767 129.079 91.0867 128.846 91.42C128.612 91.7467 128.286 91.9833 127.866 92.13L129.316 94.68C129.336 94.72 129.346 94.7567 129.346 94.79C129.346 94.85 129.322 94.9 129.276 94.94C129.236 94.98 129.189 95 129.136 95H128.216C128.109 95 128.026 94.9767 127.966 94.93C127.906 94.8767 127.852 94.81 127.806 94.73L126.526 92.36H125.156V94.76C125.156 94.8267 125.132 94.8833 125.086 94.93C125.039 94.9767 124.979 95 124.906 95H123.986ZM126.546 91.22C126.946 91.22 127.246 91.1333 127.446 90.96C127.646 90.78 127.746 90.52 127.746 90.18C127.746 89.84 127.646 89.58 127.446 89.4C127.246 89.2133 126.946 89.12 126.546 89.12H125.156V91.22H126.546ZM131.024 95C130.957 95 130.901 94.9767 130.854 94.93C130.807 94.8833 130.784 94.8267 130.784 94.76V88.25C130.784 88.1767 130.804 88.1167 130.844 88.07C130.891 88.0233 130.951 88 131.024 88H135.434C135.507 88 135.567 88.0233 135.614 88.07C135.661 88.1167 135.684 88.1767 135.684 88.25V88.92C135.684 88.9933 135.661 89.0533 135.614 89.1C135.567 89.14 135.507 89.16 135.434 89.16H132.154V90.91H135.214C135.287 90.91 135.347 90.9333 135.394 90.98C135.441 91.0267 135.464 91.0867 135.464 91.16V91.79C135.464 91.8633 135.441 91.9233 135.394 91.97C135.347 92.01 135.287 92.03 135.214 92.03H132.154V93.84H135.514C135.587 93.84 135.647 93.8633 135.694 93.91C135.741 93.95 135.764 94.0067 135.764 94.08V94.76C135.764 94.8333 135.741 94.8933 135.694 94.94C135.647 94.98 135.587 95 135.514 95H131.024ZM139.296 95C139.096 95 138.966 94.9067 138.906 94.72L136.766 88.3C136.759 88.28 136.756 88.25 136.756 88.21C136.756 88.15 136.776 88.1 136.816 88.06C136.856 88.02 136.906 88 136.966 88H137.856C137.942 88 138.012 88.0233 138.066 88.07C138.119 88.1167 138.156 88.1667 138.176 88.22L139.846 93.34L141.526 88.22C141.539 88.1667 141.572 88.1167 141.626 88.07C141.679 88.0233 141.749 88 141.836 88H142.736C142.789 88 142.836 88.02 142.876 88.06C142.922 88.1 142.946 88.15 142.946 88.21L142.926 88.3L140.796 94.72C140.729 94.9067 140.599 95 140.406 95H139.296ZM144.544 95C144.477 95 144.42 94.9767 144.374 94.93C144.327 94.8833 144.304 94.8267 144.304 94.76V88.24C144.304 88.1667 144.327 88.11 144.374 88.07C144.42 88.0233 144.477 88 144.544 88H145.504C145.577 88 145.634 88.0233 145.674 88.07C145.72 88.11 145.744 88.1667 145.744 88.24V94.76C145.744 94.8267 145.72 94.8833 145.674 94.93C145.634 94.9767 145.577 95 145.504 95H144.544ZM147.842 95C147.775 95 147.719 94.9767 147.672 94.93C147.625 94.8833 147.602 94.8267 147.602 94.76V88.25C147.602 88.1767 147.622 88.1167 147.662 88.07C147.709 88.0233 147.769 88 147.842 88H152.252C152.325 88 152.385 88.0233 152.432 88.07C152.479 88.1167 152.502 88.1767 152.502 88.25V88.92C152.502 88.9933 152.479 89.0533 152.432 89.1C152.385 89.14 152.325 89.16 152.252 89.16H148.972V90.91H152.032C152.105 90.91 152.165 90.9333 152.212 90.98C152.259 91.0267 152.282 91.0867 152.282 91.16V91.79C152.282 91.8633 152.259 91.9233 152.212 91.97C152.165 92.01 152.105 92.03 152.032 92.03H148.972V93.84H152.332C152.405 93.84 152.465 93.8633 152.512 93.91C152.559 93.95 152.582 94.0067 152.582 94.08V94.76C152.582 94.8333 152.559 94.8933 152.512 94.94C152.465 94.98 152.405 95 152.332 95H147.842ZM155.282 95C155.089 95 154.969 94.9 154.922 94.7L153.742 88.29L153.732 88.21C153.732 88.15 153.752 88.1 153.792 88.06C153.832 88.02 153.882 88 153.942 88H154.842C154.929 88 154.992 88.0167 155.032 88.05C155.072 88.0767 155.099 88.1267 155.112 88.2L155.942 92.7L156.832 89.8C156.899 89.6333 157.009 89.55 157.162 89.55H157.712C157.799 89.55 157.869 89.5767 157.922 89.63C157.976 89.6767 158.012 89.7333 158.032 89.8L158.932 92.7L159.752 88.2C159.772 88.0667 159.866 88 160.032 88H160.932C160.986 88 161.032 88.02 161.072 88.06C161.112 88.1 161.132 88.15 161.132 88.21C161.132 88.2433 161.129 88.27 161.122 88.29L159.942 94.7C159.929 94.7933 159.889 94.8667 159.822 94.92C159.762 94.9733 159.682 95 159.582 95H158.902C158.809 95 158.732 94.9767 158.672 94.93C158.612 94.8767 158.572 94.8167 158.552 94.75L157.432 91.43L156.312 94.75C156.259 94.9167 156.142 95 155.962 95H155.282ZM164.978 95.1C164.378 95.1 163.864 95.01 163.438 94.83C163.011 94.65 162.688 94.4133 162.468 94.12C162.248 93.8267 162.131 93.5067 162.118 93.16C162.118 93.1067 162.138 93.06 162.178 93.02C162.218 92.9733 162.268 92.95 162.328 92.95H163.238C163.311 92.95 163.371 92.9667 163.418 93C163.464 93.0333 163.508 93.08 163.548 93.14C163.614 93.3667 163.764 93.5567 163.998 93.71C164.238 93.8633 164.564 93.94 164.978 93.94C165.444 93.94 165.794 93.8633 166.028 93.71C166.268 93.55 166.388 93.3333 166.388 93.06C166.388 92.88 166.328 92.73 166.208 92.61C166.088 92.49 165.904 92.3867 165.658 92.3C165.418 92.2067 165.058 92.0967 164.578 91.97C163.791 91.7833 163.214 91.5367 162.848 91.23C162.481 90.9233 162.298 90.4833 162.298 89.91C162.298 89.5233 162.404 89.18 162.618 88.88C162.831 88.5733 163.134 88.3333 163.528 88.16C163.928 87.9867 164.391 87.9 164.918 87.9C165.471 87.9 165.948 87.9967 166.348 88.19C166.754 88.3833 167.061 88.6267 167.268 88.92C167.481 89.2067 167.594 89.4933 167.608 89.78C167.608 89.8333 167.588 89.8833 167.548 89.93C167.508 89.97 167.458 89.99 167.398 89.99H166.448C166.301 89.99 166.201 89.93 166.148 89.81C166.114 89.5967 165.984 89.42 165.758 89.28C165.531 89.1333 165.251 89.06 164.918 89.06C164.551 89.06 164.261 89.13 164.048 89.27C163.841 89.41 163.738 89.6133 163.738 89.88C163.738 90.06 163.791 90.21 163.898 90.33C164.004 90.45 164.171 90.5567 164.398 90.65C164.624 90.7367 164.954 90.8367 165.388 90.95C165.981 91.0833 166.451 91.2333 166.798 91.4C167.151 91.5667 167.411 91.7767 167.578 92.03C167.744 92.2833 167.828 92.6067 167.828 93C167.828 93.4333 167.708 93.81 167.468 94.13C167.234 94.4433 166.901 94.6833 166.468 94.85C166.041 95.0167 165.544 95.1 164.978 95.1Z" fill="#475569"/>
<g opacity="0.5">
<path d="M63.4062 89.6875L60.1979 92.75L58.5938 91.2188" stroke="#475569" stroke-linecap="round" stroke-linejoin="round"/>
<path d="M61 96.25C63.8995 96.25 66.25 93.8995 66.25 91C66.25 88.1005 63.8995 85.75 61 85.75C58.1005 85.75 55.75 88.1005 55.75 91C55.75 93.8995 58.1005 96.25 61 96.25Z" stroke="#475569" stroke-linecap="round" stroke-linejoin="round"/>
</g>
<defs>
<filter id="filter0_d_1_6098" x="0" y="10" width="224" height="136" filterUnits="userSpaceOnUse" color-interpolation-filters="sRGB">
<feFlood flood-opacity="0" result="BackgroundImageFix"/>
<feColorMatrix in="SourceAlpha" type="matrix" values="0 0 0 0 0 0 0 0 0 0 0 0 0 0 0 0 0 0 127 0" result="hardAlpha"/>
<feOffset dy="8"/>
<feGaussianBlur stdDeviation="14"/>
<feColorMatrix type="matrix" values="0 0 0 0 0.113514 0 0 0 0 0.160738 0 0 0 0 0.247582 0 0 0 0.28 0"/>
<feBlend mode="normal" in2="BackgroundImageFix" result="effect1_dropShadow_1_6098"/>
<feBlend mode="normal" in="SourceGraphic" in2="effect1_dropShadow_1_6098" result="shape"/>
</filter>
</defs>
</svg>
