<svg width="120" height="20" viewBox="0 0 120 20" fill="none" xmlns="http://www.w3.org/2000/svg">
<path d="M0 0H20V20H0V0Z" fill="#00B67B"/>
<path fill-rule="evenodd" clip-rule="evenodd" d="M11.6436 8.43114H17.0138L12.6725 11.593L10.0277 13.521L10.0127 13.525L10.0175 13.5284L9.98741 13.5503L5.64613 16.6871L7.30234 11.593L2.96106 8.43114H8.3312L9.98741 3.33704L11.6436 8.43114ZM10.0175 13.5284L14.3289 16.6617L13.0491 12.7219L10.0277 13.521L10.0175 13.5284Z" fill="white"/>
<path d="M25 0H45V20H25V0Z" fill="#00B67B"/>
<path fill-rule="evenodd" clip-rule="evenodd" d="M36.6436 8.43114H42.0138L37.6725 11.593L35.0277 13.521L35.0127 13.525L35.0175 13.5284L34.9874 13.5503L30.6461 16.6871L32.3023 11.593L27.9611 8.43114H33.3312L34.9874 3.33704L36.6436 8.43114ZM35.0175 13.5284L39.3289 16.6617L38.0491 12.7219L35.0277 13.521L35.0175 13.5284Z" fill="white"/>
<path d="M50 0H70V20H50V0Z" fill="#00B67B"/>
<path fill-rule="evenodd" clip-rule="evenodd" d="M61.6436 8.43114H67.0138L62.6725 11.593L60.0277 13.521L60.0127 13.525L60.0175 13.5284L59.9874 13.5503L55.6461 16.6871L57.3023 11.593L52.9611 8.43114H58.3312L59.9874 3.33704L61.6436 8.43114ZM60.0175 13.5284L64.3289 16.6617L63.0491 12.7219L60.0277 13.521L60.0175 13.5284Z" fill="white"/>
<path d="M75 0H95V20H75V0Z" fill="#00B67B"/>
<path fill-rule="evenodd" clip-rule="evenodd" d="M86.6436 8.43114H92.0138L87.6725 11.593L85.0277 13.521L85.0127 13.525L85.0175 13.5284L84.9874 13.5503L80.6461 16.6871L82.3023 11.593L77.9611 8.43114H83.3312L84.9874 3.33704L86.6436 8.43114ZM85.0175 13.5284L89.3289 16.6617L88.0491 12.7219L85.0277 13.521L85.0175 13.5284Z" fill="white"/>
<path d="M100 0H120V20H100V0Z" fill="#00B67B"/>
<path fill-rule="evenodd" clip-rule="evenodd" d="M111.644 8.43114H117.014L112.672 11.593L110.028 13.521L110.013 13.525L110.017 13.5284L109.987 13.5503L105.646 16.6871L107.302 11.593L102.961 8.43114H108.331L109.987 3.33704L111.644 8.43114ZM110.017 13.5284L114.329 16.6617L113.049 12.7219L110.028 13.521L110.017 13.5284Z" fill="white"/>
</svg>
