<svg width="92" height="16" viewBox="0 0 92 16" fill="none" xmlns="http://www.w3.org/2000/svg">
<path fill-rule="evenodd" clip-rule="evenodd" d="M15.7018 5.96192L10.5957 5.23144L8.313 0.675633C8.24802 0.566818 8.1294 0.5 8.00119 0.5C7.87299 0.5 7.75437 0.566818 7.68939 0.675633L5.40568 5.23041L0.298129 5.96192C0.167112 5.98054 0.0581883 6.07077 0.0171478 6.19469C-0.0238926 6.31861 0.0100661 6.45473 0.104748 6.54582L3.80055 10.0924L2.92825 15.0999C2.90599 15.2283 2.95961 15.358 3.06659 15.4345C3.17358 15.5111 3.31542 15.5213 3.43257 15.4609L7.99998 13.0968L12.5674 15.4598C12.6845 15.5203 12.8264 15.5101 12.9334 15.4335C13.0403 15.3569 13.094 15.2272 13.0717 15.0989L12.1994 10.0924L15.8952 6.54582C15.9899 6.45477 16.0239 6.31872 15.9829 6.19482C15.9419 6.07092 15.8328 5.98064 15.7018 5.96192Z" fill="#FFC727"/>
<path fill-rule="evenodd" clip-rule="evenodd" d="M34.7018 5.96192L29.5957 5.23144L27.313 0.675633C27.248 0.566818 27.1294 0.5 27.0012 0.5C26.873 0.5 26.7544 0.566818 26.6894 0.675633L24.4057 5.23041L19.2981 5.96192C19.1671 5.98054 19.0582 6.07077 19.0171 6.19469C18.9761 6.31861 19.0101 6.45473 19.1047 6.54582L22.8006 10.0924L21.9282 15.0999C21.906 15.2283 21.9596 15.358 22.0666 15.4345C22.1736 15.5111 22.3154 15.5213 22.4326 15.4609L27 13.0968L31.5674 15.4598C31.6845 15.5203 31.8264 15.5101 31.9334 15.4335C32.0403 15.3569 32.094 15.2272 32.0717 15.0989L31.1994 10.0924L34.8952 6.54582C34.9899 6.45477 35.0239 6.31872 34.9829 6.19482C34.9419 6.07092 34.8328 5.98064 34.7018 5.96192Z" fill="#FFC727"/>
<path fill-rule="evenodd" clip-rule="evenodd" d="M53.7018 5.96192L48.5957 5.23144L46.313 0.675633C46.248 0.566818 46.1294 0.5 46.0012 0.5C45.873 0.5 45.7544 0.566818 45.6894 0.675633L43.4057 5.23041L38.2981 5.96192C38.1671 5.98054 38.0582 6.07077 38.0171 6.19469C37.9761 6.31861 38.0101 6.45473 38.1047 6.54582L41.8006 10.0924L40.9282 15.0999C40.906 15.2283 40.9596 15.358 41.0666 15.4345C41.1736 15.5111 41.3154 15.5213 41.4326 15.4609L46 13.0968L50.5674 15.4598C50.6845 15.5203 50.8264 15.5101 50.9334 15.4335C51.0403 15.3569 51.094 15.2272 51.0717 15.0989L50.1994 10.0924L53.8952 6.54582C53.9899 6.45477 54.0239 6.31872 53.9829 6.19482C53.9419 6.07092 53.8328 5.98064 53.7018 5.96192Z" fill="#FFC727"/>
<path fill-rule="evenodd" clip-rule="evenodd" d="M72.7018 5.96192L67.5957 5.23144L65.313 0.675633C65.248 0.566818 65.1294 0.5 65.0012 0.5C64.873 0.5 64.7544 0.566818 64.6894 0.675633L62.4057 5.23041L57.2981 5.96192C57.1671 5.98054 57.0582 6.07077 57.0171 6.19469C56.9761 6.31861 57.0101 6.45473 57.1047 6.54582L60.8006 10.0924L59.9282 15.0999C59.906 15.2283 59.9596 15.358 60.0666 15.4345C60.1736 15.5111 60.3154 15.5213 60.4326 15.4609L65 13.0968L69.5674 15.4598C69.6845 15.5203 69.8264 15.5101 69.9334 15.4335C70.0403 15.3569 70.094 15.2272 70.0717 15.0989L69.1994 10.0924L72.8952 6.54582C72.9899 6.45477 73.0239 6.31872 72.9829 6.19482C72.9419 6.07092 72.8328 5.98064 72.7018 5.96192Z" fill="#FFC727"/>
<path fill-rule="evenodd" clip-rule="evenodd" d="M91.7018 5.96192L86.5957 5.23144L84.313 0.675633C84.248 0.566818 84.1294 0.5 84.0012 0.5C83.873 0.5 83.7544 0.566818 83.6894 0.675633L81.4057 5.23041L76.2981 5.96192C76.1671 5.98054 76.0582 6.07077 76.0171 6.19469C75.9761 6.31861 76.0101 6.45473 76.1047 6.54582L79.8006 10.0924L78.9282 15.0999C78.906 15.2283 78.9596 15.358 79.0666 15.4345C79.1736 15.5111 79.3154 15.5213 79.4326 15.4609L84 13.0968L88.5674 15.4598C88.6845 15.5203 88.8264 15.5101 88.9334 15.4335C89.0403 15.3569 89.094 15.2272 89.0717 15.0989L88.1994 10.0924L91.8952 6.54582C91.9899 6.45477 92.0239 6.31872 91.9829 6.19482C91.9419 6.07092 91.8328 5.98064 91.7018 5.96192Z" fill="#FFC727"/>
</svg>
