<svg width="247" height="90" viewBox="0 0 247 90" fill="none" xmlns="http://www.w3.org/2000/svg">
<path d="M0 11H28V39H0V11Z" fill="#00B67B"/>
<path fill-rule="evenodd" clip-rule="evenodd" d="M16.3011 22.8036H23.8193L17.7415 27.2302L14.0393 29.929L14.0176 29.9348L14.0245 29.9398L13.9824 29.9705L7.9046 34.362L10.2233 27.2302L4.14551 22.8036H11.6637L13.9824 15.6719L16.3011 22.8036ZM14.0245 29.9398L20.0602 34.3262L18.2685 28.8105L14.0393 29.929L14.0245 29.9398Z" fill="white"/>
<path d="M33 11H61V39H33V11Z" fill="#00B67B"/>
<path fill-rule="evenodd" clip-rule="evenodd" d="M49.3011 22.8036H56.8193L50.7415 27.2302L47.0393 29.929L47.0176 29.9348L47.0245 29.9398L46.9824 29.9705L40.9046 34.362L43.2233 27.2302L37.1455 22.8036H44.6637L46.9824 15.6719L49.3011 22.8036ZM47.0245 29.9398L53.0602 34.3262L51.2685 28.8105L47.0393 29.929L47.0245 29.9398Z" fill="white"/>
<path d="M66 11H94V39H66V11Z" fill="#00B67B"/>
<path fill-rule="evenodd" clip-rule="evenodd" d="M82.3011 22.8036H89.8193L83.7415 27.2302L80.0393 29.929L80.0176 29.9348L80.0245 29.9398L79.9824 29.9705L73.9046 34.362L76.2233 27.2302L70.1455 22.8036H77.6637L79.9824 15.6719L82.3011 22.8036ZM80.0245 29.9398L86.0602 34.3262L84.2685 28.8105L80.0393 29.929L80.0245 29.9398Z" fill="white"/>
<path d="M99 11H127V39H99V11Z" fill="#00B67B"/>
<path fill-rule="evenodd" clip-rule="evenodd" d="M115.301 22.8036H122.819L116.741 27.2302L113.039 29.929L113.018 29.9348L113.025 29.9398L112.982 29.9705L106.905 34.362L109.223 27.2302L103.146 22.8036H110.664L112.982 15.6719L115.301 22.8036ZM113.025 29.9398L119.06 34.3262L117.269 28.8105L113.039 29.929L113.025 29.9398Z" fill="white"/>
<path d="M132 11H160V39H132V11Z" fill="#DCDCE5"/>
<path d="M132 11H148.8V39H132V11Z" fill="#00B67B"/>
<path fill-rule="evenodd" clip-rule="evenodd" d="M148.301 22.8036H155.819L149.741 27.2302L146.039 29.929L146.018 29.9348L146.025 29.9398L145.982 29.9705L139.905 34.362L142.223 27.2302L136.146 22.8036H143.664L145.982 15.6719L148.301 22.8036ZM146.025 29.9398L152.06 34.3262L150.269 28.8105L146.039 29.929L146.025 29.9398Z" fill="white"/>
<g filter="url(#filter0_d_1_8506)">
<path d="M175 14C175 11.7909 176.791 10 179 10H213C215.209 10 217 11.7909 217 14V36C217 38.2091 215.209 40 213 40H179C176.791 40 175 38.2091 175 36V29.5L170 25L175 20.5V14Z" fill="white"/>
</g>
<path d="M189.32 30C189.213 30 189.123 29.9627 189.048 29.888C188.973 29.8133 188.936 29.7227 188.936 29.616V27.568H183.864C183.757 27.568 183.667 27.5307 183.592 27.456C183.517 27.3813 183.48 27.2907 183.48 27.184V26.08C183.48 25.9093 183.539 25.7493 183.656 25.6L188.376 19.072C188.429 18.9867 188.509 18.9227 188.616 18.88C188.723 18.8267 188.84 18.8 188.968 18.8H190.728C190.845 18.8 190.936 18.8373 191 18.912C191.075 18.976 191.112 19.0667 191.112 19.184V25.664H192.552C192.669 25.664 192.76 25.7013 192.824 25.776C192.899 25.84 192.936 25.9307 192.936 26.048V27.184C192.936 27.2907 192.899 27.3813 192.824 27.456C192.76 27.5307 192.669 27.568 192.552 27.568H191.112V29.616C191.112 29.7227 191.075 29.8133 191 29.888C190.936 29.9627 190.845 30 190.728 30H189.32ZM185.736 25.728H188.984V21.136L185.736 25.728ZM194.625 30C194.519 30 194.428 29.9627 194.353 29.888C194.279 29.8133 194.241 29.7227 194.241 29.616V28C194.241 27.8933 194.279 27.8027 194.353 27.728C194.428 27.6533 194.519 27.616 194.625 27.616H196.241C196.348 27.616 196.439 27.6533 196.513 27.728C196.588 27.8027 196.625 27.8933 196.625 28V29.616C196.625 29.7227 196.588 29.8133 196.513 29.888C196.449 29.9627 196.359 30 196.241 30H194.625ZM202.573 30.16C201.677 30.16 200.888 29.9893 200.205 29.648C199.533 29.3067 199.01 28.8373 198.637 28.24C198.274 27.6427 198.093 26.9707 198.093 26.224C198.093 25.2853 198.509 24.2507 199.341 23.12L202.253 19.12C202.338 19.0133 202.418 18.9333 202.493 18.88C202.568 18.8267 202.674 18.8 202.813 18.8H204.333C204.429 18.8 204.504 18.8373 204.557 18.912C204.621 18.976 204.653 19.056 204.653 19.152C204.653 19.2267 204.632 19.296 204.589 19.36L202.349 22.448C202.52 22.4053 202.744 22.384 203.021 22.384C203.736 22.3947 204.392 22.5707 204.989 22.912C205.597 23.2427 206.077 23.696 206.429 24.272C206.792 24.848 206.973 25.488 206.973 26.192C206.973 26.9173 206.792 27.584 206.429 28.192C206.077 28.7893 205.565 29.2693 204.893 29.632C204.232 29.984 203.458 30.16 202.573 30.16ZM202.541 28.304C203.138 28.304 203.645 28.1227 204.061 27.76C204.477 27.3867 204.685 26.8747 204.685 26.224C204.685 25.584 204.477 25.0827 204.061 24.72C203.656 24.3467 203.149 24.16 202.541 24.16C201.944 24.16 201.437 24.3467 201.021 24.72C200.616 25.0827 200.413 25.584 200.413 26.224C200.413 26.8747 200.616 27.3867 201.021 27.76C201.437 28.1227 201.944 28.304 202.541 28.304Z" fill="#1D293F"/>
<defs>
<filter id="filter0_d_1_8506" x="140" y="0" width="107" height="90" filterUnits="userSpaceOnUse" color-interpolation-filters="sRGB">
<feFlood flood-opacity="0" result="BackgroundImageFix"/>
<feColorMatrix in="SourceAlpha" type="matrix" values="0 0 0 0 0 0 0 0 0 0 0 0 0 0 0 0 0 0 127 0" result="hardAlpha"/>
<feOffset dy="20"/>
<feGaussianBlur stdDeviation="15"/>
<feColorMatrix type="matrix" values="0 0 0 0 0.054902 0 0 0 0 0.054902 0 0 0 0 0.172549 0 0 0 0.2 0"/>
<feBlend mode="normal" in2="BackgroundImageFix" result="effect1_dropShadow_1_8506"/>
<feBlend mode="normal" in="SourceGraphic" in2="effect1_dropShadow_1_8506" result="shape"/>
</filter>
</defs>
</svg>
