<svg width="67" height="10" viewBox="0 0 67 10" fill="none" xmlns="http://www.w3.org/2000/svg">
<path fill-rule="evenodd" clip-rule="evenodd" d="M11.2618 3.82025L7.16906 3.81955L5.90465 0L4.64036 3.81912L0.547485 3.81847L3.85878 6.18006L2.59426 10L5.90508 7.63945L9.215 10L7.95075 6.18091L11.2618 3.82025Z" fill="#FD7950"/>
<path fill-rule="evenodd" clip-rule="evenodd" d="M24.976 3.82025L20.8833 3.81955L19.6189 0L18.3546 3.81912L14.2617 3.81847L17.573 6.18006L16.3085 10L19.6193 7.63945L22.9292 10L21.665 6.18091L24.976 3.82025Z" fill="#FD7950"/>
<path fill-rule="evenodd" clip-rule="evenodd" d="M38.6904 3.82025L34.5976 3.81955L33.3332 0L32.0689 3.81912L27.9761 3.81847L31.2874 6.18006L30.0228 10L33.3337 7.63945L36.6436 10L35.3793 6.18091L38.6904 3.82025Z" fill="#FD7950"/>
<path fill-rule="evenodd" clip-rule="evenodd" d="M52.4046 3.82025L48.3119 3.81955L47.0475 0L45.7832 3.81912L41.6903 3.81847L45.0016 6.18006L43.7371 10L47.0479 7.63945L50.3578 10L49.0936 6.18091L52.4046 3.82025Z" fill="#FD7950"/>
<path fill-rule="evenodd" clip-rule="evenodd" d="M66.1189 3.82025L62.0262 3.81955L60.7618 0L59.4975 3.81912L55.4047 3.81847L58.716 6.18006L57.4514 10L60.7623 7.63945L64.0722 10L62.8079 6.18091L66.1189 3.82025Z" fill="#FD7950"/>
</svg>
