<svg width="91" height="18" viewBox="0 0 91 18" fill="none" xmlns="http://www.w3.org/2000/svg">
<mask id="mask0_1_6606" style="mask-type:alpha" maskUnits="userSpaceOnUse" x="0" y="1" width="17" height="17">
<path fill-rule="evenodd" clip-rule="evenodd" d="M12.2724 3.30273C9.65893 0.579244 5.32598 0.489814 2.60249 3.10337C-0.121004 5.7168 -0.210298 10.0498 2.40313 12.7732L4.4677 14.9247C7.08112 17.6482 11.4141 17.7376 14.1376 15.1242C16.8611 12.5106 16.9505 8.1778 14.3369 5.45417L12.2724 3.30273Z" fill="#FEEF7C"/>
</mask>
<g mask="url(#mask0_1_6606)">
<path fill-rule="evenodd" clip-rule="evenodd" d="M12.7405 4.84716C14.0616 5.91398 14.7074 7.29198 14.8275 8.95944C14.7271 12.178 13.2086 14.2466 10.6 15.1337C7.58624 16.0418 5.67652 15.3071 3.82858 13.4242L3.52063 15.3385C6.7343 17.4503 11.4016 18.5 14.3569 15.5855C17.3919 12.5923 17.4304 7.39355 13.8162 4.30762L12.7405 4.84716Z" fill="#FEEF7C"/>
</g>
<mask id="mask1_1_6606" style="mask-type:alpha" maskUnits="userSpaceOnUse" x="0" y="1" width="17" height="17">
<path fill-rule="evenodd" clip-rule="evenodd" d="M12.6453 3.67676C10.0317 0.953267 5.69892 0.863838 2.97529 3.4774C0.251799 6.09082 0.162504 10.4238 2.77593 13.1473L4.8405 15.2987C7.45392 18.0222 11.7869 18.1116 14.5104 15.4982C17.2339 12.8848 17.3233 8.55182 14.7097 5.82833L12.6453 3.67676Z" fill="#5CD3CB"/>
</mask>
<g mask="url(#mask1_1_6606)">
<path fill-rule="evenodd" clip-rule="evenodd" d="M2.97764 14.0739L3.80409 13.3521C1.9177 10.6789 1.83866 6.76533 4.42025 4.61079C6.33388 3.01374 10.1309 2.18594 13.1687 4.8606L13.6392 4.03348C11.1554 1.276 7.40475 0.928663 4.99999 1.87462C-0.90102 4.19588 0.00824934 11.969 2.97764 14.0739Z" fill="#5CD3CB"/>
</g>
<path d="M1.71826 9.32068C1.71826 13.1048 4.78639 16.1729 8.57049 16.1729C12.3553 16.1729 15.4233 13.1048 15.4233 9.32068C15.4233 5.5359 12.3553 2.46777 8.57049 2.46777C4.78639 2.46777 1.71826 5.5359 1.71826 9.32068ZM6.48771 10.56C6.55974 10.3321 6.47962 10.0836 6.28808 9.94048C5.7809 9.56172 4.78099 8.81499 4.10912 8.31321C4.01214 8.24078 3.97248 8.11439 4.01066 7.99946C4.04883 7.88454 4.1562 7.80712 4.27733 7.80712H6.88144C7.12383 7.80712 7.33884 7.65173 7.41505 7.42175C7.62035 6.80167 8.02838 5.56935 8.29896 4.75248C8.337 4.63769 8.44424 4.56 8.56523 4.55986C8.68622 4.55973 8.79386 4.63702 8.83217 4.75167C9.10558 5.56922 9.51847 6.80356 9.72579 7.42336C9.80254 7.65254 10.0171 7.80712 10.2589 7.80712C10.8749 7.80712 12.0616 7.80712 12.8696 7.80712C12.9903 7.80712 13.0977 7.88427 13.136 7.99892C13.1743 8.11358 13.1352 8.23983 13.0386 8.31253C12.3688 8.81714 11.3683 9.57062 10.8622 9.95181C10.6718 10.0952 10.5926 10.3432 10.6645 10.5704C10.8602 11.1884 11.2527 12.4279 11.5179 13.2652C11.5549 13.3821 11.5117 13.5097 11.4112 13.5801C11.3107 13.6505 11.1762 13.6477 11.0788 13.573C10.4059 13.0564 9.4227 12.3017 8.90784 11.9066C8.70538 11.7512 8.42373 11.7516 8.22181 11.9078C7.71194 12.3019 6.74211 13.0519 6.07482 13.5678C5.9777 13.643 5.84295 13.6463 5.74219 13.5759C5.64143 13.5057 5.598 13.3781 5.63496 13.261C5.90014 12.4213 6.29212 11.1797 6.48771 10.56Z" fill="black"/>
<path d="M24.1291 9.00287C25.5017 9.00287 26.4962 8.24423 26.4962 6.99469V6.96495C26.4962 5.76004 25.6278 5.04602 24.1431 5.04602H21.2997V9.00287H24.1291ZM20.2632 4.58488C20.2632 4.2725 20.5013 4.01962 20.7814 4.01962H24.2271C25.3617 4.01962 26.2581 4.37663 26.8464 5.0014C27.2946 5.47741 27.5607 6.16167 27.5607 6.92032V6.95007C27.5607 8.55661 26.5382 9.49376 25.1095 9.77639L27.3927 12.9002C27.4907 13.0192 27.5607 13.1531 27.5607 13.3019C27.5607 13.5994 27.2946 13.8522 27.0285 13.8522C26.8184 13.8522 26.6643 13.7332 26.5382 13.5547L23.947 9.98465H21.2997V13.287C21.2997 13.5994 21.0616 13.8522 20.7814 13.8522C20.5013 13.8522 20.2632 13.5994 20.2632 13.287C20.2632 13.3019 20.2632 4.58488 20.2632 4.58488ZM29.6197 13.2275V4.58488C29.6197 4.2725 29.8579 4.01962 30.138 4.01962H35.8528C36.1189 4.01962 36.329 4.24275 36.329 4.52538C36.329 4.80802 36.1189 5.03115 35.8528 5.03115H30.6702V8.36323H35.2645C35.5306 8.36323 35.7407 8.60124 35.7407 8.86899C35.7407 9.15162 35.5306 9.37475 35.2645 9.37475H30.6702V12.7961H35.9228C36.1889 12.7961 36.399 13.0192 36.399 13.3019C36.399 13.5845 36.1889 13.8076 35.9228 13.8076H30.138C29.8579 13.7927 29.6197 13.5399 29.6197 13.2275ZM41.2454 13.4357L37.7017 4.74851C37.6597 4.65926 37.6456 4.59976 37.6456 4.49563C37.6456 4.213 37.8838 3.94524 38.1779 3.94524C38.444 3.94524 38.6261 4.12375 38.7102 4.36175L41.8897 12.454L45.0833 4.332C45.1813 4.13862 45.3634 3.94524 45.6015 3.94524C45.8957 3.94524 46.1198 4.19813 46.1198 4.48076C46.1198 4.57001 46.1058 4.62951 46.0778 4.70389L42.52 13.4357C42.408 13.7184 42.2119 13.8969 41.9177 13.8969H41.8617C41.5535 13.8969 41.3575 13.7184 41.2454 13.4357ZM48.0247 4.51051C48.0247 4.19812 48.2628 3.94524 48.5429 3.94524C48.8371 3.94524 49.0612 4.19812 49.0612 4.51051V13.3019C49.0612 13.6142 48.8231 13.8671 48.5429 13.8671C48.2628 13.8671 48.0247 13.6142 48.0247 13.3019V4.51051ZM51.6245 13.2275V4.58488C51.6245 4.2725 51.8626 4.01962 52.1427 4.01962H57.8575C58.1236 4.01962 58.3337 4.24275 58.3337 4.52538C58.3337 4.80802 58.1236 5.03115 57.8575 5.03115H52.675V8.36323H57.2692C57.5353 8.36323 57.7454 8.60124 57.7454 8.86899C57.7454 9.15162 57.5353 9.37475 57.2692 9.37475H52.675V12.7961H57.9275C58.1937 12.7961 58.4038 13.0192 58.4038 13.3019C58.4038 13.5845 58.1937 13.8076 57.9275 13.8076H52.1427C51.8626 13.7927 51.6245 13.5399 51.6245 13.2275ZM59.7344 4.76339C59.7064 4.67414 59.6784 4.59976 59.6784 4.51051C59.6784 4.213 59.9305 3.96012 60.2106 3.96012C60.4768 3.96012 60.6729 4.16838 60.7429 4.42126L63.2781 12.1713L65.6873 4.3915C65.7713 4.13862 65.9254 3.96012 66.2056 3.96012H66.2756C66.5417 3.96012 66.7098 4.13862 66.7938 4.3915L69.203 12.1713L71.7523 4.3915C71.8363 4.13862 72.0044 3.96012 72.2565 3.96012C72.5366 3.96012 72.7888 4.22788 72.7888 4.51051C72.7888 4.59976 72.7467 4.68901 72.7187 4.77826L69.7773 13.4506C69.6792 13.7332 69.4972 13.9266 69.245 13.9266H69.161C68.8949 13.9266 68.7128 13.7332 68.6287 13.4506L66.2336 5.95342L63.8524 13.4506C63.7544 13.7332 63.5723 13.9266 63.3201 13.9266H63.2361C62.97 13.9266 62.7879 13.7481 62.7038 13.4506L59.7344 4.76339ZM74.0634 12.6176C73.9513 12.5283 73.8673 12.3796 73.8673 12.2011C73.8673 11.8887 74.0914 11.6507 74.3715 11.6507C74.4976 11.6507 74.6236 11.7102 74.6797 11.7697C75.5481 12.5581 76.4165 12.93 77.5791 12.93C78.8117 12.93 79.6241 12.2308 79.6241 11.2639V11.2491C79.6241 10.3417 79.1619 9.82102 77.2289 9.38963C75.1139 8.89874 74.1474 8.16985 74.1474 6.57819V6.54843C74.1474 5.01627 75.422 3.88574 77.1729 3.88574C78.3775 3.88574 79.2599 4.213 80.1003 4.85264C80.2124 4.94189 80.3244 5.09065 80.3244 5.2989C80.3244 5.59641 80.1003 5.83442 79.8202 5.83442C79.7081 5.83442 79.6101 5.80466 79.512 5.73029C78.7417 5.13527 77.9853 4.88239 77.1309 4.88239C75.9403 4.88239 75.1699 5.58153 75.1699 6.45918V6.48893C75.1699 7.41121 75.6461 7.93184 77.6631 8.39298C79.7081 8.86899 80.6606 9.65739 80.6606 11.1598V11.1896C80.6606 12.8556 79.3439 13.9564 77.5231 13.9564C76.1924 13.9266 75.0859 13.4804 74.0634 12.6176ZM82.2294 12.692C82.4254 12.692 82.5795 12.8407 82.5795 13.0639V13.2126C82.5795 13.4209 82.4254 13.5845 82.2294 13.5845C82.0193 13.5845 81.8792 13.4209 81.8792 13.2126V13.0639C81.8792 12.8407 82.0193 12.692 82.2294 12.692ZM83.8121 9.77639C83.8121 9.61276 83.9382 9.47888 84.0923 9.47888C84.2603 9.47888 84.3724 9.61276 84.3724 9.77639V13.2721C84.3724 13.4506 84.2603 13.5696 84.0923 13.5696C83.9242 13.5696 83.8121 13.4357 83.8121 13.2721V9.77639ZM83.7561 8.24423C83.7561 8.05085 83.9102 7.91697 84.0923 7.91697C84.2884 7.91697 84.4284 8.03597 84.4284 8.24423V8.34835C84.4284 8.54173 84.2884 8.66074 84.0923 8.66074C83.9102 8.66074 83.7561 8.52686 83.7561 8.34835V8.24423ZM88.8406 11.5466V11.5317C88.8406 10.6689 88.2243 9.95489 87.4259 9.95489C86.5995 9.95489 86.0392 10.6689 86.0392 11.5168V11.5317C86.0392 12.3945 86.6415 13.0936 87.4399 13.0936C88.2663 13.0936 88.8406 12.3945 88.8406 11.5466ZM85.4509 11.5466V11.5317C85.4509 10.3863 86.2913 9.41938 87.4399 9.41938C88.5744 9.41938 89.4148 10.3714 89.4148 11.5168V11.5317C89.4148 12.6771 88.5744 13.644 87.4259 13.644C86.2913 13.644 85.4509 12.692 85.4509 11.5466Z" fill="black"/>
</svg>
