<svg width="61" height="60" viewBox="0 0 61 60" fill="none" xmlns="http://www.w3.org/2000/svg">
<path d="M11.7002 24.3998C11.7002 23.445 12.0795 22.5294 12.7546 21.8542C13.4297 21.1791 14.3454 20.7998 15.3002 20.7998H46.5002C47.455 20.7998 48.3706 21.1791 49.0458 21.8542C49.7209 22.5294 50.1002 23.445 50.1002 24.3998V48.3998C50.1002 49.5029 49.8829 50.5952 49.4608 51.6143C49.0386 52.6335 48.4199 53.5595 47.6399 54.3395C46.8599 55.1195 45.9339 55.7383 44.9147 56.1604C43.8956 56.5825 42.8033 56.7998 41.7002 56.7998H20.1002C17.8724 56.7998 15.7358 55.9148 14.1605 54.3395C12.5852 52.7642 11.7002 50.6276 11.7002 48.3998V24.3998Z" fill="#CAAAD8"/>
<path d="M36.5 12C36.5 6.69809 32.202 2.40002 26.9 2.40002C21.5981 2.40002 17.3 6.69809 17.3 12V20.4C17.3 25.702 21.5981 30 26.9 30C32.202 30 36.5 25.702 36.5 20.4V12Z" stroke="#A788CE" stroke-width="3"/>
<path d="M7.69995 20.4C7.69995 19.4453 8.07924 18.5296 8.75437 17.8545C9.4295 17.1793 10.3452 16.8 11.3 16.8H42.5C43.4547 16.8 44.3704 17.1793 45.0455 17.8545C45.7207 18.5296 46.1 19.4453 46.1 20.4V44.4C46.1 45.5032 45.8827 46.5955 45.4605 47.6146C45.0384 48.6337 44.4197 49.5597 43.6396 50.3397C42.8596 51.1198 41.9336 51.7385 40.9145 52.1606C39.8954 52.5828 38.8031 52.8 37.7 52.8H16.1C13.8721 52.8 11.7356 51.9151 10.1603 50.3397C8.58495 48.7644 7.69995 46.6279 7.69995 44.4V20.4Z" fill="#FFE9A9" stroke="#A788CE" stroke-width="2"/>
<path fill-rule="evenodd" clip-rule="evenodd" d="M28.0998 35.8261C29.8347 35.3098 31.1 33.7027 31.1 31.8C31.1 29.4804 29.2195 27.6 26.9 27.6C24.5804 27.6 22.7 29.4804 22.7 31.8C22.7 33.7025 23.965 35.3096 25.6998 35.826V41.9999C25.6998 42.6626 26.237 43.1999 26.8998 43.1999C27.5625 43.1999 28.0998 42.6626 28.0998 41.9999V35.8261Z" fill="#A788CE"/>
</svg>
