<svg width="61" height="60" viewBox="0 0 61 60" fill="none" xmlns="http://www.w3.org/2000/svg">
<path d="M10.3878 10.5049C10.3878 9.9526 10.8355 9.50488 11.3878 9.50488H50.7167C51.269 9.50488 51.7167 9.9526 51.7167 10.5049V23.4392C51.7166 30.436 49.7878 37.2975 46.1422 43.2696C42.5862 49.095 37.531 52.6254 31.509 55.7635C31.2229 55.9126 30.8816 55.9126 30.5955 55.7635C24.5735 52.6254 19.5183 49.095 15.9623 43.2696C12.3167 37.2975 10.3879 30.436 10.3878 23.4392V10.5049Z" fill="#CAAAD8"/>
<path d="M7.08289 4.69995C6.25446 4.69995 5.58289 5.37152 5.58289 6.19995V19.1342C5.58299 26.223 7.53713 33.1746 11.2306 39.2251C14.8556 45.1636 20.004 48.7464 26.0595 51.902C26.4904 52.1265 27.0043 52.1265 27.4351 51.902C33.4907 48.7464 38.639 45.1636 42.2641 39.2251C45.9575 33.1746 47.9116 26.223 47.9117 19.1342V6.19995C47.9117 5.37152 47.2402 4.69995 46.4117 4.69995H7.08289Z" fill="#FFE9A9" stroke="#A788CE"/>
<path d="M36.5001 14L24.1001 27.6333L20.5001 24.9H18.5001L24.1001 34L38.5001 14H36.5001Z" fill="#A788CE"/>
</svg>
