<svg width="63" height="10" viewBox="0 0 63 10" fill="none" xmlns="http://www.w3.org/2000/svg">
<path d="M5.5 10C8.26142 10 10.5 7.76142 10.5 5C10.5 2.23858 8.26142 0 5.5 0C2.73858 0 0.5 2.23858 0.5 5C0.5 7.76142 2.73858 10 5.5 10Z" fill="#F06A22"/>
<path fill-rule="evenodd" clip-rule="evenodd" d="M5.50026 6.81596L4.20911 7.55253C3.96925 7.68936 3.66389 7.60584 3.52705 7.36598C3.46671 7.26021 3.44705 7.13605 3.47175 7.0168L3.77328 5.56124L2.67377 4.56089C2.46952 4.37505 2.45459 4.05882 2.64042 3.85457C2.72237 3.76449 2.83438 3.70742 2.95542 3.69407L4.43292 3.53104L5.04455 2.17623C5.15817 1.92455 5.45431 1.81262 5.70599 1.92624C5.81698 1.97635 5.90587 2.06524 5.95597 2.17623L6.5676 3.53104L8.0451 3.69407C8.31958 3.72435 8.51753 3.97141 8.48725 4.24589C8.47389 4.36693 8.41682 4.47894 8.32675 4.56089L7.22725 5.56124L7.52877 7.0168C7.58479 7.28721 7.41099 7.55182 7.14059 7.60783C7.02135 7.63253 6.89719 7.61287 6.79141 7.55253L5.50026 6.81596Z" fill="white"/>
<path d="M18.5 10C21.2614 10 23.5 7.76142 23.5 5C23.5 2.23858 21.2614 0 18.5 0C15.7386 0 13.5 2.23858 13.5 5C13.5 7.76142 15.7386 10 18.5 10Z" fill="#F06A22"/>
<path fill-rule="evenodd" clip-rule="evenodd" d="M18.5003 6.81596L17.2091 7.55253C16.9693 7.68936 16.6639 7.60584 16.5271 7.36598C16.4667 7.26021 16.447 7.13605 16.4717 7.0168L16.7733 5.56124L15.6738 4.56089C15.4695 4.37505 15.4546 4.05882 15.6404 3.85457C15.7224 3.76449 15.8344 3.70742 15.9554 3.69407L17.4329 3.53104L18.0445 2.17623C18.1582 1.92455 18.4543 1.81262 18.706 1.92624C18.817 1.97635 18.9059 2.06524 18.956 2.17623L19.5676 3.53104L21.0451 3.69407C21.3196 3.72435 21.5175 3.97141 21.4872 4.24589C21.4739 4.36693 21.4168 4.47894 21.3267 4.56089L20.2272 5.56124L20.5288 7.0168C20.5848 7.28721 20.411 7.55182 20.1406 7.60783C20.0213 7.63253 19.8972 7.61287 19.7914 7.55253L18.5003 6.81596Z" fill="white"/>
<path d="M31.5 10C34.2614 10 36.5 7.76142 36.5 5C36.5 2.23858 34.2614 0 31.5 0C28.7386 0 26.5 2.23858 26.5 5C26.5 7.76142 28.7386 10 31.5 10Z" fill="#F06A22"/>
<path fill-rule="evenodd" clip-rule="evenodd" d="M31.5003 6.81596L30.2091 7.55253C29.9693 7.68936 29.6639 7.60584 29.5271 7.36598C29.4667 7.26021 29.447 7.13605 29.4717 7.0168L29.7733 5.56124L28.6738 4.56089C28.4695 4.37505 28.4546 4.05882 28.6404 3.85457C28.7224 3.76449 28.8344 3.70742 28.9554 3.69407L30.4329 3.53104L31.0445 2.17623C31.1582 1.92455 31.4543 1.81262 31.706 1.92624C31.817 1.97635 31.9059 2.06524 31.956 2.17623L32.5676 3.53104L34.0451 3.69407C34.3196 3.72435 34.5175 3.97141 34.4872 4.24589C34.4739 4.36693 34.4168 4.47894 34.3267 4.56089L33.2272 5.56124L33.5288 7.0168C33.5848 7.28721 33.411 7.55182 33.1406 7.60783C33.0213 7.63253 32.8972 7.61287 32.7914 7.55253L31.5003 6.81596Z" fill="white"/>
<path d="M44.5 10C47.2614 10 49.5 7.76142 49.5 5C49.5 2.23858 47.2614 0 44.5 0C41.7386 0 39.5 2.23858 39.5 5C39.5 7.76142 41.7386 10 44.5 10Z" fill="#F06A22"/>
<path fill-rule="evenodd" clip-rule="evenodd" d="M44.5003 6.81596L43.2091 7.55253C42.9693 7.68936 42.6639 7.60584 42.5271 7.36598C42.4667 7.26021 42.447 7.13605 42.4717 7.0168L42.7733 5.56124L41.6738 4.56089C41.4695 4.37505 41.4546 4.05882 41.6404 3.85457C41.7224 3.76449 41.8344 3.70742 41.9554 3.69407L43.4329 3.53104L44.0445 2.17623C44.1582 1.92455 44.4543 1.81262 44.706 1.92624C44.817 1.97635 44.9059 2.06524 44.956 2.17623L45.5676 3.53104L47.0451 3.69407C47.3196 3.72435 47.5175 3.97141 47.4872 4.24589C47.4739 4.36693 47.4168 4.47894 47.3267 4.56089L46.2272 5.56124L46.5288 7.0168C46.5848 7.28721 46.411 7.55182 46.1406 7.60783C46.0213 7.63253 45.8972 7.61287 45.7914 7.55253L44.5003 6.81596Z" fill="white"/>
<path d="M57.5 10C60.2614 10 62.5 7.76142 62.5 5C62.5 2.23858 60.2614 0 57.5 0C54.7386 0 52.5 2.23858 52.5 5C52.5 7.76142 54.7386 10 57.5 10Z" fill="#F06A22"/>
<path fill-rule="evenodd" clip-rule="evenodd" d="M57.5003 6.81596L56.2091 7.55253C55.9693 7.68936 55.6639 7.60584 55.5271 7.36598C55.4667 7.26021 55.447 7.13605 55.4717 7.0168L55.7733 5.56124L54.6738 4.56089C54.4695 4.37505 54.4546 4.05882 54.6404 3.85457C54.7224 3.76449 54.8344 3.70742 54.9554 3.69407L56.4329 3.53104L57.0445 2.17623C57.1582 1.92455 57.4543 1.81262 57.706 1.92624C57.817 1.97635 57.9059 2.06524 57.956 2.17623L58.5676 3.53104L60.0451 3.69407C60.3196 3.72435 60.5175 3.97141 60.4872 4.24589C60.4739 4.36693 60.4168 4.47894 60.3267 4.56089L59.2272 5.56124L59.5288 7.0168C59.5848 7.28721 59.411 7.55182 59.1406 7.60783C59.0213 7.63253 58.8972 7.61287 58.7914 7.55253L57.5003 6.81596Z" fill="white"/>
<g clip-path="url(#clip0_1_6562)">
<path d="M57.7941 10C60.5555 10 62.7941 7.76142 62.7941 5C62.7941 2.23858 60.5555 0 57.7941 0C55.0326 0 52.7941 2.23858 52.7941 5C52.7941 7.76142 55.0326 10 57.7941 10Z" fill="#DEDEDE"/>
<path fill-rule="evenodd" clip-rule="evenodd" d="M57.7943 6.81596L56.5032 7.55253C56.2633 7.68936 55.958 7.60584 55.8211 7.36598C55.7608 7.26021 55.7411 7.13605 55.7658 7.0168L56.0673 5.56124L54.9678 4.56089C54.7636 4.37505 54.7487 4.05882 54.9345 3.85457C55.0164 3.76449 55.1284 3.70742 55.2495 3.69407L56.727 3.53104L57.3386 2.17623C57.4522 1.92455 57.7484 1.81262 58.0001 1.92624C58.111 1.97635 58.1999 2.06524 58.25 2.17623L58.8617 3.53104L60.3392 3.69407C60.6136 3.72435 60.8116 3.97141 60.7813 4.24589C60.768 4.36693 60.7109 4.47894 60.6208 4.56089L59.5213 5.56124L59.8228 7.0168C59.8789 7.28721 59.7051 7.55182 59.4347 7.60783C59.3154 7.63253 59.1913 7.61287 59.0855 7.55253L57.7943 6.81596Z" fill="white"/>
</g>
<defs>
<clipPath id="clip0_1_6562">
<rect width="5.29412" height="10" fill="white" transform="translate(57.5)"/>
</clipPath>
</defs>
</svg>
