<svg width="305" height="194" viewBox="0 0 305 194" fill="none" xmlns="http://www.w3.org/2000/svg">
<path d="M119.275 0H16.3705V124.673H119.275V0Z" fill="#F2F5F8"/>
<path d="M115.154 2.41211H19.6487V121.547H115.154V2.41211Z" fill="white"/>
<path d="M115.154 40.2026H19.6487V43.08H115.154V40.2026Z" fill="#F2F5F8"/>
<path d="M115.154 80.8716H19.6487V83.7489H115.154V80.8716Z" fill="#F2F5F8"/>
<path d="M37.5363 40.1962V7.81299L27.7095 7.81299V40.1962H37.5363Z" fill="#D8E8FF"/>
<path d="M37.5363 31.0191V27.4609H27.7095V31.0191H37.5363Z" fill="#C7D8F1"/>
<path d="M37.5363 15.5203V14.1973H27.7095V15.5203H37.5363Z" fill="#C7D8F1"/>
<path d="M101.185 7.81945V40.2026H111.011V7.81945H101.185Z" fill="#D8E8FF"/>
<path d="M101.185 16.9975V20.5557H111.011V16.9975H101.185Z" fill="#C7D8F1"/>
<path d="M111.018 38.2703V36.9473H101.191V38.2703H111.018Z" fill="#C7D8F1"/>
<path d="M111.012 32.1873V30.8643H101.185V32.1873H111.012Z" fill="#C7D8F1"/>
<path d="M83.4902 40.1962V7.81299L76.0335 7.81299V40.1962H83.4902Z" fill="#D8E8FF"/>
<path d="M83.4968 31.0191V27.4609H76.0401V31.0191H83.4968Z" fill="#C7D8F1"/>
<path d="M83.4968 15.5281V14.2051H76.0401V15.5281H83.4968Z" fill="#C7D8F1"/>
<path d="M44.4084 40.1957V2.41748L37.5362 2.41748V40.1957H44.4084Z" fill="#C7D8F1"/>
<path d="M43.0018 20.4988V5.9707H38.8785V20.4988H43.0018Z" fill="#F2F5F8"/>
<path d="M111.018 4.67339V40.1973H115.161V4.67339H111.018Z" fill="#E1EDF8"/>
<path d="M111.86 7.13192V20.793H114.345V7.13192H111.86Z" fill="#F2F5F8"/>
<path d="M83.4968 5.65606V40.1973H90.3691V5.65606H83.4968Z" fill="#C7D8F1"/>
<path d="M84.9034 23.671V36.9531H89.0268V23.671H84.9034Z" fill="#F2F5F8"/>
<path d="M56.0658 40.2029V11.5063H44.4022V40.2029H56.0658Z" fill="#E1EDF8"/>
<path d="M56.0657 37.1587V34.4868H44.4021V37.1587H56.0657Z" fill="#D8E8FF"/>
<path d="M56.0657 32.7269V31.6929H44.4021V32.7269H56.0657Z" fill="#D8E8FF"/>
<path d="M27.7096 40.2091V13.2402H19.6491V40.2091H27.7096Z" fill="#E1EDF8"/>
<path d="M27.7096 37.3379V34.8267H19.6491V37.3379H27.7096Z" fill="#D8E8FF"/>
<path d="M27.7096 21.3008V18.7896H19.6491V21.3008H27.7096Z" fill="#D8E8FF"/>
<path d="M27.7029 24.0051V23.0288H19.6424V24.0051H27.7029Z" fill="#D8E8FF"/>
<path d="M101.185 40.2021V2.41748L90.3625 2.41748V40.2021H101.185Z" fill="#E1EDF8"/>
<path d="M101.185 36.1944V32.6748H90.3625V36.1944H101.185Z" fill="#D8E8FF"/>
<path d="M101.185 13.7286V10.209H90.3625V13.7286H101.185Z" fill="#D8E8FF"/>
<path d="M101.185 17.5116V16.1436H90.3625V17.5116H101.185Z" fill="#D8E8FF"/>
<path d="M76.0144 38.9394L65.812 8.09033L61.9887 9.35479L72.191 40.2039L76.0144 38.9394Z" fill="#E1EDF8"/>
<path d="M74.9395 35.6682L73.9877 32.79L70.1643 34.0545L71.1162 36.9327L74.9395 35.6682Z" fill="#D8E8FF"/>
<path d="M68.869 17.325L67.9171 14.4468L64.0938 15.7112L65.0456 18.5894L68.869 17.325Z" fill="#D8E8FF"/>
<path d="M56.0718 3.85666V40.2026H61.9935V3.85666H56.0718Z" fill="#D8E8FF"/>
<path d="M56.0718 7.71046V11.0952H61.9935V7.71046H56.0718Z" fill="#F2F5F8"/>
<path d="M56.0658 29.3291V32.7139H61.9875V29.3291H56.0658Z" fill="#F2F5F8"/>
<path d="M56.0718 25.6877V27.0044H61.9935V25.6877H56.0718Z" fill="#F2F5F8"/>
<path d="M93.0474 80.8651V48.4819H83.2207V80.8651H93.0474Z" fill="#D8E8FF"/>
<path d="M93.0474 71.6871V68.1289H83.2207V71.6871H93.0474Z" fill="#C7D8F1"/>
<path d="M93.0472 56.1888V54.8657H83.2205V56.1888H93.0472Z" fill="#C7D8F1"/>
<path d="M23.7852 48.4816L23.7852 80.8647H33.6119V48.4816H23.7852Z" fill="#D8E8FF"/>
<path d="M23.7913 57.6596V61.2178H33.618V57.6596H23.7913Z" fill="#C7D8F1"/>
<path d="M33.6179 78.9378V77.6147H23.7912V78.9378H33.6179Z" fill="#C7D8F1"/>
<path d="M33.6179 72.8494V71.5264H23.7912V72.8494H33.6179Z" fill="#C7D8F1"/>
<path d="M58.7628 80.8583V48.4751H51.3061V80.8583H58.7628Z" fill="#D8E8FF"/>
<path d="M58.7628 71.6871V68.1289H51.3061V71.6871H58.7628Z" fill="#C7D8F1"/>
<path d="M58.7628 56.1888V54.8657H51.3061V56.1888H58.7628Z" fill="#C7D8F1"/>
<path d="M83.214 80.8652V43.0869H76.3417V80.8652H83.214Z" fill="#C7D8F1"/>
<path d="M81.8718 61.1595V46.6313H77.7485V61.1595H81.8718Z" fill="#F2F5F8"/>
<path d="M19.6487 53.2082V80.8579H23.7913V53.2082H19.6487Z" fill="#E1EDF8"/>
<path d="M20.4518 55.117V65.7529H22.9374V55.117H20.4518Z" fill="#F2F5F8"/>
<path d="M44.4406 46.3167V80.8579H51.3128V46.3167H44.4406Z" fill="#C7D8F1"/>
<path d="M45.7827 64.3326V77.6147H49.9061V64.3326H45.7827Z" fill="#F2F5F8"/>
<path d="M76.3484 80.8709V52.1743H64.6848V80.8709H76.3484Z" fill="#E1EDF8"/>
<path d="M76.3484 77.8208V75.1489H64.6848V77.8208H76.3484Z" fill="#D8E8FF"/>
<path d="M76.355 73.3964V72.3623H64.6914V73.3964H76.355Z" fill="#D8E8FF"/>
<path d="M115.154 80.8645V46.3169H107.094V80.8645H115.154Z" fill="#E1EDF8"/>
<path d="M115.161 77.2041V73.9863H107.1V77.2041H115.161Z" fill="#D8E8FF"/>
<path d="M115.154 56.6577V53.4399H107.094V56.6577H115.154Z" fill="#D8E8FF"/>
<path d="M115.154 60.1195V58.8735H107.094V60.1195H115.154Z" fill="#D8E8FF"/>
<path d="M44.4406 80.8716V43.0869H33.6183V80.8716H44.4406Z" fill="#E1EDF8"/>
<path d="M44.4406 76.8575V73.3379H33.6183V76.8575H44.4406Z" fill="#D8E8FF"/>
<path d="M44.4406 54.3912V50.8716H33.6183V54.3912H44.4406Z" fill="#D8E8FF"/>
<path d="M44.4406 58.1742V56.8062H33.6183V58.1742H44.4406Z" fill="#D8E8FF"/>
<path d="M96.876 80.8715L107.078 50.0225L103.255 48.758L93.0526 79.6071L96.876 80.8715Z" fill="#C7D8F1"/>
<path d="M97.9598 77.6087L98.9116 74.7305L95.0883 73.466L94.1364 76.3442L97.9598 77.6087Z" fill="#D8E8FF"/>
<path d="M104.024 59.2595L104.976 56.3813L101.152 55.1169L100.2 57.9951L104.024 59.2595Z" fill="#D8E8FF"/>
<path d="M58.7628 44.5188V80.8647H64.6845V44.5188H58.7628Z" fill="#C7D8F1"/>
<path d="M58.7628 48.3794V51.7642H64.6845V48.3794H58.7628Z" fill="#F2F5F8"/>
<path d="M58.7628 69.9966V73.3813H64.6845V69.9966H58.7628Z" fill="#F2F5F8"/>
<path d="M58.7628 66.3494V67.666H64.6845V66.3494H58.7628Z" fill="#F2F5F8"/>
<path d="M33.9714 121.539V89.1562H26.5147V121.539H33.9714Z" fill="#D8E8FF"/>
<path d="M33.9714 112.368V108.81H26.5147V112.368H33.9714Z" fill="#C7D8F1"/>
<path d="M33.9714 96.8699V95.5469H26.5147V96.8699H33.9714Z" fill="#C7D8F1"/>
<path d="M26.5148 121.546L26.5148 83.7681H19.6425L19.6425 121.546H26.5148Z" fill="#C7D8F1"/>
<path d="M25.1726 101.841V87.3125H21.0492V101.841H25.1726Z" fill="#F2F5F8"/>
<path d="M33.9714 92.8493V121.546H45.635V92.8493H33.9714Z" fill="#E1EDF8"/>
<path d="M33.9714 95.8946V98.5664H45.635V95.8946H33.9714Z" fill="#D8E8FF"/>
<path d="M33.9714 100.326V101.36H45.635V100.326H33.9714Z" fill="#D8E8FF"/>
<path d="M108.456 121.539V89.1562H102.405V121.539H108.456Z" fill="#D8E8FF"/>
<path d="M108.456 112.361V108.803H102.405V112.361H108.456Z" fill="#C7D8F1"/>
<path d="M108.456 96.8631V95.54H102.405V96.8631H108.456Z" fill="#C7D8F1"/>
<path d="M45.6414 86.3367V121.546H53.4642V86.3367H45.6414Z" fill="#D8E8FF"/>
<path d="M45.6354 96.3113V100.178H53.4582V96.3113H45.6354Z" fill="#C7D8F1"/>
<path d="M53.4575 119.44V118.001H45.6347V119.44H53.4575Z" fill="#C7D8F1"/>
<path d="M53.4642 112.824V111.385H45.6414V112.824H53.4642Z" fill="#C7D8F1"/>
<path d="M71.9104 121.534V85.0078H64.4537V121.534H71.9104Z" fill="#D8E8FF"/>
<path d="M71.9104 111.18V107.166H64.4537V111.18H71.9104Z" fill="#C7D8F1"/>
<path d="M71.9103 93.7034V92.2134H64.4535V93.7034H71.9103Z" fill="#C7D8F1"/>
<path d="M57.4272 121.532V85.1929H53.458V121.532H57.4272Z" fill="#C7D8F1"/>
<path d="M56.6501 102.593V88.6172H54.2673V102.593H56.6501Z" fill="#F2F5F8"/>
<path d="M89.502 86.9979V121.539H102.405V86.9979H89.502Z" fill="#C7D8F1"/>
<path d="M92.0261 105.007V118.289H99.7655V105.007H92.0261Z" fill="#F2F5F8"/>
<path d="M89.502 121.54V90.6787H77.8384V121.54H89.502Z" fill="#E1EDF8"/>
<path d="M89.502 118.27V115.393H77.8384V118.27H89.502Z" fill="#D8E8FF"/>
<path d="M89.502 113.511V112.394H77.8384V113.511H89.502Z" fill="#D8E8FF"/>
<path d="M115.161 121.54V86.9922H108.462V121.54H115.161Z" fill="#E1EDF8"/>
<path d="M115.154 117.879V114.662H108.456V117.879H115.154Z" fill="#D8E8FF"/>
<path d="M115.161 97.332V94.1143H108.462V97.332H115.161Z" fill="#D8E8FF"/>
<path d="M115.154 100.788V99.542H108.455V100.788H115.154Z" fill="#D8E8FF"/>
<path d="M64.4597 121.539V88.8218H57.4269V121.539H64.4597Z" fill="#E1EDF8"/>
<path d="M64.4536 118.078V115.027H57.4208V118.078H64.4536Z" fill="#D8E8FF"/>
<path d="M64.4536 98.6235V95.5728H57.4208V98.6235H64.4536Z" fill="#D8E8FF"/>
<path d="M64.4597 101.886V100.704H57.4269V101.886H64.4597Z" fill="#D8E8FF"/>
<path d="M71.9104 86.7666V121.539H77.8321V86.7666H71.9104Z" fill="#C7D8F1"/>
<path d="M71.9164 90.4538V93.6973H77.8381V90.4538H71.9164Z" fill="#F2F5F8"/>
<path d="M71.9103 111.135V114.379H77.832V111.135H71.9103Z" fill="#F2F5F8"/>
<path d="M71.9104 107.654V108.913H77.8321V107.654H71.9104Z" fill="#F2F5F8"/>
<path d="M80.0757 191.991L75.5899 164.737H15.5801L13.7812 191.991H80.0757Z" fill="#DBDBDB"/>
<path d="M20.7075 191.991L22.3325 164.737H15.5801L13.7897 191.991H20.7075Z" fill="#A6A6A6"/>
<path d="M77.7884 119.656H103.51V111.401H77.7884V119.656Z" fill="#263238"/>
<path d="M54.5193 178.601C57.889 177.49 61.9538 177.027 64.6669 174.517C65.8742 173.315 66.7291 171.806 67.1386 170.153C67.3975 169.202 67.5847 168.234 67.6986 167.256C67.8688 166.217 67.9816 165.169 68.0366 164.118C68.0366 164.092 68.0467 164.068 68.0648 164.05C68.083 164.032 68.1075 164.021 68.1331 164.021C68.1587 164.021 68.1833 164.032 68.2014 164.05C68.2195 164.068 68.2297 164.092 68.2297 164.118C68.2297 165.267 68.4614 166.406 68.4421 167.565C68.4342 168.59 68.3242 169.612 68.1138 170.616C67.762 172.426 66.905 174.1 65.6421 175.444C64.2732 176.697 62.581 177.544 60.7566 177.886C58.716 178.44 56.6276 178.799 54.5193 178.958C54.3455 178.977 54.3552 178.678 54.5193 178.601Z" fill="#263238"/>
<path d="M98.7014 117.435C106.117 141.718 108.81 159.474 116.081 163.606C121.98 166.947 130.081 169.023 138.365 170.307C147.206 171.564 156.122 172.235 165.052 172.315C167.803 172.315 170.092 172.315 171.714 172.315C175.73 172.315 180.519 145.454 177.507 142.384C176.802 141.689 174.128 141.293 170.401 141.071C157.849 140.337 133.315 141.612 131.78 140.308C130.245 139.005 118.842 122.842 108.849 107.683C99.2711 93.2681 93.9897 102.006 98.7014 117.435Z" fill="#F7A9A0"/>
<path d="M163.555 170.229C167.532 171.698 171.603 172.898 175.74 173.821C179.032 174.42 188.543 175.878 189.557 172.315C190.252 169.892 184.729 168.376 180.867 167.217C178.83 166.609 176.223 164.823 176.667 163.509C177.439 161.212 182.692 162.892 186.187 164.475C192.946 167.526 202.147 173.319 205.71 169.669C207.052 168.298 205.111 166.242 202.379 164.321C206.714 166.445 211.261 168.086 212.816 166.618C213.215 166.24 213.455 165.724 213.487 165.176C213.52 164.627 213.342 164.086 212.99 163.664C213.527 163.843 214.105 163.861 214.653 163.715C215.2 163.57 215.693 163.266 216.07 162.843C217.248 161.327 216.398 159.358 214.728 157.417C214.979 157.361 215.213 157.243 215.409 157.075C215.604 156.907 215.755 156.692 215.848 156.452C218.203 151.894 202.939 141.11 197.986 140.463C183.387 138.532 168.373 141.361 168.373 141.361C163.275 146.449 163.546 170.22 163.555 170.229Z" fill="#F7A9A0"/>
<path d="M183.117 154.791C186.565 154.939 189.939 155.849 192.994 157.456C196.557 159.387 199.511 162.283 202.852 164.504C202.939 164.562 202.852 164.707 202.755 164.639C201.172 163.452 199.463 162.419 197.831 161.299C196.199 160.179 194.674 159.059 193.003 158.074C189.993 156.259 186.608 155.156 183.107 154.849C183.107 154.849 183.078 154.781 183.117 154.791Z" fill="#263238"/>
<path d="M185.144 148.468C189.039 148.972 192.873 149.872 196.585 151.152C200.592 152.697 203.894 155.545 207.139 158.277C209.07 159.919 210.978 161.605 212.864 163.337C212.941 163.404 212.864 163.549 212.758 163.472C209.469 160.64 206.093 157.911 202.63 155.284C199.436 152.823 195.787 151.018 191.893 149.974C189.663 149.375 187.394 149.008 185.134 148.535C185.096 148.526 185.096 148.458 185.144 148.468Z" fill="#263238"/>
<path d="M188.591 142.771C192.309 143.137 195.543 143.446 198.961 145.068C203.499 147.202 208.066 151.122 209.669 152.513C211.435 154.048 213.154 155.641 214.853 157.263C214.921 157.33 214.805 157.456 214.738 157.388C210.875 153.85 206.789 150.563 202.504 147.55C200.483 146.088 198.249 144.946 195.881 144.161C193.495 143.496 191.056 143.04 188.591 142.799C188.591 142.799 188.572 142.771 188.591 142.771Z" fill="#263238"/>
<path d="M158.67 173.772L168.045 140.385C168.045 140.385 134.571 141.205 132.321 139.96C130.071 138.714 117.693 119.182 108.424 106.167C101.144 95.9034 93.0533 97.2262 98.2092 118.506C103.645 140.945 108.115 158.594 114.15 163.432C124.336 171.552 158.67 173.772 158.67 173.772Z" fill="#FFE6B3"/>
<path d="M158.486 156.143C158.985 155.98 159.518 155.954 160.031 156.065C160.31 156.166 160.553 156.349 160.725 156.59C160.898 156.832 160.992 157.12 160.997 157.417C160.998 157.61 161.047 157.799 161.14 157.967C161.233 158.136 161.366 158.279 161.528 158.383C161.711 158.499 161.92 158.568 162.136 158.585C162.383 158.616 162.628 158.662 162.87 158.721C162.376 158.896 161.84 158.916 161.335 158.779C161.063 158.665 160.831 158.473 160.67 158.227C160.508 157.981 160.423 157.692 160.427 157.398C160.42 157.202 160.364 157.012 160.264 156.843C160.165 156.674 160.025 156.533 159.857 156.432C159.669 156.323 159.457 156.264 159.239 156.259C158.979 156.239 158.737 156.21 158.486 156.143ZM117.046 142.056C117.264 142.059 117.477 142.119 117.664 142.23C117.834 142.328 117.975 142.468 118.073 142.638C118.171 142.807 118.223 142.999 118.224 143.195C118.222 143.489 118.307 143.777 118.469 144.023C118.63 144.269 118.861 144.461 119.132 144.576C119.641 144.708 120.179 144.688 120.677 144.518C120.426 144.45 120.184 144.421 119.943 144.373C119.726 144.365 119.516 144.298 119.335 144.18C119.173 144.076 119.04 143.933 118.947 143.764C118.854 143.596 118.805 143.407 118.804 143.214C118.798 142.918 118.703 142.63 118.53 142.389C118.358 142.148 118.117 141.964 117.838 141.863C117.334 141.742 116.808 141.759 116.312 141.911C116.554 141.979 116.795 142.008 117.046 142.056ZM139.108 154.82C139.327 154.826 139.54 154.89 139.726 155.003C139.896 155.101 140.037 155.242 140.135 155.411C140.233 155.581 140.285 155.773 140.286 155.969C140.285 156.262 140.37 156.548 140.532 156.792C140.693 157.036 140.924 157.227 141.194 157.34C141.702 157.482 142.242 157.462 142.739 157.282C142.488 157.224 142.246 157.195 142.005 157.147C141.787 157.14 141.575 157.07 141.397 156.944C141.235 156.84 141.102 156.697 141.009 156.529C140.916 156.36 140.867 156.171 140.866 155.979C140.859 155.682 140.763 155.395 140.591 155.154C140.419 154.913 140.178 154.729 139.9 154.627C139.39 154.513 138.859 154.543 138.365 154.714C138.616 154.743 138.867 154.772 139.108 154.82ZM124.037 155.988C123.875 156.139 123.68 156.248 123.467 156.307C123.277 156.355 123.078 156.353 122.889 156.303C122.699 156.252 122.526 156.154 122.386 156.017C122.18 155.809 121.916 155.666 121.629 155.608C121.342 155.549 121.044 155.578 120.773 155.689C120.213 155.93 120.001 156.413 119.721 156.809C119.934 156.682 120.14 156.543 120.339 156.394C120.501 156.251 120.697 156.151 120.908 156.104C121.102 156.063 121.302 156.071 121.491 156.129C121.681 156.186 121.852 156.291 121.99 156.432C122.201 156.64 122.47 156.778 122.762 156.829C123.053 156.879 123.353 156.838 123.621 156.712C124.062 156.435 124.416 156.041 124.645 155.573C124.394 155.699 124.201 155.853 124.037 155.988ZM117.915 129.649C117.755 129.799 117.559 129.906 117.346 129.958C117.156 130.007 116.958 130.007 116.769 129.958C116.579 129.909 116.406 129.813 116.264 129.678C116.059 129.468 115.797 129.323 115.509 129.263C115.222 129.203 114.924 129.23 114.652 129.34C114.092 129.591 113.889 130.074 113.609 130.47C113.821 130.344 114.015 130.19 114.217 130.054C114.377 129.908 114.574 129.807 114.787 129.765C114.98 129.724 115.181 129.732 115.37 129.789C115.559 129.847 115.731 129.951 115.868 130.093C116.081 130.299 116.35 130.435 116.641 130.485C116.932 130.535 117.232 130.496 117.5 130.373C118.05 130.103 118.244 129.63 118.533 129.234C118.244 129.359 118.079 129.514 117.877 129.649H117.915ZM151.612 167.768C151.449 167.914 151.254 168.02 151.042 168.077C150.853 168.126 150.654 168.126 150.465 168.077C150.276 168.028 150.102 167.931 149.961 167.797C149.756 167.586 149.493 167.442 149.206 167.382C148.919 167.322 148.62 167.348 148.348 167.459C147.894 167.723 147.528 168.116 147.296 168.588C147.518 168.463 147.711 168.308 147.914 168.173C148.074 168.026 148.271 167.926 148.484 167.883C148.677 167.84 148.878 167.848 149.067 167.905C149.257 167.963 149.428 168.068 149.565 168.212C149.777 168.417 150.046 168.554 150.337 168.604C150.629 168.654 150.928 168.615 151.197 168.492C151.634 168.211 151.987 167.817 152.22 167.352C151.969 167.478 151.776 167.623 151.573 167.768H151.612ZM135.41 140.385C135.387 140.676 135.259 140.949 135.049 141.151C134.839 141.354 134.562 141.473 134.271 141.486C133.978 141.482 133.69 141.565 133.444 141.725C133.198 141.885 133.005 142.114 132.89 142.384C132.758 142.894 132.778 143.431 132.948 143.929C133.016 143.688 133.045 143.437 133.093 143.195C133.103 142.979 133.169 142.769 133.286 142.587C133.39 142.425 133.533 142.292 133.702 142.199C133.87 142.107 134.059 142.057 134.252 142.056C134.549 142.052 134.837 141.957 135.079 141.784C135.32 141.612 135.503 141.37 135.604 141.09C135.68 140.87 135.706 140.636 135.681 140.405L135.41 140.385ZM108.781 117.261C108.775 117.48 108.712 117.693 108.598 117.879C108.499 118.048 108.358 118.188 108.189 118.286C108.019 118.384 107.828 118.437 107.632 118.439C107.338 118.437 107.05 118.522 106.804 118.684C106.559 118.845 106.366 119.076 106.252 119.347C106.114 119.853 106.134 120.388 106.31 120.882C106.368 120.641 106.397 120.399 106.445 120.158C106.456 119.94 106.526 119.73 106.648 119.55C106.752 119.388 106.895 119.255 107.063 119.162C107.232 119.069 107.421 119.02 107.613 119.019C107.91 119.013 108.197 118.918 108.439 118.746C108.68 118.573 108.864 118.332 108.965 118.053C109.078 117.544 109.051 117.013 108.888 116.518C108.82 116.808 108.791 117.01 108.743 117.261H108.781ZM131.326 164.359C131.318 164.576 131.259 164.788 131.152 164.977C131.052 165.145 130.911 165.284 130.742 165.382C130.573 165.48 130.382 165.534 130.187 165.537C129.893 165.535 129.605 165.62 129.359 165.782C129.113 165.943 128.921 166.174 128.806 166.445C128.671 166.951 128.691 167.486 128.864 167.98C128.932 167.729 128.951 167.488 128.999 167.246C129.01 167.029 129.081 166.818 129.202 166.638C129.306 166.476 129.449 166.343 129.618 166.25C129.786 166.158 129.975 166.108 130.168 166.107C130.464 166.101 130.752 166.006 130.993 165.834C131.235 165.661 131.418 165.42 131.519 165.141C131.632 164.632 131.606 164.102 131.442 163.606C131.365 163.867 131.336 164.118 131.288 164.359H131.326ZM105.364 102.47L105.18 102.595C105.023 102.748 104.825 102.852 104.61 102.894C104.419 102.932 104.22 102.922 104.033 102.865C103.846 102.807 103.677 102.705 103.539 102.566C103.316 102.351 103.03 102.211 102.723 102.168C102.416 102.124 102.104 102.179 101.83 102.325C101.388 102.607 101.031 103.004 100.797 103.474C101.01 103.343 101.216 103.202 101.415 103.049C101.575 102.899 101.771 102.792 101.984 102.74C102.173 102.692 102.37 102.693 102.558 102.744C102.746 102.795 102.917 102.893 103.056 103.03C103.276 103.235 103.553 103.37 103.851 103.416C104.149 103.463 104.454 103.419 104.726 103.29C105.046 103.147 105.311 102.903 105.479 102.595L105.364 102.47ZM105.981 144.952C105.825 145.105 105.627 145.209 105.412 145.252H105.277C105.316 145.402 105.365 145.551 105.421 145.696C105.463 145.706 105.506 145.706 105.547 145.696C106.117 145.454 106.319 144.962 106.599 144.566C106.339 144.624 106.155 144.808 105.943 144.914L105.981 144.952ZM151.226 146.005C151.385 145.852 151.581 145.742 151.795 145.686C151.985 145.638 152.184 145.64 152.374 145.69C152.563 145.741 152.736 145.839 152.877 145.976C153.082 146.185 153.345 146.329 153.632 146.387C153.92 146.446 154.218 146.417 154.489 146.304C155.049 146.063 155.252 145.58 155.532 145.184C155.319 145.31 155.126 145.454 154.923 145.599C154.761 145.742 154.565 145.842 154.354 145.889C154.161 145.93 153.96 145.922 153.771 145.864C153.582 145.807 153.41 145.702 153.272 145.561C153.06 145.355 152.791 145.219 152.5 145.169C152.209 145.119 151.909 145.158 151.641 145.281C151.198 145.558 150.84 145.952 150.608 146.42C150.791 146.256 150.984 146.101 151.187 145.966L151.226 146.005Z" fill="white"/>
<path d="M156.864 156.799C157.605 154.173 158.326 151.543 159.027 148.911C159.742 146.197 160.234 143.407 161.026 140.713C161.026 140.597 160.881 140.568 160.852 140.713C160.099 143.397 159.056 146.024 158.226 148.698C157.396 151.373 156.642 153.893 155.889 156.509C154.393 161.781 152.848 167.082 151.709 172.44C151.709 172.604 151.931 172.691 151.989 172.527C153.891 167.362 155.387 162.051 156.864 156.799Z" fill="#263238"/>
<path d="M131.761 170.036C124.606 168.472 117.857 166.309 114.208 163.384C108.173 158.556 103.703 140.897 98.2671 118.458C94.1347 101.426 98.5085 97.2168 104.147 101.426L131.761 170.036Z" fill="#263238"/>
<path d="M110.52 178.601C108.869 179.895 44.0341 177.636 43.7638 177.221C43.0396 175.965 61.3362 117.078 89.1431 99.0137C94.0479 95.8371 101.415 98.164 104.591 100.723C106.175 102.007 110.732 111.643 111.273 119.463C111.813 127.284 111.485 177.742 110.52 178.601Z" fill="#FFE6B3"/>
<path d="M100.084 110.38C96.0443 110.348 90.9201 102.892 89.4903 97.5341C89.3961 97.166 93.9311 84.5315 94.571 81.9328C94.7033 81.4059 109.937 89.9113 109.937 89.9113C108.208 92.9264 106.855 96.1425 105.91 99.4875C105.784 99.8633 103.996 110.417 100.084 110.38Z" fill="#F7A9A0"/>
<path d="M95.0858 82.0544C94.8799 86.4367 95.1949 98.0538 104.006 100.448C104.538 100.59 105.081 100.687 105.629 100.74C105.778 100.026 105.867 99.5708 105.875 99.4776C106.822 96.1369 108.174 92.9248 109.903 89.913C109.826 89.8556 109.742 89.8078 109.654 89.7709C109.547 89.6934 109.405 89.6288 109.239 89.5302L109.062 89.4319C108.967 89.3656 108.849 89.3118 108.73 89.2463L108.304 89.0059L107.594 88.6247L107.334 88.4714L106.789 88.1656L104.636 86.9878L103.819 86.5407C103.465 86.3558 103.11 86.171 102.766 85.9626L101.714 85.4077L101.584 85.3426L99.7979 84.3841L99.2066 84.0683L98.0256 83.4831L97.2575 83.0923L95.7462 82.3562L95.4044 82.2057L95.0858 82.0544Z" fill="#263238"/>
<path d="M99.0836 62.3826C95.4544 67.4305 92.9024 84.6489 95.6905 89.692C99.7158 96.9198 109.061 100.653 115.902 95.1911C122.54 89.8983 125.461 67.3287 122.1 62.4798C117.154 55.4816 104.45 54.9295 99.0836 62.3826Z" fill="#F7A9A0"/>
<path d="M111.089 78.4173C111.089 78.4173 110.984 78.421 110.987 78.5021C110.773 79.6701 110.333 81.0085 109.19 81.1763L109.192 81.2459C110.518 81.3386 111.083 79.578 111.089 78.4173Z" fill="#263238"/>
<path d="M110.307 76.9707C108.443 76.4327 107.496 80.1912 109.277 80.6973C111.059 81.2033 111.866 77.4266 110.307 76.9707Z" fill="#263238"/>
<path d="M117.745 79.576C117.745 79.576 117.829 79.6543 117.749 79.7035C117.419 80.8756 117.223 82.2287 118.174 82.8916C118.174 82.8916 118.177 82.9727 118.174 82.8916C116.963 82.4351 117.212 80.616 117.745 79.576Z" fill="#263238"/>
<path d="M119.104 78.6239C121.007 78.9749 120.177 82.764 118.414 82.443C116.65 82.1219 117.504 78.3436 119.104 78.6239Z" fill="#263238"/>
<path d="M106.85 89.8326C107.417 89.6302 108.041 89.2917 108.647 89.5033C109.252 89.7836 109.788 90.1953 110.214 90.7085C110.214 90.7085 110.349 90.7162 110.296 90.6203C110.206 90.1942 110.003 89.8002 109.709 89.4793C109.415 89.1583 109.039 88.9223 108.623 88.7957C108.251 88.7324 107.869 88.7802 107.524 88.933C107.18 89.0859 106.888 89.337 106.685 89.6549C106.674 89.6657 106.664 89.6787 106.657 89.6932C106.651 89.7077 106.647 89.7233 106.647 89.7392C106.646 89.7551 106.648 89.7709 106.654 89.7858C106.66 89.8008 106.668 89.8144 106.679 89.8261C106.69 89.8378 106.703 89.8472 106.717 89.8538C106.731 89.8605 106.747 89.8642 106.763 89.8648C106.779 89.8654 106.795 89.8628 106.81 89.8573C106.825 89.8518 106.838 89.8434 106.85 89.8326Z" fill="#263238"/>
<path d="M114.682 84.5816C114.682 84.5816 114.502 86.3866 114.31 87.2057C112.696 86.8368 111.04 86.6881 109.386 86.7635C108.992 86.7774 109.063 86.4963 109.534 86.3522C110.91 85.9157 112.386 85.9044 113.769 86.3196C113.889 86.1064 113.996 83.538 114.125 83.5683C114.751 83.7756 115.347 84.067 115.896 84.4345C116.368 80.6928 116.246 76.8906 116.777 73.17C116.784 73.1466 116.798 73.1259 116.817 73.1108C116.836 73.0958 116.86 73.0873 116.884 73.0864C116.909 73.0856 116.933 73.0925 116.953 73.1061C116.973 73.1197 116.989 73.1394 116.997 73.1623C117.262 77.2217 117.118 81.2974 116.565 85.3278C116.525 85.8282 115.038 84.8012 114.682 84.5816Z" fill="#263238"/>
<path d="M108.854 73.9233C109.384 73.8234 109.883 73.8059 110.415 73.7524C110.959 73.6225 111.53 73.6716 112.044 73.8925C112.191 73.9946 112.3 74.1421 112.354 74.3122C112.408 74.4823 112.405 74.6656 112.344 74.8336C112.173 75.1462 111.922 75.4079 111.616 75.5919C111.311 75.7759 110.962 75.8756 110.605 75.8811C109.885 76.0038 109.144 75.8562 108.525 75.4667C108.388 75.3698 108.282 75.2348 108.221 75.0783C108.159 74.9219 108.145 74.7509 108.181 74.5865C108.216 74.4222 108.298 74.2717 108.418 74.1538C108.537 74.0359 108.689 73.9558 108.854 73.9233Z" fill="#263238"/>
<path d="M122.218 74.4526C121.811 74.1194 121.385 73.8089 120.944 73.5225C120.546 73.1336 120.032 72.8866 119.48 72.8196C119.302 72.8298 119.133 72.8999 119.001 73.0183C118.868 73.1368 118.779 73.2966 118.748 73.4719C118.735 73.8293 118.817 74.1839 118.988 74.4985C119.158 74.813 119.41 75.076 119.716 75.2599C120.277 75.7314 120.993 75.9754 121.725 75.9437C121.891 75.9278 122.048 75.864 122.178 75.7601C122.308 75.6563 122.405 75.5169 122.457 75.3589C122.51 75.2008 122.515 75.031 122.472 74.8701C122.43 74.7092 122.341 74.5641 122.218 74.4526Z" fill="#263238"/>
<path d="M103.572 76.8469C105.016 77.3416 105.178 74.3534 105.211 73.3078C105.347 72.2294 105.577 71.165 105.9 70.1271C105.516 71.1456 105.038 72.1259 104.471 73.0553C103.839 73.8782 102.126 76.329 103.572 76.8469Z" fill="white"/>
<path d="M94.0283 79.0396C94.0283 79.0396 90.8806 67.0578 93.1868 61.3485C94.2567 58.7694 98.3747 58.0562 98.3747 58.0562C98.4175 56.8905 98.785 55.7599 99.4359 54.7918C100.087 53.8237 100.995 53.0566 102.058 52.577C106.072 50.5445 113.486 53.464 113.486 53.464C113.486 53.464 120.516 47.7977 126.653 52.6768C132.789 57.556 125.894 64.1343 125.894 64.1343C125.894 64.1343 127.383 68.5151 120.281 69.5072C113.352 70.4815 101.731 64.0774 101.731 64.0774C101.044 68.5322 99.6941 72.8591 97.7253 76.9138C97.3639 77.5736 96.8277 78.1211 96.1755 78.4961C95.5233 78.8711 94.7804 79.0592 94.0283 79.0396Z" fill="#263238"/>
<path d="M114.662 53.9099C113.292 52.8181 111.711 52.0203 110.019 51.5662C108.512 51.0917 106.934 50.884 105.355 50.9524C103.964 50.9311 102.593 51.2902 101.39 51.991C100.188 52.6917 99.1995 53.7075 98.532 54.9287C98.2294 55.5743 98.0587 56.2738 98.0299 56.9862C98.0011 57.6987 98.1148 58.4096 98.3643 59.0776C98.3663 59.1355 98.4686 59.0739 98.4454 59.0747C97.4299 56.5921 99.1983 53.7448 101.35 52.5668C103.896 51.4054 106.778 51.2135 109.455 52.027C111.192 52.5074 112.865 53.1969 114.436 54.0803C114.447 54.0951 114.461 54.1076 114.477 54.1171C114.493 54.1265 114.511 54.1327 114.529 54.1353C114.547 54.1379 114.566 54.1368 114.584 54.1321C114.602 54.1275 114.619 54.1193 114.634 54.1081C114.649 54.097 114.661 54.0829 114.671 54.0669C114.68 54.0509 114.686 54.0332 114.689 54.0148C114.692 53.9964 114.691 53.9776 114.686 53.9596C114.681 53.9416 114.673 53.9247 114.662 53.9099Z" fill="#263238"/>
<path d="M130.652 57.5263C130.601 56.5049 130.3 55.5118 129.775 54.6339C129.251 53.756 128.519 53.0201 127.644 52.4909C125.672 51.1908 123.323 50.587 120.969 50.7756C118.601 50.9721 116.33 51.8013 114.392 53.1766C114.392 53.1766 114.396 53.2809 114.395 53.2578C116.131 52.0559 118.16 51.3447 120.267 51.1993C122.373 51.0538 124.48 51.4795 126.365 52.4314C127.255 52.7937 128.042 53.3715 128.653 54.113C129.265 54.8545 129.682 55.7363 129.868 56.6792C130.054 57.622 130.003 58.5964 129.72 59.5146C129.436 60.4328 128.928 61.2661 128.243 61.9395C126.637 63.5179 124.621 64.614 122.424 65.103C122.424 65.103 122.427 65.1958 122.426 65.1842C124.477 64.8363 126.404 63.9696 128.024 62.6667C128.805 62.0478 129.443 61.2687 129.897 60.3819C130.35 59.4951 130.608 58.5213 130.652 57.5263Z" fill="#263238"/>
<path d="M121.724 70.2922C118.61 70.5886 115.468 70.2203 112.507 69.2116C109.415 68.2057 106.442 66.8665 103.64 65.2175C102.005 64.2768 100.403 63.2654 98.8232 62.23C98.8232 62.23 98.7305 62.2333 98.826 62.3111C101.478 64.5095 104.354 66.4234 107.405 68.0213C110.255 69.4735 113.361 70.3577 116.548 70.6248C118.298 70.7568 120.057 70.6678 121.785 70.3597C121.785 70.3597 121.77 70.279 121.724 70.2922Z" fill="#263238"/>
<path d="M98.0705 76.8203C98.0705 76.8203 96.0445 70.3463 93.221 70.9096C90.3976 71.4729 90.7443 80.0252 93.2379 81.9685C93.5348 82.2363 93.8822 82.4421 94.2596 82.5738C94.6371 82.7056 95.0371 82.7607 95.4361 82.7359C95.8352 82.7111 96.2253 82.6069 96.5835 82.4293C96.9417 82.2518 97.2609 82.0045 97.5224 81.702L98.0705 76.8203Z" fill="#F7A9A0"/>
<path d="M93.3763 73.3527L93.3787 73.4223C95.1003 74.8589 95.5589 77.0129 95.6917 79.1435C95.6388 78.9079 95.5354 78.6866 95.3887 78.4947C95.242 78.3029 95.0554 78.1452 94.8419 78.0325C94.6283 77.9197 94.3929 77.8546 94.1517 77.8417C93.9106 77.8287 93.6695 77.8682 93.4451 77.9574C93.4451 77.9574 93.4492 78.0734 93.4492 78.0734C93.8326 78.0751 94.2063 78.195 94.5192 78.4165C94.8322 78.6381 95.0694 78.9506 95.1986 79.3117C95.4081 79.9165 95.5545 80.5414 95.6354 81.1764C95.6427 81.385 96.0144 81.3951 96.0179 81.1629C96.8452 78.6156 96.0033 74.4674 93.3763 73.3527Z" fill="#263238"/>
<path d="M98.1106 117.683C98.606 117.519 99.1364 117.493 99.6458 117.606C99.9244 117.707 100.166 117.89 100.338 118.132C100.511 118.373 100.606 118.661 100.611 118.957C100.613 119.15 100.662 119.339 100.755 119.507C100.847 119.676 100.981 119.819 101.142 119.923C101.324 120.041 101.534 120.108 101.751 120.116C101.992 120.116 102.233 120.193 102.475 120.261C101.981 120.436 101.445 120.457 100.94 120.319C100.669 120.204 100.438 120.012 100.276 119.766C100.115 119.52 100.03 119.232 100.032 118.938C100.028 118.743 99.9751 118.552 99.8771 118.383C99.7791 118.214 99.6397 118.073 99.472 117.973C99.2845 117.862 99.0716 117.802 98.854 117.799C98.5933 117.77 98.352 117.77 98.1106 117.683ZM109.455 165.177C109.676 165.186 109.892 165.249 110.083 165.36C110.249 165.462 110.388 165.603 110.486 165.772C110.584 165.94 110.638 166.131 110.643 166.326C110.641 166.62 110.726 166.908 110.887 167.154C111.049 167.399 111.28 167.592 111.551 167.706C112.057 167.839 112.591 167.819 113.086 167.648C112.844 167.581 112.603 167.552 112.352 167.504C112.136 167.494 111.926 167.427 111.744 167.31C111.583 167.205 111.451 167.062 111.358 166.894C111.266 166.725 111.216 166.537 111.213 166.345C111.206 166.047 111.111 165.759 110.939 165.516C110.767 165.273 110.526 165.088 110.247 164.984C109.737 164.87 109.206 164.9 108.712 165.07C108.973 165.08 109.214 165.128 109.455 165.177ZM76.8499 137.177C77.0708 137.186 77.2862 137.249 77.4775 137.36C77.644 137.462 77.7824 137.603 77.8803 137.772C77.9781 137.94 78.0321 138.131 78.0375 138.326C78.0353 138.62 78.1203 138.908 78.2819 139.154C78.4434 139.399 78.6742 139.592 78.9451 139.706C79.4513 139.839 79.9854 139.819 80.4803 139.648C80.2389 139.581 79.9975 139.552 79.7465 139.504C79.5302 139.494 79.3203 139.427 79.1382 139.31C78.9788 139.204 78.8474 139.06 78.755 138.892C78.6626 138.724 78.6119 138.537 78.6072 138.345C78.6009 138.047 78.5055 137.759 78.3334 137.516C78.1613 137.273 77.9203 137.088 77.6416 136.984C77.1317 136.87 76.6003 136.9 76.1065 137.07C76.3672 137.08 76.6085 137.08 76.8499 137.128V137.177ZM105.333 180.944C105.553 180.946 105.77 181.006 105.96 181.117C106.127 181.219 106.265 181.36 106.363 181.529C106.461 181.698 106.515 181.888 106.52 182.083C106.517 182.377 106.601 182.666 106.763 182.912C106.925 183.158 107.156 183.35 107.428 183.464C107.934 183.596 108.468 183.576 108.963 183.406C108.722 183.338 108.48 183.309 108.229 183.261C108.013 183.251 107.803 183.185 107.621 183.068C107.461 182.962 107.33 182.819 107.239 182.651C107.148 182.482 107.1 182.294 107.1 182.102C107.094 181.806 106.999 181.518 106.826 181.277C106.654 181.035 106.413 180.852 106.134 180.75C105.625 180.637 105.094 180.664 104.599 180.828C104.85 180.818 105.091 180.847 105.333 180.895V180.944ZM91.4678 157.626C91.6886 157.628 91.905 157.688 92.0954 157.8C92.2607 157.903 92.3983 158.045 92.4959 158.213C92.5936 158.381 92.6483 158.571 92.6554 158.766C92.6532 159.06 92.7382 159.348 92.8998 159.594C93.0613 159.839 93.2921 160.032 93.563 160.146C94.0687 160.284 94.6044 160.264 95.0982 160.088C94.8568 160.021 94.6154 159.992 94.374 159.944C94.1575 159.935 93.9473 159.869 93.7658 159.75C93.604 159.646 93.4708 159.503 93.3781 159.335C93.2854 159.166 93.2361 158.977 93.2347 158.785C93.2292 158.488 93.134 158.201 92.9616 157.959C92.7893 157.718 92.5479 157.535 92.2692 157.433C91.7599 157.32 91.2295 157.347 90.734 157.51C90.9851 157.501 91.2071 157.53 91.4678 157.578V157.626ZM65.2444 161.942C65.462 161.946 65.6749 162.005 65.8623 162.116C66.0319 162.214 66.1729 162.355 66.2712 162.524C66.3694 162.693 66.4216 162.886 66.4223 163.081C66.4201 163.376 66.5051 163.664 66.6667 163.909C66.8282 164.155 67.0591 164.348 67.3299 164.462C67.8362 164.595 68.3703 164.574 68.8651 164.404C68.6237 164.337 68.3823 164.308 68.141 164.259C67.9245 164.251 67.7142 164.185 67.5327 164.066C67.371 163.962 67.2377 163.819 67.145 163.651C67.0523 163.482 67.003 163.293 67.0016 163.101C66.9961 162.804 66.9009 162.516 66.7285 162.275C66.5562 162.034 66.3148 161.85 66.0361 161.749C65.5268 161.636 64.9964 161.663 64.501 161.826C64.752 161.817 64.9934 161.846 65.2444 161.894V161.942ZM103.546 137.804C103.765 137.812 103.977 137.875 104.164 137.988C104.334 138.087 104.475 138.227 104.575 138.396C104.675 138.565 104.729 138.757 104.734 138.953C104.73 139.246 104.813 139.534 104.973 139.78C105.133 140.026 105.362 140.219 105.632 140.334C106.141 140.467 106.679 140.446 107.177 140.276C106.935 140.208 106.684 140.179 106.443 140.131C106.227 140.122 106.017 140.055 105.835 139.938C105.673 139.834 105.54 139.691 105.447 139.522C105.354 139.354 105.305 139.165 105.304 138.973C105.3 138.676 105.205 138.387 105.032 138.146C104.86 137.904 104.618 137.721 104.338 137.621C103.829 137.504 103.298 137.531 102.803 137.698C103.05 137.715 103.299 137.718 103.546 137.708V137.804ZM91.3037 109.341L91.1396 109.466C91.1442 109.54 91.1442 109.614 91.1396 109.688C91.1284 109.906 91.0655 110.118 90.9561 110.306C90.8582 110.476 90.7175 110.617 90.5481 110.715C90.3787 110.813 90.1865 110.866 89.9906 110.866C89.7669 110.866 89.5459 110.915 89.3437 111.011C89.0977 111.132 88.8879 111.315 88.7354 111.542C88.6825 111.613 88.6402 111.691 88.6099 111.774C88.4773 112.283 88.4974 112.821 88.6678 113.319C88.7354 113.068 88.7644 112.826 88.8127 112.585C88.8208 112.368 88.8876 112.158 89.0058 111.977C89.1112 111.816 89.2543 111.684 89.4226 111.591C89.5909 111.499 89.7793 111.449 89.9713 111.446C90.2684 111.438 90.5566 111.342 90.7991 111.17C91.0415 110.998 91.2273 110.758 91.3327 110.48C91.4379 110.106 91.4278 109.709 91.3037 109.341ZM92.7809 143.057C92.7746 143.275 92.7114 143.488 92.5975 143.675C92.4996 143.844 92.3589 143.985 92.1895 144.083C92.02 144.182 91.8278 144.234 91.632 144.235C91.3392 144.233 91.0526 144.318 90.8085 144.48C90.5644 144.642 90.3738 144.872 90.2609 145.142C90.1186 145.651 90.1388 146.191 90.3189 146.687C90.3768 146.436 90.4058 146.195 90.454 145.953C90.4609 145.735 90.5314 145.524 90.6568 145.345C90.761 145.183 90.9038 145.05 91.0724 144.957C91.241 144.865 91.4299 144.815 91.6223 144.814C91.9201 144.809 92.2095 144.714 92.4524 144.542C92.6954 144.37 92.8806 144.128 92.9837 143.848C93.0975 143.338 93.0674 142.807 92.8968 142.313C92.8582 142.564 92.8292 142.815 92.7809 143.057ZM69.1548 144.592C69.1484 144.81 69.0852 145.023 68.9713 145.21C68.8719 145.378 68.7309 145.518 68.5618 145.616C68.3927 145.714 68.2012 145.767 68.0058 145.77C67.7117 145.768 67.4235 145.853 67.1778 146.014C66.932 146.176 66.7397 146.406 66.6251 146.677C66.4873 147.183 66.5075 147.719 66.683 148.213C66.741 147.971 66.7699 147.73 66.8182 147.488C66.8292 147.271 66.8993 147.061 67.021 146.88C67.1252 146.718 67.268 146.585 67.4365 146.492C67.6051 146.4 67.7941 146.35 67.9865 146.349C68.2829 146.344 68.5708 146.248 68.8121 146.076C69.0534 145.904 69.2368 145.662 69.3382 145.384C69.4512 144.874 69.4245 144.344 69.261 143.848C69.232 144.099 69.203 144.341 69.1548 144.592ZM81.6389 121.796C81.6367 122.017 81.5768 122.233 81.4651 122.424C81.3637 122.59 81.2222 122.729 81.0535 122.826C80.8849 122.924 80.6945 122.978 80.4996 122.984C80.2055 122.981 79.9173 123.066 79.6716 123.228C79.4258 123.389 79.2335 123.62 79.1189 123.891C78.9811 124.397 79.0013 124.932 79.1768 125.426C79.2444 125.185 79.2734 124.944 79.3216 124.702C79.3298 124.486 79.3965 124.275 79.5147 124.094C79.6189 123.932 79.7618 123.799 79.9303 123.706C80.0989 123.614 80.2879 123.564 80.4803 123.563C80.7767 123.557 81.0646 123.462 81.3059 123.29C81.5472 123.117 81.7306 122.876 81.832 122.597C81.945 122.088 81.9183 121.558 81.7547 121.062C81.7161 121.313 81.6871 121.555 81.6389 121.796ZM114.534 124.982C114.528 125.201 114.464 125.414 114.351 125.6C114.251 125.768 114.11 125.908 113.941 126.006C113.772 126.105 113.581 126.157 113.385 126.16C113.091 126.158 112.803 126.243 112.557 126.404C112.311 126.566 112.119 126.797 112.004 127.068C111.867 127.573 111.887 128.109 112.062 128.603C112.12 128.361 112.149 128.12 112.197 127.879C112.209 127.661 112.279 127.451 112.4 127.27C112.504 127.109 112.647 126.976 112.816 126.883C112.984 126.79 113.173 126.741 113.366 126.739C113.662 126.734 113.95 126.639 114.191 126.466C114.433 126.294 114.616 126.053 114.717 125.774C114.83 125.265 114.804 124.734 114.64 124.239C114.611 124.528 114.582 124.731 114.534 124.982ZM83.2802 168.373C83.2736 168.593 83.214 168.808 83.1065 169C83.0037 169.165 82.862 169.303 82.6936 169.401C82.5252 169.498 82.3354 169.553 82.1409 169.56C81.8468 169.558 81.5587 169.643 81.3129 169.804C81.0672 169.966 80.8748 170.197 80.7603 170.468C80.6225 170.973 80.6427 171.509 80.8182 172.003C80.8858 171.761 80.9051 171.52 80.9534 171.269C80.9704 171.053 81.04 170.844 81.1561 170.661C81.2614 170.501 81.4047 170.37 81.5732 170.279C81.7417 170.188 81.9301 170.14 82.1216 170.139C82.4181 170.134 82.706 170.039 82.9472 169.866C83.1885 169.694 83.372 169.453 83.4734 169.174C83.5863 168.665 83.5597 168.134 83.3961 167.639C83.3575 167.89 83.3285 168.131 83.2802 168.373ZM56.6899 169.715C56.6832 169.935 56.6236 170.15 56.5161 170.342C56.4134 170.507 56.2716 170.645 56.1033 170.743C55.9349 170.84 55.7451 170.895 55.5506 170.902C55.2562 170.899 54.9675 170.983 54.7215 171.145C54.4755 171.307 54.2834 171.538 54.1699 171.81C54.0322 172.315 54.0524 172.851 54.2279 173.345C54.2877 173.103 54.3329 172.858 54.363 172.611C54.3801 172.395 54.4497 172.186 54.5658 172.003C54.6711 171.843 54.8144 171.712 54.9829 171.621C55.1514 171.53 55.3398 171.482 55.5313 171.481C55.8271 171.473 56.1138 171.377 56.3546 171.205C56.5954 171.033 56.7794 170.793 56.883 170.516C56.996 170.007 56.9693 169.476 56.8058 168.981C56.7672 169.232 56.7382 169.473 56.6899 169.715ZM72.2058 174.938C72.2036 175.159 72.1437 175.375 72.032 175.566C71.9326 175.734 71.7916 175.874 71.6225 175.972C71.4534 176.07 71.2619 176.123 71.0665 176.126C70.7724 176.123 70.4842 176.208 70.2385 176.37C69.9927 176.532 69.8004 176.762 69.6858 177.033C69.5534 177.539 69.5736 178.074 69.7437 178.568C69.8113 178.327 69.8403 178.086 69.8885 177.844C69.8967 177.628 69.9634 177.417 70.0816 177.236C70.1858 177.074 70.3287 176.941 70.4972 176.848C70.6658 176.756 70.8548 176.706 71.0472 176.705C71.3436 176.699 71.6315 176.604 71.8728 176.432C72.1141 176.259 72.2975 176.018 72.3989 175.739C72.5119 175.23 72.4852 174.7 72.3216 174.204C72.283 174.455 72.2541 174.735 72.2058 174.938ZM111.483 109.93C111.29 110.046 111.106 110.19 110.913 110.316C110.756 110.469 110.559 110.573 110.344 110.615C110.152 110.653 109.954 110.643 109.767 110.586C109.58 110.528 109.41 110.426 109.272 110.287C109.054 110.084 108.779 109.952 108.484 109.909C108.189 109.866 107.888 109.913 107.621 110.046C107.179 110.328 106.822 110.725 106.588 111.195C106.801 111.064 107.008 110.922 107.206 110.77C107.366 110.619 107.562 110.513 107.775 110.461C107.964 110.413 108.162 110.414 108.349 110.465C108.537 110.516 108.709 110.614 108.847 110.75C109.068 110.956 109.345 111.091 109.642 111.137C109.94 111.184 110.245 111.14 110.517 111.011C110.943 110.759 111.281 110.381 111.483 109.93ZM89.7492 129.433C89.9077 129.279 90.1042 129.169 90.3189 129.115C90.5089 129.067 90.708 129.068 90.8972 129.119C91.0865 129.17 91.2597 129.268 91.4002 129.404C91.6062 129.613 91.8694 129.755 92.1565 129.814C92.4436 129.872 92.7416 129.844 93.0127 129.733C93.5727 129.491 93.7851 128.999 94.0651 128.603C93.8516 128.733 93.6454 128.875 93.4472 129.028C93.2847 129.171 93.0887 129.27 92.8775 129.317C92.6841 129.356 92.4843 129.346 92.2956 129.289C92.107 129.232 91.9354 129.129 91.7961 128.989C91.585 128.782 91.3162 128.644 91.0251 128.592C90.7339 128.54 90.4339 128.578 90.1644 128.699C89.7223 128.982 89.3653 129.379 89.1313 129.848C89.3727 129.723 89.5658 129.568 89.7685 129.433H89.7492ZM76.3865 155.753C76.5477 155.602 76.7432 155.493 76.9561 155.435C77.1461 155.387 77.3452 155.388 77.5345 155.439C77.7237 155.489 77.8969 155.588 78.0375 155.724C78.2427 155.934 78.506 156.077 78.7934 156.136C79.0808 156.194 79.3791 156.165 79.6499 156.053C80.2099 155.811 80.4127 155.328 80.7023 154.933C80.489 155.06 80.2827 155.198 80.0844 155.348C79.9219 155.491 79.726 155.59 79.5147 155.637C79.3214 155.679 79.1208 155.67 78.9317 155.613C78.7426 155.555 78.5711 155.451 78.4334 155.309C78.2226 155.101 77.9532 154.963 77.6614 154.913C77.3697 154.863 77.0696 154.903 76.8016 155.029C76.3587 155.306 76.0011 155.7 75.7685 156.168C76.0099 156.043 76.203 155.888 76.4058 155.753H76.3865ZM82.1796 183.097C82.3425 182.95 82.5377 182.844 82.7492 182.788C82.9392 182.74 83.1383 182.741 83.3276 182.792C83.5168 182.843 83.69 182.941 83.8306 183.077C84.0333 183.281 84.2904 183.422 84.5712 183.484C84.852 183.546 85.1446 183.525 85.414 183.425C85.974 183.184 86.1865 182.691 86.4665 182.295C86.2444 182.421 86.0513 182.575 85.8485 182.71C85.6889 182.86 85.4922 182.963 85.2789 183.01C85.0855 183.048 84.8857 183.038 84.697 182.981C84.5084 182.924 84.3368 182.821 84.1975 182.681C83.9864 182.474 83.7176 182.336 83.4264 182.284C83.1353 182.233 82.8353 182.27 82.5658 182.392C82.1309 182.669 81.7803 183.059 81.552 183.521C81.7837 183.425 81.9768 183.241 82.1796 183.097ZM108.046 153.04C108.204 152.892 108.396 152.786 108.606 152.731C108.796 152.683 108.995 152.685 109.184 152.735C109.373 152.786 109.547 152.884 109.687 153.021C109.894 153.227 110.158 153.368 110.444 153.426C110.731 153.485 111.028 153.458 111.3 153.349C111.869 153.108 112.072 152.615 112.352 152.219C112.13 152.345 111.946 152.499 111.734 152.635C111.577 152.787 111.379 152.891 111.164 152.934C110.973 152.973 110.774 152.964 110.587 152.907C110.399 152.849 110.229 152.746 110.093 152.606C109.879 152.399 109.609 152.261 109.316 152.209C109.024 152.158 108.722 152.195 108.451 152.316C108.009 152.608 107.655 153.015 107.428 153.494C107.621 153.339 107.833 153.185 108.046 153.04ZM95.8996 172.206C96.0611 172.057 96.2568 171.951 96.4692 171.897C96.6584 171.847 96.857 171.847 97.0462 171.896C97.2354 171.945 97.409 172.042 97.5506 172.177C97.7554 172.387 98.0182 172.531 98.3053 172.591C98.5925 172.651 98.8911 172.625 99.163 172.515C99.6172 172.25 99.9833 171.857 100.215 171.385C99.9934 171.51 99.8002 171.665 99.5975 171.8C99.4376 171.947 99.2406 172.047 99.0278 172.09C98.8346 172.133 98.6335 172.125 98.444 172.068C98.2545 172.01 98.0831 171.905 97.9464 171.761C97.7342 171.556 97.465 171.419 97.1738 171.369C96.8827 171.319 96.5833 171.359 96.3147 171.481C95.8761 171.764 95.5198 172.157 95.2816 172.621C95.5037 172.495 95.6968 172.341 95.8996 172.206ZM54.8555 182.913C55.013 182.762 55.2054 182.653 55.4154 182.595C55.6056 182.549 55.804 182.552 55.9927 182.603C56.1815 182.653 56.3548 182.75 56.4968 182.884C56.7024 183.093 56.9651 183.237 57.2519 183.297C57.5388 183.357 57.8371 183.331 58.1092 183.222C58.6789 182.971 58.8816 182.488 59.1616 182.092C58.9483 182.22 58.7421 182.358 58.5437 182.508C58.3813 182.651 58.1853 182.75 57.9741 182.797C57.7808 182.839 57.5802 182.83 57.391 182.773C57.2019 182.715 57.0305 182.611 56.8927 182.469C56.6805 182.264 56.4112 182.127 56.1201 182.077C55.8289 182.027 55.5295 182.066 55.261 182.189C54.8238 182.47 54.4703 182.864 54.2375 183.328C54.4499 183.203 54.643 183.048 54.8555 182.913Z" fill="#1D375E"/>
<path d="M80.9364 106.843C70.3157 118.797 45.0674 163.751 53.6799 171.591C62.2923 179.431 108.618 167.333 121.536 160.748C125.398 158.817 109.95 134.901 105.345 134.457C101.483 134.09 82.2785 143.523 81.6895 142.413C81.1005 141.303 83.8619 131.734 88.1005 114.683C92.9764 95.0256 85.6095 101.562 80.9364 106.843Z" fill="#F7A9A0"/>
<path d="M124.481 126.105C133.914 124.541 136.579 125.584 143.792 120.032C148.552 116.392 152.925 117.86 150.299 123.518C146.012 132.777 134.272 137.354 129.743 137.769L124.481 126.105Z" fill="#F7A9A0"/>
<path d="M99.5898 135.886C99.5898 135.886 110.066 129.697 119.953 127.032C126.779 125.188 142.102 122.832 157.212 137.605C160.794 141.11 163.411 148.641 155.484 145.049C149.845 142.49 147.045 139.169 143.502 138.29C143.502 138.29 145.693 148.264 142.044 151.721C138.854 154.739 135.453 157.527 131.867 160.063C131.252 159.51 130.671 158.92 130.129 158.296C130.129 158.296 126.422 161.192 119.267 160.71L99.5898 135.886Z" fill="#F7A9A0"/>
<path d="M126.75 126.318C130.09 127.94 137.1 131.512 141.812 136.417C147.055 141.882 155.686 153.796 151.612 157.659C148.628 160.468 144.94 156.201 144.94 156.201C144.94 156.201 147.47 161.887 144.216 163.828C141.252 165.605 138.597 162.129 138.597 162.129C138.597 162.129 139.562 165.846 136.357 167.005C132.495 168.395 131.181 160.391 126.093 158.46C124.944 157.996 126.75 126.318 126.75 126.318Z" fill="#F7A9A0"/>
<path d="M135.131 141.004C139.869 144.892 143.308 150.133 144.988 156.027C144.988 156.172 144.931 156.288 144.863 156.153C142.226 150.739 138.938 145.668 135.073 141.052C135.073 141.052 135.092 140.946 135.131 141.004Z" fill="#263238"/>
<path d="M129.772 146.448C132.08 148.466 137.313 155.235 138.713 162.032C138.713 162.186 138.645 162.293 138.587 162.157C136.235 156.617 133.258 151.363 129.714 146.497C129.714 146.497 129.743 146.419 129.772 146.448Z" fill="#263238"/>
<path d="M143.502 138.213C146.611 139.043 148.658 140.501 151.303 142.239C152.607 143.116 153.958 143.922 155.349 144.653C156.623 145.3 158.506 146.275 159.809 145.175C160.115 144.838 160.323 144.425 160.412 143.979C160.5 143.534 160.465 143.072 160.311 142.645C159.906 141.401 159.303 140.231 158.525 139.179C158.525 139.179 158.525 139.082 158.593 139.121C159.339 140.079 159.986 141.111 160.524 142.201C160.874 142.947 160.992 143.781 160.862 144.595C160.456 146.314 158.458 146.584 157 146.159C156.148 145.871 155.326 145.499 154.547 145.049C153.785 144.643 153.051 144.19 152.317 143.726C150.83 142.761 149.42 141.795 147.905 140.772C146.465 139.86 144.968 139.041 143.425 138.319C143.396 138.29 143.444 138.203 143.502 138.213Z" fill="#263238"/>
<path d="M150.25 148.901C148.226 145.221 145.968 141.673 143.492 138.281L143.55 138.223C146.012 140.434 150.038 146.381 150.994 148.303C151.95 150.224 153.021 152.619 153.079 154.752C153.166 157.977 151.042 158.614 150.26 158.817C149.328 159.017 148.355 158.888 147.508 158.45C146.51 157.875 145.643 157.099 144.959 156.172L145.017 156.114C146.166 157.35 148.059 158.556 149.845 158.276C150.225 158.227 150.591 158.102 150.923 157.91C151.254 157.718 151.544 157.462 151.776 157.156C152.228 156.364 152.386 155.437 152.22 154.54C151.891 152.562 151.225 150.654 150.25 148.901Z" fill="#263238"/>
<path d="M99.5901 135.886L115.347 166.88C115.347 166.88 57.3488 181.536 52.0384 171.514C46.7281 161.492 68.3364 121.133 78.2426 109.287C89.7225 95.5472 91.3543 100.075 89.066 112.038C86.6618 124.59 81.8729 142.703 81.8729 142.703L99.5901 135.886Z" fill="#FFE6B3"/>
<path d="M102.94 157.359C103.434 157.188 103.966 157.158 104.476 157.272C104.754 157.376 104.995 157.562 105.167 157.805C105.34 158.047 105.435 158.336 105.441 158.634C105.444 158.826 105.494 159.014 105.587 159.182C105.679 159.351 105.812 159.494 105.972 159.599C106.154 159.716 106.364 159.783 106.58 159.792C106.832 159.84 107.073 159.869 107.314 159.937C106.819 160.107 106.285 160.127 105.779 159.995C105.508 159.88 105.277 159.688 105.116 159.442C104.954 159.196 104.869 158.908 104.872 158.614C104.866 158.419 104.812 158.229 104.714 158.06C104.616 157.892 104.478 157.75 104.312 157.649C104.12 157.538 103.905 157.475 103.684 157.465C103.423 157.407 103.182 157.359 102.94 157.359ZM71.0784 129.446C71.2994 129.456 71.5147 129.519 71.706 129.629C71.8725 129.731 72.011 129.872 72.1088 130.041C72.2066 130.21 72.2607 130.4 72.266 130.595C72.2638 130.889 72.3488 131.177 72.5104 131.423C72.6719 131.669 72.9028 131.861 73.1736 131.976C73.6799 132.108 74.214 132.088 74.7088 131.918C74.4674 131.85 74.226 131.821 73.975 131.773C73.7587 131.763 73.5489 131.697 73.3667 131.58C73.2074 131.473 73.0759 131.33 72.9835 131.162C72.8911 130.994 72.8404 130.806 72.8357 130.614C72.8294 130.317 72.7341 130.028 72.562 129.785C72.3898 129.543 72.1488 129.357 71.8702 129.253C71.3603 129.139 70.8288 129.169 70.335 129.34C70.5764 129.359 70.8178 129.359 71.0591 129.407L71.0784 129.446ZM85.6964 149.896C85.9171 149.898 86.1335 149.958 86.324 150.069C86.4893 150.172 86.6268 150.314 86.7244 150.482C86.8221 150.651 86.8769 150.84 86.884 151.035C86.8817 151.329 86.9668 151.617 87.1283 151.863C87.2899 152.109 87.5207 152.301 87.7915 152.416C88.2972 152.553 88.8329 152.533 89.3267 152.358C89.0853 152.29 88.844 152.261 88.6026 152.213C88.3861 152.205 88.1758 152.138 87.9943 152.02C87.8326 151.916 87.6994 151.773 87.6067 151.604C87.5139 151.436 87.4647 151.247 87.4633 151.054C87.4577 150.758 87.3625 150.47 87.1902 150.229C87.0178 149.987 86.7764 149.804 86.4977 149.703C85.9884 149.59 85.458 149.616 84.9626 149.78C85.1943 149.78 85.4164 149.809 85.6771 149.857L85.6964 149.896ZM59.4729 154.211C59.6905 154.215 59.9034 154.275 60.0909 154.385C60.2605 154.483 60.4015 154.624 60.4997 154.793C60.598 154.963 60.6501 155.155 60.6509 155.351C60.6486 155.645 60.7337 155.933 60.8952 156.179C61.0568 156.425 61.2876 156.617 61.5584 156.731C62.0647 156.864 62.5988 156.844 63.0936 156.674C62.8523 156.606 62.6109 156.577 62.3695 156.529C62.153 156.521 61.9428 156.454 61.7612 156.336C61.5995 156.231 61.4663 156.089 61.3736 155.92C61.2809 155.751 61.2316 155.562 61.2302 155.37C61.2246 155.074 61.1294 154.786 60.9571 154.544C60.7847 154.303 60.5433 154.12 60.2647 154.018C59.7553 153.905 59.2249 153.932 58.7295 154.096C58.9612 154.096 59.2026 154.125 59.4536 154.173L59.4729 154.211ZM85.5419 101.929L85.2522 102.132C85.2343 102.309 85.1784 102.48 85.0881 102.634C84.9902 102.803 84.8495 102.944 84.6801 103.042C84.5106 103.141 84.3184 103.193 84.1226 103.194H83.9391C83.5433 103.541 83.1088 103.937 82.6646 104.381C82.6352 104.801 82.6809 105.223 82.7998 105.627C82.8674 105.376 82.8964 105.134 82.9446 104.893C82.9528 104.676 83.0195 104.466 83.1378 104.285C83.2432 104.124 83.3863 103.992 83.5546 103.899C83.7229 103.807 83.9112 103.757 84.1033 103.754C84.4004 103.746 84.6886 103.65 84.931 103.478C85.1735 103.306 85.3593 103.066 85.4646 102.788C85.5778 102.503 85.6144 102.194 85.5709 101.89L85.5419 101.929ZM63.335 136.909C63.3287 137.128 63.2655 137.341 63.1516 137.527C63.0522 137.696 62.9112 137.836 62.7421 137.934C62.573 138.032 62.3815 138.085 62.186 138.087C61.8919 138.085 61.6038 138.17 61.358 138.332C61.1123 138.493 60.9199 138.724 60.8053 138.995C60.6676 139.501 60.6878 140.036 60.8633 140.53C60.9212 140.289 60.9502 140.047 60.9985 139.806C61.0095 139.589 61.0796 139.378 61.2012 139.198C61.3054 139.036 61.4482 138.903 61.6168 138.81C61.7854 138.717 61.9744 138.668 62.1667 138.667C62.4632 138.661 62.7511 138.566 62.9923 138.394C63.2336 138.221 63.4171 137.98 63.5185 137.701C63.6314 137.192 63.6048 136.661 63.4412 136.166C63.4412 136.378 63.4123 136.62 63.364 136.871L63.335 136.909ZM75.8191 114.114C75.817 114.334 75.7571 114.551 75.6453 114.741C75.5439 114.908 75.4024 115.046 75.2338 115.144C75.0651 115.242 74.8747 115.296 74.6798 115.301C74.3857 115.299 74.0976 115.384 73.8518 115.546C73.606 115.707 73.4137 115.938 73.2991 116.209C73.1614 116.714 73.1816 117.25 73.3571 117.744C73.4246 117.503 73.4536 117.261 73.5019 117.02C73.51 116.803 73.5768 116.593 73.695 116.411C73.7992 116.25 73.942 116.117 74.1106 116.024C74.2792 115.931 74.4681 115.882 74.6605 115.88C74.957 115.875 75.2448 115.78 75.4861 115.607C75.7274 115.435 75.9108 115.194 76.0122 114.915C76.1252 114.406 76.0985 113.875 75.935 113.38C75.9253 113.592 75.8964 113.834 75.8481 114.075L75.8191 114.114ZM77.4605 160.69C77.4538 160.91 77.3942 161.125 77.2867 161.318C77.184 161.483 77.0422 161.621 76.8739 161.718C76.7055 161.816 76.5157 161.871 76.3212 161.878C76.0271 161.875 75.739 161.96 75.4932 162.122C75.2474 162.284 75.0551 162.514 74.9405 162.785C74.8027 163.291 74.823 163.827 74.9985 164.32C75.066 164.079 75.0853 163.838 75.1336 163.587C75.1507 163.37 75.2203 163.162 75.3364 162.978C75.4417 162.818 75.585 162.687 75.7535 162.596C75.922 162.505 76.1104 162.457 76.3019 162.457C76.5984 162.451 76.8862 162.356 77.1275 162.184C77.3688 162.012 77.5522 161.77 77.6536 161.491C77.7666 160.982 77.7399 160.452 77.5764 159.956C77.5667 160.169 77.5377 160.41 77.4895 160.651L77.4605 160.69ZM66.386 167.256C66.3839 167.476 66.324 167.693 66.2122 167.883C66.1129 168.052 65.9719 168.191 65.8028 168.29C65.6337 168.388 65.4422 168.441 65.2467 168.443C64.9526 168.441 64.6645 168.526 64.4187 168.688C64.1729 168.849 63.9806 169.08 63.866 169.351C63.7336 169.857 63.7538 170.391 63.924 170.886C63.9916 170.645 64.0205 170.403 64.0688 170.162C64.0769 169.945 64.1437 169.735 64.2619 169.554C64.3661 169.392 64.5089 169.259 64.6775 169.166C64.8461 169.073 65.035 169.024 65.2274 169.023C65.5239 169.017 65.8117 168.922 66.053 168.749C66.2943 168.577 66.4778 168.336 66.5791 168.057C66.6921 167.548 66.6654 167.017 66.5019 166.522C66.4922 166.734 66.4633 167.014 66.415 167.217L66.386 167.256ZM85.9957 121.307C85.7846 121.1 85.5158 120.961 85.2246 120.909C84.9334 120.858 84.6335 120.895 84.364 121.017C83.9219 121.299 83.5648 121.697 83.3309 122.166C83.5529 122.04 83.746 121.886 83.9488 121.751C84.1072 121.596 84.3038 121.486 84.5184 121.432C84.7084 121.384 84.9075 121.386 85.0968 121.436C85.2861 121.487 85.4592 121.585 85.5998 121.722C85.7655 121.888 85.9681 122.014 86.1912 122.088C86.4143 122.161 86.6516 122.182 86.884 122.147L86.9998 121.645C86.8192 121.662 86.637 121.637 86.4678 121.571C86.2985 121.506 86.1468 121.402 86.0247 121.268L85.9957 121.307ZM70.5474 148.071C70.7087 147.92 70.9042 147.811 71.1171 147.752C71.3071 147.704 71.5062 147.706 71.6954 147.756C71.8847 147.807 72.0579 147.905 72.1984 148.042C72.4036 148.251 72.6669 148.395 72.9543 148.453C73.2417 148.512 73.5401 148.483 73.8109 148.37C74.3709 148.129 74.5736 147.646 74.8633 147.25C74.65 147.377 74.4437 147.516 74.2453 147.665C74.0829 147.808 73.8869 147.908 73.6757 147.955C73.4824 147.996 73.2818 147.988 73.0927 147.93C72.9035 147.873 72.7321 147.768 72.5943 147.627C72.3835 147.419 72.1141 147.281 71.8224 147.231C71.5307 147.18 71.2306 147.221 70.9626 147.347C70.5196 147.624 70.162 148.018 69.9295 148.486C70.2191 148.322 70.4122 148.167 70.615 148.032L70.5474 148.071ZM104.003 144.74C103.796 144.605 103.558 144.524 103.311 144.506C103.065 144.487 102.818 144.531 102.593 144.634C102.181 144.924 101.851 145.316 101.637 145.773C101.849 145.647 102.043 145.493 102.255 145.348C102.413 145.2 102.606 145.094 102.815 145.039C103.005 144.991 103.204 144.993 103.393 145.043C103.583 145.094 103.756 145.192 103.896 145.329C104.081 145.511 104.311 145.64 104.563 145.705L104.003 144.74ZM90.0412 164.523C90.2028 164.375 90.3984 164.269 90.6109 164.214C90.8 164.165 90.9986 164.165 91.1879 164.214C91.3771 164.263 91.5507 164.359 91.6922 164.494C91.897 164.704 92.1598 164.849 92.4469 164.909C92.7341 164.969 93.0327 164.942 93.3046 164.832C93.7589 164.567 94.1249 164.174 94.357 163.703C94.135 163.828 93.9419 163.983 93.7391 164.118C93.5793 164.264 93.3823 164.365 93.1695 164.407C92.9762 164.45 92.7751 164.443 92.5856 164.385C92.3962 164.328 92.2248 164.222 92.0881 164.079C91.8759 163.874 91.6066 163.737 91.3155 163.687C91.0244 163.637 90.7249 163.676 90.4564 163.799C90.0178 164.081 89.6614 164.474 89.4233 164.938C89.7129 164.774 89.906 164.62 90.1088 164.485L90.0412 164.523Z" fill="#1D375E"/>
<path d="M64.3485 151.566C67.0145 149.628 69.8152 147.883 72.7292 146.343C75.6126 144.835 78.6044 143.544 81.6795 142.481C83.4271 141.853 85.2037 141.312 86.9705 140.752C87.0285 140.752 87.0478 140.82 86.9705 140.839C83.8846 141.929 80.864 143.196 77.9237 144.634C74.9885 146.043 72.0919 147.498 69.234 148.998C67.6023 149.857 66.0188 150.784 64.4064 151.692C64.3388 151.682 64.2809 151.566 64.3485 151.566Z" fill="#263238"/>
<path d="M99.4257 135.799C99.136 135.886 83.3209 141.592 82.7995 141.843C82.8671 141.592 85.5029 133.037 85.8988 131.782C85.8988 131.657 85.9664 131.531 86.005 131.406C86.285 130.846 86.565 130.286 86.816 129.706C87.1443 128.973 87.4629 128.239 87.7816 127.505C87.434 128.22 87.0767 128.944 86.7292 129.668C86.565 129.996 86.4105 130.334 86.2657 130.633C86.5264 129.755 86.7678 128.866 87.0188 127.969C87.405 126.549 87.7526 125.072 88.1002 123.691C88.1002 123.643 88.0423 123.633 88.0229 123.691C87.2409 126.192 86.3816 128.664 85.5995 131.155C84.8174 133.646 81.7374 142.847 81.7954 142.837C81.8533 142.828 99.1747 136.166 99.5416 136.021C99.571 136.006 99.5931 135.979 99.6031 135.947C99.6131 135.916 99.61 135.881 99.5947 135.852C99.5793 135.823 99.5529 135.8 99.5212 135.79C99.4895 135.78 99.4551 135.783 99.4257 135.799Z" fill="#263238"/>
<path d="M101.048 156.249C99.3097 152.783 97.6007 149.316 95.7373 145.918C94.6849 143.987 93.6325 142.056 92.5607 140.125C92.5125 140.057 92.3869 140.125 92.4159 140.192C94.0283 143.726 95.6407 147.279 97.4076 150.745C99.1745 154.212 100.893 157.658 102.699 161.086C103.722 163.017 104.803 164.948 105.943 166.831C105.943 166.831 106.03 166.831 106.01 166.831C104.523 163.21 102.795 159.725 101.048 156.249Z" fill="#263238"/>
<path d="M114.072 164.118C113.899 163.877 113.706 163.935 113.85 164.186C114.314 165.055 114.71 166.03 115.173 166.918C114.362 167.101 113.541 167.266 112.73 167.468L109.911 168.135C108.064 168.572 106.213 168.984 104.359 169.37C100.613 170.175 96.8476 170.893 93.0628 171.524C85.4842 172.837 77.8435 173.762 70.1704 174.295C68.0269 174.43 65.877 174.513 63.7207 174.546C61.7028 174.546 56.6435 174.198 55.2145 173.58C54.3531 173.241 53.5811 172.709 52.9583 172.024C52.3355 171.34 51.8785 170.521 51.6228 169.631C51.1631 167.692 51.2332 165.664 51.8256 163.761C52.3373 161.743 52.9842 159.754 53.6118 157.775C56.1165 149.978 59.1819 142.372 62.7842 135.017C64.7989 130.878 66.9423 126.804 69.2145 122.794C69.2185 122.778 69.2174 122.761 69.2112 122.746C69.205 122.731 69.1941 122.718 69.1801 122.709C69.1661 122.701 69.1497 122.697 69.1333 122.698C69.1169 122.699 69.1014 122.706 69.089 122.717C67.4605 125.24 65.9221 127.815 64.4738 130.441C64.7538 129.562 65.0435 128.693 65.3814 127.844C65.3814 127.776 65.3138 127.728 65.2945 127.786C64.8575 128.839 64.4771 129.916 64.1552 131.01C61.5719 135.765 59.2449 140.654 57.1842 145.657C55.5557 149.616 54.0784 153.626 52.7525 157.688C52.0766 159.764 51.3814 161.868 50.889 164.002C50.373 165.895 50.3398 167.887 50.7925 169.795C51.0505 170.772 51.5345 171.673 52.2054 172.428C52.8762 173.183 53.7152 173.769 54.6545 174.14C57.1649 175.106 64.1069 175.289 68.7028 175.106C72.5649 174.912 76.4269 174.604 80.289 174.14C87.9294 173.232 95.5216 172.006 103.066 170.461C105.177 170.024 107.282 169.567 109.38 169.09C110.442 168.849 111.504 168.608 112.557 168.337C113.609 168.067 116.148 167.584 116.052 167.42C115.492 166.397 114.719 165.026 114.072 164.118Z" fill="#263238"/>
<path d="M105.769 100.644L101.666 109.836L89.597 96.4121L86.208 100.071C86.208 100.071 97.7843 120.389 97.8808 119.549L101.975 111.69L107.304 117.483V103.512L105.769 100.644Z" fill="white"/>
<path d="M107.71 110.531C107.642 108.224 107.633 105.897 107.459 103.599C107.459 103.512 107.324 103.473 107.304 103.599C106.764 105.8 107.082 114.625 106.996 116.739C106.783 116.488 102.062 111.671 102.004 111.738C101.135 112.984 98.1417 118.7 97.9197 119.221C96.2397 116.199 89.7804 105.202 87.7721 102.324C87.7588 102.312 87.7421 102.304 87.7242 102.302C87.7063 102.3 87.6881 102.303 87.6722 102.311C87.6563 102.32 87.6434 102.333 87.6354 102.349C87.6273 102.366 87.6245 102.384 87.6273 102.402C89.0948 105.578 97.63 120.389 97.7652 120.36C99.343 117.667 100.777 114.892 102.062 112.047C102.853 113.09 107.594 118.516 107.623 118.168C107.784 115.626 107.813 113.077 107.71 110.531Z" fill="#263238"/>
<path d="M304.87 176.798H0.130493V193.038H304.87V176.798Z" fill="#455A64"/>
<path d="M204.089 173.609H128.209V177.008H204.089V173.609Z" fill="#C7C7C7"/>
<path d="M204.099 173.609H165.903V177.008H204.099V173.609Z" fill="#A6A6A6"/>
<path d="M170.006 177.007H243.955L253.63 126.781H179.681L170.006 177.007Z" fill="#C7C7C7"/>
<path d="M207.314 151.894C207.251 152.468 207.311 153.048 207.49 153.597C207.669 154.145 207.963 154.649 208.352 155.075C208.741 155.501 209.217 155.839 209.747 156.066C210.278 156.293 210.85 156.405 211.427 156.393C212.652 156.371 213.827 155.901 214.729 155.072C215.63 154.243 216.198 153.113 216.322 151.894C216.384 151.321 216.323 150.741 216.144 150.193C215.964 149.645 215.67 149.142 215.281 148.716C214.892 148.291 214.417 147.953 213.887 147.725C213.358 147.497 212.786 147.385 212.209 147.395C210.985 147.419 209.812 147.889 208.91 148.718C208.009 149.547 207.441 150.676 207.314 151.894Z" fill="white"/>
<path d="M244.536 159.91H301.125V148.744H244.536V159.91Z" fill="#6AA6DA"/>
<path d="M290.562 159.91H296.091V148.744H290.562V159.91Z" fill="#E1EDF8"/>
<path d="M286.202 159.91H288.51V148.744H286.202V159.91Z" fill="#E1EDF8"/>
<path d="M249.681 159.91H255.21V148.744H249.681V159.91Z" fill="#E1EDF8"/>
<path d="M235.46 120.357L220.929 175.048L228.95 177.179L243.481 122.488L235.46 120.357Z" fill="#37474F"/>
<path d="M223.64 164.837L222.22 170.181L230.241 172.312L231.661 166.969L223.64 164.837Z" fill="#E1EDF8"/>
<path d="M234.139 125.332L232.72 130.676L240.741 132.807L242.161 127.463L234.139 125.332Z" fill="#E1EDF8"/>
<path d="M232.559 176.942H298.099V171.361H232.559V176.942Z" fill="#FFC727"/>
<path d="M280.815 176.942H283.486V171.361H280.815V176.942Z" fill="#FFE9A9"/>
<path d="M285.252 176.942H287.923V171.361H285.252V176.942Z" fill="#FFE9A9"/>
<path d="M239.098 176.942H241.769V171.361H239.098V176.942Z" fill="#FFE9A9"/>
<path d="M243.532 176.942H246.203V171.361H243.532V176.942Z" fill="#FFE9A9"/>
<path d="M277.993 140.413H238.738V148.742H277.993V140.413Z" fill="#455A64"/>
<path d="M300.369 140.413H277.99V148.742H300.369V140.413Z" fill="#455A64"/>
<path d="M277.993 141.277H238.738V147.879H277.993V141.277Z" fill="#F7F8FC"/>
<path d="M241.277 142.635C244.336 142.588 247.396 142.556 250.456 142.539L259.633 142.509L268.813 142.539C271.872 142.556 274.931 142.588 277.99 142.635C274.931 142.681 271.872 142.714 268.813 142.734L259.633 142.762L250.445 142.732C247.394 142.715 244.338 142.683 241.277 142.635Z" fill="#DBDBDB"/>
<path d="M241.277 143.932C244.336 143.886 247.396 143.853 250.456 143.833L259.633 143.805L268.813 143.833C271.872 143.853 274.931 143.886 277.99 143.932C274.931 143.978 271.872 144.01 268.813 144.028L259.633 144.058L250.445 144.028C247.394 144.011 244.338 143.979 241.277 143.932Z" fill="#DBDBDB"/>
<path d="M241.277 145.227C244.336 145.181 247.396 145.148 250.456 145.128L259.633 145.101L268.813 145.128C271.872 145.145 274.931 145.178 277.99 145.227C274.931 145.275 271.872 145.307 268.813 145.323L259.633 145.354L250.445 145.323C247.394 145.307 244.338 145.275 241.277 145.227Z" fill="#DBDBDB"/>
<path d="M241.277 146.523C244.336 146.476 247.396 146.443 250.456 146.424L259.633 146.394L268.813 146.424C271.872 146.441 274.931 146.474 277.99 146.523C274.931 146.571 271.872 146.603 268.813 146.62L259.633 146.65L250.445 146.62C247.394 146.603 244.338 146.571 241.277 146.523Z" fill="#DBDBDB"/>
<path d="M274.689 115.908H242.561V121.889H274.689V115.908Z" fill="#6AA6DA"/>
<path d="M293.005 115.908H274.689V121.889H293.005V115.908Z" fill="#6AA6DA"/>
<path d="M274.689 116.53H242.561V121.27H274.689V116.53Z" fill="#F7F8FC"/>
<path d="M244.641 117.504C247.146 117.471 249.65 117.448 252.154 117.435L259.666 117.413L267.179 117.435C269.682 117.446 272.186 117.469 274.689 117.504C272.186 117.537 269.682 117.561 267.179 117.575L259.666 117.595L252.154 117.575C249.65 117.563 247.146 117.539 244.641 117.504Z" fill="#DBDBDB"/>
<path d="M244.641 118.434C247.146 118.401 249.65 118.378 252.154 118.365L259.666 118.343L267.179 118.365C269.682 118.376 272.186 118.399 274.689 118.434C272.186 118.467 269.682 118.491 267.179 118.506L259.666 118.525L252.154 118.506C249.65 118.493 247.146 118.469 244.641 118.434Z" fill="#DBDBDB"/>
<path d="M244.641 119.363C247.146 119.33 249.65 119.307 252.154 119.294L259.666 119.272L267.179 119.294C269.682 119.305 272.186 119.328 274.689 119.363C272.186 119.398 269.682 119.421 267.179 119.434L259.666 119.454L252.154 119.434C249.65 119.421 247.146 119.398 244.641 119.363Z" fill="#DBDBDB"/>
<path d="M244.641 120.308C247.146 120.275 249.65 120.252 252.154 120.239L259.666 120.217L267.179 120.239C269.682 120.25 272.186 120.273 274.689 120.308C272.186 120.344 269.682 120.368 267.179 120.379L259.666 120.398L252.154 120.379C249.65 120.357 247.146 120.333 244.641 120.308Z" fill="#DBDBDB"/>
<path d="M232.741 131.032L224.917 160.426L220.455 177.184L216.15 176.037L220.612 159.278L228.436 129.885L232.741 131.032Z" fill="#00B67B"/>
<path opacity="0.1" d="M232.741 131.032L224.917 160.426L220.455 177.184L216.15 176.037L220.612 159.278L228.436 129.885L232.741 131.032Z" fill="black"/>
<path d="M224.468 160.301L232.294 130.909L228.881 130L221.055 159.392L224.468 160.301Z" fill="white"/>
<path d="M231.085 132.628C230.502 134.924 229.909 137.217 229.308 139.506L227.492 146.383L225.649 153.26C225.029 155.549 224.402 157.836 223.768 160.121C224.354 157.823 224.948 155.53 225.547 153.244L227.36 146.366L229.206 139.489C229.826 137.2 230.452 134.913 231.085 132.628Z" fill="#DBDBDB"/>
<path d="M230.416 132.449C229.831 134.749 229.238 137.041 228.636 139.326L226.823 146.204L224.978 153.081C224.36 155.37 223.733 157.657 223.099 159.942C223.684 157.646 224.277 155.353 224.879 153.064L226.691 146.187L228.537 139.31C229.157 137.021 229.783 134.734 230.416 132.449Z" fill="#DBDBDB"/>
<path d="M229.748 132.273C229.163 134.571 228.57 136.864 227.968 139.151L226.155 146.028L224.309 152.905C223.691 155.194 223.065 157.48 222.431 159.763C223.014 157.465 223.606 155.173 224.208 152.886L226.023 146.009L227.866 139.131C228.484 136.852 229.112 134.566 229.748 132.273Z" fill="#DBDBDB"/>
<path d="M229.077 132.094C228.494 134.39 227.901 136.682 227.3 138.971L225.484 145.848L223.641 152.725C223.023 155.014 222.396 157.3 221.759 159.583C222.344 157.287 222.938 154.995 223.539 152.706L225.352 145.829L227.198 138.952C227.818 136.663 228.444 134.377 229.077 132.094Z" fill="#DBDBDB"/>
<path d="M260.698 171.357H293.585V159.908H260.698V171.357Z" fill="#263238"/>
<path d="M237.599 171.357H260.698V159.908H237.599V171.357Z" fill="#263238"/>
<path d="M260.698 170.17H293.585V161.097H260.698V170.17Z" fill="#F7F8FC"/>
<path d="M291.456 168.305C288.888 168.351 286.325 168.383 283.767 168.402L276.078 168.432L268.376 168.402C265.808 168.385 263.241 168.353 260.673 168.305C263.241 168.259 265.808 168.226 268.376 168.206L276.078 168.179L283.767 168.206C286.331 168.226 288.894 168.259 291.456 168.305Z" fill="#DBDBDB"/>
<path d="M291.456 166.522C288.888 166.567 286.325 166.6 283.767 166.618L276.078 166.648L268.376 166.618C265.808 166.601 263.241 166.569 260.673 166.522C263.241 166.476 265.808 166.443 268.376 166.423L276.078 166.395L283.767 166.423C286.331 166.441 288.894 166.474 291.456 166.522Z" fill="#DBDBDB"/>
<path d="M291.456 164.745C288.888 164.791 286.325 164.823 283.767 164.841L276.078 164.872L268.376 164.841C265.808 164.825 263.241 164.793 260.673 164.745C263.241 164.697 265.808 164.664 268.376 164.646L276.078 164.616L283.767 164.646C286.331 164.662 288.894 164.695 291.456 164.745Z" fill="#DBDBDB"/>
<path d="M291.456 162.965C288.888 163.012 286.325 163.045 283.767 163.061L276.078 163.091L268.376 163.061C265.808 163.045 263.241 163.012 260.673 162.965C263.241 162.915 265.808 162.882 268.376 162.866L276.078 162.835L283.767 162.866C286.331 162.882 288.894 162.915 291.456 162.965Z" fill="#DBDBDB"/>
<path d="M301.296 132.645H240.936V140.446H301.296V132.645Z" fill="#E1EDF8"/>
<path d="M269.825 134.237H246.611V138.919H269.825V134.237Z" fill="white"/>
<path d="M297.222 134.237H275.429V134.96H297.222V134.237Z" fill="white"/>
<path d="M297.222 136.185H275.429V136.908H297.222V136.185Z" fill="white"/>
<path d="M297.222 138.129H275.429V138.853H297.222V138.129Z" fill="white"/>
<path d="M289.618 121.889H245.109V132.609H289.618V121.889Z" fill="#00B67B"/>
<path d="M284.898 121.889H280.75V132.609H284.898V121.889Z" fill="#B3E9D7"/>
<path d="M278.029 121.889H276.419V132.609H278.029V121.889Z" fill="#B3E9D7"/>
<path d="M260.337 44.4776C262.327 30.715 252.791 17.9455 239.036 15.9561C225.282 13.9668 212.518 23.5109 210.528 37.2735C208.537 51.0361 218.074 63.8056 231.828 65.795C245.582 67.7843 258.346 58.2402 260.337 44.4776Z" fill="#D3DBE7"/>
<path opacity="0.1" d="M260.566 42.513C261.159 29.2577 250.9 18.0317 237.653 17.4391C224.406 16.8464 213.187 27.1115 212.595 40.3668C212.003 53.6221 222.261 64.8481 235.508 65.4408C248.755 66.0334 259.974 55.7683 260.566 42.513Z" fill="black"/>
<path d="M259.042 42.6677C259.718 30.2558 250.211 19.6456 237.807 18.969C225.402 18.2925 214.799 27.8058 214.123 40.2177C213.447 52.6296 222.954 63.2399 235.358 63.9164C247.762 64.593 258.366 55.0796 259.042 42.6677Z" fill="white"/>
<path d="M236.8 20.5684H236.365V23.9801H236.8V20.5684Z" fill="#C7C7C7"/>
<path d="M226.34 23.2533L225.964 23.4707L227.668 26.4254L228.045 26.208L226.34 23.2533Z" fill="#C7C7C7"/>
<path d="M218.622 30.812L218.405 31.1885L221.357 32.8944L221.575 32.5179L218.622 30.812Z" fill="#C7C7C7"/>
<path d="M219.132 41.2241H215.722V41.6589H219.132V41.2241Z" fill="#C7C7C7"/>
<path d="M221.358 49.9845L218.405 51.6904L218.623 52.0669L221.575 50.361L221.358 49.9845Z" fill="#C7C7C7"/>
<path d="M227.668 56.4546L225.964 59.4102L226.341 59.6273L228.044 56.6717L227.668 56.4546Z" fill="#C7C7C7"/>
<path d="M236.8 58.9028H236.365V62.3146H236.8V58.9028Z" fill="#C7C7C7"/>
<path d="M245.495 56.455L245.119 56.6724L246.824 59.6271L247.2 59.4097L245.495 56.455Z" fill="#C7C7C7"/>
<path d="M251.802 49.98L251.584 50.3564L254.537 52.0623L254.755 51.6858L251.802 49.98Z" fill="#C7C7C7"/>
<path d="M257.443 41.2241H254.033V41.6589H257.443V41.2241Z" fill="#C7C7C7"/>
<path d="M254.54 30.82L251.587 32.5259L251.804 32.9024L254.757 31.1965L254.54 30.82Z" fill="#C7C7C7"/>
<path d="M246.825 23.2568L245.122 26.2124L245.498 26.4296L247.201 23.474L246.825 23.2568Z" fill="#C7C7C7"/>
<path d="M236.909 22.111L237.648 42.9605L235.514 42.9326L236.329 22.106L236.909 22.111Z" fill="#475569"/>
<path d="M249.887 34.1696L235.87 43.1236L234.851 41.2474L249.61 33.6611L249.887 34.1696Z" fill="#263238"/>
<path d="M236.581 42.1697C236.983 42.1697 237.31 41.8431 237.31 41.4401C237.31 41.0371 236.983 40.7104 236.581 40.7104C236.178 40.7104 235.852 41.0371 235.852 41.4401C235.852 41.8431 236.178 42.1697 236.581 42.1697Z" fill="#FFC727"/>
</svg>
