<svg width="33" height="38" viewBox="0 0 33 38" fill="none" xmlns="http://www.w3.org/2000/svg">
<path d="M18.208 37.08C15.072 37.08 12.432 36.6 10.288 35.64C8.176 34.648 6.608 33.432 5.584 31.992C4.592 30.552 4.064 29.112 4 27.672C4 27.384 4.096 27.144 4.288 26.952C4.512 26.76 4.768 26.664 5.056 26.664H11.68C12.064 26.664 12.368 26.744 12.592 26.904C12.816 27.032 13.024 27.256 13.216 27.576C13.824 29.144 15.504 29.928 18.256 29.928C19.824 29.928 21.04 29.56 21.904 28.824C22.768 28.088 23.2 27.096 23.2 25.848C23.2 23.448 21.6 22.248 18.4 22.248H13.024C12.672 22.248 12.368 22.136 12.112 21.912C11.888 21.656 11.776 21.352 11.776 21V18.168C11.776 17.432 12.048 16.888 12.592 16.536L20.32 10.2H7.072C6.752 10.2 6.464 10.088 6.208 9.864C5.984 9.608 5.872 9.32 5.872 9V4.248C5.872 3.896 5.984 3.608 6.208 3.384C6.432 3.128 6.72 3 7.072 3H29.44C29.792 3 30.08 3.128 30.304 3.384C30.528 3.608 30.64 3.896 30.64 4.248V8.52C30.64 9.192 30.384 9.72 29.872 10.104L22.768 16.584L23.104 16.68C25.984 17.096 28.272 18.088 29.968 19.656C31.664 21.224 32.512 23.48 32.512 26.424C32.512 28.568 31.888 30.456 30.64 32.088C29.424 33.688 27.728 34.92 25.552 35.784C23.408 36.648 20.96 37.08 18.208 37.08Z" fill="#CAAAD8"/>
<path d="M7.07543 34.0926L7.0754 34.0926L7.08367 34.0963C9.30964 35.093 12.024 35.58 15.208 35.58C18.0118 35.58 20.5247 35.1399 22.7381 34.2481C24.9836 33.3562 26.7584 32.0741 28.0377 30.391C29.3551 28.668 30.012 26.6723 30.012 24.424C30.012 21.3813 29.1323 18.976 27.3074 17.2889C25.654 15.7602 23.4848 14.7691 20.8308 14.2913L27.1921 8.48878C27.8238 8.00597 28.14 7.33161 28.14 6.52V2.248C28.14 1.78517 27.9898 1.36915 27.6693 1.04232C27.348 0.681825 26.9249 0.5 26.44 0.5H4.072C3.58708 0.5 3.16401 0.681828 2.84268 1.04233C2.52217 1.36916 2.372 1.78517 2.372 2.248V7C2.372 7.44916 2.53342 7.85235 2.83171 8.19325L2.85366 8.21834L2.87875 8.24029C3.21965 8.53858 3.62284 8.7 4.072 8.7H15.9215L9.29555 14.1325C8.60477 14.591 8.276 15.2998 8.276 16.168V19C8.276 19.4685 8.42897 19.8907 8.73571 20.2413L8.75766 20.2663L8.78275 20.2883C9.13331 20.595 9.5555 20.748 10.024 20.748H15.4C16.9519 20.748 18.0247 21.0415 18.7 21.548C19.3483 22.0342 19.7 22.77 19.7 23.848C19.7 24.966 19.3203 25.8126 18.5798 26.4434C17.8355 27.0774 16.7503 27.428 15.256 27.428C12.5628 27.428 11.1736 26.6627 10.6822 25.3952L10.6667 25.3554L10.6447 25.3188C10.432 24.9641 10.1761 24.6687 9.86179 24.4825C9.52905 24.2531 9.11902 24.164 8.68 24.164H2.056C1.64549 24.164 1.2748 24.3048 0.962603 24.5724L0.948024 24.5849L0.934447 24.5984C0.64255 24.8903 0.5 25.2603 0.5 25.672V25.6831L0.500493 25.6942C0.569465 27.2461 1.13845 28.775 2.17225 30.2757L2.1722 30.2757L2.17652 30.2818C3.26388 31.8109 4.90971 33.0753 7.07543 34.0926Z" fill="#FFE9A9" stroke="#A788CE"/>
</svg>
