<svg width="98" height="20" viewBox="0 0 98 20" fill="none" xmlns="http://www.w3.org/2000/svg">
<path d="M23.2121 5.58887H32.083V7.21749H28.5902V16.3983H26.6757V7.21749H23.1975L23.2121 5.58887ZM31.703 8.57227H33.3398V10.0856H33.3691C33.4275 9.86941 33.5298 9.66763 33.676 9.46586C33.8221 9.26408 33.9975 9.07671 34.2167 8.91817C34.4213 8.74522 34.6551 8.61551 34.9182 8.51462C35.1666 8.41373 35.4297 8.35608 35.6928 8.35608C35.8974 8.35608 36.0435 8.3705 36.1166 8.3705C36.1896 8.38491 36.2773 8.39932 36.3504 8.39932V10.0568C36.2335 10.0279 36.102 10.0135 35.9704 9.99912C35.8389 9.98471 35.722 9.9703 35.5905 9.9703C35.2982 9.9703 35.0205 10.0279 34.7574 10.1432C34.4944 10.2585 34.2752 10.4315 34.0706 10.6477C33.8806 10.8783 33.7198 11.1521 33.6029 11.4836C33.486 11.8151 33.4275 12.2042 33.4275 12.6366V16.3551H31.6738L31.703 8.57227ZM44.3883 16.3983H42.6638V15.303H42.6346C42.4153 15.7065 42.0938 16.0092 41.67 16.2542C41.2462 16.4992 40.8078 16.6145 40.3693 16.6145C39.3317 16.6145 38.5718 16.3695 38.1041 15.8506C37.6365 15.3462 37.4026 14.5679 37.4026 13.5446V8.57227H39.1563V13.3717C39.1563 14.0635 39.2879 14.5535 39.5656 14.8273C39.8286 15.1156 40.2086 15.2597 40.6909 15.2597C41.0562 15.2597 41.3631 15.2021 41.6116 15.0868C41.86 14.9715 42.0646 14.8273 42.2107 14.64C42.3715 14.4526 42.4738 14.222 42.5469 13.9626C42.6199 13.7032 42.6492 13.4149 42.6492 13.1122V8.57227H44.4029V16.3983H44.3883ZM47.3696 13.8905C47.4281 14.395 47.618 14.7409 47.9542 14.9571C48.2903 15.1588 48.6995 15.2597 49.1672 15.2597C49.3279 15.2597 49.5179 15.2453 49.7225 15.2165C49.9271 15.1877 50.1317 15.1444 50.3071 15.0724C50.4971 15.0003 50.6432 14.8994 50.7601 14.7553C50.877 14.6112 50.9355 14.4382 50.9209 14.222C50.9063 14.0058 50.8332 13.8185 50.6724 13.6743C50.5117 13.5302 50.3217 13.4293 50.0879 13.3284C49.854 13.242 49.5764 13.1699 49.2695 13.1122C48.9626 13.0546 48.6557 12.9825 48.3341 12.9105C48.0126 12.8384 47.6911 12.7519 47.3842 12.651C47.0773 12.5502 46.8143 12.4204 46.5658 12.2331C46.332 12.0601 46.1274 11.8439 45.9959 11.5701C45.8497 11.2963 45.7766 10.9792 45.7766 10.5756C45.7766 10.1432 45.8789 9.79734 46.0982 9.50909C46.3028 9.22084 46.5804 8.99024 46.9019 8.81729C47.2235 8.64434 47.5888 8.51462 47.9834 8.44256C48.378 8.3705 48.758 8.34167 49.1087 8.34167C49.5179 8.34167 49.9125 8.38491 50.2779 8.47139C50.6432 8.55786 50.994 8.68758 51.2862 8.88935C51.5931 9.07672 51.8416 9.33614 52.0316 9.6388C52.2362 9.94147 52.3531 10.3162 52.4115 10.7486H50.5848C50.4971 10.3306 50.3071 10.0568 50.0148 9.91265C49.7079 9.76852 49.3718 9.69646 48.9772 9.69646C48.8603 9.69646 48.6995 9.71087 48.5387 9.72528C48.3634 9.75411 48.2172 9.78293 48.0565 9.84058C47.9103 9.89823 47.7788 9.98471 47.6765 10.0856C47.5742 10.1865 47.5157 10.3306 47.5157 10.5036C47.5157 10.7197 47.5888 10.8783 47.735 11.008C47.8811 11.1377 48.0711 11.2386 48.3195 11.3395C48.5534 11.426 48.831 11.498 49.1379 11.5557C49.4448 11.6133 49.7664 11.6854 50.0879 11.7575C50.4094 11.8295 50.7163 11.916 51.0232 12.0169C51.3301 12.1178 51.6078 12.2475 51.8416 12.4349C52.0754 12.6078 52.28 12.824 52.4262 13.0834C52.5723 13.3428 52.6454 13.6743 52.6454 14.0491C52.6454 14.5103 52.5431 14.8994 52.3239 15.2309C52.1046 15.548 51.827 15.8218 51.4908 16.0236C51.1547 16.2254 50.7601 16.3695 50.3509 16.4704C49.9271 16.5569 49.5179 16.6145 49.1087 16.6145C48.6118 16.6145 48.1442 16.5569 47.7203 16.4416C47.2965 16.3263 46.9166 16.1533 46.6097 15.9371C46.3028 15.7065 46.0543 15.4327 45.8789 15.0868C45.7036 14.7553 45.6013 14.3517 45.5867 13.8761H47.355V13.8905H47.3696ZM53.1423 8.57227H54.4722V6.20861H56.2259V8.55786H57.8042V9.84058H56.2259V14.0202C56.2259 14.2076 56.2405 14.3517 56.2551 14.4959C56.2697 14.6256 56.3136 14.7409 56.3574 14.8273C56.4159 14.9138 56.5036 14.9859 56.6059 15.0291C56.7228 15.0724 56.8689 15.1012 57.0735 15.1012C57.1904 15.1012 57.322 15.1012 57.4389 15.0868C57.5558 15.0724 57.6873 15.0579 57.8042 15.0291V16.3695C57.6142 16.3983 57.4243 16.4127 57.2343 16.4271C57.0443 16.456 56.8689 16.456 56.6643 16.456C56.1967 16.456 55.8313 16.4127 55.5536 16.3263C55.276 16.2398 55.0567 16.1101 54.896 15.9515C54.7352 15.7786 54.6329 15.5768 54.5745 15.3318C54.516 15.0868 54.4868 14.7841 54.4722 14.467V9.85499H53.1423V8.54345V8.57227ZM59.0318 8.57227H60.6833V9.6388H60.7125C60.9609 9.1776 61.2971 8.86053 61.7355 8.65875C62.1739 8.45697 62.6416 8.35608 63.1677 8.35608C63.7961 8.35608 64.3368 8.45697 64.8045 8.68758C65.2721 8.90377 65.6521 9.19201 65.959 9.58115C66.2659 9.95588 66.4998 10.4027 66.6459 10.9071C66.792 11.4116 66.8797 11.9592 66.8797 12.5213C66.8797 13.0546 66.8067 13.559 66.6751 14.0491C66.529 14.5391 66.3244 14.9859 66.0467 15.3606C65.769 15.7353 65.4183 16.038 64.9799 16.2686C64.5414 16.4992 64.0445 16.6145 63.46 16.6145C63.2115 16.6145 62.9485 16.5857 62.7 16.5424C62.4516 16.4992 62.2031 16.4271 61.9693 16.3263C61.7355 16.2254 61.5163 16.0957 61.3263 15.9371C61.1217 15.7786 60.9609 15.5912 60.8294 15.3894H60.8002V19.2952H59.0464V8.57227H59.0318ZM65.1552 12.4925C65.1552 12.1466 65.1114 11.8007 65.0091 11.4692C64.9214 11.1377 64.7753 10.8495 64.5853 10.59C64.3953 10.3306 64.1615 10.1288 63.8984 9.9703C63.6207 9.81176 63.2992 9.73969 62.9485 9.73969C62.2178 9.73969 61.6624 9.98471 61.2824 10.4892C60.9171 10.9936 60.7271 11.671 60.7271 12.5069C60.7271 12.9105 60.7709 13.2708 60.8732 13.6023C60.9755 13.9338 61.1071 14.222 61.3117 14.467C61.5017 14.712 61.7355 14.8994 62.0132 15.0435C62.2908 15.1877 62.5977 15.2597 62.9631 15.2597C63.3723 15.2597 63.6938 15.1732 63.9715 15.0147C64.2491 14.8562 64.4684 14.64 64.6583 14.395C64.8337 14.1355 64.9652 13.8473 65.0383 13.5158C65.1114 13.1699 65.1552 12.8384 65.1552 12.4925ZM68.2389 5.58887H69.9926V7.21749H68.2389V5.58887ZM68.2389 8.57227H69.9926V16.3983H68.2389V8.57227ZM71.5563 5.58887H73.31V16.3983H71.5563V5.58887ZM78.6589 16.6145C78.0304 16.6145 77.4605 16.5136 76.9636 16.2974C76.4667 16.0812 76.0575 15.8074 75.7068 15.4471C75.3707 15.0868 75.1076 14.64 74.9322 14.1355C74.7568 13.6311 74.6545 13.069 74.6545 12.4781C74.6545 11.8872 74.7422 11.3395 74.9322 10.8351C75.1076 10.3306 75.3707 9.89823 75.7068 9.52351C76.0429 9.16319 76.4667 8.87494 76.9636 8.67316C77.4605 8.47139 78.0304 8.35608 78.6589 8.35608C79.2873 8.35608 79.8572 8.45697 80.3541 8.67316C80.851 8.87494 81.2602 9.16319 81.611 9.52351C81.9471 9.88382 82.2101 10.3306 82.3855 10.8351C82.5609 11.3395 82.6632 11.8872 82.6632 12.4781C82.6632 13.0834 82.5755 13.6311 82.3855 14.1355C82.1955 14.64 81.9471 15.0724 81.611 15.4471C81.2748 15.8074 80.851 16.0957 80.3541 16.2974C79.8572 16.4992 79.3019 16.6145 78.6589 16.6145ZM78.6589 15.2453C79.0388 15.2453 79.3896 15.1588 79.6673 15.0003C79.9595 14.8418 80.1788 14.6256 80.3687 14.3661C80.5587 14.1067 80.6903 13.804 80.7779 13.487C80.8656 13.1555 80.9095 12.824 80.9095 12.4781C80.9095 12.1466 80.8656 11.8151 80.7779 11.4836C80.6903 11.1521 80.5587 10.8639 80.3687 10.6045C80.1788 10.345 79.9449 10.1432 79.6673 9.98471C79.375 9.82617 79.0388 9.73969 78.6589 9.73969C78.2789 9.73969 77.9282 9.82617 77.6505 9.98471C77.3582 10.1432 77.139 10.3594 76.949 10.6045C76.759 10.8639 76.6275 11.1521 76.5398 11.4836C76.4521 11.8151 76.4083 12.1466 76.4083 12.4781C76.4083 12.824 76.4521 13.1555 76.5398 13.487C76.6275 13.8185 76.759 14.1067 76.949 14.3661C77.139 14.6256 77.3728 14.8418 77.6505 15.0003C77.9428 15.1732 78.2789 15.2453 78.6589 15.2453ZM83.1893 8.57227H84.5192V6.20861H86.2729V8.55786H87.8513V9.84058H86.2729V14.0202C86.2729 14.2076 86.2876 14.3517 86.3022 14.4959C86.3168 14.6256 86.3606 14.7409 86.4045 14.8273C86.4629 14.9138 86.5506 14.9859 86.6529 15.0291C86.7698 15.0724 86.916 15.1012 87.1206 15.1012C87.2375 15.1012 87.369 15.1012 87.4859 15.0868C87.6028 15.0724 87.7344 15.0579 87.8513 15.0291V16.3695C87.6613 16.3983 87.4713 16.4127 87.2813 16.4271C87.0913 16.456 86.916 16.456 86.7114 16.456C86.2437 16.456 85.8783 16.4127 85.6007 16.3263C85.323 16.2398 85.1038 16.1101 84.943 15.9515C84.7823 15.7786 84.68 15.5768 84.6215 15.3318C84.5631 15.0868 84.5338 14.7841 84.5192 14.467V9.85499H83.1893V8.54345V8.57227Z" fill="black"/>
<path d="M20.1708 7.81284H12.5283L10.1757 0.646484L7.80914 7.81284L0.166626 7.79911L6.34746 12.2335L3.98092 19.3998L10.1618 14.9655L16.3426 19.3998L13.99 12.2335L20.1708 7.81284Z" fill="#00B67B"/>
<path d="M14.5192 13.8534L13.9902 12.2334L10.1759 14.9654L14.5192 13.8534Z" fill="#005128"/>
</svg>
