<svg width="63" height="11" viewBox="0 0 63 11" fill="none" xmlns="http://www.w3.org/2000/svg">
<path d="M0.166626 0H10.2607V10H0.166626V0Z" fill="#00B67B"/>
<path fill-rule="evenodd" clip-rule="evenodd" d="M6.04304 4.21599H8.75338L6.56231 5.79692L5.22717 6.76111L5.21981 6.76304L5.22215 6.76474L5.20714 6.77559L3.01606 8.34397L3.85196 5.79692L1.66089 4.21599H4.37124L5.20714 1.66895L6.04304 4.21599ZM5.22215 6.76474L7.39821 8.33143L6.75229 6.36154L5.22717 6.76111L5.22215 6.76474Z" fill="white"/>
<path d="M13.2607 0H23.3549V10H13.2607V0Z" fill="#00B67B"/>
<path fill-rule="evenodd" clip-rule="evenodd" d="M19.1371 4.21599H21.8475L19.6564 5.79692L18.3213 6.76111L18.3139 6.76304L18.3162 6.76474L18.3012 6.77559L16.1102 8.34397L16.9461 5.79692L14.755 4.21599H17.4653L18.3012 1.66895L19.1371 4.21599ZM18.3162 6.76474L20.4923 8.33143L19.8464 6.36154L18.3213 6.76111L18.3162 6.76474Z" fill="white"/>
<path d="M26.3549 0H36.449V10H26.3549V0Z" fill="#00B67B"/>
<path fill-rule="evenodd" clip-rule="evenodd" d="M32.2313 4.21599H34.9416L32.7505 5.79692L31.4154 6.76111L31.408 6.76304L31.4104 6.76474L31.3954 6.77559L29.2043 8.34397L30.0402 5.79692L27.8491 4.21599H30.5595L31.3954 1.66895L32.2313 4.21599ZM31.4104 6.76474L33.5864 8.33143L32.9405 6.36154L31.4154 6.76111L31.4104 6.76474Z" fill="white"/>
<path d="M39.449 0H49.5433V10H39.449V0Z" fill="#00B67B"/>
<path fill-rule="evenodd" clip-rule="evenodd" d="M45.3254 4.21599H48.0357L45.8445 5.79692L44.5094 6.76111L44.5019 6.76304L44.5047 6.76474L44.4895 6.77559L42.2982 8.34397L43.1341 5.79692L40.9432 4.21599H43.6536L44.4895 1.66895L45.3254 4.21599ZM44.5047 6.76474L46.6804 8.33143L46.0346 6.36154L44.5094 6.76111L44.5047 6.76474Z" fill="white"/>
<path d="M52.5199 0.140625H62.5199V10.1406H52.5199V0.140625Z" fill="#00B67B"/>
<path fill-rule="evenodd" clip-rule="evenodd" d="M58.8449 3.81168H61.5199L59.3572 5.46957L58.0395 6.48071L58.0322 6.48273L58.0349 6.48451L58.0199 6.49589L55.8572 8.14062L56.6822 5.46957L54.5199 3.81168H57.1949L58.0199 1.14062L58.8449 3.81168ZM58.0349 6.48451L60.1822 8.12747L59.5449 6.06168L58.0395 6.48071L58.0349 6.48451Z" fill="white"/>
<g clip-path="url(#clip0_1_6534)">
<path d="M54.1865 0.140625H62.5199V10.1406H54.1865V0.140625Z" fill="#DEDEDE"/>
<path fill-rule="evenodd" clip-rule="evenodd" d="M58.8449 3.81168H61.5199L59.3572 5.46957L58.0395 6.48071L58.0322 6.48273L58.0349 6.48451L58.0199 6.49589L55.8572 8.14062L56.6822 5.46957L54.5199 3.81168H57.1949L58.0199 1.14062L58.8449 3.81168ZM58.0349 6.48451L60.1822 8.12747L59.5449 6.06168L58.0395 6.48071L58.0349 6.48451Z" fill="white"/>
</g>
<defs>
<clipPath id="clip0_1_6534">
<rect width="5" height="10" fill="white" transform="translate(57.5199 0.140625)"/>
</clipPath>
</defs>
</svg>
