<svg width="305" height="194" viewBox="0 0 305 194" fill="none" xmlns="http://www.w3.org/2000/svg">
<path d="M304.336 180.181H0.664307V193.25H304.336V180.181Z" fill="#455A64"/>
<path d="M91.8137 180.099H18.1426L12.4221 130.059H86.0933L91.8137 180.099Z" fill="#D3DBE7"/>
<path d="M87.804 176.731H21.3503L16.4318 133.427H82.832L87.804 176.731Z" fill="white"/>
<path d="M133.407 176.731H57.8115V180.1H133.407V176.731Z" fill="#37474F"/>
<path d="M133.461 176.731H95.3956V180.1H133.461V176.731Z" fill="#858F9F"/>
<path d="M64.3341 133.427L21.3504 176.411L20.0673 165.183L51.7704 133.427H64.3341Z" fill="#EBEBEB"/>
<path d="M86.6815 166.894L76.791 176.731H64.2808L85.3984 155.613L86.6815 166.894Z" fill="#EBEBEB"/>
<path d="M24.665 133.427L17.2872 140.805L16.8595 136.955L20.388 133.427H24.665Z" fill="#EBEBEB"/>
<path d="M84.5428 148.396L56.2078 176.731H51.9308L84.1151 144.547L84.5428 148.396Z" fill="#EBEBEB"/>
<path d="M30.225 133.427L17.8218 145.83L17.7148 144.868L29.1558 133.427H30.225Z" fill="#EBEBEB"/>
<path d="M70.4823 133.427L27.1243 176.731H26.0551L69.413 133.427H70.4823Z" fill="#EBEBEB"/>
<path d="M83.8477 142.087L49.1507 176.731H48.0814L83.7408 141.125L83.8477 142.087Z" fill="#EBEBEB"/>
<path d="M220.872 180.099H294.543L300.264 130.059H226.593L220.872 180.099Z" fill="#D3DBE7"/>
<path d="M224.882 176.731H291.282L296.254 133.427H229.8L224.882 176.731Z" fill="white"/>
<path d="M254.821 176.731H179.225V180.1H254.821V176.731Z" fill="#9FA9B9"/>
<path d="M217.29 176.731H179.225V180.1H217.29V176.731Z" fill="#858F9F"/>
<path d="M294.329 150.214L292.725 164.328L280.322 176.731H267.758L294.329 150.214Z" fill="#EBEBEB"/>
<path d="M270.752 133.427L227.448 176.731H224.882L226.165 165.504L258.242 133.427H270.752Z" fill="#EBEBEB"/>
<path d="M242.578 133.427L228.196 147.808L228.731 142.943L238.301 133.427H242.578Z" fill="#EBEBEB"/>
<path d="M289.785 133.427L246.48 176.731H242.203L285.508 133.427H289.785Z" fill="#EBEBEB"/>
<path d="M294.917 144.814L294.81 145.991L264.07 176.731H263L294.917 144.814Z" fill="#EBEBEB"/>
<path d="M294.276 133.427L250.971 176.731H249.902L293.207 133.427H294.276Z" fill="#EBEBEB"/>
<path d="M253.965 133.427L226.699 160.639L226.86 159.409L252.896 133.427H253.965Z" fill="#EBEBEB"/>
<path d="M86.5744 104.717C95.7165 123.162 109.242 141.553 112.878 145.081C122.608 154.437 148.644 161.173 156.289 161.387C159.604 161.494 164.148 139.468 161.743 136.955C159.283 134.389 127.206 127.385 125.495 126.102C124.319 125.193 108.975 110.651 98.8173 101.99C86.2002 91.191 84.1686 99.9054 86.5744 104.717Z" fill="#F7A9A0"/>
<path d="M154.632 133.854L146.345 159.997C146.345 159.997 119.187 152.833 111.916 145.829C104.645 138.879 89.5683 113.805 86.6279 105.572C83.6875 97.3389 85.6121 90.8165 98.9243 101.509C112.236 112.201 123.517 123.161 125.923 124.926C128.222 126.743 154.632 133.854 154.632 133.854Z" fill="#A788CE"/>
<path d="M146.238 134.924C146.345 135.672 147.04 136.154 147.735 136.047C148.484 135.94 148.965 135.245 148.858 134.55C148.751 133.801 148.056 133.32 147.361 133.427C146.613 133.48 146.132 134.175 146.238 134.924Z" fill="#1D293F"/>
<path d="M139.556 132.999C139.663 133.748 140.358 134.229 141.053 134.122C141.801 134.015 142.282 133.32 142.175 132.625C142.068 131.876 141.373 131.395 140.678 131.502C139.983 131.556 139.449 132.251 139.556 132.999Z" fill="#1D293F"/>
<path d="M126.297 153.527C120.363 151.229 114.696 148.502 111.916 145.882C104.645 138.932 89.5683 113.858 86.6279 105.625C84.7567 100.332 84.8636 95.7881 88.6595 95.9485L126.297 153.527Z" fill="#896BAF"/>
<path d="M43.2699 176.73H111.862C112.129 174.218 98.0153 104.342 91.2791 95.5745C89.8356 93.7033 85.0774 93.1687 81.0677 93.7033C79.945 93.8103 78.8758 94.0776 77.9669 94.3449C77.9669 94.3449 77.9135 94.3449 77.86 94.3983C76.8977 94.7191 76.1492 95.0933 75.5611 95.521C64.3875 104.449 42.7352 176.142 43.2699 176.73Z" fill="#A788CE"/>
<path d="M85.719 111.399L88.606 105.732L92.4018 109.796L91.4395 113.912L87.7506 114.393L85.719 111.399Z" fill="#1D293F"/>
<path d="M87.7506 114.393L85.9863 156.147L93.7918 169.941L97.855 154.437L91.4395 113.912L87.7506 114.393Z" fill="#1D293F"/>
<path d="M87.6436 104.93C86.5744 104.876 79.4104 99.2626 77.2185 94.9321C77.0581 94.6113 77.6462 91.564 78.1273 87.7682C78.3946 85.4693 78.7154 82.9031 78.7689 80.5507C78.7689 80.0696 80.3727 81.0319 80.3727 81.0319L83.4201 81.8873L93.4176 84.6673C93.4176 84.6673 91.8137 89.5324 91.7068 93.649C91.7068 93.9698 91.7068 94.2906 91.7602 94.6113C91.7602 94.6648 91.7602 94.7183 91.7602 94.7717C91.9741 96.6429 89.4079 105.037 87.6436 104.93Z" fill="#F7A9A0"/>
<path d="M91.7069 94.6102C91.7069 94.6637 91.7069 94.7172 91.7069 94.7706C91.2257 94.8241 90.7446 94.8241 90.2099 94.8241C80.2659 94.2895 79.464 81.5654 79.464 81.5654L83.3667 81.8862L93.3642 84.6662C93.3642 84.6662 91.7603 89.5313 91.6534 93.6479C91.6534 93.9687 91.6534 94.2895 91.7069 94.6102Z" fill="#1D293F"/>
<path d="M76.4165 63.2836C74.9196 68.5763 77.967 83.6527 81.7628 86.9139C87.2694 91.7255 96.0907 91.9929 100.154 85.417C104.057 79.055 99.7261 59.4877 95.5026 56.4938C89.301 52.1099 78.6085 55.478 76.4165 63.2836Z" fill="#F7A9A0"/>
<path d="M91.3326 72.0517C91.3326 71.9982 91.2791 72.1051 91.2791 72.1586C91.493 73.1744 91.5999 74.3506 90.7445 74.8852V74.9386C91.8672 74.5644 91.7068 72.9605 91.3326 72.0517Z" fill="#1D293F"/>
<path d="M90.2098 71.1424C88.5525 71.3562 89.0871 74.6709 90.584 74.457C92.1344 74.2966 91.5998 70.982 90.2098 71.1424Z" fill="#1D293F"/>
<path d="M97.3205 71.3031C97.3205 71.2496 97.4274 71.3565 97.4274 71.3565C97.5343 72.3723 97.8551 73.5485 98.8709 73.7623C98.9243 73.7623 98.9243 73.8158 98.8709 73.8158C97.6947 73.8158 97.267 72.2654 97.3205 71.3031Z" fill="#1D293F"/>
<path d="M98.0689 70.0728C99.6728 69.6986 100.368 72.9598 98.8174 73.334C97.3204 73.6548 96.6789 70.3936 98.0689 70.0728Z" fill="#1D293F"/>
<path d="M88.7129 69.8589C89.1406 69.6985 89.5148 69.4312 89.9425 69.2173C90.4237 68.95 90.7979 68.7896 91.0652 68.3085C91.2256 68.0412 91.0652 67.6135 90.7979 67.5065C90.2098 67.1323 89.5682 67.2927 89.0336 67.6135C88.3921 67.9342 88.0178 68.3085 87.7505 68.95C87.4298 69.5381 88.1248 70.1262 88.7129 69.8589Z" fill="#1D293F"/>
<path d="M99.0846 68.2021C98.6034 68.2021 98.1757 68.0952 97.6946 68.0417C97.16 67.9883 96.7322 67.9883 96.3045 67.614C96.0907 67.4002 96.0372 66.9725 96.1976 66.7586C96.5719 66.224 97.2134 66.1171 97.855 66.1705C98.55 66.224 99.0846 66.4378 99.5658 66.919C100.1 67.4002 99.6727 68.2021 99.0846 68.2021Z" fill="#1D293F"/>
<path d="M91.9206 81.6748C92.1879 81.8887 92.5087 82.156 92.8829 82.156C93.2571 82.156 93.6314 81.8886 93.9521 81.7283C94.0056 81.7283 94.0056 81.7283 94.0056 81.7817C93.7917 82.2094 93.2571 82.5302 92.776 82.5302C92.2948 82.5302 92.0275 82.156 91.8136 81.7283C91.7602 81.7283 91.8671 81.6748 91.9206 81.6748Z" fill="#1D293F"/>
<path d="M95.7697 79.1618C95.7697 79.1618 95.2351 80.2311 94.3262 80.7122C94.0054 80.8726 93.6312 80.9795 93.2035 80.9795C92.3481 80.8726 92.1877 80.1241 92.2412 79.4826C92.2946 78.948 92.455 78.4668 92.455 78.4668C92.455 78.4668 93.845 79.3757 95.7697 79.1618Z" fill="white"/>
<path d="M92.5086 78.4665C93.2036 79.2684 94.166 79.6427 95.0748 79.6427C95.5025 79.6427 95.9302 79.5892 96.3579 79.4823C96.4648 79.4823 96.5183 79.4288 96.5718 79.4288C96.6252 79.4288 96.7321 79.3753 96.7856 79.3753C96.8925 79.3219 96.946 79.215 96.946 79.108C96.946 79.0546 96.946 79.0546 96.946 79.0011V78.8942C96.8391 78.0923 96.5718 76.9161 96.5718 76.9161C96.8925 77.023 98.4429 77.4507 98.3895 77.023C97.641 73.6549 96.8391 69.9125 95.3956 66.7048C95.3421 66.5978 95.1817 66.6513 95.2352 66.7582C95.8233 70.0194 96.946 73.1737 97.5875 76.4349C97.1064 76.328 96.251 76.1141 95.8767 76.1676C95.7698 76.2211 96.4114 78.4665 96.4648 78.7873C96.4648 78.7873 96.4648 78.7873 96.4648 78.8407C95.1817 79.215 94.1125 79.0011 92.669 78.3061C92.5086 78.3061 92.4017 78.413 92.5086 78.4665Z" fill="#1D293F"/>
<path d="M78.1808 75.0452C81.7628 74.5105 81.5489 67.8812 81.5489 67.8812C81.5489 67.8812 87.5902 65.9566 87.804 61.1984C87.804 61.1984 94.2195 64.0854 98.6034 61.733C102.987 59.3807 101.223 54.3018 100.582 53.286C99.94 52.2702 97.6411 54.676 97.6411 54.676C97.6411 54.676 96.8926 51.789 96.0907 51.5752C95.2353 51.4148 94.6472 53.286 94.6472 53.286C94.6472 53.286 88.3921 52.1633 83.0459 53.1256C77.6462 54.0879 75.775 59.9153 75.775 59.9153C75.775 59.9153 72.9949 60.9311 72.3534 63.1231C71.7118 65.2081 75.8819 75.3659 78.1808 75.0452Z" fill="#1D293F"/>
<path d="M80.1053 68.0958C84.9704 68.0423 87.6969 64.4069 87.6969 59.7022C87.6969 59.6487 87.8039 59.6487 87.8039 59.7022C88.285 63.9792 85.0238 69.3254 80.1053 68.3097C79.9449 68.3097 79.9449 68.0958 80.1053 68.0958Z" fill="#1D293F"/>
<path d="M75.8819 59.7549C75.9353 59.7549 75.9888 59.8083 75.9353 59.8618C74.7057 60.6637 73.2088 61.3588 72.4603 62.7488C71.5514 64.4061 72.086 66.2773 72.7276 67.8812C73.7434 70.3939 75.6146 73.5482 78.1273 74.7243C78.2877 74.7778 78.1808 74.9917 78.0204 74.9382C74.973 73.7086 72.7276 69.592 71.9257 66.5446C70.9633 63.1765 72.8345 60.9311 75.8819 59.7549Z" fill="#1D293F"/>
<path d="M93.2038 61.7328C95.5027 62.6951 98.657 62.2674 100.475 60.5566C102.72 58.4181 101.758 55.5846 100.314 53.3392C100.261 53.2323 100.421 53.0719 100.475 53.1788C102.292 55.1035 102.88 58.3112 101.063 60.4497C99.1916 62.6417 95.5027 63.1228 92.99 62.0536C92.8296 61.9466 92.99 61.6259 93.2038 61.7328Z" fill="#1D293F"/>
<path d="M90.4771 78.039C88.499 78.0925 86.6278 76.8628 86.0397 74.8847C85.3447 72.5324 86.6813 70.0731 89.0336 69.3781C91.386 68.6831 93.8452 70.0196 94.5402 72.372C95.2352 74.7243 93.8987 77.1836 91.5464 77.8786C91.2256 77.9855 90.8513 78.039 90.4771 78.039ZM90.2098 69.7523C89.889 69.7523 89.5682 69.8058 89.2475 69.9127C87.2159 70.5008 86.0397 72.6393 86.6278 74.6709C87.2159 76.7024 89.3544 77.8786 91.386 77.2905C93.4175 76.7025 94.5937 74.564 94.0056 72.5324C93.5245 70.8216 91.9206 69.6989 90.2098 69.7523Z" fill="#475569"/>
<path d="M100.528 76.4353C98.8172 76.4888 97.2133 74.8315 96.8926 72.5326C96.7322 71.3564 96.8925 70.2337 97.3202 69.3248C97.8014 68.3625 98.5499 67.7744 99.4587 67.6675C100.368 67.5071 101.276 67.8814 102.025 68.6298C102.773 69.3783 103.255 70.3941 103.415 71.5703C103.789 73.9761 102.613 76.168 100.849 76.4353C100.742 76.4353 100.635 76.4353 100.528 76.4353ZM99.7795 68.2021C99.7261 68.2021 99.6191 68.2021 99.5657 68.2021C98.8707 68.3091 98.2826 68.7902 97.8549 69.5922C97.4272 70.3941 97.3202 71.4099 97.4806 72.4257C97.8014 74.5107 99.2449 76.0611 100.742 75.7938C102.239 75.5799 103.148 73.6553 102.827 71.5703C102.666 70.5545 102.239 69.5922 101.597 69.0041C101.063 68.4694 100.421 68.1487 99.7795 68.2021Z" fill="#475569"/>
<path d="M94.5404 72.9063L94.1127 72.532C94.7008 71.8905 96.0908 70.8747 97.3739 71.837L96.9996 72.3182C95.8235 71.4093 94.5938 72.8528 94.5404 72.9063Z" fill="#475569"/>
<path d="M75.1868 77.0775L74.5988 76.8637C74.7057 76.5964 75.5076 74.2975 76.7907 73.8698C77.9669 73.4956 85.9328 73.0144 86.307 72.9609L86.3605 73.549C84.0616 73.7094 77.9134 74.1371 77.0046 74.4044C76.0957 74.7252 75.4007 76.436 75.1868 77.0775Z" fill="#475569"/>
<path d="M80.4796 75.6869C80.4796 75.6869 76.8442 70.9287 74.7057 72.2118C72.5137 73.4949 75.4007 80.4985 78.0203 81.3539C80.64 82.2093 81.4954 79.8035 81.4954 79.8035L80.4796 75.6869Z" fill="#F7A9A0"/>
<path d="M75.561 74.2432C75.5075 74.2432 75.5075 74.2966 75.561 74.2966C77.4322 74.9916 78.4479 76.5955 79.1964 78.3598C78.6083 77.7182 77.8599 77.344 77.0045 78.039C76.951 78.0925 77.0045 78.1459 77.0579 78.1459C77.8064 77.9321 78.341 78.039 78.8756 78.6271C79.2499 79.0548 79.5172 79.5894 79.7845 80.0706C79.8914 80.231 80.1587 80.124 80.1053 79.9636V79.9102C79.9983 77.5578 78.0737 74.3501 75.561 74.2432Z" fill="#1D293F"/>
<path d="M91.7601 94.9864L88.1782 103.754L77.3788 92.6875L74.278 96.216C74.278 96.216 84.8635 113.805 84.917 113.003L88.5524 105.465L93.7383 110.704L93.364 97.5526L91.7601 94.9864Z" fill="#A788CE"/>
<path d="M93.8986 104.182C93.7382 101.99 93.6848 99.852 93.4709 97.66C93.4709 97.6066 93.364 97.5531 93.3105 97.66C92.8828 99.7451 93.4175 108.032 93.4175 110.01C93.2036 109.796 88.6058 105.412 88.5524 105.466C87.7504 106.642 85.1308 112.148 84.9169 112.629C83.2596 109.849 76.8441 99.6916 74.866 97.072C74.8125 97.0185 74.7056 97.0719 74.7591 97.1254C76.256 100.066 84.7031 113.752 84.8635 113.699C84.9704 113.752 88.2316 107.016 88.6593 105.733C89.4612 106.695 94.059 111.614 94.059 111.293C94.1659 109.154 94.059 106.374 93.8986 104.182Z" fill="#1D293F"/>
<path d="M114.214 186.354L60.8055 191.647L60.5917 150.267L114.001 144.975L114.214 186.354Z" fill="#FFC727"/>
<path d="M78.0739 143.958L60.5917 145.669V150.267L79.3035 148.395L78.0739 143.958Z" fill="#FFC727"/>
<g opacity="0.1">
<path d="M114.214 186.354L60.8055 191.647L60.5917 150.267L114.001 144.975L114.214 186.354Z" fill="black"/>
<path d="M78.0739 143.958L60.5917 145.669V150.267L79.3035 148.395L78.0739 143.958Z" fill="black"/>
</g>
<path d="M114.161 186.407L62.6232 191.486L55.2988 149.945L110.205 145.348L114.161 186.407Z" fill="#EBEBEB"/>
<path d="M114.161 186.407L61.3402 191.593L53.4277 151.71L108.975 146.203L114.161 186.407Z" fill="white"/>
<path d="M114.054 186.407L60.5382 191.7L52.7327 152.619L106.249 147.326L114.054 186.407Z" fill="#FFC727"/>
<path d="M68.3972 101.723C50.1131 118.297 36.9613 146.846 37.389 154.544C37.9237 164.702 56.3147 182.077 68.3438 187.103C71.3911 188.386 83.0994 163.526 78.662 162.243C73.9573 160.853 63.1579 151.069 62.6233 150.588C61.5006 149.626 70.2149 127.92 73.8504 114.715C77.967 99.9057 76.0958 94.7198 68.3972 101.723Z" fill="#F7A9A0"/>
<path d="M61.554 183.307C73.1553 191.701 88.9802 193.519 91.6533 193.251C93.9522 193.037 95.1818 192.877 95.1818 192.877C99.3518 192.556 100.849 190.578 100.849 190.578C100.849 190.578 105.767 191.594 106.89 188.76C108.173 185.553 100.956 184.697 97.3203 181.81C88.9267 175.234 78.8223 163.526 76.5769 161.388L61.554 183.307Z" fill="#F7A9A0"/>
<path d="M83.6873 181.115C86.2 182.986 88.6058 184.911 91.3859 186.461C94.4332 188.172 97.5875 189.241 100.849 190.471C100.956 190.524 100.902 190.631 100.795 190.631C94.5936 189.348 88.0177 185.766 83.5269 181.329C83.3665 181.168 83.5269 181.008 83.6873 181.115Z" fill="#1D293F"/>
<path d="M78.9825 185.606C81.5487 187.317 86.0395 190.257 95.235 192.77C95.2885 192.77 95.235 192.823 95.235 192.823C89.0334 191.968 83.6872 189.723 78.8221 185.873C78.6617 185.713 78.7686 185.499 78.9825 185.606Z" fill="#1D293F"/>
<path d="M87.6971 173.203C86.9486 171.92 87.5902 171.492 90.1029 172.454C92.6156 173.416 101.544 179.404 103.362 176.09C105.179 172.775 92.4018 164.595 88.1782 163.259C83.9547 161.922 76.6304 161.334 76.6304 161.334C78.7154 163.472 83.527 169.033 87.6971 173.203Z" fill="#F7A9A0"/>
<path d="M61.9817 185.178L76.5235 160.746C76.5235 160.746 62.8906 151.176 62.8371 150.267C62.7836 149.305 72.4069 123.001 75.2938 110.063C78.1808 97.1256 76.7373 90.9239 64.0133 105.359C51.2892 119.794 34.9297 144.066 35.7851 154.491C36.694 164.916 61.9817 185.178 61.9817 185.178Z" fill="#A788CE"/>
<path d="M72.8881 122.413C72.3535 123.322 71.8188 124.231 71.3377 125.193C71.1773 125.514 71.0169 125.834 70.8565 126.102C70.9634 125.728 71.1238 125.353 71.2308 124.979C71.9792 122.627 72.6742 120.274 73.3158 117.869C73.3158 117.815 73.2623 117.762 73.2089 117.815C71.5515 121.878 70.1615 126.048 68.7715 130.165C67.3815 134.335 66.0984 138.559 64.8153 142.782C64.1203 145.134 63.4252 147.54 62.8372 149.893C62.8372 149.946 62.8906 149.946 62.9441 149.893C63.746 147.861 64.441 145.722 65.136 143.637C65.8311 141.552 66.5261 139.467 67.2211 137.329C68.2903 133.961 69.3596 130.646 70.4288 127.278C70.91 126.69 71.2308 125.941 71.605 125.246C72.0862 124.444 72.4604 123.429 72.8881 122.413C72.9415 122.413 72.8881 122.413 72.8881 122.413Z" fill="#1D293F"/>
<path d="M59.3623 179.03C59.1484 179.725 59.5227 180.473 60.2177 180.74C60.9127 180.954 61.6612 180.58 61.9285 179.885C62.1423 179.19 61.7681 178.442 61.0731 178.174C60.3781 177.96 59.5761 178.335 59.3623 179.03Z" fill="#1D293F"/>
<path d="M54.2832 174.326C54.0693 175.021 54.4436 175.769 55.1386 176.036C55.8336 176.25 56.5821 175.876 56.8494 175.181C57.0632 174.486 56.689 173.737 55.994 173.47C55.299 173.203 54.497 173.63 54.2832 174.326Z" fill="#1D293F"/>
<path d="M45.1411 169.514C46.8519 170.957 48.4023 172.508 49.9527 174.058C50.7547 174.86 51.5031 175.608 52.2516 176.41C53.0001 177.212 53.7486 178.014 54.5505 178.816C52.7862 177.48 51.1289 175.983 49.5785 174.432C48.0281 172.882 46.5311 171.278 45.1411 169.514Z" fill="#1D293F"/>
<path d="M231.351 59.3278C232.474 55.6389 237.499 47.5661 245.572 50.0254C257.12 53.5004 256.639 76.3288 261.824 83.9205C271.234 97.7138 270.378 110.384 261.504 111.614C251.56 112.951 243.059 101.617 245.572 79.0554C247.122 64.9414 243.754 58.312 240.867 58.4724C238.034 58.6328 236.109 62.0544 236.109 62.0544L231.351 59.3278Z" fill="#1D293F"/>
<path d="M231.885 57.9378C232.634 56.227 233.596 54.6766 234.719 53.1796C235.842 51.7361 237.285 50.3996 238.942 49.4907C240.6 48.5819 242.631 48.1542 244.502 48.4215C246.374 48.6888 248.245 49.3303 249.795 50.453C251.346 51.5758 252.629 53.0727 253.538 54.6766C254.5 56.3339 255.195 58.0447 255.73 59.8624C256.745 63.4444 257.227 67.1333 257.44 70.7687C256.852 67.1333 256.104 63.5513 254.981 60.0763C254.393 58.3655 253.698 56.7081 252.736 55.1577C251.827 53.6073 250.651 52.2708 249.207 51.255C247.764 50.2392 246.106 49.5977 244.342 49.3303C242.631 49.063 240.867 49.3838 239.263 50.1323C237.659 50.8807 236.269 52.0569 235.04 53.3935C234.398 54.035 233.863 54.7835 233.329 55.532C232.848 56.3874 232.367 57.1358 231.885 57.9378Z" fill="#1D293F"/>
<path d="M246.267 71.1963C246.16 73.4417 245.839 75.6871 245.572 77.9326C245.304 80.178 244.984 82.3699 244.77 84.6153C244.556 86.8608 244.396 89.1062 244.449 91.2981C244.449 93.5436 244.609 95.7355 245.037 97.9275C245.465 100.066 246.16 102.204 247.336 104.022C248.512 105.84 250.116 107.444 251.88 108.727C253.645 110.01 255.73 110.919 257.868 111.293C258.937 111.453 260.06 111.507 261.183 111.453C261.717 111.4 262.305 111.293 262.84 111.186C263.375 111.079 263.909 110.919 264.444 110.652C263.482 111.293 262.359 111.56 261.236 111.774C260.114 111.935 258.937 111.988 257.815 111.881C256.692 111.774 255.569 111.453 254.447 111.079C253.377 110.652 252.361 110.117 251.399 109.475C250.437 108.834 249.581 108.085 248.726 107.283L248.138 106.642L247.55 106C247.176 105.573 246.801 105.091 246.481 104.61C245.198 102.632 244.449 100.44 243.968 98.1948C243.113 93.6505 243.38 89.0527 243.914 84.6153C244.182 82.3699 244.609 80.1245 244.984 77.9326C245.518 75.6337 245.946 73.4417 246.267 71.1963Z" fill="#1D293F"/>
<path d="M230.709 59.3276C230.656 58.2583 231.458 56.9218 232.099 56.7079C232.794 56.4941 237.873 58.686 238.301 60.0226C238.729 61.3057 236.483 62.4819 236.483 62.4819L230.709 59.3276Z" fill="#455A64"/>
<path d="M234.612 106.001C231.618 112.577 209.164 143.371 198.044 144.227C186.389 145.082 158.482 126.103 155.808 124.499C148.484 120.169 168.96 100.12 172.489 103.702C178.423 109.637 192.537 120.864 196.012 120.115C203.283 118.511 218.413 105.787 229.159 99.2115C235.628 95.1484 237.927 98.7304 234.612 106.001Z" fill="#AD6359"/>
<path d="M157.573 125.514C156.29 124.659 146.132 118.992 142.282 113.539C140.251 110.652 135.6 102.098 137.204 100.601C138.647 99.2644 140.518 101.296 140.518 101.296C140.518 101.296 138.487 97.4467 140.572 95.6289C142.603 93.8112 145.597 97.3932 145.597 97.3932C145.597 97.3932 143.779 93.2766 145.971 91.6193C148.163 89.9619 150.516 94.0785 150.516 94.0785C150.516 94.0785 148.698 90.3896 151.104 89.8015C153.937 89.0531 156.557 96.217 159.284 98.9971C159.925 99.6386 172.916 110.759 172.916 110.759L157.573 125.514Z" fill="#AD6359"/>
<path d="M150.676 94.0792C152.601 99.3185 154.311 101.297 158.695 104.718C158.802 104.772 158.695 104.932 158.588 104.879C154.044 101.938 151.478 99.7997 150.409 94.1861C150.355 93.9188 150.569 93.8654 150.676 94.0792Z" fill="#1D293F"/>
<path d="M145.704 97.394C148.163 102.687 150.034 104.825 154.311 108.728C154.365 108.781 154.311 108.888 154.204 108.835C149.66 105.413 147.201 103.168 145.437 97.5543C145.383 97.3405 145.597 97.1801 145.704 97.394Z" fill="#1D293F"/>
<path d="M140.732 101.51C143.459 106.482 145.437 108.888 150.088 112.149C150.195 112.203 150.088 112.416 149.981 112.309C144.902 109.476 142.443 106.429 140.572 101.617C140.465 101.296 140.572 101.189 140.732 101.51Z" fill="#1D293F"/>
<path d="M177.354 109.156C177.354 109.156 174.467 102.74 172.596 100.227C170.724 97.7146 160.192 90.8714 158.588 93.0634C156.503 95.8969 161.796 101.029 164.737 103.221C164.737 103.221 159.925 109.744 162.919 114.234C165.913 118.725 177.354 109.156 177.354 109.156Z" fill="#AD6359"/>
<path d="M158.268 94.0254C158.214 97.9817 162.277 100.548 164.95 102.9C165.164 103.061 165.057 103.328 164.897 103.435C163.079 106.322 161.315 110.866 162.705 114.181C162.759 114.288 162.598 114.341 162.545 114.234C160.567 110.866 161.903 106.268 164.149 103.221C161.315 100.922 157.412 98.1421 158.268 94.0254C158.268 93.972 158.214 93.972 158.268 94.0254Z" fill="#1D293F"/>
<path d="M234.291 107.872C230.816 114.822 210.447 144.493 199.487 144.974C188.474 145.456 165.485 136.046 165.485 136.046L182.54 110.063C182.54 110.063 194.355 118.564 196.226 118.671C198.097 118.724 222.904 102.365 228.678 98.7829C234.398 95.1475 239.958 96.5375 234.291 107.872Z" fill="#FFE6B3"/>
<path d="M181.043 136.261C180.936 135.459 180.989 134.657 181.096 133.908C181.203 133.106 181.363 132.358 181.684 131.609C181.791 132.411 181.738 133.213 181.631 133.962C181.524 134.71 181.363 135.512 181.043 136.261Z" fill="#1D293F"/>
<path d="M214.991 131.021C214.884 130.219 214.938 129.417 215.045 128.669C215.152 127.867 215.312 127.119 215.633 126.37C215.74 127.172 215.686 127.974 215.579 128.722C215.472 129.524 215.312 130.273 214.991 131.021Z" fill="#1D293F"/>
<path d="M216.862 111.294C216.06 111.401 215.259 111.347 214.51 111.24C213.708 111.133 212.96 110.973 212.211 110.652C213.013 110.545 213.815 110.599 214.564 110.705C215.365 110.812 216.114 110.973 216.862 111.294Z" fill="#1D293F"/>
<path d="M189.49 120.222C188.688 120.329 187.886 120.276 187.137 120.169C186.335 120.062 185.587 119.902 184.839 119.581C185.64 119.474 186.442 119.527 187.191 119.634C187.993 119.741 188.741 119.902 189.49 120.222Z" fill="#1D293F"/>
<path d="M193.499 144.387C193.446 144.44 193.446 144.494 193.392 144.494C193.339 144.494 193.286 144.494 193.232 144.494C193.339 144.44 193.392 144.387 193.499 144.387Z" fill="#1D293F"/>
<path d="M174.199 126.905C174.681 126.263 175.322 125.728 175.91 125.247C176.552 124.766 177.193 124.338 177.942 124.018C177.461 124.659 176.819 125.194 176.231 125.675C175.589 126.156 174.948 126.584 174.199 126.905Z" fill="#1D293F"/>
<path d="M202.641 121.024C203.123 120.382 203.764 119.848 204.352 119.366C204.994 118.885 205.635 118.457 206.384 118.137C205.903 118.778 205.261 119.313 204.673 119.794C204.085 120.275 203.39 120.703 202.641 121.024Z" fill="#1D293F"/>
<path d="M193.232 129.149C193.873 129.631 194.408 130.272 194.889 130.86C195.37 131.502 195.798 132.143 196.119 132.892C195.477 132.411 194.943 131.769 194.462 131.181C193.98 130.539 193.499 129.898 193.232 129.149Z" fill="#1D293F"/>
<path d="M220.23 116.96C220.872 117.441 221.407 118.083 221.888 118.671C222.369 119.312 222.797 119.954 223.117 120.702C222.476 120.221 221.941 119.58 221.46 118.992C220.979 118.403 220.551 117.708 220.23 116.96Z" fill="#1D293F"/>
<path d="M186.229 114.287C184.09 118.19 182.005 122.092 179.706 125.888C177.407 129.631 175.055 133.373 172.382 136.848C172.328 136.901 172.221 136.848 172.275 136.795C174.306 132.892 176.659 129.203 178.958 125.407C181.257 121.611 183.716 117.976 186.015 114.18C186.068 114.02 186.282 114.126 186.229 114.287Z" fill="#1D293F"/>
<path d="M234.291 107.871C230.816 114.821 210.447 144.493 199.487 144.974C196.814 145.081 193.446 144.6 189.864 143.851C198.418 134.709 222.316 108.94 233.382 97.0183C236.697 96.8044 238.354 99.8518 234.291 107.871Z" fill="#1D293F"/>
<path d="M214.029 176.731H278.558C278.558 176.731 253.484 113.218 240.118 100.44C236.483 96.9652 227.501 97.2325 223.117 103.06C219.535 107.871 209.538 126.958 209.057 133.854C208.629 140.751 213.975 147.541 213.975 147.541L214.029 176.731Z" fill="#FFE6B3"/>
<path d="M222.262 152.94C222.155 152.138 222.209 151.336 222.315 150.588C222.422 149.786 222.583 149.038 222.904 148.289C223.01 149.091 222.957 149.893 222.85 150.641C222.743 151.443 222.583 152.192 222.262 152.94Z" fill="#1D293F"/>
<path d="M266.582 164.915C266.475 164.113 266.529 163.311 266.636 162.563C266.743 161.761 266.903 161.012 267.224 160.264C267.331 161.066 267.277 161.868 267.17 162.616C267.063 163.365 266.903 164.166 266.582 164.915Z" fill="#1D293F"/>
<path d="M238.782 175.341C238.675 174.539 238.728 173.737 238.835 172.988C238.942 172.186 239.103 171.438 239.423 170.689C239.53 171.491 239.477 172.293 239.37 173.042C239.263 173.844 239.103 174.592 238.782 175.341Z" fill="#1D293F"/>
<path d="M232.366 127.386C232.259 126.584 232.313 125.782 232.42 125.033C232.527 124.231 232.687 123.483 233.008 122.734C233.115 123.536 233.061 124.338 232.954 125.087C232.848 125.889 232.687 126.637 232.366 127.386Z" fill="#1D293F"/>
<path d="M249.528 146.685C249.421 145.883 249.474 145.082 249.581 144.333C249.688 143.531 249.849 142.783 250.169 142.034C250.276 142.836 250.223 143.638 250.116 144.387C249.955 145.188 249.795 145.937 249.528 146.685Z" fill="#1D293F"/>
<path d="M214.991 131.02C214.884 130.218 214.938 129.416 215.045 128.668C215.152 127.866 215.312 127.118 215.633 126.369C215.74 127.171 215.686 127.973 215.579 128.721C215.472 129.523 215.312 130.272 214.991 131.02Z" fill="#1D293F"/>
<path d="M237.659 150C236.857 150.107 236.055 150.053 235.307 149.946C234.505 149.839 233.757 149.679 233.008 149.358C233.81 149.251 234.612 149.305 235.36 149.412C236.162 149.518 236.911 149.679 237.659 150Z" fill="#1D293F"/>
<path d="M257.119 131.556C256.318 131.663 255.516 131.61 254.767 131.503C253.965 131.396 253.217 131.236 252.468 130.915C253.27 130.808 254.072 130.861 254.821 130.968C255.623 131.075 256.371 131.236 257.119 131.556Z" fill="#1D293F"/>
<path d="M222.422 171.706C221.62 171.813 220.818 171.759 220.07 171.652C219.268 171.545 218.52 171.385 217.771 171.064C218.573 170.957 219.375 171.011 220.123 171.118C220.872 171.225 221.674 171.385 222.422 171.706Z" fill="#1D293F"/>
<path d="M258.616 155.719C257.814 155.826 257.012 155.773 256.264 155.666C255.462 155.559 254.714 155.399 253.965 155.078C254.767 154.971 255.569 155.024 256.317 155.131C257.119 155.238 257.868 155.399 258.616 155.719Z" fill="#1D293F"/>
<path d="M228.089 164.489C228.571 163.847 229.212 163.312 229.8 162.831C230.442 162.35 231.083 161.922 231.832 161.602C231.351 162.243 230.709 162.778 230.121 163.259C229.479 163.74 228.838 164.168 228.089 164.489Z" fill="#1D293F"/>
<path d="M252.468 169.139C252.95 168.497 253.591 167.963 254.179 167.482C254.821 167 255.462 166.573 256.211 166.252C255.73 166.894 255.088 167.428 254.5 167.909C253.858 168.444 253.217 168.872 252.468 169.139Z" fill="#1D293F"/>
<path d="M258.937 146.365C259.418 145.723 260.06 145.188 260.648 144.707C261.29 144.226 261.931 143.798 262.68 143.478C262.198 144.119 261.557 144.654 260.969 145.135C260.327 145.616 259.686 146.044 258.937 146.365Z" fill="#1D293F"/>
<path d="M220.391 138.131C220.872 137.49 221.514 136.955 222.102 136.474C222.743 135.993 223.385 135.565 224.133 135.244C223.652 135.886 223.011 136.42 222.422 136.901C221.834 137.383 221.139 137.81 220.391 138.131Z" fill="#1D293F"/>
<path d="M245.358 122.412C245.839 121.771 246.48 121.236 247.068 120.755C247.71 120.274 248.352 119.846 249.1 119.525C248.619 120.167 247.977 120.702 247.389 121.183C246.748 121.664 246.106 122.145 245.358 122.412Z" fill="#1D293F"/>
<path d="M215.686 156.896C215.205 157.537 214.617 158.018 213.975 158.499V157.858C214.51 157.484 215.098 157.163 215.686 156.896Z" fill="#1D293F"/>
<path d="M232.634 112.363C233.115 111.721 233.757 111.186 234.345 110.705C234.986 110.224 235.628 109.796 236.376 109.476C235.895 110.117 235.253 110.652 234.665 111.133C234.077 111.614 233.382 112.042 232.634 112.363Z" fill="#1D293F"/>
<path d="M211.356 141.392C211.997 141.873 212.532 142.514 213.013 143.102C213.494 143.744 213.922 144.385 214.243 145.134C213.601 144.653 213.067 144.011 212.585 143.423C212.104 142.782 211.676 142.14 211.356 141.392Z" fill="#1D293F"/>
<path d="M220.23 116.96C220.872 117.441 221.407 118.083 221.888 118.671C222.369 119.312 222.797 119.954 223.117 120.702C222.476 120.221 221.941 119.58 221.46 118.992C220.979 118.403 220.551 117.708 220.23 116.96Z" fill="#1D293F"/>
<path d="M242.631 156.47C243.273 156.951 243.807 157.592 244.288 158.181C244.77 158.822 245.197 159.464 245.518 160.212C244.877 159.731 244.342 159.089 243.861 158.501C243.326 157.86 242.898 157.218 242.631 156.47Z" fill="#1D293F"/>
<path d="M265.834 171.973C266.475 172.454 267.01 173.095 267.491 173.683C267.972 174.325 268.4 174.967 268.721 175.715C268.079 175.234 267.545 174.592 267.064 174.004C266.582 173.363 266.155 172.721 265.834 171.973Z" fill="#1D293F"/>
<path d="M242.15 105.412C242.792 105.893 243.326 106.535 243.807 107.123C244.289 107.764 244.716 108.406 245.037 109.154C244.395 108.673 243.861 108.032 243.38 107.444C242.899 106.856 242.471 106.214 242.15 105.412Z" fill="#1D293F"/>
<path d="M238.033 135.511C238.675 135.992 239.21 136.633 239.691 137.222C240.172 137.863 240.6 138.505 240.92 139.253C240.279 138.772 239.744 138.13 239.263 137.542C238.728 136.954 238.301 136.313 238.033 135.511Z" fill="#1D293F"/>
<path d="M235.788 101.082C235.414 102.044 229.907 107.818 225.47 107.016C224.026 106.749 225.096 98.7832 225.096 98.7832L225.042 98.1951L224.24 89.6946L234.772 84.7226L236.269 84.0811C236.269 84.0811 236.323 86.4334 236.376 89.3204C236.376 89.4808 236.376 89.5877 236.376 89.7481C236.376 89.9084 236.376 90.0688 236.376 90.2292C236.376 90.6569 236.376 91.0846 236.376 91.5658C236.376 91.8866 236.376 92.2073 236.376 92.5816C236.376 92.9558 236.376 93.2766 236.376 93.6508C236.323 97.0724 235.948 100.654 235.788 101.082Z" fill="#AD6359"/>
<path d="M236.376 89.2666C233.168 95.5217 227.555 97.5532 224.989 98.1413L224.187 89.6408L234.719 84.6688L236.216 84.0273C236.323 83.9738 236.376 86.3261 236.376 89.2666Z" fill="#1D293F"/>
<path d="M213.441 77.0776C212.265 92.0471 221.086 94.4529 224.294 94.6667C227.234 94.8806 237.232 95.3083 239.958 80.5527C242.685 65.7971 236.109 60.5043 229.426 59.6489C222.743 58.7935 214.617 62.1082 213.441 77.0776Z" fill="#AD6359"/>
<path d="M215.954 73.924C216.328 73.8705 216.649 73.8171 216.97 73.7102C217.344 73.6032 217.665 73.6032 217.985 73.2825C218.146 73.1221 218.146 72.8013 217.985 72.6409C217.665 72.2667 217.13 72.2132 216.702 72.3201C216.168 72.4271 215.794 72.5874 215.473 73.0151C215.099 73.3894 215.473 73.924 215.954 73.924Z" fill="#1D293F"/>
<path d="M225.898 74.137C225.523 74.0835 225.203 73.9766 224.882 73.9231C224.508 73.8162 224.187 73.8162 223.92 73.4954C223.759 73.3351 223.759 73.0143 223.92 72.8539C224.24 72.4797 224.775 72.4797 225.203 72.5331C225.737 72.64 226.058 72.8539 226.432 73.2281C226.753 73.6024 226.379 74.1905 225.898 74.137Z" fill="#1D293F"/>
<path d="M223.546 77.8808C223.546 77.8273 223.599 77.9342 223.599 77.9877C223.546 79.0035 223.653 80.1797 224.561 80.5539C224.615 80.5539 224.561 80.6074 224.561 80.6074C223.439 80.3935 223.332 78.8431 223.546 77.8808Z" fill="#1D293F"/>
<path d="M224.508 76.8649C226.165 76.8114 226.165 80.0726 224.668 80.1796C223.171 80.1796 223.118 76.9184 224.508 76.8649Z" fill="#1D293F"/>
<path d="M225.149 77.0256C225.417 77.1859 225.737 77.5602 226.058 77.5602C226.486 77.6136 226.753 77.2394 227.021 76.9186C227.074 76.8652 227.074 76.9186 227.074 76.9721C227.074 77.6136 226.86 78.2552 226.165 78.3621C225.524 78.469 225.096 77.881 224.936 77.2394C224.936 77.1325 225.042 76.9186 225.149 77.0256Z" fill="#1D293F"/>
<path d="M217.879 77.6659C217.879 77.6125 217.825 77.7194 217.825 77.7729C217.879 78.7886 217.772 79.9648 216.809 80.3391C216.756 80.3391 216.809 80.3925 216.809 80.3925C217.985 80.1787 218.092 78.6283 217.879 77.6659Z" fill="#1D293F"/>
<path d="M216.97 76.5973C215.312 76.4903 215.259 79.805 216.756 79.9119C218.253 79.9654 218.36 76.7042 216.97 76.5973Z" fill="#1D293F"/>
<path d="M216.275 76.8112C216.007 76.9716 215.74 77.2924 215.419 77.2924C215.045 77.2924 214.778 76.9181 214.564 76.5973C214.564 76.5439 214.51 76.5973 214.51 76.6508C214.457 77.2923 214.671 77.9339 215.259 78.0943C215.793 78.2012 216.221 77.6666 216.382 77.0785C216.488 76.9181 216.382 76.7577 216.275 76.8112Z" fill="#1D293F"/>
<path d="M223.652 85.9531C223.439 86.2204 223.171 86.5412 222.85 86.5947C222.476 86.6481 222.049 86.4878 221.728 86.3808C221.674 86.3808 221.674 86.3808 221.674 86.4343C221.942 86.8085 222.53 87.0224 223.011 86.9154C223.492 86.8085 223.652 86.3808 223.759 85.9531C223.759 85.9531 223.652 85.9531 223.652 85.9531Z" fill="#1D293F"/>
<path d="M219.375 82.264C219.375 82.264 219.162 83.8144 219.162 84.5094C219.162 84.5629 219.322 84.6163 219.589 84.6163C219.589 84.6163 219.589 84.6163 219.643 84.6163C220.926 84.8302 222.209 84.4025 222.957 83.3332C223.011 83.2798 222.904 83.1729 222.85 83.2263C221.888 83.9213 220.872 84.0817 219.696 84.0817C219.643 83.8679 220.177 81.4621 220.07 81.4621C219.696 81.4086 218.894 81.6759 218.413 81.8363C218.787 78.6286 219.643 75.5277 219.963 72.3735C219.963 72.2665 219.803 72.2131 219.75 72.32C218.627 75.5277 218.092 79.1632 217.665 82.4779C217.611 82.9056 219.108 82.3709 219.375 82.264Z" fill="#1D293F"/>
<path d="M219.75 84.4564C219.75 84.4564 220.445 85.4188 221.407 85.793C221.781 85.8999 222.155 86.0069 222.53 85.8999C223.385 85.6861 223.385 84.9376 223.225 84.2961C223.118 83.7614 222.85 83.2803 222.85 83.2803C222.85 83.2803 221.674 84.3495 219.75 84.4564Z" fill="#1D293F"/>
<path d="M221.407 85.7938C221.781 85.9007 222.155 86.0077 222.529 85.9007C223.385 85.6869 223.385 84.9384 223.224 84.2969C222.369 84.3503 221.46 84.9384 221.407 85.7938Z" fill="#EB9481"/>
<path d="M239.263 82.0494C235.949 80.499 235.842 77.024 235.842 77.024C231.778 75.2597 229.533 72.052 229.319 71.7312C229.426 72.052 230.121 74.2439 230.549 75.3666C221.086 73.5489 218.199 66.278 218.199 66.278C215.098 69.3254 214.51 71.3035 214.029 72.2658C214.029 72.2658 213.976 66.4384 216.969 62.5891C220.658 57.831 233.008 56.6013 238.675 62.8564C244.823 69.5927 239.263 82.0494 239.263 82.0494Z" fill="#1D293F"/>
<path d="M223.385 73.816C224.882 74.6714 226.539 75.2595 228.25 75.6337C225.577 74.8853 223.171 73.4418 221.3 71.4102C220.498 70.5548 219.803 69.5925 219.268 68.5232C218.68 67.454 218.146 66.1709 218.039 64.8878C218.039 64.7809 217.878 64.7809 217.878 64.8878C217.985 66.1709 218.092 67.4005 218.627 68.6302C219.108 69.8063 219.856 70.8756 220.712 71.7845C221.46 72.5864 222.369 73.2279 223.385 73.816Z" fill="#1D293F"/>
<path d="M237.499 81.5142C237.499 81.5142 240.76 76.8095 242.899 77.9856C245.037 79.1618 242.631 85.9515 240.119 86.9139C237.606 87.8762 236.697 85.5773 236.697 85.5773L237.499 81.5142Z" fill="#AD6359"/>
<path d="M242.097 79.9102C242.15 79.9102 242.15 79.9636 242.097 79.9636C240.332 80.6586 239.424 82.316 238.836 83.9733C239.37 83.3318 240.065 82.9575 240.921 83.5991C240.974 83.6525 240.921 83.706 240.867 83.706C240.172 83.5456 239.637 83.706 239.156 84.2406C238.836 84.6683 238.568 85.1495 238.354 85.6306C238.247 85.791 237.98 85.6841 238.034 85.5237V85.4702C238.034 83.2783 239.744 80.1775 242.097 79.9102Z" fill="#1D293F"/>
<path d="M237.98 86.54C237.98 87.128 238.461 87.6092 239.049 87.6092C239.638 87.6092 240.119 87.128 240.119 86.54C240.119 85.9519 239.638 85.4707 239.049 85.4707C238.515 85.4707 237.98 85.9519 237.98 86.54Z" fill="#1D293F"/>
<path d="M220.231 104.129C220.231 104.129 217.183 112.844 222.69 113.432C228.25 114.073 242.685 103.381 242.685 103.381C242.685 103.381 238.675 96.9119 232.26 97.6069C226.967 98.1416 220.231 104.129 220.231 104.129Z" fill="#AD6359"/>
<path d="M246.374 114.287C246.374 125.033 240.225 157.217 234.291 161.548C222.422 170.209 194.622 169.62 186.977 169.781C183.662 169.834 179.332 147.808 181.791 145.242C184.25 142.729 218.145 141.767 219.856 140.483C221.086 139.575 230.602 123.91 236.162 113.859C243.594 100.226 246.374 108.887 246.374 114.287Z" fill="#AD6359"/>
<path d="M187.672 144.065C187.672 144.065 177.674 142.942 171.099 142.568C167.41 142.354 161.101 142.515 158.321 143.584C154.151 145.188 137.845 154.49 139.984 158.5C141.962 162.135 146.934 158.126 146.934 158.126C146.934 158.126 141.053 161.975 144.1 165.022C147.201 168.07 153.189 162.189 153.189 162.189C153.189 162.189 146.666 165.878 150.248 168.765C153.349 171.278 160.994 165.29 160.994 165.29C160.994 165.29 153.723 168.391 156.664 171.278C159.872 174.485 172.489 166.894 172.489 166.894C180.668 169.62 185.961 170.155 192.216 169.781C193.339 169.62 187.672 144.065 187.672 144.065Z" fill="#AD6359"/>
<path d="M151.371 163.418C151.852 162.991 152.387 162.563 152.868 162.135C153.83 161.28 154.793 160.424 155.862 159.676C156.878 158.981 157.947 158.286 159.016 157.644C160.139 156.949 161.369 156.415 162.491 155.72C162.598 155.666 162.652 155.773 162.545 155.827C161.422 156.468 160.353 157.324 159.337 158.072C158.321 158.82 157.252 159.569 156.236 160.371C155.22 161.119 154.205 161.814 153.189 162.509C152.654 162.884 152.173 163.258 151.692 163.632C151.211 164.006 150.783 164.434 150.248 164.701C150.195 164.755 150.141 164.648 150.195 164.594C150.516 164.167 150.943 163.792 151.371 163.418Z" fill="#1D293F"/>
<path d="M145.757 158.874C146.452 157.965 150.195 154.971 151.157 154.223C153.082 152.833 155.167 151.603 157.359 150.641C157.412 150.587 157.519 150.694 157.412 150.747C155.488 152.137 153.509 153.528 151.585 154.918C150.622 155.613 146.399 158.82 145.918 159.088C145.757 159.141 145.65 158.981 145.757 158.874Z" fill="#1D293F"/>
<path d="M156.557 167.856C157.252 167.054 160.78 164.22 161.743 163.579C162.651 162.991 166.661 160.905 167.891 160.531C167.944 160.531 168.051 160.638 167.944 160.638C165.966 161.814 163.988 162.937 162.117 164.22C161.208 164.808 157.626 167.481 156.664 168.016C156.61 168.016 156.503 167.909 156.557 167.856Z" fill="#1D293F"/>
<path d="M194.408 171.385L185.266 142.355C185.266 142.355 218.52 140.217 219.589 139.682C220.658 139.148 232.527 118.19 237.232 110.011C241.936 101.884 249.207 105.199 246.481 123.59C243.754 142.088 240.76 156.469 236.643 160.746C231.565 165.932 213.173 171.278 194.408 171.385Z" fill="#FFE6B3"/>
<path d="M222.262 152.94C222.155 152.138 222.209 151.336 222.316 150.588C222.423 149.786 222.583 149.038 222.904 148.289C223.011 149.091 222.957 149.893 222.85 150.641C222.743 151.443 222.583 152.192 222.262 152.94Z" fill="#1D293F"/>
<path d="M203.871 169.566C203.764 168.764 203.818 167.962 203.924 167.214C204.031 166.412 204.192 165.664 204.513 164.915C204.619 165.717 204.566 166.519 204.459 167.267C204.352 168.069 204.192 168.818 203.871 169.566Z" fill="#1D293F"/>
<path d="M232.367 127.385C232.26 126.583 232.313 125.781 232.42 125.032C232.527 124.23 232.687 123.482 233.008 122.733C233.115 123.535 233.062 124.337 232.955 125.086C232.848 125.888 232.687 126.636 232.367 127.385Z" fill="#1D293F"/>
<path d="M237.659 150C236.857 150.107 236.056 150.053 235.307 149.946C234.505 149.839 233.757 149.679 233.008 149.358C233.81 149.251 234.612 149.305 235.361 149.412C236.162 149.518 236.911 149.679 237.659 150Z" fill="#1D293F"/>
<path d="M205.742 150.909C204.94 151.016 204.138 150.962 203.39 150.855C202.588 150.748 201.84 150.588 201.091 150.267C201.893 150.16 202.695 150.214 203.443 150.321C204.192 150.481 204.994 150.588 205.742 150.909Z" fill="#1D293F"/>
<path d="M228.09 164.489C228.571 163.847 229.212 163.312 229.8 162.831C230.442 162.35 231.083 161.922 231.832 161.602C231.351 162.243 230.709 162.778 230.121 163.259C229.48 163.74 228.838 164.168 228.09 164.489Z" fill="#1D293F"/>
<path d="M189.757 147.22C190.238 146.578 190.88 146.044 191.468 145.563C192.109 145.081 192.751 144.654 193.499 144.333C193.018 144.975 192.377 145.509 191.789 145.99C191.147 146.472 190.506 146.899 189.757 147.22Z" fill="#1D293F"/>
<path d="M224.187 135.298C223.706 135.939 223.064 136.474 222.476 136.955C221.995 137.329 221.46 137.65 220.926 137.918C221.086 137.65 221.246 137.383 221.46 137.062C221.674 136.848 221.888 136.688 222.155 136.527C222.743 136.046 223.438 135.619 224.187 135.298Z" fill="#1D293F"/>
<path d="M246.802 121.023C246.802 121.237 246.748 121.451 246.748 121.718C246.32 121.986 245.893 122.253 245.358 122.467C245.786 121.879 246.267 121.451 246.802 121.023Z" fill="#1D293F"/>
<path d="M211.944 159.784C212.425 159.143 213.067 158.608 213.655 158.127C214.296 157.646 214.938 157.218 215.686 156.897C215.205 157.539 214.564 158.074 213.976 158.555C213.334 159.036 212.693 159.464 211.944 159.784Z" fill="#1D293F"/>
<path d="M211.356 141.393C211.997 141.874 212.532 142.515 213.013 143.103C213.494 143.745 213.922 144.386 214.243 145.135C213.601 144.654 213.067 144.012 212.585 143.424C212.104 142.783 211.676 142.141 211.356 141.393Z" fill="#1D293F"/>
<path d="M245.037 109.208C244.396 108.727 243.914 108.085 243.433 107.497C243.059 106.963 242.685 106.428 242.417 105.84C242.524 105.84 242.631 105.84 242.685 105.84C243.112 106.268 243.487 106.695 243.861 107.176C244.289 107.764 244.716 108.46 245.037 109.208Z" fill="#1D293F"/>
<path d="M238.034 135.512C238.675 135.993 239.21 136.634 239.691 137.223C240.172 137.864 240.6 138.506 240.921 139.254C240.279 138.773 239.744 138.131 239.263 137.543C238.729 136.955 238.301 136.314 238.034 135.512Z" fill="#1D293F"/>
<path d="M230.014 122.306C228.945 123.91 227.929 125.621 226.913 127.278C226.86 127.332 226.86 127.385 226.806 127.439C226.86 127.332 226.913 127.171 226.967 127.064C227.287 126.209 227.555 125.407 227.929 124.552C227.929 124.498 227.876 124.445 227.876 124.498C227.501 125.3 227.127 126.102 226.753 126.904C226.539 127.439 226.325 128.027 226.111 128.561C225.363 129.791 224.614 131.021 223.866 132.304C222.904 133.961 221.888 135.672 220.925 137.329C220.658 137.757 220.444 138.131 220.177 138.559C219.963 138.933 219.696 139.2 219.322 139.361C218.894 139.521 218.413 139.521 217.932 139.521C217.45 139.575 216.969 139.628 216.488 139.682C214.296 139.949 212.051 140.323 209.859 140.59C209.805 140.59 209.805 140.697 209.859 140.697C211.89 140.537 213.922 140.484 215.953 140.323C216.969 140.216 217.985 140.163 218.947 140.056C219.322 140.002 219.696 139.949 220.017 139.682C220.284 139.468 220.498 139.147 220.658 138.826C222.69 135.351 224.668 131.876 226.699 128.348C227.822 126.369 228.998 124.391 230.014 122.36C230.174 122.253 230.067 122.199 230.014 122.306Z" fill="#1D293F"/>
<path d="M246.534 130.059C246.481 130.7 246.213 131.395 246.053 132.037C245.892 132.625 245.732 133.16 245.572 133.748C245.358 134.389 245.144 135.031 244.93 135.672C245.358 132.839 245.732 130.005 245.999 127.118C245.999 127.011 245.839 127.011 245.839 127.118C245.304 131.128 244.556 135.084 243.754 139.04C242.899 142.997 241.883 146.899 240.76 150.749C240.172 152.673 239.584 154.544 238.942 156.416C238.354 158.02 237.713 159.623 236.59 160.96C235.414 162.403 233.81 163.312 232.153 164.114C230.388 164.916 228.571 165.665 226.699 166.253C222.476 167.643 218.145 168.498 213.815 169.567C213.762 169.567 213.762 169.674 213.815 169.674C217.771 169.086 221.674 168.391 225.523 167.322C227.448 166.787 229.426 166.199 231.297 165.397C233.008 164.702 234.772 163.9 236.162 162.617C237.445 161.388 238.354 159.837 239.049 158.18C239.744 156.416 240.332 154.598 240.92 152.78C242.15 148.824 243.166 144.868 244.021 140.805C244.289 139.628 244.502 138.452 244.663 137.276C245.144 136.153 245.518 134.977 245.839 133.801C245.999 133.213 246.16 132.571 246.267 131.93C246.374 131.288 246.427 130.647 246.587 130.059C246.641 130.005 246.534 130.005 246.534 130.059Z" fill="#1D293F"/>
<path d="M200.182 169.034C198.685 164.863 197.081 160.693 195.745 156.47C194.462 152.3 193.179 148.023 192.323 143.746C192.323 143.639 192.43 143.639 192.484 143.692C194.034 147.809 195.317 152.032 196.654 156.203C197.99 160.426 199.113 164.703 200.45 168.927C200.503 169.087 200.236 169.194 200.182 169.034Z" fill="#1D293F"/>
<path d="M194.569 141.66C193.767 141.607 192.965 141.66 192.163 141.66C191.361 141.66 190.559 141.714 189.757 141.767C188.153 141.821 186.549 141.928 184.999 142.088C184.892 142.088 184.785 142.195 184.838 142.355C185.052 142.89 185.266 143.532 185.64 144.013C185.64 144.066 185.747 144.013 185.694 144.013C185.64 143.532 185.48 142.997 185.266 142.516C186.763 142.409 188.313 142.302 189.81 142.195C190.612 142.142 191.414 142.088 192.216 142.035C192.965 141.981 193.767 141.928 194.569 141.821C194.676 141.767 194.622 141.66 194.569 141.66Z" fill="#1D293F"/>
<path d="M158.695 135.405C160.674 136.368 169.762 136.742 172.382 140.003C174.146 142.142 173.986 144.333 175.001 150.802C175.91 156.416 171.259 155.079 169.923 152.192C167.838 147.702 166.02 142.73 166.02 142.73C163.881 142.569 161.369 142.783 161.369 142.783L158.695 135.405Z" fill="#F7A9A0"/>
<path d="M165.218 156.629C168.372 154.651 178.37 167.322 173.398 170.69C168.372 174.005 161.636 158.875 165.218 156.629Z" fill="#F7A9A0"/>
<path d="M160.139 159.303C163.293 157.325 173.29 169.996 168.318 173.364C163.24 176.732 156.557 161.549 160.139 159.303Z" fill="#F7A9A0"/>
<path d="M156.503 159.837C159.658 158.447 166.982 171.384 161.957 173.737C156.931 176.036 152.975 161.387 156.503 159.837Z" fill="#F7A9A0"/>
<path d="M152.815 159.463C156.129 159.089 159.283 173.15 153.991 173.898C148.644 174.647 149.126 159.891 152.815 159.463Z" fill="#F7A9A0"/>
<path d="M164.469 161.013C165.057 161.601 165.539 162.35 166.02 163.045C166.554 163.793 167.036 164.542 167.517 165.343C167.944 166.092 168.372 166.894 168.693 167.696C169.067 168.551 169.281 169.46 169.655 170.315C169.709 170.422 169.548 170.476 169.495 170.369C169.174 169.567 168.639 168.765 168.212 167.963C167.784 167.215 167.356 166.413 166.929 165.611C166.501 164.862 166.127 164.06 165.646 163.312C165.218 162.563 164.683 161.815 164.309 161.013C164.362 161.013 164.416 160.96 164.469 161.013Z" fill="#1D293F"/>
<path d="M159.284 160.906C159.604 161.869 160.674 165.504 161.048 166.413C161.422 167.375 161.796 168.284 162.224 169.246C162.652 170.209 163.026 171.171 163.507 172.08C163.561 172.187 163.4 172.24 163.4 172.133C162.919 171.225 162.331 170.369 161.85 169.46C161.369 168.551 160.994 167.589 160.62 166.627C160.246 165.664 159.284 161.922 159.123 160.906C159.123 160.853 159.23 160.853 159.284 160.906Z" fill="#1D293F"/>
<path d="M155.327 161.815C155.594 163.152 155.755 164.542 156.022 165.878C156.129 166.573 156.289 167.215 156.396 167.91C156.45 168.231 156.503 168.551 156.557 168.872C156.61 169.246 156.61 169.674 156.771 169.995C156.824 170.102 156.664 170.155 156.61 169.995C156.557 169.621 156.343 169.193 156.236 168.819C156.129 168.498 156.076 168.177 155.969 167.856C155.808 167.215 155.648 166.52 155.541 165.878C155.327 164.542 155.113 163.205 155.113 161.869C155.167 161.762 155.327 161.708 155.327 161.815Z" fill="#1D293F"/>
<path d="M119.18 62.6216L119.331 62.8507L119.219 63.1009L116.863 68.3569L122.969 66.7959L123.194 66.7385L123.382 66.8726C126.979 69.4264 131.901 71.0038 137.314 71.0038C142.911 71.0038 147.964 69.3213 151.605 66.6309C155.247 63.9402 157.45 60.2674 157.45 56.267C157.45 52.2667 155.247 48.5939 151.605 45.9032C147.964 43.2128 142.911 41.5303 137.314 41.5303C131.716 41.5303 126.663 43.1999 123.022 45.8835C119.381 48.567 117.177 52.2394 117.177 56.267C117.177 58.5095 117.89 60.6608 119.18 62.6216Z" fill="white" stroke="#BEC5D0"/>
<path d="M134.006 54.0166H132.476C131.941 54.0166 131.505 54.4715 131.505 55.0312V61.1051C131.505 61.6648 131.941 62.1197 132.476 62.1197H134.006C134.541 62.1197 134.976 61.6648 134.976 61.1051V55.0312C134.976 54.4721 134.541 54.0166 134.006 54.0166Z" fill="#1D293F"/>
<path d="M143.962 55.598C143.962 54.6082 142.676 54.0067 142.112 54.0067H139.568C140 52.0651 139.478 50.9568 139.111 50.4557C138.748 49.9601 138.247 49.6641 137.77 49.6641C137.401 49.6641 137.082 49.8442 136.9 50.1602C136.872 50.2082 136.857 50.2643 136.857 50.3204V51.9946C136.492 53.0829 136.135 53.9338 135.65 54.5783V62.0449C135.764 62.0842 135.873 62.111 135.963 62.111H141.533C141.795 62.111 142.049 61.9703 142.274 61.7065C142.586 61.3376 142.794 60.769 142.802 60.3028C143.254 59.9525 143.468 59.313 143.429 58.4328C143.915 57.9118 143.884 57.1719 143.726 56.7151C143.925 56.422 143.962 55.9253 143.962 55.598Z" fill="#1D293F"/>
<path d="M200.88 77.228L200.73 77.4571L200.842 77.7074L203.198 82.9634L197.091 81.4023L196.867 81.3449L196.678 81.4791C193.082 84.0328 188.16 85.6103 182.747 85.6103C177.149 85.6103 172.097 83.9277 168.455 81.2373C164.813 78.5466 162.61 74.8738 162.61 70.8735C162.61 66.8732 164.813 63.2004 168.455 60.5097C172.097 57.8192 177.149 56.1367 182.747 56.1367C188.345 56.1367 193.397 57.8064 197.038 60.49C200.679 63.1734 202.883 66.8459 202.883 70.8735C202.883 73.116 202.17 75.2672 200.88 77.228Z" fill="white" stroke="#BEC5D0"/>
<path d="M188.219 69.9432C187.765 73.7999 185.29 74.5011 184.877 75.5117C184.651 76.0686 184.362 77.471 184.362 77.471H180.34C180.34 77.471 180.051 76.048 179.825 75.5117C179.412 74.4805 176.937 73.7793 176.504 69.9225C176.215 67.3858 178.133 63.4053 182.382 63.4053C186.631 63.4259 188.507 67.4064 188.219 69.9432Z" fill="#FFC727"/>
<path d="M180.266 71.3211L180.063 71.3584L181.239 77.7479L181.441 77.7105L180.266 71.3211Z" fill="white"/>
<path d="M184.418 71.343L183.213 77.7266L183.416 77.7648L184.621 71.3812L184.418 71.343Z" fill="white"/>
<path d="M182.341 73.4695C182.031 73.4695 181.701 73.222 181.454 72.7683C181.433 72.7477 181.433 72.727 181.413 72.7064C181.309 72.8302 181.186 72.892 181.062 72.892C180.464 72.892 180.216 71.6546 180.216 71.5927L180.319 71.5721C180.319 71.5927 180.546 72.7889 181.062 72.7889C181.165 72.7889 181.248 72.727 181.351 72.6033C181.103 72.0877 180.959 71.3865 181.144 71.0771C181.206 70.974 181.309 70.9121 181.413 70.9121C181.557 70.9121 181.681 70.974 181.743 71.0977C181.928 71.4071 181.784 72.0671 181.557 72.4796C181.536 72.5208 181.495 72.5621 181.474 72.6033C181.495 72.6445 181.516 72.6652 181.536 72.7064C181.681 72.9539 181.969 73.3664 182.341 73.3664C182.588 73.3664 182.836 73.1808 183.042 72.8095C183.062 72.7889 183.083 72.7477 183.083 72.727C183.042 72.6652 182.98 72.6033 182.939 72.5208C182.691 72.0877 182.65 71.4483 182.836 71.1184C182.918 70.9946 183.021 70.9121 183.166 70.9121C183.269 70.9121 183.351 70.974 183.413 71.0771C183.599 71.3865 183.496 72.1289 183.207 72.7064C183.31 72.8095 183.434 72.8714 183.619 72.8714C183.991 72.8714 184.321 71.9846 184.403 71.6546L184.506 71.6752C184.486 71.7371 184.135 72.9745 183.619 72.9745C183.454 72.9745 183.31 72.9127 183.166 72.7889C183.145 72.8095 183.145 72.8302 183.124 72.8508C182.98 73.1395 182.712 73.4695 182.341 73.4695ZM183.166 71.0359C183.062 71.0359 182.98 71.0771 182.939 71.1802C182.774 71.469 182.815 72.0877 183.042 72.4796C183.062 72.5208 183.104 72.5827 183.145 72.6239C183.392 72.0877 183.496 71.4071 183.331 71.139C183.289 71.0565 183.248 71.0359 183.166 71.0359ZM181.433 71.0152C181.351 71.0152 181.289 71.0565 181.248 71.1184C181.103 71.3658 181.206 71.9639 181.433 72.5002C181.454 72.4796 181.454 72.4589 181.474 72.4177C181.701 72.0464 181.825 71.4277 181.66 71.139C181.619 71.0771 181.536 71.0152 181.433 71.0152Z" fill="white"/>
<path d="M184.817 77.3125L179.846 77.3008L179.844 78.2701L184.815 78.2819L184.817 77.3125Z" fill="#1D293F"/>
<path d="M184.817 78.4463L179.847 78.4346L179.844 79.4039L184.815 79.4156L184.817 78.4463Z" fill="#1D293F"/>
<path d="M184.817 79.5605L179.847 79.5488L179.844 80.5182L184.815 80.5299L184.817 79.5605Z" fill="#1D293F"/>
<path d="M182.547 60.249C182.63 60.5171 182.63 60.7853 182.63 61.0534C182.63 61.3215 182.609 61.5896 182.506 61.8577C182.423 61.5896 182.423 61.3215 182.423 61.0534C182.444 60.7853 182.465 60.5171 182.547 60.249Z" fill="#1D293F"/>
<path d="M178.051 61.3428C178.257 61.5284 178.402 61.7553 178.525 62.0028C178.649 62.2296 178.773 62.4771 178.835 62.7452C178.628 62.5596 178.484 62.3327 178.36 62.0852C178.237 61.8584 178.113 61.6315 178.051 61.3428Z" fill="#1D293F"/>
<path d="M174.71 64.5391C174.978 64.6009 175.225 64.7247 175.452 64.8691C175.679 65.0134 175.906 65.1578 176.092 65.364C175.823 65.3022 175.576 65.1784 175.349 65.034C175.122 64.9103 174.895 64.7453 174.71 64.5391Z" fill="#1D293F"/>
<path d="M173.411 68.9936C173.679 68.9111 173.947 68.9111 174.215 68.9111C174.483 68.9111 174.751 68.9318 175.019 69.0349C174.751 69.1174 174.483 69.1174 174.215 69.1174C173.947 69.0968 173.679 69.0761 173.411 68.9936Z" fill="#1D293F"/>
<path d="M174.504 73.4908C174.689 73.2845 174.916 73.1401 175.164 73.0164C175.39 72.8926 175.638 72.7689 175.906 72.707C175.72 72.9133 175.494 73.0576 175.246 73.1814C175.019 73.3258 174.792 73.4289 174.504 73.4908Z" fill="#1D293F"/>
<path d="M189.993 73.8396C189.724 73.7777 189.477 73.654 189.25 73.5096C189.023 73.3653 188.796 73.2209 188.611 73.0146C188.879 73.0765 189.126 73.2003 189.353 73.3446C189.58 73.4684 189.807 73.6334 189.993 73.8396Z" fill="#1D293F"/>
<path d="M191.292 69.3855C191.023 69.468 190.755 69.468 190.487 69.468C190.219 69.468 189.951 69.4473 189.683 69.3442C189.951 69.2617 190.219 69.2617 190.487 69.2617C190.755 69.2823 191.023 69.303 191.292 69.3855Z" fill="#1D293F"/>
<path d="M190.198 64.8896C190.013 65.0959 189.786 65.2403 189.538 65.364C189.312 65.4878 189.064 65.6115 188.796 65.6734C188.982 65.4671 189.209 65.3228 189.456 65.199C189.683 65.0546 189.93 64.9515 190.198 64.8896Z" fill="#1D293F"/>
<path d="M187.002 61.5479C186.94 61.816 186.816 62.0635 186.672 62.2903C186.528 62.5172 186.383 62.7441 186.177 62.9297C186.239 62.6616 186.363 62.4141 186.507 62.1872C186.631 61.9603 186.796 61.7335 187.002 61.5479Z" fill="#1D293F"/>
</svg>
