<svg width="32" height="38" viewBox="0 0 32 38" fill="none" xmlns="http://www.w3.org/2000/svg">
<path d="M5.2 37.224C4.88 37.224 4.592 37.112 4.336 36.888C4.112 36.632 4 36.344 4 36.024V32.424C4 31.464 4.4 30.664 5.2 30.024L9.664 25.656C12.704 23.352 14.992 21.56 16.528 20.28C18.096 19 19.28 17.848 20.08 16.824C20.912 15.768 21.328 14.776 21.328 13.848C21.328 11.48 20.144 10.296 17.776 10.296C16.528 10.296 15.568 10.68 14.896 11.448C14.224 12.184 13.776 13.112 13.552 14.232C13.36 14.968 12.816 15.336 11.92 15.336H5.584C5.296 15.336 5.04 15.24 4.816 15.048C4.624 14.824 4.528 14.584 4.528 14.328C4.592 12.216 5.168 10.312 6.256 8.616C7.376 6.888 8.928 5.528 10.912 4.536C12.896 3.512 15.184 3 17.776 3C20.464 3 22.784 3.432 24.736 4.296C26.688 5.16 28.16 6.376 29.152 7.944C30.176 9.512 30.688 11.336 30.688 13.416C30.688 15.72 29.968 17.8 28.528 19.656C27.12 21.512 24.96 23.528 22.048 25.704L18.064 29.688H30.208C30.56 29.688 30.848 29.8 31.072 30.024C31.296 30.248 31.408 30.536 31.408 30.888V36.024C31.408 36.344 31.296 36.632 31.072 36.888C30.848 37.112 30.56 37.224 30.208 37.224H5.2Z" fill="#CAAAD8"/>
<path d="M0.959711 35.2173L0.981662 35.2423L1.00675 35.2643C1.34765 35.5626 1.75084 35.724 2.2 35.724H27.208C27.6765 35.724 28.097 35.5702 28.4256 35.2416L28.4373 35.2298L28.4483 35.2173C28.7466 34.8764 28.908 34.4732 28.908 34.024V28.888C28.908 28.4195 28.7542 27.999 28.4256 27.6704C28.097 27.3418 27.6765 27.188 27.208 27.188H16.2711L19.3762 24.0829C22.2917 21.9017 24.4821 19.8614 25.9247 17.9603C27.4302 16.019 28.188 13.8324 28.188 11.416C28.188 9.25135 27.6542 7.33108 26.5726 5.67363C25.52 4.01133 23.9657 2.73612 21.9384 1.83879C19.9084 0.940269 17.5162 0.5 14.776 0.5C12.1183 0.5 9.75038 1.02513 7.68553 2.09022C5.62948 3.11881 4.00813 4.53627 2.83642 6.34405L2.83642 6.34405L2.83515 6.34602C1.69583 8.12203 1.09483 10.1149 1.02823 12.3129L1.028 12.3204V12.328C1.028 12.7213 1.17924 13.0734 1.43637 13.3734L1.4614 13.4026L1.49061 13.4276C1.80281 13.6952 2.17349 13.836 2.584 13.836H8.92C9.43245 13.836 9.9003 13.7311 10.2802 13.4741C10.6685 13.2115 10.9143 12.824 11.0358 12.3582L11.0395 12.3442L11.0423 12.3301C11.2511 11.286 11.6631 10.4446 12.2652 9.78514L12.2653 9.78521L12.2723 9.77725C12.8285 9.14155 13.6372 8.796 14.776 8.796C15.8829 8.796 16.6213 9.07239 17.0864 9.53755C17.5516 10.0027 17.828 10.7411 17.828 11.848C17.828 12.6231 17.48 13.5084 16.6873 14.5146L16.686 14.5162C15.9179 15.4994 14.7651 16.6247 13.2118 17.8927L13.2118 17.8927L13.2079 17.8959C11.6809 19.1684 9.40028 20.9548 6.36199 23.2575L6.33685 23.2766L6.31431 23.2986L1.86764 27.6497C0.971199 28.375 0.5 29.309 0.5 30.424V34.024C0.5 34.4732 0.661422 34.8764 0.959711 35.2173Z" fill="#FFE9A9" stroke="#A788CE"/>
</svg>
