<svg width="251" height="256" viewBox="0 0 251 256" fill="none" xmlns="http://www.w3.org/2000/svg">
<path d="M10.5189 196.553H82.0703L84.3714 150.978H8.21777L10.5189 196.553Z" fill="#EBEBEB"/>
<path d="M76.8257 171.823H13.8196L12.9539 156.001H77.8366L76.8257 171.823ZM14.3446 171.262H76.3007L77.2446 156.562H13.5347L14.3446 171.262Z" fill="#DBDBDB"/>
<path d="M75.9713 190.044H15.6517L14.9368 175.747H76.8594L75.9713 190.044ZM16.1543 189.483H75.4463L76.2674 176.308H15.4953L16.1543 189.483Z" fill="#DBDBDB"/>
<path d="M52.5636 165.656H39.2095L38.718 161.838H53.0551L52.5636 165.656ZM39.7178 165.095H52.0777L52.424 162.399H39.3547L39.7178 165.095Z" fill="#DBDBDB"/>
<path d="M52.5636 184.808H39.2095L38.718 180.995H53.0551L52.5636 184.808ZM39.7178 184.247H52.0777L52.424 181.556H39.3547L39.7178 184.247Z" fill="#DBDBDB"/>
<path d="M20.4435 196.554L19.7509 201.516L18.3491 211.495H15.6179V196.554H20.4435Z" fill="#EBEBEB"/>
<path d="M20.4435 196.554L19.7509 201.516H15.6179V196.554H20.4435Z" fill="#DBDBDB"/>
<path d="M72.1509 196.554L72.8434 201.516L74.2397 211.495H76.9709V196.554H72.1509Z" fill="#EBEBEB"/>
<path d="M72.1509 196.554L72.8434 201.516H76.9709V196.554H72.1509Z" fill="#DBDBDB"/>
<path d="M214.115 251.48C228.409 251.48 239.996 248.744 239.996 245.369C239.996 241.994 228.409 239.258 214.115 239.258C199.821 239.258 188.233 241.994 188.233 245.369C188.233 248.744 199.821 251.48 214.115 251.48Z" fill="#F7F8FC"/>
<path d="M129.422 240.789C179.003 240.789 219.197 235.716 219.197 229.458C219.197 223.2 179.003 218.127 129.422 218.127C79.8397 218.127 39.6458 223.2 39.6458 229.458C39.6458 235.716 79.8397 240.789 129.422 240.789Z" fill="#F7F8FC"/>
<path d="M117.816 255.366C167.397 255.366 207.591 250.293 207.591 244.035C207.591 237.777 167.397 232.704 117.816 232.704C68.2338 232.704 28.0398 237.777 28.0398 244.035C28.0398 250.293 68.2338 255.366 117.816 255.366Z" fill="#F7F8FC"/>
<path d="M5.12915 211.495L33.4124 211.355L61.6956 211.31L118.262 211.215L174.828 211.31L203.112 211.355L231.395 211.495L203.112 211.63L174.828 211.68L118.262 211.775L61.6956 211.68L33.4124 211.63L5.12915 211.495Z" fill="#263238"/>
<path d="M117.916 70.8417C122.292 40.491 101.328 12.3304 71.0927 7.94323C40.8571 3.55606 12.7989 24.6037 8.42313 54.9544C4.04731 85.3051 25.0108 113.466 55.2464 117.853C85.482 122.24 113.54 101.192 117.916 70.8417Z" fill="#D3DBE7"/>
<path opacity="0.1" d="M118.421 66.5089C119.723 37.2769 97.1721 12.5203 68.0518 11.2133C38.9314 9.90632 14.2693 32.544 12.9673 61.7759C11.6653 91.0079 34.2166 115.765 63.3369 117.072C92.4572 118.379 117.119 95.7408 118.421 66.5089Z" fill="black"/>
<path d="M115.07 66.8505C116.556 39.4785 95.6564 16.0797 68.389 14.5877C41.1215 13.0957 17.812 34.0755 16.3257 61.4475C14.8394 88.8194 35.7392 112.218 63.0066 113.71C90.2741 115.202 113.584 94.2224 115.07 66.8505Z" fill="white"/>
<path d="M66.1759 18.1143H65.2202V25.6383H66.1759V18.1143Z" fill="#C7C7C7"/>
<path d="M43.1821 24.0353L42.355 24.5146L46.1026 31.0306L46.9297 30.5513L43.1821 24.0353Z" fill="#C7C7C7"/>
<path d="M26.2161 40.7049L25.7385 41.5352L32.2296 45.2972L32.7072 44.4669L26.2161 40.7049Z" fill="#C7C7C7"/>
<path d="M27.3361 63.666H19.8408V64.6247H27.3361V63.666Z" fill="#C7C7C7"/>
<path d="M32.2311 82.986L25.74 86.748L26.2175 87.5783L32.7086 83.8163L32.2311 82.986Z" fill="#C7C7C7"/>
<path d="M46.1007 97.2555L42.3564 103.773L43.1838 104.252L46.928 97.7344L46.1007 97.2555Z" fill="#C7C7C7"/>
<path d="M66.1759 102.654H65.2202V110.178H66.1759V102.654Z" fill="#C7C7C7"/>
<path d="M85.2912 97.256L84.4641 97.7354L88.2118 104.251L89.0389 103.772L85.2912 97.256Z" fill="#C7C7C7"/>
<path d="M99.1545 82.9764L98.677 83.8066L105.168 87.5686L105.646 86.7384L99.1545 82.9764Z" fill="#C7C7C7"/>
<path d="M111.555 63.666H104.059V64.6247H111.555V63.666Z" fill="#C7C7C7"/>
<path d="M105.173 40.7224L98.6816 44.4844L99.1592 45.3147L105.65 41.5527L105.173 40.7224Z" fill="#C7C7C7"/>
<path d="M88.2142 24.0426L84.47 30.5605L85.2973 31.0395L89.0416 24.5215L88.2142 24.0426Z" fill="#C7C7C7"/>
<path d="M66.4154 21.5161L68.0407 67.4955L63.3491 67.4338L65.142 21.5049L66.4154 21.5161Z" fill="#475569"/>
<path d="M94.9445 48.1086L64.1312 67.8549L61.8916 63.7173L94.3358 46.9873L94.9445 48.1086Z" fill="#263238"/>
<path d="M65.6947 65.7523C66.58 65.7523 67.2977 65.0319 67.2977 64.1433C67.2977 63.2546 66.58 62.5342 65.6947 62.5342C64.8095 62.5342 64.0918 63.2546 64.0918 64.1433C64.0918 65.0319 64.8095 65.7523 65.6947 65.7523Z" fill="#FFC727"/>
<path d="M173.952 165.498C176.828 166.939 179.671 168.436 182.508 169.938C185.346 171.441 188.166 172.983 190.998 174.508C193.829 176.033 196.628 177.608 199.426 179.189L203.615 181.572C205 182.385 206.407 183.181 207.776 184.011C206.335 183.293 204.916 182.548 203.481 181.813L199.219 179.571C196.376 178.068 193.561 176.521 190.73 175.001C187.898 173.482 185.105 171.895 182.307 170.314C179.509 168.733 176.717 167.141 173.952 165.498Z" fill="#A8C1E4"/>
<path d="M205.391 165.498C202.827 166.978 200.23 168.408 197.633 169.832C195.036 171.256 192.416 172.635 189.814 174.031C187.211 175.427 184.569 176.773 181.927 178.118L177.962 180.12C176.633 180.765 175.309 181.432 173.969 182.065C175.248 181.32 176.549 180.608 177.833 179.873L181.743 177.732C184.346 176.313 186.965 174.928 189.562 173.532C192.159 172.136 194.812 170.791 197.449 169.451C200.085 168.111 202.715 166.776 205.391 165.498Z" fill="#A8C1E4"/>
<path d="M142.027 165.498C144.903 166.939 147.746 168.436 150.584 169.938C153.421 171.441 156.241 172.983 159.073 174.508C161.905 176.033 164.703 177.608 167.495 179.189L171.69 181.572C173.075 182.385 174.482 183.181 175.851 184.011C174.41 183.293 172.991 182.548 171.556 181.813L167.294 179.571C164.452 178.068 161.637 176.521 158.805 175.001C155.973 173.482 153.175 171.895 150.383 170.314C147.59 168.733 144.792 167.141 142.027 165.498Z" fill="#A8C1E4"/>
<path d="M173.46 165.498C170.897 166.978 168.299 168.408 165.702 169.832C163.105 171.256 160.48 172.635 157.883 174.031C155.286 175.427 152.639 176.773 149.997 178.118L146.031 180.12C144.702 180.765 143.379 181.432 142.038 182.065C143.317 181.32 144.618 180.608 145.903 179.873L149.813 177.732C152.415 176.313 155.035 174.928 157.632 173.532C160.229 172.136 162.882 170.791 165.518 169.451C168.154 168.111 170.79 166.776 173.46 165.498Z" fill="#A8C1E4"/>
<path d="M147.864 161.063L146.172 171.245L134.716 233.36H132.868L141.201 171.245L142.429 161.063H147.864Z" fill="#C8DEFE"/>
<path d="M142.429 161.063H147.863L146.171 171.245H141.2L142.429 161.063Z" fill="#263238"/>
<path d="M183.849 233.36H182L170.545 171.245L168.853 161.063H174.287L175.516 171.245L183.849 233.36Z" fill="#C8DEFE"/>
<path d="M174.287 161.063L175.516 171.245H170.545L168.853 161.063H174.287Z" fill="#A8C1E4"/>
<path d="M218.22 233.36H216.371L204.91 171.245L203.218 161.063H208.653L209.887 171.245L218.22 233.36Z" fill="#C8DEFE"/>
<path d="M209.887 171.245H204.91L203.218 161.063H208.653L209.887 171.245Z" fill="#263238"/>
<path d="M215.287 165.846H131.326V156.965H162.753L173.32 88.7051H212.087L215.287 165.846Z" fill="#C8DEFE"/>
<path d="M215.287 165.846H210.713L207.731 88.7051H212.087L215.287 165.846Z" fill="#A8C1E4"/>
<path d="M134.132 233.469C135.64 233.267 173.339 214.37 174.315 212.781C174.435 212.599 172.807 209.138 170.499 204.435C165.282 193.788 154.846 175.779 154.846 175.779L132.131 188.596L144.637 212.367C144.637 212.367 140.44 217.484 137.022 221.813C134.921 224.477 133.121 226.859 132.789 227.555C131.94 229.432 132.634 233.701 134.132 233.469Z" fill="#F7A9A0"/>
<path d="M134.132 233.468C135.64 233.267 173.34 214.37 174.315 212.78C174.43 212.594 172.807 209.137 170.495 204.429C170.24 203.894 169.968 203.344 169.68 202.779C162.869 208.037 150.036 217.518 141.028 221.651C137.359 223.331 138.043 221.146 139.339 218.916C138.575 219.87 137.801 220.849 137.057 221.792C134.961 224.456 133.157 226.838 132.825 227.534C131.94 229.432 132.639 233.701 134.132 233.468Z" fill="#263238"/>
<path d="M138.957 208.199L166.353 194.307C166.353 194.307 146.392 156.842 146.92 156.155C148.759 153.769 170.987 154.854 180.598 145.271C190.762 135.129 182.79 119.32 182.79 119.32H156.224C156.224 119.32 156.676 127.929 155.53 128.872C154.776 129.503 115.724 133.287 114.196 143.631C111.547 161.539 138.957 208.199 138.957 208.199Z" fill="#475569"/>
<path d="M137.877 203.91C141.043 201.987 144.286 200.221 147.543 198.46C150.8 196.699 154.078 194.984 157.38 193.334C159.245 192.405 161.155 191.568 163.025 190.644C163.031 190.641 163.037 190.639 163.044 190.638C163.051 190.637 163.058 190.638 163.064 190.64C163.071 190.642 163.077 190.645 163.082 190.649C163.088 190.653 163.092 190.658 163.095 190.664C163.099 190.67 163.101 190.677 163.101 190.684C163.102 190.691 163.102 190.697 163.1 190.704C163.098 190.71 163.095 190.717 163.091 190.722C163.086 190.727 163.081 190.732 163.075 190.735C161.437 191.618 159.843 192.587 158.209 193.48C156.576 194.373 154.982 195.231 153.364 196.094C150.101 197.83 146.829 199.53 143.542 201.246C141.697 202.214 139.827 203.133 137.947 204.031C137.931 204.038 137.914 204.039 137.897 204.033C137.881 204.028 137.867 204.017 137.859 204.002C137.85 203.987 137.847 203.969 137.85 203.952C137.854 203.935 137.863 203.92 137.877 203.91Z" fill="#263238"/>
<path d="M136.454 151.771C137.107 150.413 138.842 150.217 140.133 149.894C143.669 149.006 147.201 148.123 150.73 147.245C156.988 145.685 163.437 144.217 169.042 140.892C171.721 139.302 174.325 137.289 175.662 134.393C176.999 131.496 176.999 128.398 177.019 125.31C177.019 124.553 176.979 123.796 176.928 123.039C176.928 122.974 177.029 122.974 177.029 123.039C177.225 126.067 177.532 129.095 176.858 132.062C176.55 133.511 175.979 134.891 175.174 136.134C174.335 137.363 173.305 138.45 172.123 139.353C167.182 143.284 160.944 145.166 154.927 146.679C151.529 147.552 148.116 148.38 144.708 149.202L139.445 150.494C138.666 150.602 137.925 150.896 137.283 151.352C137.035 151.6 136.847 151.902 136.735 152.234C136.622 152.567 136.588 152.921 136.635 153.269C136.709 153.992 136.888 154.699 137.168 155.369C137.484 156.196 137.816 157.019 138.173 157.841C138.823 159.446 139.493 161.042 140.184 162.63C141.561 165.832 142.99 169.014 144.471 172.176C147.427 178.469 150.584 184.665 153.801 190.846C154.203 191.613 154.59 192.385 154.982 193.157C154.985 193.162 154.986 193.167 154.987 193.172C154.988 193.178 154.987 193.183 154.986 193.188C154.983 193.199 154.976 193.207 154.967 193.213C154.958 193.218 154.947 193.22 154.936 193.217C154.926 193.214 154.917 193.207 154.912 193.198C151.468 187.107 148.246 180.876 145.18 174.588C142.114 168.301 139.244 161.999 136.781 155.495C136.303 154.359 135.891 152.946 136.454 151.771Z" fill="#263238"/>
<path d="M74.4903 234.896C75.9279 235.371 118.091 234.921 119.645 233.887C119.826 233.776 119.841 224.709 119.841 224.709C122.118 212.876 124.48 193.666 124.48 193.666L96.3311 193.631L93.1341 220.5C93.1341 220.5 87.1374 223.245 82.1911 225.642C79.15 227.115 76.496 228.458 75.8928 228.952C74.2893 230.274 73.0527 234.427 74.4903 234.896Z" fill="#F7A9A0"/>
<path d="M74.4907 234.891C75.9284 235.371 118.087 234.917 119.64 233.908C119.811 233.802 119.836 226.293 119.841 224.936C112.522 226.283 94.1198 229.391 83.036 228.786C77.3057 228.473 83.0109 225.319 85.5091 224.078C84.3982 224.583 83.2673 225.138 82.1865 225.668C79.1404 227.146 76.4913 228.488 75.8781 228.978C74.2897 230.274 73.0531 234.427 74.4907 234.891Z" fill="#263238"/>
<path d="M92.4106 214.834L124.234 214.602C124.234 214.602 130.769 164.865 133.343 162.089C134.649 160.687 176.652 160.5 186.952 150.65C197.332 140.72 186.952 119.32 186.952 119.32H159.853C159.853 119.32 159.179 127.717 161.25 132.858C161.25 132.858 123.355 133.469 113.025 141.618C99.1664 152.553 92.4106 214.834 92.4106 214.834Z" fill="#475569"/>
<path d="M94.8787 209.566C98.5683 209.294 102.258 209.198 105.937 209.107C109.617 209.016 113.326 208.981 117.021 209.021C119.107 209.021 121.188 209.163 123.269 209.193C123.335 209.193 123.34 209.294 123.269 209.294C121.409 209.334 119.549 209.476 117.69 209.526C115.83 209.576 114.025 209.622 112.19 209.652C108.496 209.713 104.801 209.728 101.107 209.773C99.0257 209.773 96.9447 209.773 94.8636 209.703C94.8489 209.697 94.8364 209.687 94.8282 209.673C94.82 209.66 94.8164 209.644 94.8182 209.629C94.8199 209.613 94.8268 209.598 94.8378 209.587C94.8487 209.576 94.8632 209.569 94.8787 209.566Z" fill="#263238"/>
<path d="M173.153 123.292C173.189 123.419 173.239 123.541 173.304 123.655C173.311 123.664 173.314 123.675 173.314 123.686C173.314 123.697 173.311 123.707 173.304 123.716C173.661 124.831 173.807 126.017 174.149 127.132C174.478 128.323 175.206 129.363 176.209 130.079C178.311 131.542 180.839 132.208 183.282 132.819C183.362 132.819 183.337 132.95 183.282 132.955C181.866 132.962 180.459 132.746 179.11 132.314C177.846 131.964 176.654 131.39 175.591 130.619C174.598 129.868 173.89 128.8 173.581 127.591C173.426 126.944 173.308 126.289 173.229 125.628C173.089 124.87 173.007 124.103 172.982 123.333C172.988 123.316 172.998 123.302 173.011 123.29C173.024 123.279 173.04 123.27 173.057 123.266C173.074 123.262 173.092 123.263 173.108 123.267C173.125 123.272 173.141 123.28 173.153 123.292Z" fill="#263238"/>
<path d="M156.299 130.986C157.972 131.472 159.602 132.098 161.17 132.858L161.246 132.888C161.212 132.794 161.189 132.696 161.175 132.596L161.115 132.243C161.115 132.116 161.09 131.995 161.075 131.869V131.682C160.873 131.67 160.676 131.615 160.496 131.522C160.316 131.429 160.157 131.3 160.029 131.143C159.707 130.691 159.486 130.174 159.381 129.629C159.195 128.932 159.029 128.231 158.878 127.53C158.712 126.748 158.566 125.96 158.446 125.168C158.297 124.396 158.208 123.613 158.179 122.827C158.179 122.701 158.365 122.686 158.396 122.827C158.577 123.548 158.657 124.295 158.798 125.027C158.938 125.759 159.089 126.485 159.255 127.217C159.421 127.949 159.602 128.665 159.803 129.387C159.979 130.022 160.16 130.951 160.894 131.163C162.402 131.597 161.733 128.171 161.668 127.499C161.512 125.945 161.417 124.361 161.165 122.827C161.165 122.761 161.251 122.736 161.266 122.802C161.598 124.215 161.975 125.602 162.226 127.035C162.346 127.737 162.437 128.443 162.512 129.154C162.638 129.763 162.589 130.394 162.372 130.976C162.278 131.174 162.138 131.346 161.963 131.476C161.787 131.607 161.582 131.691 161.366 131.723C161.366 131.773 161.396 131.829 161.417 131.879C161.437 131.93 161.487 132.106 161.517 132.222C161.547 132.338 161.567 132.455 161.598 132.571C161.649 132.705 161.666 132.851 161.648 132.994C161.631 133.031 161.605 133.062 161.572 133.085C162.221 133.368 162.869 133.65 163.513 133.948C164.319 134.27 165.1 134.651 165.85 135.088C165.936 135.129 165.85 135.25 165.785 135.235C164.948 134.998 164.13 134.702 163.337 134.347C162.522 134.034 161.718 133.701 160.914 133.363C159.312 132.772 157.761 132.048 156.279 131.198C156.251 131.195 156.226 131.182 156.208 131.16C156.19 131.138 156.181 131.11 156.184 131.082C156.187 131.054 156.2 131.028 156.222 131.01C156.244 130.992 156.271 130.983 156.299 130.986Z" fill="#263238"/>
<path d="M187.53 132.101C187.239 129.417 186.685 126.768 185.876 124.194C185.67 123.528 185.449 122.861 185.213 122.206C185.211 122.199 185.208 122.193 185.203 122.187C185.199 122.182 185.193 122.178 185.187 122.174C185.181 122.171 185.175 122.169 185.168 122.168C185.161 122.168 185.154 122.168 185.147 122.17C185.141 122.172 185.135 122.175 185.129 122.18C185.124 122.184 185.12 122.19 185.116 122.196C185.113 122.202 185.111 122.208 185.11 122.215C185.11 122.222 185.11 122.229 185.112 122.236C185.963 124.825 186.569 127.49 186.922 130.193C187.33 132.808 187.413 135.464 187.168 138.1C186.913 140.506 186.047 142.806 184.655 144.781C183.332 146.552 181.686 148.053 179.804 149.206C175.416 151.961 170.203 152.965 165.182 153.944C159.669 155.017 154.131 155.988 148.569 156.856C142.32 157.835 130.066 158.511 129.523 159.616C128.477 161.75 126.828 171.696 125.768 177.781C124.707 183.866 122.058 204.625 121.862 208.112C121.862 208.334 122.189 208.319 122.209 208.112C122.792 201.946 123.853 194.17 124.722 188.034C125.592 181.899 126.602 175.924 127.814 169.904C128.487 166.564 129.764 160.655 130.166 160.105C130.789 159.242 141.295 158.486 146.915 157.618C152.535 156.75 158.27 155.756 163.92 154.671C169.082 153.662 174.476 152.789 179.1 150.195C183.122 147.955 186.369 144.438 187.349 139.876C187.819 137.31 187.88 134.686 187.53 132.101Z" fill="#263238"/>
<path d="M148.619 160.364C147.523 160.334 134.815 161.519 132.649 161.953C132.498 161.984 128.628 183.57 128.266 187.546C128.215 188.051 128.417 188.555 128.567 187.546C128.864 185.593 133.312 162.518 133.318 162.503C135.489 162.256 147.573 160.702 148.644 160.515C148.729 160.5 148.699 160.369 148.619 160.364Z" fill="#263238"/>
<path d="M160.195 132.804C152.744 132.986 145.308 133.575 137.922 134.57C134.624 134.994 131.332 135.478 128.064 136.084C125.14 136.577 122.264 137.325 119.469 138.319C117.942 138.87 116.469 139.563 115.07 140.388C113.689 141.251 112.4 142.255 111.225 143.385C111.175 143.436 111.255 143.501 111.306 143.461C113.517 141.604 116.282 140.277 118.961 139.252C121.698 138.243 124.517 137.475 127.386 136.957C130.583 136.346 133.805 135.897 137.027 135.443C140.512 134.965 144.002 134.543 147.497 134.176C151.443 133.763 156.254 133.424 160.2 133.026C160.345 133.021 160.345 132.799 160.195 132.804Z" fill="#263238"/>
<path d="M149.302 66.1619C159.32 68.6849 166.96 78.701 165.387 92.34C163.949 104.743 152.82 114.542 144.476 114.037C135.614 113.533 130.568 105.348 132.633 98.9603C134.644 92.7841 139.957 89.5446 140.138 84.3877C140.224 81.9253 138.273 78.2367 138.243 74.5835C138.198 70.4862 142.863 64.527 149.302 66.1619Z" fill="#263238"/>
<path d="M152.79 112.418C156.548 110.418 159.736 107.49 162.055 103.91C164.367 100.313 165.826 96.2297 166.317 91.9766C166.884 87.723 166.304 83.3946 164.638 79.4425C162.908 75.5376 160.159 72.1745 156.681 69.709C160.012 72.3 162.628 75.7026 164.281 79.5939C165.079 81.5307 165.608 83.568 165.855 85.649C166.098 87.7318 166.083 89.837 165.809 91.916C165.557 93.9985 165.092 96.0495 164.422 98.0367C163.052 102.02 160.775 105.627 157.772 108.573C156.285 110.066 154.611 111.359 152.79 112.418Z" fill="#263238"/>
<path d="M131.729 100.515C131.881 99.2173 132.238 97.9519 132.785 96.766C133.323 95.5795 133.998 94.4602 134.795 93.4306C135.599 92.3946 136.372 91.3332 137.112 90.2467C137.873 89.1568 138.504 87.9816 138.992 86.7448C139.232 86.1161 139.417 85.4678 139.545 84.8072C139.643 84.1386 139.653 83.4601 139.576 82.7888C139.389 81.4842 139.126 80.1919 138.786 78.9186C138.466 77.6591 138.309 76.3634 138.319 75.0636C138.344 73.7565 138.608 72.4652 139.098 71.2539C138.523 72.4422 138.182 73.7305 138.093 75.0484C138.033 76.3728 138.147 77.6994 138.429 78.9943C138.666 80.2911 139.013 81.5576 139.133 82.8393C139.2 83.4712 139.183 84.1091 139.083 84.7366C138.955 85.3606 138.772 85.972 138.535 86.5632C137.635 88.9852 136.022 91.0641 134.514 93.2036C133.742 94.2797 133.102 95.4453 132.609 96.6752C132.1 97.8957 131.803 99.1942 131.729 100.515Z" fill="#263238"/>
<path d="M158.345 93.5661C157.918 99.9542 146.608 130.775 137.736 132.985C135.469 133.55 132.946 133.267 131.553 130.85C128.004 124.679 125.762 110.187 126.642 95.0546C126.677 94.4289 140.315 92.2491 141.541 95.4734C141.677 95.8216 142.944 105.162 142.546 105.061C142.044 104.955 146.226 100.136 153.102 92.2087C156.35 88.4647 158.601 89.7514 158.345 93.5661Z" fill="#D08178"/>
<path d="M142.551 104.294C143.054 109.088 143.476 113.881 143.763 118.72C143.843 120.063 143.933 121.405 144.019 122.757C144.019 122.802 144.099 122.797 144.099 122.757C144.208 120.344 144.192 117.927 144.049 115.516C143.913 113.129 143.717 110.717 143.35 108.351C143.139 107.005 142.901 105.651 142.637 104.289C142.639 104.282 142.639 104.275 142.637 104.268C142.636 104.261 142.633 104.254 142.628 104.248C142.624 104.243 142.618 104.238 142.611 104.235C142.605 104.232 142.598 104.231 142.59 104.232C142.583 104.232 142.576 104.234 142.57 104.238C142.564 104.241 142.559 104.247 142.555 104.253C142.551 104.259 142.549 104.266 142.548 104.273C142.547 104.28 142.548 104.287 142.551 104.294Z" fill="#263238"/>
<path d="M126.632 95.8867C126.697 94.8775 126.571 86.3903 128.446 82.3788C129.452 80.2545 132.829 74.7242 134.192 75.1733C135.438 75.577 134.88 77.3228 134.88 77.3228C134.88 77.3228 136.429 74.8806 138.153 75.4659C139.877 76.0513 138.781 78.9426 138.781 78.9426C138.781 78.9426 140.55 76.5508 142.229 77.2572C143.908 77.9637 142.32 80.6935 142.32 80.6935C142.32 80.6935 143.828 78.4279 144.979 79.5935C146.346 81.0013 143.079 84.8564 142.405 87.3642C142.254 87.9344 140.143 99.1363 140.143 99.1363L126.632 95.8867Z" fill="#D08178"/>
<path d="M142.375 80.7838C139.977 83.6246 139.42 85.2847 138.912 88.9127C138.912 88.9834 138.796 88.9834 138.801 88.9127C138.977 85.315 139.374 83.1352 142.245 80.6627C142.385 80.5365 142.491 80.6475 142.375 80.7838Z" fill="#263238"/>
<path d="M138.847 79.0292C136.615 82.198 135.996 83.9943 135.182 87.7535C135.182 87.809 135.082 87.7939 135.092 87.7535C135.594 83.9994 136.027 81.8296 138.671 78.9585C138.791 78.8122 138.952 78.8828 138.847 79.0292Z" fill="#263238"/>
<path d="M134.846 77.5047C132.905 80.7291 132.141 82.6667 131.83 86.4209C131.826 86.4358 131.817 86.4489 131.805 86.4583C131.792 86.4677 131.777 86.4728 131.762 86.4728C131.747 86.4728 131.732 86.4677 131.719 86.4583C131.707 86.4489 131.698 86.4358 131.694 86.4209C131.649 82.5658 132.589 80.1387 134.755 77.4593C134.891 77.2726 134.971 77.3029 134.846 77.5047Z" fill="#263238"/>
<path d="M141.601 101.771C141.601 101.771 144.114 97.84 144.828 95.8721C145.542 93.9042 145.547 85.5684 143.752 85.4675C141.44 85.3363 140.495 90.145 140.339 92.562C140.339 92.562 134.986 92.2542 133.568 95.5593C132.151 98.8643 141.601 101.771 141.601 101.771Z" fill="#EB9481"/>
<path d="M143.104 85.6237C140.908 87.0365 140.908 90.2205 140.591 92.5517C140.588 92.5864 140.576 92.6197 140.558 92.649C140.539 92.6783 140.513 92.7026 140.483 92.7199C140.453 92.7372 140.419 92.747 140.385 92.7485C140.35 92.75 140.316 92.743 140.284 92.7283C138.032 92.7283 134.856 93.4348 133.519 95.4077C133.511 95.4194 133.499 95.4277 133.485 95.4309C133.471 95.4341 133.457 95.432 133.445 95.4249C133.433 95.4178 133.424 95.4064 133.42 95.3929C133.416 95.3794 133.417 95.3648 133.423 95.3522C134.574 93.0462 137.635 92.1127 140.103 92.249C140.4 89.8522 140.541 86.6531 143.119 85.6035C143.109 85.6237 143.119 85.6237 143.104 85.6237Z" fill="#263238"/>
<path d="M142.994 103.789L149.322 121.586C149.322 121.586 157.822 103.214 158.637 95.2113C159.451 87.2085 156.908 88.5204 153.138 91.9315C149.368 95.3425 142.994 103.789 142.994 103.789Z" fill="#FFC727"/>
<path d="M155.701 100.156C155.761 99.7088 155.883 99.2723 156.063 98.8591C156.171 99.7551 156.041 100.664 155.686 101.493C155.628 101.049 155.633 100.599 155.701 100.156ZM149.358 111.716C149.415 111.271 149.535 110.836 149.715 110.424C149.821 111.32 149.693 112.228 149.343 113.058C149.285 112.612 149.29 112.161 149.358 111.716ZM148.855 96.4775C149.265 96.4327 149.679 96.4412 150.087 96.5027C150.53 96.5621 150.964 96.6844 151.373 96.866C150.932 96.9291 150.483 96.9291 150.041 96.866C149.621 96.8084 149.211 96.6965 148.82 96.533L148.855 96.4775ZM158.727 93.8586C158.727 93.9596 158.727 94.0655 158.727 94.1715C158.415 94.1141 158.111 94.0175 157.823 93.8839C158.122 93.8395 158.426 93.831 158.727 93.8586ZM154.676 107.003C154.834 107.214 154.977 107.437 155.103 107.669C155.194 107.831 155.272 107.999 155.334 108.174C155.221 108.094 155.115 108.005 155.018 107.906C154.793 107.693 154.586 107.462 154.399 107.215C154.126 106.858 153.904 106.464 153.741 106.044C154.096 106.319 154.41 106.641 154.676 107.003ZM143.979 105.807C144.254 106.162 144.475 106.555 144.638 106.973C144.357 106.762 144.103 106.516 143.884 106.241L143.557 105.303C143.708 105.462 143.849 105.631 143.979 105.807ZM149.423 102.977C149.777 102.7 150.17 102.477 150.589 102.316C150.316 102.672 149.995 102.987 149.634 103.254C149.277 103.525 148.885 103.746 148.468 103.91C148.741 103.562 149.063 103.254 149.423 102.997V102.977ZM149.71 117.857C150.065 117.584 150.458 117.363 150.876 117.201C150.604 117.557 150.282 117.871 149.921 118.134C149.565 118.409 149.172 118.632 148.754 118.795C149.029 118.447 149.35 118.138 149.71 117.877V117.857Z" fill="white"/>
<path d="M150.061 115.188C148.743 110.923 147.208 106.73 145.462 102.623C145.462 102.563 145.336 102.623 145.356 102.664C146.664 106.933 148.195 111.13 149.94 115.238C149.971 115.304 150.091 115.258 150.061 115.188Z" fill="#263238"/>
<path d="M158.637 95.2107C157.842 103.208 149.342 121.555 149.342 121.555L144.652 108.36L157.455 89.2666C158.541 89.4028 159.034 91.0377 158.637 95.2107Z" fill="#263238"/>
<path d="M154.58 129.489C154.58 129.489 167.413 129.236 189.826 121.319C189.826 121.319 172.233 95.1916 163.019 89.3131C158.832 86.6438 155.65 88.4654 153.509 91.4375C152.976 92.1792 148.688 104.35 148.935 108.271C149.151 111.737 152.77 114.714 152.77 114.714L154.58 129.489Z" fill="#FFC727"/>
<path d="M173.022 122.888C173.379 122.615 173.771 122.393 174.188 122.227C173.913 122.588 173.584 122.905 173.213 123.166C172.86 123.441 172.469 123.664 172.052 123.827C172.33 123.47 172.657 123.154 173.022 122.888ZM163.803 109.264C164.159 108.99 164.552 108.767 164.97 108.603C164.696 108.961 164.373 109.277 164.009 109.542C163.656 109.817 163.265 110.04 162.848 110.203C163.121 109.845 163.443 109.527 163.803 109.259V109.264ZM161.381 126.234C161.736 125.96 162.129 125.74 162.547 125.578C162.275 125.935 161.951 126.249 161.587 126.511C161.233 126.787 160.842 127.009 160.425 127.172C160.698 126.814 161.02 126.497 161.381 126.229V126.234ZM169.534 98.6325C169.888 98.3589 170.279 98.1364 170.695 97.9715C170.139 98.6816 169.408 99.2331 168.574 99.5711C168.848 99.2131 169.171 98.8955 169.534 98.6275V98.6325ZM178.411 117.413C178.764 117.138 179.155 116.915 179.572 116.752C179.302 117.111 178.98 117.427 178.617 117.691C178.262 117.965 177.872 118.187 177.456 118.352C177.728 117.995 178.049 117.679 178.411 117.413ZM149.759 102.78C150.009 102.61 150.279 102.471 150.563 102.366C150.3 102.714 149.989 103.022 149.638 103.28L149.759 102.78ZM165.688 119.432C165.961 119.788 166.183 120.18 166.347 120.597C165.991 120.324 165.676 120.002 165.412 119.639C165.136 119.283 164.915 118.889 164.753 118.468C165.117 118.742 165.44 119.067 165.714 119.432H165.688ZM154.63 107.024C154.905 107.38 155.127 107.774 155.288 108.195C154.932 107.922 154.618 107.599 154.353 107.236C154.08 106.879 153.858 106.485 153.695 106.065C154.064 106.33 154.394 106.646 154.675 107.004L154.63 107.024ZM185.529 120.083C185.804 120.438 186.026 120.833 186.187 121.253C185.832 120.979 185.518 120.656 185.252 120.295C184.982 119.936 184.762 119.542 184.599 119.124C184.952 119.398 185.265 119.721 185.529 120.083ZM177.189 108.477C177.462 108.833 177.684 109.225 177.848 109.643C177.491 109.371 177.176 109.048 176.913 108.684C176.638 108.329 176.417 107.937 176.254 107.518C176.608 107.788 176.923 108.106 177.189 108.462V108.477ZM165.171 91.9164C165.446 92.2721 165.668 92.6665 165.829 93.0871C165.473 92.8142 165.158 92.4913 164.894 92.1284C164.623 91.7701 164.401 91.3763 164.236 90.9577C164.59 91.232 164.905 91.5547 165.171 91.9164ZM159.139 93.8995C159.582 93.9571 160.016 94.0778 160.425 94.2577C159.533 94.3644 158.629 94.2357 157.802 93.8843C158.246 93.8261 158.696 93.8312 159.139 93.8995ZM158.535 113.881C158.98 113.936 159.413 114.057 159.822 114.24C158.93 114.346 158.026 114.217 157.198 113.866C157.642 113.803 158.093 113.808 158.535 113.881ZM182.96 112.226C183.136 112.251 183.317 112.287 183.488 112.327L183.704 112.625C183.438 112.624 183.173 112.606 182.91 112.569C182.465 112.512 182.032 112.39 181.623 112.206C182.068 112.154 182.519 112.167 182.96 112.246V112.226ZM175.048 101.388C175.133 101.499 175.224 101.605 175.314 101.716C175.007 101.656 174.709 101.559 174.425 101.428C174.632 101.404 174.84 101.397 175.048 101.408V101.388ZM171.273 114.951C171.718 115.009 172.153 115.13 172.565 115.309C171.673 115.416 170.768 115.287 169.941 114.936C170.384 114.884 170.833 114.896 171.273 114.971V114.951ZM163.627 101.912C164.071 101.972 164.505 102.094 164.914 102.276C164.022 102.384 163.117 102.253 162.29 101.897C162.736 101.846 163.186 101.858 163.627 101.933V101.912ZM149.714 110.405C149.742 110.592 149.755 110.781 149.754 110.97C149.699 110.869 149.648 110.773 149.603 110.672C149.638 110.601 149.674 110.511 149.714 110.425V110.405ZM170.429 107.206C170.486 106.76 170.606 106.325 170.785 105.914C170.848 106.357 170.848 106.807 170.785 107.251C170.73 107.698 170.61 108.135 170.429 108.548C170.367 108.109 170.367 107.664 170.429 107.226V107.206ZM156.158 121.46C156.218 121.015 156.338 120.581 156.515 120.168C156.621 121.064 156.493 121.972 156.143 122.802C156.087 122.363 156.092 121.918 156.158 121.48V121.46ZM158.45 88.0361C158.546 88.0361 158.641 88.0361 158.742 88.0059C158.685 88.272 158.599 88.5309 158.485 88.7779C158.45 88.5391 158.438 88.2974 158.45 88.0563V88.0361ZM155.7 100.146C155.76 99.6992 155.882 99.2627 156.062 98.8495C156.17 99.7455 156.04 100.654 155.685 101.483C155.628 101.043 155.634 100.596 155.7 100.156V100.146Z" fill="white"/>
<path d="M158.672 88.6971C158.802 89.3429 155.766 95.5645 153.067 96.6696C152.64 96.8462 153.293 93.5512 153.293 93.5512C152.615 92.3806 152.042 91.1292 152.042 91.1292L151.8 90.8163L148.453 86.4365L152.474 80.0888L153.077 79.2158C153.077 79.2158 153.911 80.4773 154.942 82.0516C154.987 82.1273 155.037 82.1979 155.088 82.2787C155.138 82.3594 155.208 82.4452 155.259 82.531C155.414 82.7631 155.575 83.0053 155.726 83.2475C155.877 83.4897 155.957 83.6058 156.078 83.8025C156.199 83.9993 156.309 84.1911 156.435 84.3828C157.275 85.7693 158.023 87.2106 158.672 88.6971Z" fill="#E8A098"/>
<path opacity="0.15" d="M154.932 82.0516C155.076 83.6533 154.871 85.2673 154.33 86.7811C153.789 88.2949 152.926 89.672 151.8 90.8163L148.452 86.4365L152.474 80.0888L153.077 79.2158C153.077 79.2158 153.901 80.4773 154.932 82.0516Z" fill="#1D293F"/>
<path d="M138.706 81.3146C141.159 90.6848 147.03 90.266 149.041 89.7311C150.865 89.2265 157.028 87.3646 155.575 77.7925C154.123 68.2204 148.98 66.3989 144.748 67.287C140.516 68.175 136.253 71.9443 138.706 81.3146Z" fill="#E8A098"/>
<path opacity="0.4" d="M145.608 79.6337C146.739 79.0636 147.789 81.3746 146.744 81.9044C145.698 82.4342 144.658 80.1131 145.608 79.6337Z" fill="#263238"/>
<path opacity="0.4" d="M140.852 80.7904C141.893 80.518 142.456 82.9955 141.491 83.2478C140.526 83.5001 139.978 81.0175 140.852 80.7904Z" fill="#263238"/>
<path d="M139.631 79.2917C139.801 79.1517 139.979 79.0219 140.164 78.9032C140.332 78.7383 140.549 78.6336 140.782 78.6055C140.857 78.6108 140.928 78.6409 140.985 78.6911C141.041 78.7413 141.079 78.8087 141.094 78.883C141.098 79.0345 141.062 79.1843 140.989 79.3172C140.917 79.4502 140.811 79.5615 140.682 79.6399C140.445 79.8369 140.144 79.9377 139.837 79.9224C139.767 79.9153 139.701 79.8881 139.647 79.844C139.592 79.8 139.552 79.741 139.53 79.6743C139.508 79.6075 139.506 79.5359 139.524 79.468C139.542 79.4001 139.579 79.3389 139.631 79.2917Z" fill="#263238"/>
<path d="M146.115 77.5C145.894 77.4395 145.683 77.4243 145.462 77.384C145.24 77.3082 145 77.3082 144.778 77.384C144.713 77.4224 144.663 77.4813 144.635 77.5516C144.606 77.6219 144.602 77.6995 144.623 77.7725C144.684 77.9114 144.781 78.0315 144.903 78.1202C145.026 78.2089 145.171 78.2631 145.321 78.2771C145.62 78.3483 145.935 78.307 146.206 78.161C146.266 78.1243 146.315 78.0706 146.345 78.0066C146.376 77.9425 146.387 77.8709 146.377 77.8006C146.368 77.7303 146.338 77.6644 146.291 77.611C146.245 77.5576 146.184 77.519 146.115 77.5Z" fill="#263238"/>
<path d="M145.23 80.3311C145.23 80.3311 145.285 80.3311 145.29 80.3765C145.431 81.0123 145.698 81.7237 146.322 81.7893V81.8246C145.602 81.9003 145.26 80.9618 145.23 80.3311Z" fill="#263238"/>
<path d="M145.622 79.5282C146.628 79.1951 147.216 81.2135 146.291 81.5465C145.366 81.8796 144.793 79.8107 145.622 79.5282Z" fill="#263238"/>
<path d="M146.07 79.5181C146.281 79.5786 146.512 79.73 146.734 79.6896C146.955 79.6493 147.106 79.3768 147.206 79.1245C147.206 79.0993 147.241 79.1245 147.251 79.1245C147.336 79.3012 147.35 79.5033 147.293 79.6904C147.235 79.8776 147.109 80.0359 146.94 80.1337C146.578 80.3002 146.206 80.0378 145.995 79.6745C145.934 79.619 145.97 79.4928 146.07 79.5181Z" fill="#263238"/>
<path d="M141.717 81.1982C141.717 81.1982 141.677 81.2386 141.687 81.2638C141.898 81.8845 142.029 82.6262 141.531 83.0097C141.531 83.0097 141.531 83.0501 141.531 83.04C142.205 82.7372 142.014 81.7482 141.717 81.1982Z" fill="#263238"/>
<path d="M140.968 80.7139C139.962 80.941 140.465 82.9795 141.42 82.7676C142.375 82.5557 141.822 80.5222 140.968 80.7139Z" fill="#263238"/>
<path d="M140.576 80.9557C140.445 81.107 140.334 81.3442 140.148 81.4098C139.962 81.4754 139.705 81.3038 139.509 81.1272C139.509 81.1272 139.479 81.1272 139.509 81.1575C139.6 81.5511 139.831 81.9245 140.228 81.8992C140.626 81.874 140.731 81.4804 140.731 81.0667C140.711 80.991 140.631 80.8951 140.576 80.9557Z" fill="#263238"/>
<path d="M143.441 83.7517C143.441 83.7517 143.576 84.7306 143.702 85.1696C144.565 84.9327 145.457 84.8156 146.351 84.8214C146.567 84.8214 146.517 84.67 146.261 84.5994C145.506 84.3973 144.708 84.4254 143.969 84.6801C143.903 84.5641 143.793 83.1664 143.722 83.1664C143.388 83.2913 143.072 83.461 142.782 83.671C142.446 81.6526 142.43 79.5838 142.063 77.5755C142.063 77.4998 141.943 77.5099 141.943 77.5755C141.89 79.7869 142.058 81.998 142.446 84.1756C142.471 84.4682 143.285 83.8778 143.441 83.7517Z" fill="#263238"/>
<path d="M144.788 84.9287C144.788 84.9287 145.512 85.8723 146.201 85.7865C146.995 85.6806 146.98 84.6815 146.025 84.5352C145.584 84.5498 145.156 84.686 144.788 84.9287Z" fill="#263238"/>
<path d="M145.281 85.427C145.529 85.6611 145.86 85.788 146.201 85.7802C146.282 85.7796 146.363 85.7615 146.437 85.727C146.511 85.6926 146.577 85.6426 146.63 85.5805C146.684 85.5184 146.723 85.4455 146.746 85.3668C146.769 85.2882 146.775 85.2055 146.764 85.1243V85.0991C145.854 84.8972 145.452 85.1445 145.281 85.427Z" fill="#FF99BA"/>
<path d="M154.972 77.3033C152.871 78.0905 151.679 74.7501 151.679 74.7501C151.679 74.7501 149.211 75.4061 147.628 71.5914C147.628 71.5914 147.326 74.3515 144.255 76.0116C143.606 76.3648 145.26 73.7359 145.26 73.7359C145.26 73.7359 143.41 77.268 137.952 78.1611C137.564 78.2267 136.373 72.5299 139.721 69.2148C143.069 65.8996 147.06 65.6322 150.468 67.267C150.468 67.267 153.901 67.5547 155.243 70.234C156.585 72.9134 155.791 76.9955 154.972 77.3033Z" fill="#263238"/>
<path d="M156.471 81.2446C156.353 81.3448 156.225 81.4311 156.088 81.502C155.957 81.5795 155.815 81.6357 155.666 81.6685C155.474 81.7107 155.275 81.7107 155.083 81.6685C154.93 81.6404 154.781 81.5911 154.641 81.5222C154.444 81.4245 154.265 81.293 154.113 81.1336L153.751 78.5198C153.751 78.5198 154.721 74.9574 156.264 75.2047C157.808 75.4519 157.782 80.1345 156.471 81.2446Z" fill="#E8A098"/>
<path d="M156.219 76.541L156.244 76.5763C155.339 77.3887 155.133 78.5947 155.103 79.7401C155.126 79.6112 155.177 79.4889 155.252 79.3816C155.326 79.2743 155.424 79.1847 155.537 79.119C155.649 79.0532 155.775 79.0129 155.905 79.0007C156.035 78.9886 156.166 79.005 156.289 79.0488C156.324 79.0488 156.289 79.1144 156.289 79.1144C156.081 79.1216 155.88 79.1933 155.715 79.3199C155.549 79.4464 155.426 79.6215 155.364 79.8209C155.265 80.1497 155.199 80.4878 155.168 80.83C155.168 80.941 154.962 80.9511 154.962 80.83C154.444 79.4929 154.821 77.2172 156.219 76.541Z" fill="#263238"/>
<path d="M156.209 80.906C156.221 80.9941 156.207 81.0838 156.168 81.1638C156.129 81.2437 156.068 81.3104 155.991 81.3553C155.915 81.4002 155.827 81.4213 155.738 81.4159C155.65 81.4106 155.565 81.379 155.494 81.3252C155.424 81.2714 155.371 81.1978 155.342 81.1137C155.313 81.0297 155.31 80.9389 155.332 80.853C155.355 80.767 155.403 80.6897 155.469 80.6309C155.535 80.5721 155.618 80.5344 155.706 80.5225C155.823 80.5067 155.942 80.5382 156.036 80.6101C156.13 80.682 156.192 80.7884 156.209 80.906Z" fill="white"/>
<path d="M156.847 79.9578C156.856 80.0198 156.845 80.0829 156.818 80.1392C156.79 80.1954 156.747 80.2423 156.693 80.2739C156.639 80.3055 156.577 80.3205 156.515 80.3169C156.453 80.3133 156.393 80.2914 156.343 80.2538C156.293 80.2163 156.255 80.1648 156.235 80.1058C156.214 80.0468 156.211 79.9829 156.226 79.9222C156.241 79.8615 156.274 79.8066 156.32 79.7645C156.366 79.7223 156.424 79.6948 156.485 79.6853C156.527 79.6789 156.569 79.6809 156.61 79.6912C156.651 79.7015 156.69 79.7198 156.723 79.7452C156.757 79.7706 156.785 79.8025 156.807 79.839C156.828 79.8755 156.842 79.9159 156.847 79.9578Z" fill="white"/>
<path d="M165.257 95.5751C167.267 102.604 169.972 127.995 165.493 132.324C161.014 136.654 156.294 135.574 155.319 130.669C154.515 126.633 157.48 101.459 158.757 95.4338C159.969 89.7017 162.894 87.3553 165.257 95.5751Z" fill="#F7A9A0"/>
<path d="M154.112 115.532L168.81 123C168.81 123 167.905 101.878 165.131 94.3392C162.356 86.8006 160.657 89.0813 158.757 93.8093C156.857 98.5373 154.112 115.532 154.112 115.532Z" fill="#FFC727"/>
<path d="M163.804 109.258C164.159 108.984 164.552 108.761 164.97 108.597C164.696 108.955 164.373 109.271 164.01 109.536C163.657 109.812 163.265 110.034 162.849 110.197C163.122 109.841 163.443 109.525 163.804 109.258ZM165.714 119.431C165.986 119.787 166.208 120.179 166.372 120.597C166.016 120.324 165.702 120.001 165.437 119.638C165.162 119.282 164.94 118.888 164.779 118.467C165.134 118.743 165.448 119.068 165.714 119.431ZM158.757 93.8786L159.139 93.9189C159.583 93.9766 160.016 94.0972 160.426 94.2772C159.983 94.3429 159.532 94.3429 159.089 94.2772C158.938 94.2772 158.792 94.2267 158.641 94.1965C158.682 94.0552 158.717 93.9543 158.757 93.8584V93.8786ZM158.536 113.881C158.98 113.936 159.414 114.056 159.823 114.239C158.931 114.345 158.026 114.217 157.199 113.865C157.643 113.802 158.093 113.807 158.536 113.881ZM163.628 101.912C164.072 101.971 164.505 102.093 164.915 102.275C164.022 102.383 163.117 102.253 162.291 101.897C162.736 101.845 163.186 101.857 163.628 101.932V101.912Z" fill="white"/>
<path d="M167.634 118.978C163.753 116.794 159.761 114.811 155.676 113.039C155.616 113.014 155.575 113.11 155.631 113.145C159.508 115.334 163.497 117.32 167.579 119.094C167.644 119.125 167.685 119.014 167.634 118.978Z" fill="#263238"/>
<path d="M154.711 115.788L154.243 115.54C154.213 115.424 154.49 114.087 154.565 113.694C154.726 112.907 154.882 112.119 155.038 111.332C155.353 109.765 155.663 108.19 155.967 106.609C156.566 103.461 157.249 100.327 157.787 97.1633C157.787 97.133 157.747 97.128 157.742 97.1633C157.32 98.561 156.953 99.9688 156.611 101.392C156.605 100.717 156.642 100.043 156.721 99.3734C156.721 99.3431 156.681 99.333 156.676 99.3734C156.477 100.255 156.403 101.16 156.455 102.063C156.123 103.466 155.817 104.873 155.52 106.286C154.877 109.314 153.811 115.601 153.856 115.616C154.121 115.724 154.391 115.818 154.666 115.899C154.673 115.902 154.681 115.903 154.688 115.903C154.696 115.903 154.704 115.902 154.711 115.899C154.719 115.895 154.725 115.891 154.731 115.885C154.736 115.88 154.741 115.873 154.743 115.866C154.746 115.859 154.748 115.851 154.748 115.843C154.748 115.835 154.746 115.827 154.743 115.82C154.74 115.813 154.736 115.806 154.73 115.801C154.725 115.795 154.718 115.791 154.711 115.788Z" fill="#263238"/>
<path d="M163.578 128.307C165.116 133.565 160.23 136.078 156.767 134.483C148.629 130.739 137.163 116.318 132.95 108.553C131.699 106.262 145.648 100.166 147.422 102.321C149.905 105.303 160.456 117.64 163.578 128.307Z" fill="#F7A9A0"/>
<path d="M141.732 95.61C142.406 96.3114 142.778 95.9581 142.597 94.2375C142.416 92.5168 140.264 85.8613 142.642 85.3012C145.02 84.7411 147.93 94.2022 148.005 97.0682C148.081 99.9343 147.201 104.637 147.201 104.637C146.266 102.932 143.607 98.9655 141.732 95.61Z" fill="#F7A9A0"/>
<path d="M133.885 110.121C130.743 105.045 128.079 99.1562 128.517 92.9346C128.548 92.243 128.81 91.582 129.261 91.0575C129.411 88.2672 130.769 87.4951 130.769 87.4951C131.694 84.9369 133.191 84.3465 133.191 84.3465C133.191 84.3465 133.398 81.0667 135.393 80.8648C137.63 80.6327 136.901 85.28 138.052 88.0805C140.701 94.4988 146.256 102.875 147.201 104.651L133.885 110.121Z" fill="#F7A9A0"/>
<path d="M136.122 96.7648C135.321 94.8962 134.649 92.9742 134.111 91.0125C133.656 88.8325 133.366 86.6212 133.242 84.3973C133.242 84.3826 133.236 84.3685 133.226 84.3581C133.215 84.3476 133.201 84.3418 133.187 84.3418C133.172 84.3418 133.158 84.3476 133.147 84.3581C133.137 84.3685 133.131 84.3826 133.131 84.3973C132.943 88.7188 133.941 93.0092 136.017 96.8001C136.082 96.8859 136.157 96.8607 136.122 96.7648Z" fill="#263238"/>
<path d="M132.498 98.9306C131.88 97.0384 130.814 93.703 130.84 87.4966C130.84 87.4966 130.804 87.4713 130.799 87.4966C130.264 91.3954 130.821 95.3669 132.408 98.9659C132.453 99.0769 132.534 99.0567 132.498 98.9306Z" fill="#263238"/>
<path d="M130.523 100.06C129.593 96.8008 129.417 94.626 129.276 91.0737C129.276 91.0737 129.241 91.0485 129.241 91.0737C128.974 95.1104 129.336 96.6242 130.417 100.111C130.452 100.227 130.558 100.187 130.523 100.06Z" fill="#263238"/>
<path d="M138.53 89.1562C138.078 88.0959 137.78 86.9761 137.645 85.8309C137.569 84.6623 137.401 83.5015 137.143 82.3593C137.056 82.0681 136.938 81.7872 136.791 81.5217C136.637 81.2339 136.405 80.9959 136.122 80.8355C135.829 80.704 135.507 80.6518 135.187 80.6841C134.866 80.7156 134.563 80.8501 134.323 81.0676C133.897 81.4979 133.601 82.0401 133.468 82.6318C133.33 83.2011 133.246 83.7823 133.217 84.3676C133.315 83.7972 133.458 83.2354 133.644 82.6873C133.799 82.1508 134.099 81.6673 134.509 81.2896C134.713 81.1299 134.959 81.0318 135.217 81.007C135.475 80.9874 135.732 81.0343 135.966 81.1433C136.394 81.4675 136.685 81.9411 136.781 82.4704C137.049 83.5882 137.244 84.7227 137.364 85.8662C137.548 87.0255 137.943 88.1408 138.53 89.1562Z" fill="#263238"/>
<path d="M146.19 89.8972C145.87 88.7472 145.4 87.6444 144.793 86.6174C144.483 86.0797 144.051 85.6233 143.531 85.2853C143.235 85.1141 142.887 85.055 142.551 85.1187C142.382 85.1596 142.224 85.2355 142.087 85.3415C141.949 85.4475 141.835 85.5814 141.752 85.7343C141.469 86.2972 141.326 86.9204 141.335 87.5509C141.314 88.1562 141.345 88.7621 141.425 89.3623C141.606 90.5582 141.878 91.7087 142.129 92.8592C142.264 93.4207 142.35 93.9931 142.385 94.5697C142.395 94.8529 142.381 95.1364 142.345 95.4174C142.334 95.5292 142.3 95.6375 142.245 95.7353C142.245 95.7353 142.245 95.7605 142.245 95.7353C142.213 95.7293 142.184 95.7154 142.159 95.695C141.771 95.2971 141.454 94.8343 141.224 94.3275C140.933 93.8229 140.661 93.2931 140.39 92.7683C139.842 91.7188 139.334 90.649 138.826 89.5793C138.302 88.5199 137.878 87.4134 137.56 86.2743C137.793 87.4417 138.152 88.5803 138.63 89.6701C139.073 90.7702 139.565 91.85 140.073 92.9248C140.324 93.4596 140.576 93.9945 140.857 94.5243C140.993 94.7917 141.139 95.0289 141.289 95.3115C141.369 95.4476 141.456 95.579 141.551 95.705C141.653 95.8416 141.775 95.9623 141.913 96.0633C142.005 96.1327 142.115 96.1747 142.229 96.1844C142.302 96.1824 142.373 96.1647 142.438 96.1325C142.503 96.1003 142.561 96.0543 142.606 95.9977C142.704 95.845 142.767 95.6728 142.792 95.4931C142.84 95.186 142.86 94.8753 142.853 94.5647C142.826 93.9579 142.744 93.3549 142.606 92.7633C142.39 91.5926 142.064 90.4422 141.888 89.2967C141.803 88.7239 141.766 88.145 141.777 87.566C141.766 87.0053 141.878 86.449 142.104 85.9362C142.155 85.8254 142.23 85.7271 142.323 85.6478C142.416 85.5686 142.524 85.5104 142.642 85.477C142.891 85.4167 143.153 85.4489 143.381 85.5678C143.866 85.8597 144.276 86.2626 144.577 86.7435C145.233 87.7294 145.774 88.7876 146.19 89.8972Z" fill="#263238"/>
<path d="M133.192 84.3477C132.898 84.5137 132.621 84.7099 132.367 84.933C132.112 85.1552 131.882 85.4039 131.679 85.6747C131.261 86.2164 130.935 86.8232 130.714 87.4711L130.754 87.4206C130.465 87.6173 130.216 87.8673 130.02 88.1573C129.817 88.4371 129.648 88.7403 129.517 89.0605C129.393 89.3877 129.299 89.7255 129.236 90.0697C129.172 90.403 129.13 90.7401 129.11 91.0789L129.186 90.9527C128.996 91.0959 128.845 91.2829 128.743 91.4977C128.643 91.6917 128.561 91.8944 128.497 92.1032C128.379 92.5148 128.305 92.9376 128.276 93.3647C128.218 94.2054 128.233 95.0495 128.321 95.8876C128.49 97.5575 128.806 99.2089 129.266 100.823C130.191 104.047 131.603 107.11 133.453 109.905C135.268 112.701 137.163 115.456 139.183 118.085C140.189 119.407 141.194 120.724 142.3 121.985C143.369 123.259 144.512 124.469 145.723 125.608C144.571 124.413 143.482 123.159 142.461 121.849C141.429 120.547 140.423 119.223 139.445 117.878C137.515 115.178 135.625 112.443 133.84 109.648C132.043 106.873 130.648 103.856 129.698 100.686C129.233 99.0994 128.906 97.4754 128.718 95.8321C128.612 95.0193 128.578 94.1986 128.618 93.3798C128.637 92.9744 128.697 92.572 128.798 92.1789C128.849 91.9893 128.918 91.8051 129.005 91.6289C129.077 91.4627 129.185 91.3146 129.321 91.1949L129.392 91.1394V91.0738C129.401 90.7457 129.433 90.4186 129.487 90.0949C129.541 89.7721 129.624 89.4547 129.733 89.1463C129.84 88.8374 129.983 88.5425 130.161 88.2683C130.332 87.9963 130.549 87.7571 130.804 87.5619H130.834V87.5316C131.028 86.8928 131.323 86.2896 131.709 85.7454C131.903 85.4732 132.12 85.2183 132.357 84.9834C132.612 84.7426 132.892 84.5295 133.192 84.3477Z" fill="#263238"/>
<path d="M162.547 125.345C162.18 124.255 161.728 123.196 161.255 122.146C160.783 121.097 160.25 120.072 159.717 119.058C159.184 118.044 158.576 117.04 157.937 116.096C157.309 115.132 156.62 114.209 155.877 113.331C156.153 113.836 156.47 114.31 156.746 114.815C157.023 115.319 157.324 115.824 157.611 116.298C158.164 117.307 158.732 118.316 159.275 119.326L162.547 125.345Z" fill="#263238"/>
<path d="M124.222 130.966H155.158V128.555L124.222 127.552V130.966Z" fill="#6484B2"/>
<path d="M99.9037 130.927H120.317C122.054 130.927 119.536 125.948 113.18 124.036C106.824 122.124 97.8987 129.06 99.9037 130.927Z" fill="#8FADD9"/>
<path d="M107.913 130.928C107.581 129.879 107.136 128.869 106.584 127.917C106.31 127.454 105.992 127.018 105.635 126.616C105.264 126.212 104.862 125.837 104.434 125.495C104.987 125.66 105.499 125.941 105.936 126.319C106.381 126.693 106.759 127.141 107.053 127.642C107.351 128.141 107.579 128.679 107.729 129.24C107.883 129.789 107.945 130.359 107.913 130.928Z" fill="#4D688E"/>
<path d="M105.495 126.19C104.422 126.886 103.35 127.519 102.345 128.242C101.839 128.589 101.364 128.979 100.926 129.409C100.471 129.827 100.12 130.348 99.9041 130.928C99.9144 130.26 100.162 129.618 100.602 129.117C101.008 128.605 101.486 128.156 102.021 127.783C102.55 127.413 103.111 127.09 103.696 126.818C104.272 126.546 104.875 126.335 105.495 126.19Z" fill="#4D688E"/>
<path d="M85.26 121.29H134.873L126.987 84.208H77.3682L85.26 121.29Z" fill="#6484B3"/>
<path d="M83.428 121.29H133.041L125.149 84.208H75.5361L83.428 121.29Z" fill="#86A9DE"/>
<path d="M110.186 107.996H111.348L109.583 99.6758H108.416L110.186 107.996Z" fill="#5575A3"/>
<path d="M107.891 107.996H109.052L107.287 99.6758H106.12L107.891 107.996Z" fill="#5575A3"/>
<path d="M105.595 107.996H106.757L104.992 99.6758H103.825L105.595 107.996Z" fill="#5575A3"/>
<path d="M103.3 107.996H104.461L102.696 99.6758H101.529L103.3 107.996Z" fill="#5575A3"/>
<path d="M100.999 107.996H102.166L100.396 99.6758H99.2339L100.999 107.996Z" fill="#5575A3"/>
<path d="M98.7031 107.996H99.8704L98.0999 99.6758H96.9382L98.7031 107.996Z" fill="#5575A3"/>
<path d="M96.4077 107.996H97.575L95.8045 99.6758H94.6428L96.4077 107.996Z" fill="#5575A3"/>
<path d="M97.4576 130.972H121.859V129.072L97.4576 128.275V130.972Z" fill="#6484B2"/>
<path d="M90.8228 130.967H103.926L111.817 110.194H98.7146L90.8228 130.967Z" fill="#6484B2"/>
<path d="M88.6667 130.967H101.77L109.656 110.194H96.5586L88.6667 130.967Z" fill="#6F9EE4"/>
<path d="M206.212 130.969H30.3127V134.181H206.212V130.969Z" fill="#37474F"/>
<path d="M202.023 134.181H34.5017V142.243H202.023V134.181Z" fill="#37474F"/>
<path d="M202.023 134.181H34.5017V138.212H202.023V134.181Z" fill="#263238"/>
<path d="M57.2109 205.261H42.198V207.913H57.2109V205.261Z" fill="#37474F"/>
<path d="M65.354 244.036H63.7343L50.5087 182.067L49.7547 178.534L47.381 167.411L46.4985 163.262L43.1698 147.698L42.0081 142.243H47.7831L48.727 147.698L49.3414 151.275L49.7547 153.658L52.1284 167.411L52.8935 171.84L65.354 244.036Z" fill="#37474F"/>
<path d="M47.7831 142.243L48.727 147.698H43.1698L42.0081 142.243H47.7831Z" fill="#263238"/>
<path d="M52.8937 171.84L50.5088 182.067L49.7548 178.534L47.3811 167.411L46.4987 163.262L49.3415 151.275L49.7548 153.658L52.1285 167.411L52.8937 171.84Z" fill="#263238"/>
<path d="M57.5013 142.243L56.3396 147.698L52.1284 167.411L49.7547 178.534L35.7751 244.036H34.1554L47.381 167.411L49.7547 153.658L50.7824 147.698L51.7207 142.243H57.5013Z" fill="#37474F"/>
<path d="M57.5013 142.243L56.3396 147.698H50.7823L51.7207 142.243H57.5013Z" fill="#263238"/>
<path d="M194.226 205.261H179.213V207.913H194.226V205.261Z" fill="#37474F"/>
<path d="M202.369 244.036H200.744L187.524 182.067L186.77 178.534L184.39 167.411L183.508 163.262L180.185 147.698L179.017 142.243H184.798L185.736 147.698L186.356 151.275L186.77 153.658L189.138 167.411L189.903 171.84L202.369 244.036Z" fill="#37474F"/>
<path d="M184.798 142.243L185.736 147.698H180.185L179.017 142.243H184.798Z" fill="#263238"/>
<path d="M189.903 171.84L187.524 182.067L186.77 178.534L184.391 167.411L183.508 163.262L186.357 151.275L186.77 153.658L189.138 167.411L189.903 171.84Z" fill="#263238"/>
<path d="M194.511 142.243L193.349 147.698L189.138 167.411L186.77 178.534L172.785 244.036H171.171L184.391 167.411L186.77 153.658L187.792 147.698L188.736 142.243H194.511Z" fill="#37474F"/>
<path d="M194.511 142.243L193.349 147.698H187.792L188.736 142.243H194.511Z" fill="#263238"/>
<path d="M45.197 127.783L44.0912 127.637L48.9 90.8863L63.0751 81.8037L67.6494 84.8088L67.0406 85.7451L63.064 83.1381L49.9388 91.5479L45.197 127.783Z" fill="#263238"/>
<path d="M48.4816 91.2163C48.4805 91.4042 48.535 91.5882 48.6383 91.7448C48.7416 91.9015 48.889 92.0238 49.0617 92.0962C49.2344 92.1686 49.4246 92.1879 49.6082 92.1515C49.7919 92.1151 49.9606 92.0248 50.0929 91.8919C50.2252 91.7591 50.3152 91.5897 50.3515 91.4054C50.3877 91.2211 50.3686 91.0301 50.2964 90.8567C50.2243 90.6834 50.1025 90.5355 49.9464 90.4318C49.7903 90.3281 49.607 90.2733 49.4199 90.2744C49.171 90.2744 48.9324 90.3737 48.7564 90.5503C48.5804 90.7269 48.4816 90.9665 48.4816 91.2163Z" fill="#FFC727"/>
<path d="M63.0251 83.4121C63.5433 83.4121 63.9634 82.9904 63.9634 82.4702C63.9634 81.95 63.5433 81.5283 63.0251 81.5283C62.5069 81.5283 62.0868 81.95 62.0868 82.4702C62.0868 82.9904 62.5069 83.4121 63.0251 83.4121Z" fill="#FFC727"/>
<path d="M75.5023 86.0981L69.2525 93.1007L66.3706 89.5237L64.6168 87.3427L69.2972 82.1006L71.6485 83.62L75.5023 86.0981Z" fill="#FFC727"/>
<path opacity="0.1" d="M75.5025 86.0982L69.2527 93.1008L66.3707 89.5238L71.6487 83.6201L75.5025 86.0982Z" fill="black"/>
<path d="M84.5558 89.5514L73.6648 101.751L66.432 92.4893L74.5919 83.3506L84.5558 89.5514Z" fill="#FFC727"/>
<path opacity="0.4" d="M84.6663 130.995L73.856 101.152L84.4089 89.5254L161.497 130.995H84.6663Z" fill="white"/>
<path d="M53.1952 130.973H37.082L38.0706 125.894H52.2066L53.1952 130.973Z" fill="#FFC727"/>
<path d="M213.947 176.398C214.419 179.716 214.243 183.095 213.429 186.347C213.048 187.855 212.539 189.327 211.907 190.747C211.12 192.571 210.296 194.348 210.493 196.337C210.685 196.467 210.027 196.447 210.006 196.254C204.698 193.22 197.893 192.664 193.807 187.708C191.875 185.365 190.897 182.388 190.436 179.395C189.918 176.159 189.794 172.569 190.627 169.379C191.332 166.677 192.901 164.074 195.433 162.75C197.966 161.425 201.461 161.503 204.211 162.355C210.156 164.22 213.108 170.641 213.947 176.398Z" fill="#B3E9D7"/>
<path d="M216.672 215.81C215.947 213.385 215.217 210.961 214.481 208.536C213.021 203.808 211.509 199.091 209.82 194.431C208.816 191.639 207.756 188.877 206.641 186.144C206.763 184.418 206.976 182.699 207.278 180.996C207.718 178.917 208.365 176.938 208.966 174.917C209.002 174.792 208.8 174.73 208.748 174.844C207.557 177.629 206.004 181.188 205.962 184.487C204.668 181.39 203.278 178.337 201.793 175.327C201.625 172.782 201.703 170.226 202.026 167.696C202.027 167.673 202.019 167.652 202.005 167.635C201.99 167.618 201.971 167.607 201.949 167.603C201.927 167.599 201.905 167.603 201.886 167.615C201.867 167.626 201.852 167.643 201.845 167.664C201.393 169.885 201.219 172.154 201.327 174.418C200.188 172.157 198.98 169.926 197.702 167.727C197.588 167.529 197.314 167.727 197.417 167.929C199.411 171.779 201.26 175.722 202.995 179.697C200.551 177.572 197.727 175.932 194.673 174.865C194.543 174.818 194.445 175.011 194.579 175.068C197.91 176.504 200.956 178.527 203.575 181.042C204.825 183.962 206.014 186.906 207.143 189.874C203.823 186.607 199.282 184.461 194.885 183.308C194.735 183.271 194.693 183.5 194.838 183.541C199.924 185.1 203.875 187.973 207.744 191.449C208.194 192.644 208.635 193.849 209.07 195.049C210.706 199.611 212.26 204.201 213.73 208.822C214.445 211.032 215.148 213.247 215.838 215.467C216.579 217.857 217.159 220.376 218.127 222.683C218.215 222.901 218.614 222.849 218.562 222.584C218.169 220.283 217.34 218.038 216.672 215.81Z" fill="#1E437D"/>
<path d="M231.841 194.483C228.013 195.621 224.176 196.676 220.354 197.798C220.023 197.902 213.559 185.48 215.895 179.095C218.055 173.172 222.995 168.74 228.883 166.73C231.613 165.8 234.968 165.015 237.853 165.654C240.417 166.226 242.229 168.33 243.063 170.746C244.197 174.034 243.819 177.957 243.198 181.313C242.628 184.43 241.489 187.49 239.438 189.932C237.387 192.374 234.818 193.595 231.841 194.483Z" fill="#B3E9D7"/>
<path d="M237.382 182.673C234.964 183.857 232.456 184.847 229.883 185.635C228.167 186.099 226.494 186.707 224.88 187.453C226.496 183.816 228.267 180.304 230.147 176.802C232.617 176.086 235.212 174.969 237.076 173.213C237.18 173.119 237.045 172.974 236.936 173.051C234.901 174.496 232.653 175.363 230.401 176.34C230.918 175.4 231.436 174.454 231.954 173.519C232.099 173.254 231.742 172.999 231.566 173.249C229.545 176.175 227.722 179.233 226.107 182.403C225.696 179.628 225.565 176.819 225.714 174.018C225.714 174.003 225.708 173.988 225.697 173.977C225.686 173.967 225.672 173.961 225.657 173.961C225.642 173.961 225.627 173.967 225.617 173.977C225.606 173.988 225.6 174.003 225.6 174.018C225.123 177.072 225.155 180.185 225.693 183.229C224.357 185.915 223.135 188.663 222.037 191.448C221.602 189.775 221.032 188.128 220.654 186.445C220.076 184.03 219.891 181.537 220.105 179.062C220.105 178.99 220.007 178.985 219.996 179.062C219.319 183.643 219.873 188.323 221.602 192.617C220.96 194.29 220.349 195.973 219.794 197.657C216.915 206.255 215.208 215.205 214.719 224.262C214.722 224.301 214.739 224.338 214.767 224.366C214.795 224.394 214.832 224.411 214.871 224.415C214.911 224.418 214.95 224.407 214.982 224.383C215.014 224.36 215.036 224.326 215.046 224.288C216.045 215.351 217.954 206.541 220.742 197.994C221.85 194.654 223.13 191.407 224.528 188.222C226.786 187.552 229.033 186.663 231.26 185.874C233.487 185.084 235.641 184.253 237.475 182.824C237.495 182.811 237.509 182.792 237.514 182.769C237.52 182.746 237.516 182.722 237.503 182.702C237.491 182.682 237.471 182.668 237.448 182.662C237.425 182.657 237.401 182.661 237.382 182.673Z" fill="#1E437D"/>
<path d="M186.371 199.958C187.495 203.527 190.156 208.457 194.372 208.494C197.106 208.494 199.861 208.198 202.601 208.156C205.532 208.115 208.474 208.12 211.405 208.296C211.648 208.296 211.058 199.464 204.004 195.183C202.026 193.978 199.613 193.594 197.37 193.105C194.805 192.493 192.171 192.217 189.535 192.284C187.914 192.347 186.568 192.695 185.988 194.362C185.382 196.103 185.837 198.259 186.371 199.958Z" fill="#B3E9D7"/>
<path d="M189.406 195.491C191.12 195.937 192.85 196.441 194.585 196.992C194.138 196.502 193.664 196.037 193.166 195.6C192.425 194.987 191.612 194.493 190.82 193.953C190.752 193.906 190.794 193.781 190.877 193.813C192.537 194.513 193.972 195.662 195.02 197.132C197.158 197.829 199.282 198.592 201.327 199.434C202.739 200.014 204.092 200.729 205.367 201.569C204.958 200.677 204.469 199.823 203.906 199.018C202.969 197.803 201.705 197.122 200.478 196.26C200.465 196.252 200.454 196.243 200.446 196.231C200.437 196.22 200.43 196.207 200.426 196.193C200.422 196.179 200.421 196.164 200.423 196.15C200.425 196.135 200.429 196.122 200.437 196.109C200.444 196.096 200.453 196.085 200.465 196.076C200.476 196.067 200.489 196.061 200.503 196.057C200.517 196.053 200.532 196.052 200.546 196.054C200.56 196.056 200.574 196.06 200.587 196.067C201.869 196.625 203.021 197.445 203.968 198.476C204.915 199.507 205.637 200.725 206.087 202.052C207.556 203.107 208.899 204.327 210.09 205.689C214.751 211.009 218.428 218.08 218.443 225.302C218.443 225.473 218.169 225.52 218.132 225.343C216.812 218.174 213.989 211.731 209.235 206.167C208.89 205.779 208.545 205.405 208.2 205.045C206.922 204.872 205.636 204.776 204.347 204.759C202.845 204.759 201.353 204.977 199.862 205.102C197.397 205.299 194.683 205.331 192.456 204.089C192.358 204.032 192.425 203.86 192.534 203.902C197.485 205.71 202.674 203.419 207.64 204.494C205.519 202.467 203.034 200.861 200.318 199.761L199.862 199.579C196.687 199.959 193.331 200.79 190.24 199.756C190.23 199.753 190.221 199.749 190.212 199.742C190.204 199.736 190.198 199.728 190.193 199.719C190.182 199.701 190.18 199.68 190.185 199.66C190.191 199.64 190.204 199.623 190.222 199.613C190.24 199.603 190.261 199.6 190.281 199.605C193.269 200.359 196.138 199.413 199.085 199.262C195.874 198.01 192.601 197.013 189.375 195.766C189.121 195.667 189.116 195.418 189.406 195.491Z" fill="#1E437D"/>
<path d="M223.353 207.061C223.301 207.175 223.467 207.284 223.534 207.165C223.545 207.184 223.561 207.201 223.58 207.214C223.599 207.226 223.62 207.234 223.643 207.238C226.481 207.917 229.359 208.42 232.26 208.744C234.591 208.952 237.278 209.082 239.319 207.705C242.084 205.866 243.907 200.951 242.426 197.834C240.655 194.125 235.326 196.14 232.649 197.46C228.527 199.472 225.238 202.869 223.353 207.061Z" fill="#B3E9D7"/>
<path d="M221.281 208.775C222.835 207.266 224.563 205.948 226.428 204.848C227.766 202.716 229.545 200.896 231.643 199.512C231.747 199.439 231.83 199.601 231.737 199.673C230.071 201.014 228.593 202.574 227.345 204.313C229.421 203.174 231.578 202.189 233.798 201.367C234.591 199.892 235.795 198.681 237.262 197.881C237.293 197.881 237.33 197.881 237.299 197.933C236.095 198.858 235.046 199.97 234.191 201.227C235.502 200.738 236.827 200.281 238.148 199.839C238.267 199.798 238.314 199.98 238.2 200.027C235.843 200.951 233.435 201.923 231.1 203.045C233.948 203.494 236.85 203.485 239.696 203.019C239.779 203.019 239.81 203.123 239.733 203.144C236.76 204.024 233.604 204.071 230.608 203.279C229.122 204.007 227.678 204.819 226.283 205.71C227.457 205.614 228.638 205.712 229.779 206.001C231.794 206.471 233.857 206.705 235.926 206.697C235.942 206.702 235.955 206.711 235.965 206.723C235.974 206.736 235.98 206.752 235.98 206.767C235.98 206.783 235.974 206.799 235.965 206.812C235.955 206.824 235.942 206.833 235.926 206.838C232.363 207.451 228.992 205.825 225.46 206.251C224.146 207.144 222.914 208.153 221.778 209.264C219.574 211.476 217.758 214.046 216.407 216.865C214.921 219.899 214.113 223.099 212.912 226.258C212.901 226.284 212.881 226.304 212.856 226.317C212.831 226.329 212.802 226.331 212.776 226.323C212.749 226.316 212.726 226.298 212.711 226.275C212.696 226.251 212.69 226.223 212.694 226.195C213.72 220.008 216.786 213.186 221.281 208.775Z" fill="#1E437D"/>
<path d="M227.661 245.398H206.428L210.229 217.862H223.861L227.661 245.398Z" fill="#C8DEFE"/>
<path fill-rule="evenodd" clip-rule="evenodd" d="M205.527 244.838L209.26 217.938L208.695 217.862L204.875 245.398H226.626L224.326 228.832L223.761 228.908L225.973 244.838H205.527Z" fill="#1E437D"/>
<path d="M224.554 215.783H206.946V220.459H224.554V215.783Z" fill="#1E437D"/>
<path opacity="0.3" d="M189.906 57.0452C178.898 55.1596 171.043 47.3523 172.361 39.6072C173.68 31.8621 183.672 27.1121 194.68 28.9978C205.688 30.8835 213.543 38.6907 212.225 46.4358C210.907 54.1809 200.914 58.9309 189.906 57.0452Z" fill="#FCE1DC"/>
<path opacity="0.5" d="M156.292 43.4554C155.072 45.9823 157.024 49.4278 160.619 51.1547C164.214 52.8815 168.098 52.2242 169.302 49.6973C170.506 47.1703 168.566 43.7207 164.975 41.998C161.384 40.2752 157.512 40.9447 156.292 43.4554Z" fill="#FCE1DC"/>
<path opacity="0.6" d="M149.863 53.4523C149.513 54.9668 150.981 56.5998 153.137 57.0978C155.292 57.5959 157.322 56.7712 157.667 55.2526C158.013 53.734 156.549 52.1051 154.414 51.6071C152.279 51.109 150.193 51.9337 149.863 53.4523Z" fill="#FCE1DC"/>
<path d="M196.114 54.7797C196.366 54.7797 196.618 54.7797 196.866 54.743C197.591 54.7223 198.292 54.4723 198.867 54.0286C199.2 53.7331 199.424 53.333 199.501 52.8937C199.961 52.8937 200.42 52.861 200.884 52.8365C201.901 52.7753 202.954 52.661 203.694 51.9752C203.916 51.7643 204.094 51.5115 204.219 51.2312C204.343 50.951 204.411 50.6489 204.418 50.3422C204.832 50.2357 205.217 50.0378 205.544 49.7631C205.872 49.4884 206.135 49.1437 206.313 48.7542C206.441 48.4144 206.495 48.0514 206.473 47.689C206.45 47.3266 206.352 46.9731 206.183 46.6518C206.629 46.3107 207.027 45.9112 207.367 45.4638C208.087 44.4894 208.462 43.3009 208.432 42.0877C208.635 41.9924 208.798 41.8274 208.892 41.6224C209.054 41.2141 208.847 40.7569 208.306 40.3119C208.196 40.218 208.078 40.1241 207.964 40.0343C207.641 39.3276 207.17 38.6986 206.585 38.1895C205.999 37.6804 205.312 37.3031 204.569 37.0828C203.349 36.7317 202.076 36.8297 200.839 36.9277H200.778C199.876 36.759 198.965 36.6458 198.05 36.5888C197.537 36.4693 197.009 36.4307 196.484 36.4745C195.955 36.2306 195.502 35.8468 195.174 35.3641C195.009 35.1039 194.865 34.8309 194.743 34.5477C194.617 34.2444 194.466 33.9522 194.292 33.674C193.535 32.5351 192.067 31.886 189.92 31.7431C187.374 31.5798 185.312 32.0207 183.792 33.0535C183.217 33.4394 182.726 33.9379 182.348 34.5191C181.586 34.5623 180.832 34.6994 180.103 34.9273C179.074 35.2253 176.679 36.1316 176.691 38.1034C176.737 38.7296 176.925 39.3369 177.24 39.8792L178.09 41.6346C178.046 41.8577 178.029 42.0851 178.037 42.3123C177.875 42.3791 177.717 42.4568 177.565 42.545C176.874 42.9532 176.158 43.6839 176.215 44.5861C176.252 45.174 176.622 45.7414 177.293 46.3089C178.142 46.9986 179.105 47.5321 180.14 47.8847C180.467 48.5167 180.848 49.1191 181.278 49.685C182.112 50.779 183.503 52.1915 185.394 52.7018C186.59 53.0353 187.866 52.9116 188.977 52.3548C189.339 52.5957 189.701 52.808 190.03 52.9876C192.226 54.1796 194.255 54.7797 196.114 54.7797ZM199.139 52.8937C199.064 53.2272 198.886 53.5285 198.631 53.7551C198.113 54.15 197.484 54.3713 196.834 54.3878C194.849 54.5675 192.629 53.9796 190.229 52.6773C189.953 52.5263 189.652 52.3548 189.351 52.1589C189.683 51.943 189.981 51.6773 190.233 51.371C190.372 51.2137 190.474 51.0266 190.53 50.8239C191.063 50.9056 191.6 50.9668 192.137 51.0117C192.973 51.3975 193.856 51.672 194.764 51.8282C195.188 52.1004 195.644 52.3184 196.122 52.4773C197.099 52.7756 198.118 52.9162 199.139 52.8937ZM198.505 51.6363C198.73 51.7423 198.917 51.9146 199.042 52.1303C199.11 52.2563 199.152 52.3954 199.164 52.5385C198.171 52.5566 197.182 52.4188 196.232 52.1303C196.065 52.0731 195.894 52.0078 195.719 51.9303C196.658 52.0026 197.602 51.903 198.505 51.6363ZM204.056 50.4525C204.018 50.934 203.802 51.3839 203.45 51.7139C202.8 52.3181 201.824 52.4201 200.864 52.4773C200.412 52.5018 199.965 52.5263 199.522 52.5344C199.51 52.3325 199.453 52.1358 199.355 51.9588C199.256 51.7726 199.117 51.6109 198.948 51.4853C199.107 51.4241 199.261 51.3587 199.412 51.2853V51.3383C199.452 51.4703 199.524 51.59 199.622 51.6864C199.72 51.7827 199.841 51.8526 199.973 51.8894C200.154 51.9482 200.346 51.9629 200.533 51.9324C200.721 51.9018 200.898 51.8269 201.051 51.7139C201.435 51.3682 201.694 50.9045 201.787 50.3953C202.267 50.5198 202.763 50.5734 203.259 50.5545C203.527 50.5436 203.794 50.5095 204.056 50.4525ZM188.672 52.1262C187.679 52.5692 186.563 52.6514 185.516 52.3589C183.722 51.8772 182.393 50.5219 181.591 49.4727C181.25 49.0228 180.94 48.5495 180.664 48.0561C181.136 48.2031 181.616 48.3296 182.104 48.4358C182.788 49.0091 183.598 49.4119 184.467 49.6115C185.239 49.8206 186.024 49.9761 186.817 50.0769C186.946 50.3087 187.088 50.5323 187.244 50.7464C187.647 51.2768 188.128 51.7421 188.672 52.1262ZM190.176 50.7627C190.13 50.9044 190.055 51.035 189.957 51.1465C189.695 51.4633 189.38 51.7313 189.025 51.9384C188.456 51.5538 187.952 51.0796 187.533 50.5341C187.435 50.4035 187.346 50.2687 187.26 50.1259L188.029 50.1994C188.728 50.4468 189.446 50.6352 190.176 50.7627ZM201.433 50.2932C201.357 50.7298 201.141 51.1295 200.819 51.4322C200.712 51.5084 200.588 51.5587 200.459 51.5793C200.329 51.5998 200.196 51.59 200.071 51.5506C199.995 51.5294 199.926 51.4901 199.87 51.436C199.813 51.3819 199.77 51.3148 199.745 51.2403C199.733 51.1991 199.725 51.1567 199.721 51.1138C200.09 50.9131 200.437 50.6751 200.758 50.4035C200.86 50.3177 200.957 50.2279 201.051 50.1381C201.189 50.1953 201.319 50.2443 201.433 50.2932ZM197.822 51.42C196.839 51.6126 195.829 51.6278 194.841 51.4649C194.7 51.3702 194.564 51.268 194.434 51.1587H194.56C195.447 51.2036 196.362 51.2485 197.244 51.3342C197.444 51.3506 197.642 51.3792 197.838 51.42H197.822ZM193.877 51.1301L194.06 51.3057C193.82 51.2444 193.576 51.1791 193.34 51.1015L193.877 51.1301ZM199.355 50.8933C199.076 51.0323 198.786 51.1497 198.489 51.2444C198.097 51.098 197.686 51.0086 197.269 50.9791C196.382 50.8933 195.459 50.8484 194.568 50.8076L194.019 50.779C193.871 50.6141 193.735 50.438 193.613 50.2524C195.331 50.189 197.052 50.234 198.765 50.3871C198.861 50.3827 198.957 50.3978 199.047 50.4315C199.138 50.4652 199.22 50.5167 199.29 50.5831C199.345 50.677 199.373 50.7844 199.371 50.8933H199.355ZM193.194 50.2606C193.298 50.4316 193.412 50.5965 193.535 50.7545C193.096 50.7301 192.657 50.7015 192.222 50.6607C191.97 50.5464 191.73 50.4239 191.494 50.2892C192.015 50.2892 192.531 50.2892 193.047 50.2647L193.194 50.2606ZM200.717 49.9626L200.53 50.1259C200.277 50.3442 200.005 50.5395 199.717 50.7096C199.705 50.5928 199.664 50.4807 199.599 50.3831C199.504 50.2696 199.385 50.1788 199.251 50.1174C199.116 50.0559 198.97 50.0253 198.822 50.0279C197.026 49.8723 195.223 49.8287 193.422 49.8973C193.336 49.7366 193.265 49.5685 193.21 49.3951C193.59 49.5153 193.984 49.5879 194.381 49.6115C196.217 49.7764 198.066 49.6719 199.871 49.3012C200.133 49.5538 200.422 49.7756 200.734 49.9626H200.717ZM190.815 50.2932L190.876 50.3341L191.25 50.5627C191.002 50.5341 190.758 50.4974 190.514 50.4565C190.5 50.4003 190.481 50.3456 190.457 50.2932H190.815ZM190.001 50.2932C190.032 50.3222 190.058 50.3552 190.079 50.3912L189.558 50.2851L190.001 50.2932ZM204.028 50.0891C203.761 50.1523 203.488 50.1892 203.214 50.1994C202.75 50.218 202.286 50.1685 201.836 50.0524C201.921 49.6727 202.007 49.2359 202.08 48.7991L202.153 48.6726C202.56 48.5338 202.938 48.3868 203.324 48.2235C203.72 48.7446 203.963 49.367 204.024 50.0197C204.024 50.0197 204.064 50.0606 204.064 50.085L204.028 50.0891ZM205.907 46.8641C206.042 47.1344 206.12 47.4299 206.136 47.732C206.152 48.0341 206.106 48.3362 206 48.6195C205.849 48.949 205.629 49.2416 205.355 49.477C205.08 49.7125 204.758 49.8851 204.41 49.983C204.35 49.2936 204.102 48.6341 203.694 48.0765C203.873 47.999 204.044 47.9173 204.219 47.8316C204.808 47.5575 205.372 47.2338 205.907 46.8641ZM201.62 49.5176C201.592 49.6605 201.559 49.7993 201.531 49.9258L201.336 49.8483C201.433 49.7544 201.531 49.6442 201.62 49.5176ZM193.027 49.8973C192.336 49.8973 191.636 49.9258 190.937 49.9258C190.219 49.4445 189.546 48.8979 188.928 48.2929C189.241 48.2351 189.551 48.1588 189.855 48.0643C190.5 47.8703 191.113 47.5814 191.673 47.207C191.68 47.574 191.768 47.935 191.93 48.2639C192.093 48.5928 192.326 48.8816 192.612 49.1094L192.783 49.2237C192.842 49.4649 192.924 49.7 193.027 49.9258V49.8973ZM188.48 48.3582C189.046 48.9292 189.657 49.4534 190.306 49.9258H190.184C189.942 49.7378 189.666 49.5991 189.371 49.5176C188.478 49.2423 187.568 49.0255 186.646 48.8685C186.545 48.6195 186.451 48.3582 186.358 48.0888C187.027 48.3719 187.761 48.4679 188.48 48.3664V48.3582ZM186.817 49.2522C187.649 49.3993 188.471 49.5984 189.278 49.8483L189.444 49.9095C188.997 49.9095 188.554 49.8728 188.106 49.8401C187.664 49.6775 187.235 49.4824 186.821 49.2563L186.817 49.2522ZM201.661 48.844C201.468 49.1504 201.246 49.4375 200.998 49.7013C200.749 49.5622 200.515 49.398 200.298 49.2114C200.758 49.1094 201.214 48.9787 201.661 48.8399V48.844ZM186.541 49.5176L186.622 49.6891C185.928 49.5962 185.241 49.4598 184.564 49.2808C183.996 49.1346 183.449 48.9136 182.938 48.6236C183.596 48.746 184.255 48.8522 184.914 48.9583L185.886 49.1134L186.101 49.2604C186.244 49.3421 186.386 49.4319 186.541 49.5176ZM199.575 48.9951C197.875 49.323 196.138 49.4109 194.414 49.2563C193.962 49.2371 193.517 49.1376 193.1 48.9624C193.016 48.388 193.001 47.8054 193.056 47.2274C193.056 47.0315 193.056 46.8192 193.084 46.6395C193.39 46.9213 193.737 47.154 194.113 47.3295C194.711 47.5853 195.356 47.712 196.006 47.7014C196.657 47.6909 197.297 47.5433 197.887 47.2682C198.033 47.2479 198.179 47.2193 198.322 47.1825L198.464 47.4315C198.777 47.9913 199.15 48.5155 199.575 48.9951ZM201.811 48.4154C201.211 48.611 200.602 48.7759 199.985 48.9093C199.511 48.4104 199.101 47.8536 198.765 47.2519L198.668 47.0804C199.074 46.9365 199.458 46.7344 199.806 46.4803C200.542 46.5895 201.26 46.8011 201.937 47.109C201.921 47.5622 201.872 47.999 201.811 48.4154ZM185.951 47.9622C185.971 48.0112 185.988 48.0643 186.008 48.1174C186.089 48.35 186.167 48.5746 186.252 48.795L186.028 48.7583C185.753 48.5545 185.504 48.3188 185.284 48.0561L185.951 47.9622ZM192.73 46.2844V46.4109C192.73 46.6763 192.73 46.9416 192.702 47.2274C192.661 47.726 192.661 48.2271 192.702 48.7256C192.471 48.4953 192.29 48.2192 192.171 47.9148C192.052 47.6105 191.997 47.2846 192.01 46.958C192.262 46.7484 192.483 46.5053 192.669 46.2354L192.73 46.2844ZM184.861 48.0969C185.002 48.2937 185.162 48.4768 185.337 48.644L184.967 48.5868C184.048 48.4399 183.149 48.297 182.279 48.1092C182.254 48.1092 182.234 48.0643 182.21 48.0398C182.643 48.1201 183.083 48.1583 183.523 48.1541C183.97 48.1541 184.418 48.1378 184.861 48.0969ZM203.121 47.9337L202.417 48.2072C202.515 47.9867 202.6 47.7622 202.678 47.5377C202.837 47.6562 202.985 47.7887 203.121 47.9337ZM188.155 48.0357C187.651 48.0695 187.145 47.9972 186.671 47.8234L187.077 47.7336C187.305 47.6805 187.521 47.6193 187.732 47.5581C187.865 47.7186 188.006 47.8779 188.155 48.0357ZM191.673 46.7702C191.098 47.2014 190.453 47.5275 189.766 47.7336C189.394 47.8519 189.013 47.938 188.627 47.9908C188.448 47.8112 188.277 47.6234 188.106 47.4356C189.129 47.1156 190.062 46.5559 190.827 45.8027C191.187 45.4289 191.49 45.0039 191.726 44.5412C191.806 44.7618 191.9 44.9772 192.006 45.1862C191.884 45.5291 191.791 45.8813 191.726 46.2395C191.695 46.4148 191.677 46.5922 191.673 46.7702ZM181.632 47.8847L181.693 47.9663C181.257 47.8602 180.834 47.7377 180.424 47.5989C179.911 46.5875 179.538 45.5108 179.314 44.3983C179.475 44.5099 179.645 44.6069 179.822 44.6882C179.726 45.0557 179.708 45.4396 179.769 45.8146C179.831 46.1896 179.971 46.5473 180.18 46.8641C180.541 47.353 181.051 47.7111 181.632 47.8847ZM184.646 47.7459C184.275 47.7744 183.901 47.7908 183.527 47.7908C182.966 47.798 182.406 47.7265 181.864 47.5785C181.831 47.5213 181.799 47.4642 181.77 47.4029C181.607 47.035 181.524 46.6358 181.528 46.2327C181.532 45.8297 181.623 45.4323 181.795 45.0678C182.455 45.0466 183.111 44.9618 183.755 44.8147L184.105 45.4557C184.214 45.6557 184.324 45.8639 184.438 46.0599C184.394 46.2142 184.366 46.373 184.357 46.5334C184.337 46.9594 184.437 47.3824 184.646 47.754V47.7459ZM205.74 46.5212C205.212 46.8907 204.652 47.2131 204.068 47.4846C203.869 47.5826 203.662 47.6724 203.471 47.7581C203.276 47.5357 203.055 47.3382 202.812 47.1703H202.783C202.984 46.4052 203.046 45.61 202.966 44.8229C203.621 44.9443 204.246 45.194 204.804 45.5577C205.183 45.8166 205.501 46.1534 205.74 46.5457V46.5212ZM185.666 47.6193L185.036 47.6969C184.812 47.3529 184.7 46.948 184.715 46.5375V46.5048C184.972 46.9309 185.293 47.315 185.666 47.6438V47.6193ZM202.34 47.3009C202.316 47.3825 202.287 47.4683 202.259 47.5499C202.259 47.456 202.259 47.3621 202.259 47.2641L202.34 47.3009ZM187.443 47.2356L186.968 47.3621C186.703 47.4234 186.439 47.4805 186.154 47.5295C185.883 46.7457 185.62 45.9551 185.365 45.1577C185.455 45.0678 185.544 44.9821 185.634 44.9086C186.232 45.7333 186.821 46.5212 187.456 47.2601L187.443 47.2356ZM178.879 44.0391C179.074 45.2032 179.427 46.3349 179.928 47.4029C179.057 47.072 178.246 46.6019 177.525 46.0109C176.919 45.5087 176.61 45.027 176.581 44.5412C176.532 43.8023 177.155 43.1736 177.748 42.8307C177.859 42.7671 177.973 42.7098 178.09 42.6593C178.09 42.7123 178.114 42.7695 178.131 42.8226C178.266 43.2984 178.529 43.7277 178.891 44.0636L178.879 44.0391ZM181.4 45.0434C181.092 45.7886 181.079 46.6238 181.364 47.3785C181.004 47.2167 180.693 46.9634 180.461 46.6436C180.285 46.3763 180.167 46.0756 180.112 45.7603C180.058 45.4449 180.068 45.1217 180.144 44.8107C180.294 44.8596 180.449 44.9046 180.603 44.9413C180.869 45.0062 181.14 45.0485 181.412 45.0678L181.4 45.0434ZM196.793 47.2192C195.944 47.42 195.052 47.3354 194.255 46.9784C193.81 46.7697 193.408 46.4773 193.072 46.117C193.065 45.9104 193.044 45.7045 193.011 45.5006C193.031 45.4353 193.056 45.3699 193.072 45.3046C193.097 45.2258 193.116 45.1453 193.129 45.0638C193.499 45.1903 193.873 45.3087 194.247 45.4148C194.763 46.2415 195.556 46.8555 196.484 47.1458C196.589 47.1847 196.696 47.2175 196.805 47.2437L196.793 47.2192ZM185.113 45.472C185.292 46.0354 185.475 46.5906 185.666 47.1458C185.334 46.8057 185.048 46.4227 184.816 46.0068C184.896 45.8235 185 45.6518 185.125 45.4965L185.113 45.472ZM191.36 44.3861C191.149 44.8082 190.875 45.1951 190.546 45.5332C189.781 46.2787 188.846 46.824 187.822 47.1213C187.153 46.3389 186.525 45.5212 185.943 44.6719C186.065 44.5902 186.175 44.5167 186.272 44.4596C186.827 44.318 187.357 44.0907 187.842 43.786C188.393 43.6236 188.961 43.5276 189.534 43.5002L189.737 43.6064C190.282 43.9207 190.823 44.1779 191.372 44.4106L191.36 44.3861ZM202.58 44.7331C202.663 45.4719 202.615 46.2197 202.438 46.9416L202.303 46.8682C202.344 46.1397 202.323 45.4092 202.242 44.6841C202.368 44.7209 202.478 44.7372 202.592 44.7576L202.58 44.7331ZM197.801 46.8927C197.393 46.9431 196.978 46.9126 196.581 46.8028C195.877 46.5908 195.257 46.1625 194.808 45.5781C195.746 45.8255 196.696 46.0191 197.655 46.1578H197.806L198.102 46.7416L197.801 46.8927ZM201.868 44.6392C201.949 45.3163 201.975 45.999 201.946 46.6804C201.373 46.4327 200.774 46.2518 200.16 46.1415L200.327 45.9782C200.728 45.581 201.063 45.1221 201.319 44.6188L201.868 44.6392ZM198.847 46.3089C198.7 46.4069 198.554 46.5007 198.407 46.5824C198.342 46.464 198.281 46.3456 198.22 46.2272L198.424 46.2558L198.847 46.3089ZM192.413 45.9006C192.296 46.0827 192.16 46.2511 192.006 46.4028C192.006 46.366 192.006 46.3293 192.006 46.2926C192.05 46.0585 192.106 45.8268 192.173 45.5986L192.413 45.9006ZM208.074 42.2265C208.072 43.3102 207.725 44.3647 207.082 45.2352C206.773 45.6445 206.411 46.0098 206.004 46.3211C205.742 45.8979 205.396 45.5337 204.987 45.2516C204.354 44.8388 203.642 44.561 202.897 44.4351C202.843 44.1111 202.764 43.7917 202.661 43.4798C204.513 43.2748 206.336 42.8584 208.094 42.2388L208.074 42.2265ZM200.656 44.5576C200.261 45.1084 199.79 45.6004 199.257 46.019C198.997 45.9782 198.733 45.9456 198.468 45.9129L198.029 45.8517C197.911 45.6149 197.797 45.3781 197.684 45.1454L197.566 44.9046C198.028 44.8157 198.467 44.6308 198.855 44.3616C199.458 44.464 200.066 44.5335 200.677 44.5698L200.656 44.5576ZM197.183 44.9372C197.244 45.0556 197.301 45.1781 197.362 45.3005C197.423 45.423 197.521 45.6271 197.602 45.7945C196.543 45.6364 195.494 45.4114 194.463 45.1209C193.966 44.3134 193.585 43.4393 193.332 42.5246L193.19 42.0428C192.973 41.2525 192.711 40.4756 192.405 39.7159C192.45 39.6302 192.498 39.5444 192.551 39.4628C192.831 39.6165 193.102 39.7841 193.365 39.9649C193.397 40.0057 193.43 40.0507 193.466 40.0915C193.466 40.7624 193.598 41.4268 193.853 42.0469C194.45 43.5288 195.691 44.9372 197.179 44.9372H197.183ZM184.983 45.0719C184.825 45.2411 184.689 45.4289 184.576 45.6312C184.515 45.5128 184.45 45.3985 184.385 45.2801C184.32 45.1617 184.202 44.9372 184.105 44.7658C184.251 44.7658 184.397 44.7658 184.544 44.7658H184.853L184.983 45.0719ZM192.641 45.4802C192.632 45.507 192.622 45.533 192.608 45.5577C192.523 45.4312 192.442 45.2965 192.364 45.1495C192.397 45.0515 192.433 44.9576 192.466 44.8596C192.552 45.0615 192.614 45.2724 192.653 45.4883L192.641 45.4802ZM193.047 42.8062C193.272 43.5596 193.578 44.2864 193.958 44.974C193.694 44.8923 193.434 44.8066 193.174 44.7168C193.199 44.2767 193.128 43.8364 192.966 43.4267C193.031 43.2291 193.064 43.0224 193.064 42.8144L193.047 42.8062ZM185.386 44.6759L185.26 44.7862L185.231 44.6964L185.386 44.6759ZM181.726 44.3943C181.661 44.4958 181.601 44.6008 181.547 44.7086C181.26 44.7039 180.974 44.6739 180.693 44.6188C180.541 44.5864 180.391 44.5427 180.245 44.4882C180.326 44.2194 180.431 43.9585 180.558 43.7084C180.911 44.0096 181.315 44.2446 181.75 44.4024L181.726 44.3943ZM182.624 44.6433C182.403 44.6753 182.181 44.6957 181.957 44.7045C181.994 44.6392 182.035 44.5739 182.075 44.5127C182.264 44.5693 182.455 44.6157 182.649 44.6515L182.624 44.6433ZM192.759 44.0513C192.795 44.2299 192.812 44.412 192.808 44.5943L192.706 44.5535C192.681 44.5045 192.657 44.4555 192.629 44.4065L192.759 44.0513ZM196.301 43.2349C196.549 43.6676 196.777 44.1126 197 44.5616C195.756 44.4514 194.711 43.2063 194.186 41.904C194.009 41.4661 193.893 41.006 193.84 40.5365C194.334 41.1524 194.895 41.7111 195.512 42.202C195.536 42.2551 195.561 42.3041 195.589 42.3531C195.777 42.6971 196.026 43.003 196.325 43.2553L196.301 43.2349ZM198.334 44.2432C198.058 44.4005 197.754 44.5044 197.44 44.5494H197.387C197.248 44.2636 197.106 43.9819 196.98 43.7003C197.146 43.7968 197.319 43.8813 197.496 43.9534C197.778 44.0795 198.069 44.1833 198.367 44.2636L198.334 44.2432ZM184.723 44.2106C184.45 44.2922 184.182 44.3575 183.93 44.4147C183.735 44.0811 183.509 43.7668 183.255 43.4757L183.198 43.4104C183.524 43.1757 183.871 42.9721 184.235 42.8022L184.353 42.9859C184.475 43.3941 184.597 43.8023 184.723 44.2106ZM182.913 43.6309L182.99 43.7125C183.174 43.9285 183.344 44.1562 183.499 44.3943C183.101 44.3721 182.706 44.3106 182.319 44.2106C182.5 44.0012 182.698 43.8085 182.913 43.6349V43.6309ZM202.316 43.5329C202.412 43.8109 202.487 44.0962 202.539 44.3861C202.429 44.3861 202.316 44.3534 202.206 44.3371C202.165 44.0758 202.116 43.8187 202.059 43.5574L202.316 43.5329ZM191.929 44.0799C192.025 44.1619 192.112 44.2535 192.189 44.3534L191.99 44.2759L191.929 44.0799ZM180.286 43.4431C180.134 43.7315 180.008 44.0335 179.912 44.3453C179.661 44.2228 179.427 44.0677 179.216 43.884C179.18 43.6431 179.147 43.3982 179.123 43.1573C179.205 43.1976 179.293 43.2238 179.383 43.2349C179.467 43.2421 179.551 43.2261 179.626 43.1886C179.702 43.1512 179.765 43.0938 179.81 43.0226L179.859 42.9532L179.753 42.6225C179.873 42.8934 180.032 43.1451 180.225 43.3696L180.286 43.4431ZM201.702 43.6064C201.754 43.835 201.799 44.0677 201.836 44.3004L201.47 44.2677C201.556 44.0554 201.635 43.835 201.706 43.6064H201.702ZM186.134 44.1697C185.971 44.2106 185.809 44.2473 185.646 44.28C186.459 43.9673 187.125 43.3598 187.513 42.5776C187.585 42.4144 187.642 42.245 187.683 42.0714C187.906 42.3553 188.163 42.6103 188.448 42.8307C188.235 43.0896 187.984 43.314 187.704 43.4961C187.188 43.6528 186.691 43.8635 186.219 44.1248L186.134 44.1697ZM201.254 43.6186C201.148 43.8272 201.031 44.0302 200.904 44.2269H200.872C200.347 44.1942 199.819 44.1575 199.294 44.0799L199.599 43.8554L199.904 43.6268C200.335 43.639 200.786 43.639 201.258 43.6186H201.254ZM185.085 44.0922H185.056L185.028 43.9983C185.052 44.035 185.073 44.0636 185.089 44.0922H185.085ZM182.645 43.3859C182.391 43.5992 182.161 43.8387 181.957 44.1003C181.506 43.9466 181.091 43.7022 180.737 43.3818C180.879 43.1356 181.038 42.8996 181.213 42.6756L181.282 42.5858C181.787 42.7642 182.252 43.0387 182.653 43.3941L182.645 43.3859ZM191.539 44.035L191.514 44.0881C191.108 43.9166 190.721 43.737 190.335 43.5451C190.73 43.5629 191.118 43.6514 191.482 43.8064C191.51 43.884 191.526 43.9575 191.547 44.035H191.539ZM192.592 43.4717C192.535 43.6676 192.466 43.8799 192.397 44.0554C192.321 43.962 192.235 43.8772 192.141 43.8023L192.039 43.7166C192.129 43.4249 192.193 43.1257 192.23 42.8226C192.378 43.0241 192.502 43.2419 192.6 43.4717H192.592ZM199.355 43.5819C199.168 43.7248 198.981 43.8676 198.794 43.9901C198.398 43.9156 198.011 43.8007 197.639 43.6472C197.26 43.4929 196.908 43.2809 196.594 43.0185L196.472 42.8062C197.378 43.2455 198.359 43.5086 199.363 43.5819H199.355ZM187.35 41.8632C187.317 42.0587 187.259 42.2494 187.179 42.4307C186.808 43.1454 186.18 43.6914 185.422 43.9575C185.17 43.586 184.922 43.2104 184.674 42.8348L184.613 42.6307L184.82 42.545C185.637 42.218 186.488 41.9891 187.358 41.8632H187.35ZM178.737 42.8348C178.737 43.0267 178.765 43.2185 178.789 43.4104C178.648 43.2114 178.544 42.9889 178.48 42.7532C178.461 42.6862 178.446 42.618 178.436 42.549L178.529 42.5205C178.587 42.6342 178.66 42.7399 178.745 42.8348H178.737ZM191.38 41.9653C191.38 42.0837 191.36 42.198 191.356 42.3164C191.343 42.6754 191.364 43.0348 191.417 43.39C191.017 43.2551 190.598 43.1835 190.176 43.1777C189.995 43.1777 189.812 43.1777 189.627 43.1777C189.391 43.0537 189.162 42.9175 188.94 42.7695C189.097 42.5173 189.214 42.2418 189.286 41.953C189.286 41.8877 189.318 41.8224 189.33 41.7612C190.018 41.7659 190.705 41.8343 191.38 41.9653ZM191.913 42.4143C191.896 42.7312 191.848 43.0457 191.771 43.3533C191.721 43.0141 191.702 42.6712 191.714 42.3286C191.714 42.2919 191.714 42.251 191.714 42.2102C191.787 42.2755 191.852 42.3449 191.913 42.4143ZM189.005 43.2308C188.838 43.2308 188.672 43.2757 188.505 43.3043C188.586 43.2235 188.662 43.1376 188.733 43.0471L189.005 43.2308ZM201.433 43.2512C201.083 43.2703 200.746 43.2784 200.42 43.2757C200.738 43.0741 201.092 42.9355 201.462 42.8675H201.498C201.498 42.8675 201.498 42.9042 201.498 42.9246C201.498 43.0267 201.453 43.1287 201.429 43.2267C201.433 43.2185 201.433 43.2349 201.433 43.2512ZM201.376 42.5001C200.803 42.6304 200.267 42.8885 199.806 43.2553C198.488 43.2321 197.2 42.8573 196.073 42.1694C195.963 42.0061 195.845 41.8469 195.723 41.6918C195.572 41.075 195.502 40.4408 195.516 39.8057C195.51 39.2282 195.449 38.6527 195.333 38.087C195.729 38.0125 196.133 37.9987 196.533 38.0462C196.971 38.203 197.397 38.3898 197.81 38.6055C198.601 39.0067 199.319 39.5395 199.932 40.1813C200.559 40.8512 201.047 41.6393 201.368 42.5001H201.376ZM202.19 43.19H201.986L201.913 42.9369C201.915 42.911 201.915 42.8851 201.913 42.8593C201.937 42.8675 201.959 42.8799 201.978 42.896C202.07 42.9741 202.139 43.0757 202.177 43.19H202.19ZM184.048 42.5041C183.662 42.6887 183.295 42.9087 182.95 43.1614C182.54 42.7897 182.064 42.4989 181.547 42.3041C181.953 41.8959 182.604 41.406 183.243 41.6754C183.579 41.8713 183.854 42.1586 184.036 42.5041H184.048ZM208.082 41.8591L207.989 41.8959C206.231 42.524 204.406 42.9459 202.551 43.1532C202.485 42.9578 202.367 42.7842 202.21 42.6511C202.147 42.6057 202.079 42.5686 202.007 42.5409C202.023 42.4211 202.035 42.3027 202.043 42.1857C202.05 41.9907 202.04 41.7954 202.015 41.6019C202.031 40.9577 201.936 40.3155 201.734 39.7037C201.385 38.7413 200.729 37.9219 199.867 37.3726C200.16 37.3726 200.457 37.3359 200.746 37.3155C203.258 37.748 205.637 38.7582 207.696 40.267C207.747 40.3895 207.796 40.516 207.842 40.6467C207.972 41.0392 208.053 41.4465 208.082 41.8591ZM180.912 42.4756C180.755 42.679 180.609 42.8916 180.477 43.1124C180.284 42.8809 180.13 42.6188 180.022 42.3368C180.322 42.3524 180.621 42.3989 180.912 42.4756ZM179.46 42.8838C179.446 42.8878 179.43 42.8878 179.416 42.8838C179.289 42.8582 179.174 42.7906 179.09 42.6919V42.398L179.306 42.3694L179.46 42.8838ZM192.279 42.251C192.443 42.3252 192.576 42.4554 192.653 42.6184C192.689 42.7025 192.708 42.7925 192.71 42.8838C192.583 42.6732 192.439 42.4738 192.279 42.2878V42.251ZM188.964 41.7448C188.96 41.781 188.952 41.8166 188.94 41.851C188.881 42.0954 188.785 42.3294 188.655 42.545C188.382 42.3298 188.137 42.08 187.927 41.802C188.273 41.7612 188.619 41.7367 188.964 41.7326V41.7448ZM192.218 40.1731C192.474 40.8141 192.673 41.4958 192.873 42.1694L192.93 42.3653C192.773 42.1264 192.543 41.9457 192.275 41.851C192.275 41.7571 192.275 41.6673 192.246 41.5734C192.21 41.2526 192.141 40.9366 192.039 40.6303C192.08 40.463 192.149 40.3078 192.214 40.1609L192.218 40.1731ZM187.338 41.5162C186.432 41.647 185.545 41.884 184.694 42.2225L184.524 42.2959L184.45 42.051C184.379 41.876 184.367 41.6828 184.414 41.4999C184.511 41.2876 184.82 41.2182 185.109 41.1774C185.483 41.1284 185.87 41.0712 186.264 41.0263L186.374 41.0712L186.394 41.0141C186.646 40.9855 186.903 40.9651 187.159 40.9488C187.196 41.1403 187.256 41.3266 187.338 41.504V41.5162ZM182.864 41.2509C182.165 41.2509 181.539 41.7979 181.181 42.1898C180.772 42.0684 180.35 42.0011 179.924 41.9898C179.817 41.4691 179.814 40.9323 179.914 40.4103C180.015 39.8884 180.217 39.3915 180.51 38.9484C181.004 38.6028 181.531 38.3074 182.083 38.0666L182.218 38.0421C182.502 38.5784 182.886 39.0551 183.348 39.4465C184.02 39.9893 184.77 40.4257 185.573 40.7406L185.06 40.81C184.866 40.8098 184.675 40.8596 184.506 40.9547C184.336 41.0497 184.194 41.1869 184.092 41.3529C184.018 41.5327 184.004 41.7318 184.052 41.9204C183.876 41.6758 183.641 41.4805 183.369 41.3529C183.205 41.2784 183.028 41.2394 182.848 41.2386L182.864 41.2509ZM201.665 41.6183C201.665 41.7979 201.665 41.9775 201.632 42.1653C201.303 41.3507 200.827 40.6035 200.229 39.9608C199.588 39.2959 198.84 38.7439 198.017 38.3279C198.775 38.4967 199.493 38.8114 200.132 39.2546C200.924 39.8097 201.468 40.6535 201.649 41.606L201.665 41.6183ZM178.781 40.8345C178.781 40.9039 178.781 40.9733 178.781 41.0386C178.753 41.3856 178.745 41.7285 178.745 42.0714L178.517 41.5979C178.567 41.3298 178.65 41.0691 178.765 40.8222L178.781 40.8345ZM179.188 42.0265H179.078C179.078 41.9122 179.078 41.7938 179.078 41.6795L179.188 42.0265ZM179.818 39.4995C179.483 40.2797 179.389 41.1432 179.55 41.9775L179.143 40.7528C179.167 40.5335 179.207 40.3165 179.265 40.1037C179.322 40.0302 179.387 39.9568 179.452 39.8833C179.517 39.8098 179.684 39.6057 179.81 39.4873L179.818 39.4995ZM191.852 41.3203C191.852 41.4182 191.884 41.5162 191.897 41.6183V41.7285L191.783 41.6999C191.796 41.5683 191.816 41.4375 191.844 41.308L191.852 41.3203ZM208.237 40.7079C208.452 40.9161 208.688 41.2182 208.578 41.4876C208.546 41.5651 208.493 41.6316 208.424 41.6795C208.392 41.3505 208.329 41.0252 208.237 40.7079ZM189.363 41.0386C189.683 41.0998 189.997 41.1872 190.302 41.2999C190.441 41.3529 190.579 41.4182 190.709 41.4876C190.261 41.4264 189.811 41.3896 189.359 41.3774C189.368 41.2647 189.37 41.1515 189.363 41.0386ZM189.013 41.3733C188.607 41.3733 188.175 41.4019 187.761 41.4468C187.763 41.2681 187.754 41.0894 187.732 40.912C188.156 40.9044 188.58 40.9276 189.001 40.9814C189.013 41.1117 189.017 41.2426 189.013 41.3733ZM191.673 40.6222C191.593 40.8626 191.529 41.1081 191.482 41.357L191.384 41.2264C191.216 40.9774 191.105 40.6943 191.058 40.3972C191.012 40.1001 191.032 39.7963 191.116 39.5077C191.345 39.8553 191.533 40.2295 191.673 40.6222ZM178.659 40.3364C178.503 40.5795 178.375 40.8398 178.277 41.1121L177.602 39.7241C177.316 39.2233 177.141 38.6662 177.09 38.0911C177.09 36.3643 179.298 35.5356 180.249 35.258C180.879 35.062 181.528 34.9347 182.185 34.8783C181.955 35.329 181.829 35.8256 181.815 36.3316C181.806 36.6064 181.835 36.8812 181.9 37.1481C181.685 37.2691 181.478 37.4055 181.282 37.5563L180.53 37.6053C179.79 37.6543 178.769 37.8176 178.46 38.63C178.328 39.1089 178.368 39.6191 178.574 40.0711L178.659 40.3364ZM195.008 38.1973C195.103 38.7252 195.148 39.261 195.142 39.7975C195.147 40.2314 195.174 40.6647 195.223 41.0957C194.809 40.6436 194.351 40.2334 193.857 39.871C193.867 39.5947 193.936 39.3239 194.06 39.0767C194.183 38.8295 194.358 38.6118 194.572 38.4381C194.706 38.3383 194.852 38.2572 195.008 38.1973ZM190.86 39.1525C190.638 39.7405 190.638 40.3894 190.86 40.9773C190.262 40.7517 189.689 40.4673 189.147 40.1282C188.956 39.6721 188.68 39.2565 188.334 38.9035C188.624 38.6526 188.947 38.4425 189.294 38.2789C189.587 38.3442 189.892 38.4259 190.197 38.5157C190.437 38.7061 190.659 38.9194 190.86 39.1525ZM189.322 40.6385L189.391 40.6793H189.326L189.322 40.6385ZM187.143 40.5773C186.866 40.5773 186.594 40.6222 186.329 40.6508C185.337 40.314 184.408 39.8102 183.584 39.1607C183.189 38.8229 182.856 38.4181 182.6 37.9646C183.882 37.6959 185.21 37.7393 186.472 38.0911C186.573 38.3238 186.671 38.5647 186.768 38.8055C186.927 39.2138 187.086 39.622 187.204 40.0302C187.17 40.1735 187.151 40.3199 187.147 40.4671L187.143 40.5773ZM188.871 40.3527C188.903 40.4385 188.928 40.5242 188.952 40.6099C188.535 40.5624 188.115 40.5433 187.696 40.5528C187.663 40.3772 187.618 40.1976 187.57 40.018C187.634 39.7994 187.733 39.5926 187.862 39.4056C188.144 39.7691 188.479 40.0883 188.855 40.3527H188.871ZM199.205 37.3726C200.227 37.8713 201.016 38.7497 201.405 39.822C201.454 39.9554 201.494 40.0918 201.527 40.2303C201.221 39.7258 200.817 39.2884 200.339 38.9443C199.305 38.2498 198.114 37.8286 196.874 37.7196L196.647 37.6951C196.14 37.5192 195.621 37.3827 195.093 37.2869L195.069 37.242C195.271 37.1482 195.48 37.0704 195.695 37.0093C195.817 36.9726 195.943 36.944 196.069 36.9195H196.553C197.395 37.2362 198.289 37.39 199.188 37.3726H199.205ZM192.031 39.72C191.966 39.8506 191.905 39.9813 191.848 40.1282C191.688 39.7603 191.486 39.4123 191.246 39.0913C191.274 39.026 191.307 38.9648 191.339 38.8994L191.669 39.0382C191.802 39.2586 191.923 39.4862 192.031 39.72ZM178.932 39.9078C178.918 39.9276 178.903 39.9467 178.887 39.9649C178.717 39.5917 178.676 39.1724 178.769 38.7729C179.005 38.1483 179.887 38.0176 180.53 37.9564H180.815L180.693 38.087C180.103 38.3027 179.594 38.6963 179.237 39.2138C179.105 39.4303 179.002 39.6638 178.932 39.9078ZM194.918 37.8666C194.549 37.9976 194.223 38.23 193.979 38.5375C193.734 38.8449 193.581 39.215 193.535 39.6057C193.348 39.3771 193.157 39.1444 192.962 38.9158C193.368 38.3802 193.867 37.9225 194.434 37.5645C194.564 37.5645 194.699 37.6013 194.841 37.6257C194.861 37.6788 194.89 37.7686 194.926 37.8503L194.918 37.8666ZM202.6 37.2134C203.237 37.2008 203.872 37.2777 204.487 37.442C205.65 37.7855 206.651 38.5357 207.31 39.5567C205.707 38.4749 203.927 37.6857 202.051 37.2257C202.233 37.2066 202.416 37.1971 202.6 37.1971V37.2134ZM188.078 39.1321C188.196 39.2602 188.305 39.3967 188.403 39.5404C188.284 39.4132 188.175 39.2767 188.078 39.1321ZM187.635 39.1076C187.541 39.2365 187.458 39.3731 187.387 39.5159C187.289 39.2424 187.187 38.9729 187.077 38.6994L186.919 38.2912C187.08 38.3679 187.236 38.4552 187.387 38.5524C187.451 38.74 187.534 38.9205 187.635 39.0913V39.1076ZM192.254 39.3118V39.3362L192.234 39.2913L192.254 39.3118ZM192.486 38.9035C192.466 38.9321 192.446 38.9607 192.429 38.9892C192.25 38.8994 192.076 38.8137 191.901 38.7361C191.819 38.6055 191.738 38.483 191.649 38.3646C191.697 38.3034 191.75 38.2422 191.803 38.185C192.059 38.4218 192.287 38.6667 192.486 38.9035ZM190.99 38.7443L190.965 38.7157L190.99 38.7443ZM193.861 37.4829C193.426 37.8053 193.038 38.1857 192.706 38.6137C192.498 38.381 192.299 38.1564 192.063 37.9401C192.102 37.9065 192.143 37.8752 192.185 37.8462C192.389 37.6883 192.609 37.5515 192.84 37.438C193.188 37.4378 193.535 37.4569 193.881 37.4951L193.861 37.4829ZM188.737 38.1156C188.496 38.2592 188.268 38.4245 188.058 38.6096C187.935 38.4996 187.806 38.3974 187.671 38.3034C187.639 38.1809 187.61 38.0585 187.59 37.936C187.838 37.9687 188.082 38.0013 188.326 38.0421L188.737 38.1156ZM191.205 38.3728L191.169 38.43C190.892 38.3279 190.624 38.234 190.355 38.1524C190.258 38.0707 190.156 37.9932 190.05 37.9197H190.087C190.254 37.8666 190.424 37.8176 190.595 37.7727C190.826 37.9547 191.037 38.1599 191.226 38.3851L191.205 38.3728ZM191.539 37.9646L191.425 38.0993C191.3 37.9531 191.164 37.8166 191.018 37.6911L191.152 37.6625C191.301 37.7523 191.437 37.8503 191.559 37.9564L191.539 37.9646ZM187.224 37.9156C187.224 37.9646 187.224 38.0095 187.224 38.0585C187.137 38.01 187.047 37.9664 186.955 37.9278L186.858 37.8829L187.224 37.9156ZM190.221 37.5074L189.981 37.5808C189.726 37.6599 189.476 37.7554 189.233 37.8666C188.94 37.8013 188.655 37.7482 188.383 37.7033C188.11 37.6584 187.834 37.6176 187.57 37.5849C187.564 37.39 187.583 37.1952 187.626 37.0052C187.639 36.9399 187.657 36.8758 187.679 36.8134C188.581 36.8005 189.468 37.0409 190.241 37.5074H190.221ZM195.382 37.7237L195.239 37.7523C195.239 37.7278 195.239 37.7074 195.239 37.687L195.382 37.7237ZM192.039 37.5196L191.974 37.5686L191.799 37.7074L191.636 37.5686C191.791 37.5523 191.925 37.5319 192.059 37.5196H192.039ZM187.297 36.8134C187.285 36.8508 187.276 36.889 187.269 36.9277C187.224 37.1301 187.203 37.3368 187.204 37.5441L186.553 37.491C186.455 37.2869 186.358 37.0828 186.252 36.8991C186.605 36.851 186.961 36.8224 187.317 36.8134H187.297ZM181.961 37.5237H181.921L181.957 37.4992L181.961 37.5237ZM182.474 37.4951H182.34C182.315 37.4339 182.295 37.3726 182.275 37.3155C183.304 36.8052 184.426 36.5121 185.573 36.4541L185.679 36.6133C185.304 36.6786 184.951 36.7603 184.621 36.8379C183.9 37.0141 183.189 37.2336 182.494 37.4951H182.474ZM185.874 36.9562C185.967 37.1195 186.057 37.291 186.142 37.4665C185.353 37.4257 184.56 37.4216 183.771 37.442C184.088 37.3522 184.397 37.2706 184.694 37.2012C185.125 37.0991 185.52 37.0175 185.894 36.9562H185.874ZM190.754 37.3645H190.681C190.511 37.2387 190.333 37.1255 190.148 37.0256C190.278 37.0882 190.414 37.1536 190.555 37.2216C190.624 37.2706 190.697 37.3237 190.774 37.3726L190.754 37.3645ZM192.759 37.1032C192.258 37.1231 191.759 37.179 191.266 37.2706C191.09 37.144 190.907 37.0282 190.717 36.9236C189.895 36.4949 188.997 36.2315 188.074 36.1479C188.179 36.0361 188.302 35.9411 188.436 35.8663C188.88 35.6613 189.366 35.5622 189.855 35.5764C191.315 35.5152 193.137 35.6826 194.198 36.6909C193.71 36.771 193.233 36.9123 192.779 37.1114L192.759 37.1032ZM194.52 37.0787L194.341 37.1808C194.17 37.1617 193.999 37.1454 193.828 37.1318C194.04 37.0828 194.235 37.042 194.471 37.0093L194.52 37.0787ZM185.308 36.1316C184.225 36.2094 183.167 36.4934 182.189 36.9685C182.149 36.7656 182.129 36.559 182.132 36.3521C182.153 35.832 182.3 35.3247 182.559 34.8742C183.131 34.8656 183.696 34.9915 184.21 35.2417C184.638 35.4581 185.016 35.7612 185.321 36.1316H185.308ZM195.882 36.5398C195.459 36.5452 195.037 36.5724 194.617 36.6215C193.499 35.3519 191.449 35.1437 189.823 35.209C189.279 35.1985 188.741 35.313 188.249 35.5437C188.004 35.6802 187.793 35.8699 187.631 36.0989C187.317 36.0785 187.029 36.0704 186.764 36.0663C186.409 36.0663 186.068 36.0745 185.74 36.0908C185.378 35.5982 184.909 35.1948 184.369 34.911C183.875 34.6643 183.334 34.5251 182.783 34.5028C183.117 34.0422 183.53 33.6454 184.003 33.3311C185.459 32.3391 187.443 31.9186 189.912 32.0819C191.945 32.2126 193.316 32.8086 194.007 33.8537C194.169 34.1148 194.312 34.3877 194.434 34.6701C194.56 34.9734 194.711 35.2656 194.886 35.5437C195.148 35.947 195.493 36.2894 195.898 36.548L195.882 36.5398ZM187.342 36.4419C186.907 36.4507 186.474 36.4889 186.045 36.5562C186.02 36.5153 185.996 36.4745 185.967 36.4337C186.223 36.4337 186.484 36.4337 186.748 36.4337C186.96 36.4541 187.159 36.4541 187.37 36.4541L187.342 36.4419Z" fill="#EE684E"/>
<path d="M139.342 63.3369L132.983 58.9135L135.201 56.7193L130.408 52.7296L132.8 50.4334L136.982 56.9143L134.819 58.6613L139.342 63.3369Z" fill="#EE684E"/>
<path d="M141.398 60.5125L140.025 54.3909L141.977 54.3833L142.271 49.9288L144.358 49.8793L143.283 55.86L141.375 55.3932L141.398 60.5125Z" fill="#EE684E"/>
<path d="M135.267 64.413L129.386 64.8772L129.64 62.778L124.849 62.8345L124.597 60.4961L130.803 61.8086L130.454 63.6731L135.267 64.413Z" fill="#EE684E"/>
</svg>
