<svg width="286" height="180" viewBox="0 0 286 180" fill="none" xmlns="http://www.w3.org/2000/svg">
<path d="M208.556 3.99609H152.582V40.4264H208.556V3.99609Z" fill="#E5EDF9"/>
<path d="M152.68 40.3374L152.582 3.99609V40.4264H208.556L152.68 40.3374Z" fill="#1D375E"/>
<path d="M208.556 3.99609H152.582V40.4264L153.071 4.4839H208.123L208.556 40.4264V3.99609Z" fill="#1D375E"/>
<path d="M208.556 42.5635H152.582V78.9938H208.556V42.5635Z" fill="#E5EDF9"/>
<path d="M208.556 42.5635H152.582L208.368 42.7764L208.556 78.9938V42.5635Z" fill="#1D375E"/>
<path d="M208.556 78.9938V42.5635L208.368 78.6299L153.316 78.1421L152.582 42.5635V78.9938H208.556Z" fill="#1D375E"/>
<path d="M163.568 49.5586H158.128V54.9809H163.568V49.5586Z" fill="white"/>
<path d="M158.278 54.8309V49.7086H163.418V54.8309H158.278Z" stroke="#1D375E" stroke-opacity="0.3" stroke-width="0.3"/>
<path d="M170.138 49.5586H164.699V54.9809H170.138V49.5586Z" fill="#D3DBE7"/>
<path d="M176.718 49.5586H171.279V54.9809H176.718V49.5586Z" fill="white"/>
<path d="M171.429 54.8309V49.7086H176.568V54.8309H171.429Z" stroke="#1D375E" stroke-opacity="0.3" stroke-width="0.3"/>
<path d="M183.289 49.5586H177.849V54.9809H183.289V49.5586Z" fill="white"/>
<path d="M177.999 54.8309V49.7086H183.139V54.8309H177.999Z" stroke="#1D375E" stroke-opacity="0.3" stroke-width="0.3"/>
<path d="M189.869 49.5586H184.429V54.9809H189.869V49.5586Z" fill="white"/>
<path d="M184.579 54.8309V49.7086H189.719V54.8309H184.579Z" stroke="#1D375E" stroke-opacity="0.3" stroke-width="0.3"/>
<path d="M196.439 49.5586H190.999V54.9809H196.439V49.5586Z" fill="white"/>
<path d="M191.149 54.8309V49.7086H196.289V54.8309H191.149Z" stroke="#1D375E" stroke-opacity="0.3" stroke-width="0.3"/>
<path d="M203.019 49.5586H197.579V54.9809H203.019V49.5586Z" fill="white"/>
<path d="M197.729 54.8309V49.7086H202.869V54.8309H197.729Z" stroke="#1D375E" stroke-opacity="0.3" stroke-width="0.3"/>
<path d="M163.568 56.168H158.128V61.5902H163.568V56.168Z" fill="white"/>
<path d="M158.278 61.4402V56.318H163.418V61.4402H158.278Z" stroke="#1D375E" stroke-opacity="0.3" stroke-width="0.3"/>
<path d="M170.138 56.168H164.699V61.5902H170.138V56.168Z" fill="white"/>
<path d="M164.849 61.4402V56.318H169.988V61.4402H164.849Z" stroke="#1D375E" stroke-opacity="0.3" stroke-width="0.3"/>
<path d="M176.718 56.168H171.279V61.5902H176.718V56.168Z" fill="white"/>
<path d="M171.429 61.4402V56.318H176.568V61.4402H171.429Z" stroke="#1D375E" stroke-opacity="0.3" stroke-width="0.3"/>
<path d="M183.289 56.168H177.849V61.5902H183.289V56.168Z" fill="white"/>
<path d="M177.999 61.4402V56.318H183.139V61.4402H177.999Z" stroke="#1D375E" stroke-opacity="0.3" stroke-width="0.3"/>
<path d="M189.869 56.168H184.429V61.5902H189.869V56.168Z" fill="#D3DBE7"/>
<path d="M196.439 56.168H190.999V61.5902H196.439V56.168Z" fill="white"/>
<path d="M191.149 61.4402V56.318H196.289V61.4402H191.149Z" stroke="#1D375E" stroke-opacity="0.3" stroke-width="0.3"/>
<path d="M203.019 56.168H197.579V61.5902H203.019V56.168Z" fill="white"/>
<path d="M197.729 61.4402V56.318H202.869V61.4402H197.729Z" stroke="#1D375E" stroke-opacity="0.3" stroke-width="0.3"/>
<path d="M163.568 62.7646H158.128V68.1869H163.568V62.7646Z" fill="white"/>
<path d="M158.278 68.0369V62.9146H163.418V68.0369H158.278Z" stroke="#1D375E" stroke-opacity="0.3" stroke-width="0.3"/>
<path d="M170.138 62.7646H164.699V68.1869H170.138V62.7646Z" fill="white"/>
<path d="M164.849 68.0369V62.9146H169.988V68.0369H164.849Z" stroke="#1D375E" stroke-opacity="0.3" stroke-width="0.3"/>
<path d="M176.718 62.7646H171.279V68.1869H176.718V62.7646Z" fill="white"/>
<path d="M171.429 68.0369V62.9146H176.568V68.0369H171.429Z" stroke="#1D375E" stroke-opacity="0.3" stroke-width="0.3"/>
<path d="M183.289 62.7646H177.849V68.1869H183.289V62.7646Z" fill="white"/>
<path d="M177.999 68.0369V62.9146H183.139V68.0369H177.999Z" stroke="#1D375E" stroke-opacity="0.3" stroke-width="0.3"/>
<path d="M189.869 62.7646H184.429V68.1869H189.869V62.7646Z" fill="white"/>
<path d="M184.579 68.0369V62.9146H189.719V68.0369H184.579Z" stroke="#1D375E" stroke-opacity="0.3" stroke-width="0.3"/>
<path d="M196.439 62.7646H190.999V68.1869H196.439V62.7646Z" fill="white"/>
<path d="M191.149 68.0369V62.9146H196.289V68.0369H191.149Z" stroke="#1D375E" stroke-opacity="0.3" stroke-width="0.3"/>
<path d="M203.019 62.7646H197.579V68.1869H203.019V62.7646Z" fill="white"/>
<path d="M197.729 68.0369V62.9146H202.869V68.0369H197.729Z" stroke="#1D375E" stroke-opacity="0.3" stroke-width="0.3"/>
<path d="M163.568 69.3643H158.128V74.7865H163.568V69.3643Z" fill="white"/>
<path d="M158.278 74.6365V69.5143H163.418V74.6365H158.278Z" stroke="#1D375E" stroke-opacity="0.3" stroke-width="0.3"/>
<path d="M170.138 69.3643H164.699V74.7865H170.138V69.3643Z" fill="white"/>
<path d="M164.849 74.6365V69.5143H169.988V74.6365H164.849Z" stroke="#1D375E" stroke-opacity="0.3" stroke-width="0.3"/>
<path d="M176.718 69.3643H171.279V74.7865H176.718V69.3643Z" fill="white"/>
<path d="M171.429 74.6365V69.5143H176.568V74.6365H171.429Z" stroke="#1D375E" stroke-opacity="0.3" stroke-width="0.3"/>
<path d="M183.289 69.3643H177.849V74.7865H183.289V69.3643Z" fill="white"/>
<path d="M177.999 74.6365V69.5143H183.139V74.6365H177.999Z" stroke="#1D375E" stroke-opacity="0.3" stroke-width="0.3"/>
<path d="M189.869 69.3643H184.429V74.7865H189.869V69.3643Z" fill="white"/>
<path d="M184.579 74.6365V69.5143H189.719V74.6365H184.579Z" stroke="#1D375E" stroke-opacity="0.3" stroke-width="0.3"/>
<path d="M196.439 69.3643H190.999V74.7865H196.439V69.3643Z" fill="white"/>
<path d="M191.149 74.6365V69.5143H196.289V74.6365H191.149Z" stroke="#1D375E" stroke-opacity="0.3" stroke-width="0.3"/>
<path d="M203.019 69.3643H197.579V74.7865H203.019V69.3643Z" fill="white"/>
<path d="M197.729 74.6365V69.5143H202.869V74.6365H197.729Z" stroke="#1D375E" stroke-opacity="0.3" stroke-width="0.3"/>
<path fill-rule="evenodd" clip-rule="evenodd" d="M200.337 58.155C201.047 57.4945 202.398 56.2779 202.563 56.4341C202.725 56.5876 201.774 58.1206 201.229 58.9664C201.824 59.644 202.929 60.9611 202.788 61.2427C202.653 61.5114 201.194 60.5548 200.336 59.9599C199.593 60.5675 198.322 61.5763 198.209 61.4561C198.1 61.3384 198.946 60.0092 199.484 59.1938C198.98 58.4737 197.834 56.7964 197.984 56.6463C198.122 56.5089 199.544 57.553 200.337 58.155Z" fill="#EE684E"/>
<path fill-rule="evenodd" clip-rule="evenodd" d="M193.91 58.1549C194.62 57.4943 195.971 56.2779 196.136 56.4341C196.298 56.5875 195.346 58.1204 194.801 58.9663C195.396 59.6438 196.502 60.9611 196.361 61.2427C196.226 61.5114 194.767 60.5547 193.908 59.9598C193.166 60.5674 191.894 61.5763 191.782 61.4561C191.672 61.3384 192.519 60.009 193.057 59.1936C192.553 58.4734 191.407 56.7963 191.557 56.6463C191.695 56.5089 193.117 57.5529 193.91 58.1549Z" fill="#EE684E"/>
<path fill-rule="evenodd" clip-rule="evenodd" d="M193.841 64.5612C194.551 63.9006 195.902 62.6842 196.067 62.8404C196.229 62.9938 195.278 64.5266 194.733 65.3725C195.328 66.05 196.433 67.3673 196.292 67.649C196.157 67.9177 194.698 66.961 193.84 66.366C193.097 66.9737 191.826 67.9826 191.713 67.8623C191.604 67.7446 192.45 66.4153 192.988 65.5999C192.484 64.8797 191.338 63.2026 191.488 63.0525C191.626 62.9152 193.048 63.9591 193.841 64.5612Z" fill="#EE684E"/>
<path fill-rule="evenodd" clip-rule="evenodd" d="M173.778 58.155C174.488 57.4945 175.839 56.2779 176.004 56.4341C176.165 56.5876 175.214 58.1206 174.669 58.9664C175.264 59.644 176.369 60.9611 176.228 61.2427C176.093 61.5114 174.635 60.5548 173.776 59.9599C173.034 60.5675 171.762 61.5763 171.65 61.4561C171.54 61.3384 172.387 60.0092 172.924 59.1938C172.421 58.4737 171.275 56.7964 171.425 56.6463C171.563 56.5089 172.984 57.553 173.778 58.155Z" fill="#EE684E"/>
<path fill-rule="evenodd" clip-rule="evenodd" d="M167.282 64.6715C167.991 64.0109 169.342 62.7945 169.507 62.9507C169.669 63.1041 168.718 64.637 168.173 65.4829C168.768 66.1604 169.873 67.4777 169.732 67.7593C169.597 68.028 168.139 67.0713 167.28 66.4764C166.537 67.084 165.266 68.0929 165.154 67.9727C165.044 67.855 165.891 66.5256 166.428 65.7102C165.924 64.99 164.778 63.3129 164.929 63.1629C165.067 63.0255 166.488 64.0695 167.282 64.6715Z" fill="#EE684E"/>
<path d="M156.9 38.6963H154.775V44.2935H156.9V38.6963Z" fill="#475569"/>
<path d="M161.852 38.6963H159.727V44.2935H161.852V38.6963Z" fill="#475569"/>
<path d="M166.794 38.6963H164.669V44.2935H166.794V38.6963Z" fill="#475569"/>
<path d="M171.746 38.6963H169.621V44.2935H171.746V38.6963Z" fill="#475569"/>
<path d="M176.689 38.6963H174.564V44.2935H176.689V38.6963Z" fill="#475569"/>
<path d="M181.631 38.6963H179.506V44.2935H181.631V38.6963Z" fill="#475569"/>
<path d="M186.584 38.6963H184.458V44.2935H186.584V38.6963Z" fill="#475569"/>
<path d="M191.526 38.6963H189.4V44.2935H191.526V38.6963Z" fill="#475569"/>
<path d="M196.478 38.6963H194.353V44.2935H196.478V38.6963Z" fill="#475569"/>
<path d="M201.421 38.6963H199.296V44.2935H201.421V38.6963Z" fill="#475569"/>
<path d="M206.363 38.6963H204.238V44.2935H206.363V38.6963Z" fill="#475569"/>
<path d="M1.34869 27.2305V99.9893H53.6133V27.2305H1.34869ZM52.0586 98.4407H2.90341V28.7791H52.0586V98.4407Z" fill="#D3DBE7"/>
<path d="M52.1234 28.6152H2.89172V98.4377H52.1234V28.6152Z" fill="#475569"/>
<path d="M45.465 70.4023L45.8466 71.1763L46.6976 71.2987L46.0791 71.8977L46.2239 72.7416L45.465 72.3437L44.7018 72.7416L44.8466 71.8977L44.2281 71.2987L45.0834 71.1763L45.465 70.4023Z" fill="#FFE9A9"/>
<path d="M22.0949 68.5479L22.4765 69.3174L23.3275 69.4442L22.709 70.0432L22.8581 70.8871L22.0949 70.4892L21.3317 70.8871L21.4764 70.0432L20.8624 69.4442L21.7133 69.3174L22.0949 68.5479Z" fill="#FFE9A9"/>
<path d="M11.8485 87.498L12.2301 88.2676L13.0854 88.39L12.467 88.989L12.6117 89.8373L11.8485 89.435L11.0897 89.8373L11.2344 88.989L10.616 88.39L11.4713 88.2676L11.8485 87.498Z" fill="#FFE9A9"/>
<path d="M45.4652 48.7627L45.6976 49.2393L46.224 49.3136L45.8468 49.6853L45.9345 50.21L45.4652 49.9607L44.9914 50.21L45.0836 49.6853L44.702 49.3136L45.2283 49.2393L45.4652 48.7627Z" fill="#FFE9A9"/>
<path d="M9.0809 66.1875L9.31776 66.6597L9.84411 66.7384L9.46251 67.1101L9.55023 67.6304L9.0809 67.3855L8.61157 67.6304L8.69929 67.1101L8.31769 66.7384L8.84404 66.6597L9.0809 66.1875Z" fill="#DBDBDB"/>
<path d="M39.6534 86.7764L39.8902 87.2486L40.4166 87.3273L40.035 87.6989L40.1271 88.2193L39.6534 87.9744L39.184 88.2193L39.2761 87.6989L38.8945 87.3273L39.4209 87.2486L39.6534 86.7764Z" fill="#FFE9A9"/>
<path d="M24.0907 51.7715L24.3231 52.2481L24.8495 52.3224L24.4723 52.6941L24.56 53.2144L24.0907 52.9695L23.617 53.2144L23.7091 52.6941L23.3275 52.3224L23.8538 52.2481L24.0907 51.7715Z" fill="#FFE9A9"/>
<path d="M44.3135 44.6595C43.8451 45.4738 43.1806 46.1589 42.38 46.6532C41.5795 47.1475 40.6681 47.4353 39.7281 47.4906C38.7881 47.5459 37.849 47.3671 36.9957 46.9702C36.1423 46.5733 35.4016 45.9709 34.8402 45.2172C34.2788 44.4636 33.9146 43.5825 33.7802 42.6534C33.6459 41.7244 33.7458 40.7766 34.0708 39.8956C34.3958 39.0146 34.9358 38.2282 35.6419 37.6072C36.3481 36.9863 37.1983 36.5504 38.1157 36.3389C37.3976 36.6665 36.7619 37.1498 36.2552 37.7536C35.7484 38.3574 35.3834 39.0664 35.1866 39.8288C34.9899 40.5912 34.9665 41.3878 35.1181 42.1604C35.2697 42.933 35.5925 43.6621 36.0629 44.2944C36.5333 44.9267 37.1395 45.4464 37.8371 45.8153C38.5348 46.1843 39.3063 46.3932 40.0953 46.427C40.8843 46.4607 41.6709 46.3183 42.3977 46.0103C43.1244 45.7022 43.773 45.2362 44.296 44.6464L44.3135 44.6595Z" fill="#FFE9A9"/>
<path d="M28.284 29.0176H26.7313V99.2117H28.284V29.0176Z" fill="#D3DBE7"/>
<path d="M68.8187 173.971C51.5466 172.158 69.9092 155.765 69.9092 155.765L109.669 155.707C109.669 155.707 107.992 164.354 109.388 165.464C110.313 166.185 132.915 169.691 144.876 173.054C131.382 173.054 74.6457 174.582 68.8187 173.971Z" fill="#37474F"/>
<path d="M64.832 171.831C53.4847 172.748 66.1213 155.736 66.1213 155.736H105.065C104.318 160.262 103.134 164.705 101.53 169.003C101.53 174.582 99.4523 174.078 64.832 171.831Z" fill="#37474F"/>
<path d="M108.506 166.257C107.348 166.516 106.216 166.877 105.123 167.338C103.98 167.78 102.855 168.26 101.746 168.779C99.579 169.85 97.4722 171.038 95.4355 172.339C95.3704 172.375 95.4355 172.461 95.5005 172.433C97.6693 171.316 99.8886 170.314 102.122 169.356L105.339 167.972C106.424 167.504 107.573 167.107 108.6 166.531C108.619 166.509 108.633 166.482 108.639 166.453C108.645 166.424 108.643 166.394 108.633 166.366C108.624 166.338 108.607 166.314 108.584 166.294C108.562 166.275 108.535 166.262 108.506 166.257Z" fill="#263238"/>
<path d="M106.113 156.457C105.658 158.273 105.253 160.096 104.732 161.89C104.494 162.719 104.262 163.555 103.944 164.355C103.684 165.032 103.279 165.796 102.499 165.955C101.595 166.127 101.335 165.356 101.407 164.614C101.479 163.872 101.703 162.95 101.87 162.135C102.058 161.191 102.253 160.254 102.419 159.303C102.506 158.835 102.983 156.622 102.99 156.594C102.997 156.565 102.99 156.507 102.939 156.457C102.928 156.448 102.914 156.443 102.9 156.443C102.885 156.443 102.871 156.448 102.86 156.457C102.56 157.057 102.334 157.691 102.188 158.345C101.935 159.21 101.689 160.074 101.465 160.946C101.241 161.818 101.024 162.697 100.807 163.569C100.581 164.217 100.521 164.911 100.633 165.587C100.716 165.91 100.902 166.198 101.162 166.407C101.423 166.616 101.745 166.736 102.079 166.747C102.079 166.805 102.007 166.863 101.985 166.92C101.906 167.1 101.848 167.288 101.776 167.475C101.703 167.662 101.645 167.85 101.588 168.037C101.53 168.224 101.551 168.224 101.537 168.318C101.523 168.412 101.537 168.527 101.537 168.635C101.531 168.671 101.537 168.707 101.555 168.738C101.573 168.769 101.601 168.793 101.635 168.805C101.669 168.817 101.706 168.817 101.74 168.804C101.773 168.792 101.801 168.767 101.819 168.736C101.862 168.642 101.935 168.57 101.985 168.484C102.04 168.386 102.084 168.282 102.115 168.174C102.18 167.994 102.231 167.814 102.282 167.626C102.332 167.439 102.383 167.259 102.412 167.079C102.431 166.967 102.443 166.854 102.448 166.74C102.828 166.708 103.191 166.571 103.496 166.344C104.015 165.91 104.395 165.334 104.588 164.686C104.862 163.966 105.072 163.151 105.311 162.38C105.869 160.47 106.256 158.514 106.467 156.536C106.478 156.489 106.469 156.44 106.444 156.4C106.418 156.359 106.377 156.33 106.33 156.32C106.283 156.309 106.234 156.318 106.193 156.344C106.152 156.369 106.124 156.41 106.113 156.457Z" fill="#263238"/>
<path d="M97.5029 113.479C100.648 128.612 107.255 147.802 112.597 151.766C116.899 154.958 139.728 160.91 141.001 161.076C144.16 161.458 150.991 138.895 147.637 138.319C143.206 137.555 123.875 136.056 122.776 134.889C121.677 133.721 114.694 123.856 106.872 112.492C101.414 104.637 95.5583 104.089 97.5029 113.479Z" fill="#FCE1DC"/>
<path d="M138.485 159.828C141.374 161.38 144.37 162.726 147.449 163.856C149.907 164.62 157.035 166.645 158.148 164.029C158.914 162.249 154.859 160.57 152.025 159.324C150.529 158.661 148.7 157.046 149.17 156.088C149.979 154.416 153.832 156.196 156.355 157.731C161.228 160.7 167.698 165.989 170.77 163.554C171.934 162.638 170.647 160.887 168.746 159.158C171.847 161.19 175.166 162.876 176.496 161.903C177.255 161.349 177.305 160.57 176.908 159.67C177.299 159.868 177.741 159.942 178.176 159.885C178.611 159.827 179.019 159.639 179.344 159.345C180.392 158.3 179.922 156.715 178.838 155.079C179.032 155.063 179.219 155.002 179.384 154.899C179.548 154.796 179.686 154.655 179.785 154.488C182.019 151.245 171.392 141.575 167.662 140.609C156.695 137.763 144.948 138.447 144.948 138.447C140.545 141.813 138.478 159.785 138.485 159.828Z" fill="#F7A9A0"/>
<path d="M154.91 150.029C157.525 150.496 160.011 151.51 162.204 153.005C164.958 154.9 166.765 157.098 169.064 159.311C169.122 159.368 169.064 159.469 168.97 159.404C167.879 158.352 163.332 154.36 162.153 153.474C160.033 151.809 157.561 150.646 154.924 150.072C154.924 150.072 154.881 150.022 154.91 150.029Z" fill="#263238"/>
<path d="M157.064 145.417C159.994 146.172 162.841 147.223 165.558 148.552C168.45 150.108 170.713 152.594 172.932 154.987C174.255 156.428 175.556 157.869 176.821 159.39C176.872 159.455 176.785 159.548 176.727 159.484C174.486 157.014 172.168 154.612 169.773 152.277C167.567 150.107 164.953 148.393 162.081 147.233C160.433 146.57 158.741 146.03 157.057 145.496C157.021 145.453 157.035 145.417 157.064 145.417Z" fill="#263238"/>
<path d="M160.274 141.396C163.078 142.037 165.522 142.577 167.98 144.134C171.24 146.195 174.349 149.618 175.448 150.828C176.648 152.169 177.811 153.552 178.946 154.943C178.997 155.001 178.896 155.087 178.852 155.03C176.24 151.97 173.431 149.081 170.445 146.382C169.041 145.075 167.444 143.991 165.71 143.168C163.95 142.438 162.131 141.857 160.274 141.432V141.396Z" fill="#263238"/>
<path d="M146.321 137.49L137.552 161.631C137.552 161.631 113.508 154.562 110.327 150.396C107.147 146.231 99.1439 125.34 97.4161 114.149C95.6884 102.958 101.305 105.271 106.091 110.935C110.877 116.599 122.827 134.132 123.231 134.399C123.636 134.665 146.321 137.49 146.321 137.49Z" fill="#A788CE"/>
<path d="M133.894 155.923C134.22 155.116 134.567 154.323 134.87 153.509L136.764 148.464C137.386 146.771 138.008 145.07 138.615 143.37C139.222 141.669 139.764 139.932 140.401 138.239C140.401 138.16 140.314 138.109 140.285 138.188C139.562 139.853 138.796 141.482 138.116 143.153C137.437 144.825 136.743 146.569 136.099 148.291C135.456 150.014 134.87 151.693 134.292 153.401C134.003 154.265 133.771 155.145 133.504 156.009C133.237 156.874 132.962 157.681 132.781 158.539C132.781 158.596 132.853 158.618 132.875 158.539C133.251 157.667 133.526 156.795 133.894 155.923Z" fill="#263238"/>
<path opacity="0.1" d="M127.07 158.265C120.166 155.865 112.084 152.687 110.327 150.389C107.146 146.231 99.1366 125.34 97.4161 114.149C96.5992 108.838 97.416 106.56 99.0498 106.222L127.07 158.265Z" fill="black"/>
<path d="M110.522 160.636C109.387 161.731 60.7643 166.783 60.5185 166.459C59.8751 165.572 68.9622 120.094 88.4374 104.42C91.864 101.66 97.5895 102.813 100.178 104.478C101.472 105.307 105.057 111.835 106.091 117.644C107.125 123.452 111.238 159.937 110.522 160.636Z" fill="#A788CE"/>
<path d="M89.2546 117.053C87.375 124.806 77.688 152.363 75.3168 154.756C72.4251 157.602 59.9766 166.358 55.6246 154.698C52.6101 146.62 73.0975 118.314 82.77 109.183C87.5051 104.723 92.4065 104.074 89.2546 117.053Z" fill="#A788CE"/>
<path d="M88.9146 122.666C88.4375 123.386 87.9387 124.172 87.4688 124.95C87.3748 125.109 87.2953 125.267 87.2085 125.426C87.3603 124.914 87.5194 124.395 87.6567 123.884C88.0254 122.558 88.3218 121.217 88.6471 119.884C88.6513 119.859 88.646 119.834 88.6322 119.813C88.6184 119.791 88.5972 119.776 88.5727 119.77C88.5482 119.763 88.5222 119.767 88.4998 119.778C88.4775 119.79 88.4604 119.81 88.4519 119.834C88.076 120.98 87.6567 122.111 87.2736 123.257C86.8904 124.402 86.5507 125.419 86.2181 126.528C85.4759 128.781 84.7121 131.032 83.9265 133.281C82.3867 137.748 80.7168 142.166 78.9601 146.554C77.9841 148.983 76.9865 151.404 76.0684 153.854C76.0684 153.919 76.1479 153.962 76.1841 153.898C78.3278 149.687 80.225 145.356 81.8662 140.926C83.5723 136.552 85.1482 132.128 86.5362 127.645L86.876 126.528L87.0278 126.29C87.2591 125.901 87.4904 125.505 87.7073 125.109C88.1483 124.316 88.5315 123.487 88.9363 122.666H88.9146Z" fill="#263238"/>
<path d="M98.6525 112.16C95.9199 113.046 90.7873 109.205 88.6185 105.934C88.4667 105.703 88.6691 96.2125 88.5101 94.3244C88.5101 93.9425 100.626 96.2197 100.626 96.2197C100.145 98.6312 99.9625 101.093 100.084 103.548C100.113 103.822 101.284 111.302 98.6525 112.16Z" fill="#F7A9A0"/>
<path d="M100.633 96.2123C100.633 96.2699 100.575 96.5077 100.51 96.8824C100.395 97.531 100.235 98.5831 100.134 99.7649C100.008 101.015 99.9931 102.274 100.091 103.527C100.087 103.613 100.087 103.7 100.091 103.786V103.829C100.091 103.981 100.134 104.19 100.163 104.427C99.7856 104.516 99.401 104.571 99.0138 104.593C92.5075 104.982 89.7026 97.25 88.8496 94.2666H89.0593C89.3773 94.2666 89.7822 94.3387 90.3027 94.4107L90.6858 94.4612L93.4618 94.9007L94.4594 95.0665L96.5776 95.434C96.8667 95.4989 97.1559 95.5493 97.4234 95.5925L98.2836 95.7439L98.6812 95.8159L98.8692 95.852C99.2668 95.924 99.5921 95.9817 99.874 96.0393L100.358 96.1258L100.561 96.169H100.604L100.633 96.2123Z" fill="#263238"/>
<path d="M87.0426 79.9691C85.7268 84.1703 87.8884 96.3344 90.874 99.0655C95.2115 103.015 102.339 103.432 105.723 98.244C109.005 93.1997 105.911 77.4037 102.571 74.9175C97.6477 71.264 88.9872 73.7717 87.0426 79.9691Z" fill="#F7A9A0"/>
<path opacity="0.2" d="M98.0453 86.5628C96.52 86.6133 96.7224 89.6399 98.1321 89.6038C99.5418 89.5678 99.3177 86.5268 98.0453 86.5628Z" fill="black"/>
<path opacity="0.2" d="M104.421 85.6475C102.976 86.0871 103.966 88.9119 105.296 88.53C106.626 88.1481 105.622 85.2872 104.421 85.6475Z" fill="black"/>
<path d="M98.9273 87.1611C98.9273 87.1611 98.8695 87.2116 98.8767 87.2476C99.0719 88.0547 99.1514 89.0203 98.4647 89.4095C98.4647 89.4095 98.4647 89.4599 98.4647 89.4527C99.3611 89.2077 99.2382 87.8962 98.9273 87.1611Z" fill="#263238"/>
<path d="M98.0233 86.4548C96.6859 86.6206 97.1125 89.2725 98.3559 89.1211C99.5993 88.9698 99.1438 86.3251 98.0233 86.4548Z" fill="#263238"/>
<path d="M103.72 86.5273C103.72 86.5273 103.792 86.5273 103.8 86.5922C103.908 87.4209 104.168 88.3433 104.956 88.5019V88.5451C104.024 88.5667 103.691 87.3272 103.72 86.5273Z" fill="#263238"/>
<path d="M104.32 85.5547C105.629 85.2377 106.164 87.8751 104.949 88.1634C103.735 88.4516 103.221 85.8141 104.32 85.5547Z" fill="#263238"/>
<path d="M96.2813 83.9401C96.5415 83.6663 96.8235 83.4573 97.1054 83.2195C97.3646 82.9246 97.7117 82.7201 98.0958 82.6358C98.2209 82.634 98.3432 82.6733 98.4437 82.7475C98.5443 82.8217 98.6176 82.9268 98.6525 83.0465C98.6869 83.2949 98.6533 83.5479 98.5553 83.7787C98.4573 84.0096 98.2986 84.2098 98.0958 84.3581C97.7336 84.7259 97.2459 84.9446 96.7295 84.9706C96.6084 84.9738 96.4891 84.9409 96.3869 84.8759C96.2847 84.811 96.2044 84.7171 96.1562 84.6063C96.108 84.4955 96.0942 84.3728 96.1165 84.2541C96.1387 84.1354 96.1962 84.026 96.2813 83.9401Z" fill="#263238"/>
<path d="M105.78 83.8177C105.456 83.6418 105.123 83.483 104.783 83.3421C104.455 83.1221 104.063 83.0181 103.67 83.0466C103.547 83.0772 103.439 83.1478 103.361 83.2471C103.284 83.3464 103.242 83.4686 103.243 83.5943C103.284 83.8416 103.389 84.0741 103.547 84.2687C103.706 84.4633 103.912 84.6134 104.147 84.704C104.588 84.9449 105.1 85.0215 105.592 84.9202C105.707 84.8907 105.811 84.8287 105.891 84.7417C105.972 84.6546 106.025 84.5463 106.045 84.4297C106.065 84.3131 106.05 84.1933 106.003 84.0847C105.957 83.9761 105.879 83.8834 105.78 83.8177Z" fill="#263238"/>
<path d="M100.12 93.8195C101.118 93.3315 102.218 93.0846 103.33 93.0988C103.417 93.0988 103.474 92.8755 103.474 92.7818L103.142 91.0595C103.388 91.1316 104.638 91.4702 104.588 91.146C104.058 88.3423 103.244 85.5995 102.159 82.9597C102.149 82.9455 102.134 82.9349 102.118 82.9296C102.101 82.9243 102.084 82.9245 102.067 82.9302C102.051 82.9359 102.037 82.9469 102.027 82.9613C102.018 82.9757 102.013 82.9929 102.014 83.0101C102.491 85.5972 103.417 88.0905 103.937 90.692C103.491 90.5638 103.028 90.5007 102.563 90.5046C102.477 90.5406 103.012 92.3134 103.026 92.5944C101.966 92.4863 100.906 92.7939 100.069 93.452C99.7297 93.7402 99.6501 94.0933 100.12 93.8195Z" fill="#263238"/>
<path d="M102.245 94.5337C102.701 94.3319 103.106 92.624 102.245 92.624C101.385 92.624 99.5778 93.3014 99.1006 94.4184C98.6813 95.3984 100.966 94.4184 101.385 94.5192C101.804 94.6201 101.913 94.6778 102.245 94.5337Z" fill="#263238"/>
<path d="M101.407 94.519L101.609 94.5622C101.522 94.0362 100.922 93.4741 99.7801 93.5894C99.4928 93.8063 99.2642 94.0911 99.115 94.4181C98.703 95.391 100.995 94.4325 101.407 94.519Z" fill="#EE684E"/>
<path d="M98.6524 95.2974C98.8765 95.4559 99.1151 95.6865 99.4187 95.6649C99.7189 95.6037 100.004 95.4837 100.257 95.3118C100.257 95.3118 100.315 95.3118 100.301 95.3478C100.21 95.5264 100.073 95.6775 99.904 95.7852C99.7348 95.893 99.5398 95.9535 99.3392 95.9604C99.1656 95.946 99.0003 95.8799 98.865 95.7707C98.7296 95.6614 98.6303 95.5141 98.5801 95.3478C98.5584 95.3046 98.6163 95.2758 98.6524 95.2974Z" fill="#263238"/>
<path d="M87.5627 90.7286C87.5627 90.7286 83.4566 83.6305 83.9481 79.595C84.1723 77.7646 86.7024 76.59 86.7024 76.59C86.5268 75.8387 86.565 75.0535 86.8128 74.3227C87.0606 73.5919 87.5081 72.9446 88.1049 72.4536C90.317 70.4647 95.5654 71.0124 95.5654 71.0124C95.5654 71.0124 99.086 66.177 103.864 68.2308C108.643 70.2846 105.383 75.6676 105.383 75.6676C105.383 75.6676 107.096 78.2042 102.729 80.0706C98.4787 81.8866 89.9194 79.8184 89.9194 79.8184C90.2511 82.7802 90.139 85.7747 89.5869 88.7036C89.4731 89.196 89.2232 89.6468 88.8654 90.0047C88.5076 90.3627 88.0563 90.6135 87.5627 90.7286Z" fill="#263238"/>
<path d="M96.3897 71.1202C95.3261 70.6509 94.1768 70.4056 93.0137 70.3995C91.9758 70.3587 90.9387 70.4977 89.9485 70.8103C88.1991 71.3868 86.6231 72.6335 86.2906 74.5215C86.2088 74.9866 86.221 75.4633 86.3265 75.9237C86.432 76.384 86.6287 76.8187 86.905 77.2022C86.905 77.2022 86.9773 77.2022 86.9557 77.159C85.8713 75.761 86.5002 73.6279 87.6786 72.5038C89.0087 71.2283 91.0184 70.7743 92.8113 70.7382C94.0083 70.749 95.1998 70.9014 96.3608 71.1922C96.3678 71.1899 96.3743 71.1861 96.3797 71.1811C96.3852 71.176 96.3894 71.1698 96.3922 71.163C96.3949 71.1561 96.3962 71.1487 96.3957 71.1413C96.3953 71.1339 96.3932 71.1267 96.3897 71.1202Z" fill="#263238"/>
<path d="M103.763 80.3442C101.823 81.0786 99.7477 81.3907 97.6765 81.2594C95.5251 81.1527 93.3919 80.8119 91.3148 80.2433C90.1003 79.9262 88.9003 79.5227 87.7003 79.1768C87.6641 79.1768 87.6424 79.22 87.7003 79.2344C89.7867 80.1811 91.9675 80.9057 94.2065 81.3963C96.2827 81.8297 98.4237 81.8566 100.51 81.4755C101.652 81.2506 102.762 80.8851 103.814 80.3874C103.814 80.3874 103.792 80.3297 103.763 80.3442Z" fill="#263238"/>
<path d="M89.7101 89.8786C89.7101 89.8786 86.8907 85.9872 85.1196 86.9961C83.3484 88.005 85.4955 93.6691 87.6064 94.4185C87.8715 94.5289 88.156 94.5857 88.4433 94.5855C88.7306 94.5854 89.015 94.5284 89.28 94.4177C89.545 94.3071 89.7853 94.1451 89.9869 93.9411C90.1886 93.7371 90.3476 93.4952 90.4547 93.2295L89.7101 89.8786Z" fill="#F7A9A0"/>
<path d="M85.8134 88.6025V88.6602C87.2592 89.2367 88.0905 90.5842 88.6544 91.9895C88.5668 91.8433 88.4483 91.7179 88.3073 91.6219C88.1662 91.5259 88.0058 91.4616 87.8374 91.4335C87.6689 91.4054 87.4963 91.4141 87.3316 91.4591C87.1668 91.5041 87.0138 91.5842 86.8833 91.694C86.8833 91.694 86.8833 91.7805 86.9266 91.7661C87.1837 91.6823 87.4605 91.6796 87.7192 91.7582C87.9779 91.8369 88.206 91.9931 88.3725 92.2056C88.6558 92.5619 88.8982 92.9487 89.0954 93.3586C89.1677 93.4883 89.4062 93.4163 89.3484 93.265C89.2906 91.3697 87.7941 88.7611 85.8134 88.6025Z" fill="#263238"/>
<path d="M100.272 104.536L98.1029 111.843L88.452 103.822L86.2833 106.921C86.2833 106.921 96.2667 120.195 96.2595 119.553L98.5583 113.205L103.171 117.002L101.775 106.46L100.272 104.536Z" fill="#A788CE"/>
<path d="M102.759 111.756C102.469 110.019 102.231 108.268 101.862 106.546C101.862 106.488 101.746 106.467 101.739 106.546C101.559 108.261 102.701 114.883 102.853 116.483C102.657 116.317 98.5946 113.161 98.5657 113.219C98.0307 114.242 96.3391 118.868 96.2306 119.286C94.6547 117.175 88.6401 109.536 86.8328 107.569C86.8232 107.557 86.809 107.549 86.7934 107.547C86.7779 107.544 86.7621 107.549 86.7496 107.558C86.7372 107.568 86.729 107.582 86.727 107.597C86.725 107.613 86.7292 107.629 86.7388 107.641C88.1846 109.897 96.1367 120.194 96.2451 120.151C97.1586 117.96 97.9573 115.723 98.638 113.449C99.3609 114.17 103.489 117.773 103.474 117.499C103.338 115.574 103.099 113.656 102.759 111.756Z" fill="#263238"/>
<path d="M103.113 131.004C103.113 131.004 100.091 127.034 102.975 125.239C105.86 123.445 108.224 127.761 108.224 127.761L103.113 131.004Z" fill="#455A64"/>
<path d="M127.02 157.112L127.439 161.969L127.583 163.569L126.181 162.769L121.937 160.341L103.048 130.795L108.108 127.56L126.998 157.105L127.02 157.112Z" fill="#455A64"/>
<path d="M127.403 161.977L127.547 163.576L126.138 162.776L127.403 161.977Z" fill="#263238"/>
<path d="M108.409 127.18L102.479 130.95L103.229 132.123L109.159 128.352L108.409 127.18Z" fill="#263238"/>
<path d="M109.245 128.447L103.315 132.219L104.066 133.391L109.996 129.62L109.245 128.447Z" fill="#263238"/>
<path d="M104.06 133.411L105.975 132.193L111.751 143.543L111.021 143.947L104.06 133.411Z" fill="#263238"/>
<path d="M92.8621 138.354C95.8115 138.189 101.118 163.872 96.7947 164.333C77.5291 166.386 62.6804 161.364 59.3116 159.137C54.8946 156.255 55.3429 150.108 57.714 147.607C61.8129 143.211 88.2788 138.621 92.8621 138.354Z" fill="#F7A9A0"/>
<path d="M128.805 141.993C128.364 144.811 121.482 143.146 121.482 143.146C122.395 143.975 122.986 145.098 123.152 146.317C123.34 148.479 120.029 149.718 120.029 149.718C120.788 150.771 121.214 152.026 121.251 153.322C121.251 155.411 118.063 157.141 118.063 157.141C118.225 158.499 117.892 159.87 117.123 161.003C114.954 163.951 95.2405 164.354 92.7753 164.462L91.6331 138.751C91.6331 138.751 107.971 132.301 112.113 133.166C115.598 133.886 129.47 137.684 128.805 141.993Z" fill="#F7A9A0"/>
<path d="M121.439 143.053C117.918 141.396 114.007 140.574 110.219 139.832C110.139 139.832 110.11 139.947 110.219 139.962C113.993 140.682 117.665 142.383 121.402 143.226C121.482 143.255 121.533 143.096 121.439 143.053Z" fill="#263238"/>
<path d="M119.971 149.423C119.135 149.12 118.262 148.929 117.376 148.853C116.451 148.716 115.518 148.601 114.578 148.493C112.703 148.282 110.829 148.118 108.954 148.003C108.867 148.003 108.838 148.125 108.954 148.133C110.819 148.349 112.684 148.587 114.535 148.853C115.467 148.997 116.393 149.149 117.318 149.307C118.182 149.517 119.067 149.63 119.957 149.646C119.977 149.636 119.994 149.621 120.007 149.602C120.019 149.583 120.027 149.561 120.028 149.538C120.03 149.516 120.025 149.493 120.015 149.473C120.005 149.453 119.99 149.435 119.971 149.423Z" fill="#263238"/>
<path d="M117.983 157.156C117.226 156.891 116.428 156.762 115.626 156.774L113.06 156.522C111.354 156.349 109.648 156.168 107.942 155.931C107.862 155.931 107.833 156.053 107.942 156.068C109.669 156.313 111.39 156.586 113.118 156.788C113.971 156.904 114.816 157.012 115.67 157.112C116.435 157.286 117.226 157.321 118.005 157.213C118.008 157.203 118.007 157.191 118.004 157.181C118 157.17 117.992 157.162 117.983 157.156Z" fill="#263238"/>
<path d="M89.9847 138.29L94.4884 167.036C94.4884 167.036 63.9092 164.312 58.0464 158.691C53.9764 154.778 55.2126 148.653 57.5548 146.808C62.6803 142.772 89.9847 138.29 89.9847 138.29Z" fill="#A788CE"/>
<path d="M86.6305 164.873C85.8497 160.852 83.2689 144.293 82.9581 140.682C82.9581 140.43 83.0882 140.351 83.146 140.61C85.763 152.594 86.2256 160.852 86.7606 164.837C86.7967 164.917 86.6449 164.96 86.6305 164.873Z" fill="#263238"/>
<path d="M90.0281 138.001C82.9516 139.059 75.9385 140.503 69.0203 142.325L68.4636 142.534C67.1696 142.656 65.8828 142.916 64.6033 143.153C64.6033 143.153 64.6033 143.218 64.6033 143.211C65.6226 143.024 66.6563 142.901 67.6829 142.779C67.0973 142.966 66.5118 143.161 65.9262 143.37C64.8997 143.73 63.8804 144.133 62.8538 144.508C62.8538 144.508 62.8538 144.573 62.8538 144.559C64.5744 143.953 66.3455 143.449 68.0949 142.93C69.8444 142.411 89.8402 138.332 89.9197 138.34C89.9992 138.347 89.9848 138.52 89.992 138.585C89.9992 138.65 90.1004 138.678 90.0932 138.585C90.0942 138.388 90.0724 138.192 90.0281 138.001Z" fill="#263238"/>
<path d="M90.2448 166.567C89.3773 166.386 86.1025 166.091 85.2278 165.976C83.4783 165.731 81.7216 165.5 79.9722 165.212C76.4588 164.635 72.9816 163.893 69.5189 163.05C68.5574 162.827 67.6032 162.589 66.6272 162.329C65.6513 162.07 62.3982 160.989 61.4222 160.672C61.3861 160.672 61.3644 160.715 61.4222 160.73C62.9725 161.396 64.5608 161.971 66.179 162.452C67.0393 162.69 67.8851 162.971 68.7381 163.216C70.4587 163.706 72.2009 164.131 73.9503 164.52C77.4348 165.291 80.9771 165.875 84.5193 166.307C85.5169 166.422 89.2616 166.783 90.2592 166.725C90.3677 166.754 90.346 166.588 90.2448 166.567Z" fill="#263238"/>
<path d="M281.269 169.691H4.18854C3.63625 169.691 3.18854 170.139 3.18854 170.691V178.474C3.18854 179.026 3.63625 179.474 4.18854 179.474H281.269C281.821 179.474 282.269 179.026 282.269 178.474V170.691C282.269 170.139 281.821 169.691 281.269 169.691Z" fill="#C8DEFE"/>
<path d="M1.12164 167.134H278.202C278.478 167.134 278.702 167.358 278.702 167.634V175.416C278.702 175.693 278.478 175.916 278.202 175.916H1.12164C0.8455 175.916 0.621643 175.693 0.621643 175.416V167.634C0.621643 167.358 0.8455 167.134 1.12164 167.134Z" fill="white" stroke="#1E437D"/>
<path d="M198.514 163.632H138.183V166.332H198.514V163.632Z" fill="#BDC6D5"/>
<path d="M168.554 163.632H138.183V166.332H168.554V163.632Z" fill="#D3DBE7"/>
<path d="M168.554 163.632H138.183V166.332L138.435 163.883L168.554 163.632Z" fill="#475569"/>
<path d="M173.434 166.323H232.23L240.539 126.521H181.743L173.434 166.323Z" fill="#D3DBE7"/>
<path d="M173.434 166.323L181.984 126.892L239.947 127.198L236.385 146.422L240.539 126.521H181.744L173.434 166.323Z" fill="#475569"/>
<path d="M202.429 147.309C202.362 147.802 202.404 148.305 202.55 148.781C202.697 149.258 202.945 149.697 203.278 150.069C203.611 150.44 204.021 150.736 204.48 150.935C204.938 151.133 205.434 151.231 205.934 151.22C207.008 151.196 208.036 150.788 208.832 150.069C209.628 149.351 210.138 148.371 210.269 147.309C210.335 146.815 210.292 146.312 210.144 145.836C209.997 145.36 209.747 144.922 209.414 144.551C209.08 144.18 208.669 143.886 208.211 143.688C207.752 143.49 207.256 143.394 206.756 143.405C205.684 143.428 204.656 143.835 203.862 144.552C203.067 145.269 202.558 146.248 202.429 147.309Z" fill="white"/>
<path d="M258.6 52.7826C273.127 52.7826 284.904 41.0433 284.904 26.5622C284.904 12.0811 273.127 0.341797 258.6 0.341797C244.073 0.341797 232.296 12.0811 232.296 26.5622C232.296 41.0433 244.073 52.7826 258.6 52.7826Z" fill="#D3DBE7"/>
<path opacity="0.1" d="M259.807 52.1634C273.668 52.1634 284.904 40.963 284.904 27.1466C284.904 13.3303 273.668 2.12988 259.807 2.12988C245.947 2.12988 234.711 13.3303 234.711 27.1466C234.711 40.963 245.947 52.1634 259.807 52.1634Z" fill="black"/>
<path d="M262.662 50.4131C275.551 48.8423 284.723 37.1534 283.147 24.3052C281.571 11.4569 269.845 2.31468 256.956 3.88542C244.067 5.45616 234.895 17.1451 236.471 29.9933C238.047 42.8416 249.773 51.9838 262.662 50.4131Z" fill="white"/>
<path d="M260.034 5.40723H259.581V8.95956H260.034V5.40723Z" fill="#C7C7C7"/>
<path d="M249.1 8.19131L248.708 8.41699L250.49 11.4934L250.882 11.2677L249.1 8.19131Z" fill="#C7C7C7"/>
<path d="M241.021 16.07L240.795 16.4609L243.881 18.2371L244.107 17.8462L241.021 16.07Z" fill="#C7C7C7"/>
<path d="M241.562 26.9209H237.998V27.3723H241.562V26.9209Z" fill="#C7C7C7"/>
<path d="M243.896 36.0461L240.81 37.8223L241.036 38.2132L244.122 36.437L243.896 36.0461Z" fill="#C7C7C7"/>
<path d="M250.473 42.7703L248.693 45.8477L249.085 46.0731L250.865 42.9958L250.473 42.7703Z" fill="#C7C7C7"/>
<path d="M260.034 45.3262H259.581V48.8785H260.034V45.3262Z" fill="#C7C7C7"/>
<path d="M269.129 42.7851L268.737 43.0107L270.519 46.0872L270.911 45.8615L269.129 42.7851Z" fill="#C7C7C7"/>
<path d="M275.706 36.032L275.48 36.4229L278.566 38.199L278.792 37.8081L275.706 36.032Z" fill="#C7C7C7"/>
<path d="M281.617 26.9209H278.053V27.3723H281.617V26.9209Z" fill="#C7C7C7"/>
<path d="M278.579 16.0822L275.492 17.8584L275.719 18.2493L278.805 16.4731L278.579 16.0822Z" fill="#C7C7C7"/>
<path d="M270.528 8.21789L268.747 11.2949L269.139 11.5205L270.92 8.44343L270.528 8.21789Z" fill="#C7C7C7"/>
<path d="M273.785 12.4453L257.837 27.2564L259.439 28.8111L274.221 12.8716L273.785 12.4453Z" fill="#475569"/>
<path d="M255.288 11.7673L259.036 28.6848L261.174 28.0579L255.867 11.5918L255.288 11.7673Z" fill="#1D293F"/>
<path d="M259.271 26.6037C259.14 26.748 259.07 26.9369 259.074 27.1314C259.079 27.3258 259.158 27.5112 259.295 27.6493C259.433 27.7873 259.618 27.8677 259.813 27.8738C260.008 27.8798 260.198 27.8112 260.344 27.6819C260.486 27.5381 260.565 27.3445 260.565 27.1428C260.565 26.9411 260.486 26.7475 260.344 26.6037C260.201 26.4628 260.008 26.3838 259.807 26.3838C259.607 26.3838 259.414 26.4628 259.271 26.6037Z" fill="#FFC727"/>
<path d="M248.999 132.389H213.564V166.332H248.999V132.389Z" fill="white"/>
<path d="M262.465 132.389H248.999V166.332H262.465V132.389Z" fill="#EBF0F7"/>
<path opacity="0.5" d="M262.465 132.389H248.999L262.335 132.578L262.465 166.332V132.389Z" fill="#1D375E"/>
<path d="M213.564 149.356H248.999L221.328 150.234L213.564 149.356Z" fill="#C6D7EF"/>
<path d="M248.999 162.229H213.564L241.243 163.106L248.999 162.229Z" fill="#C6D7EF"/>
<path d="M213.564 139.869H236.011L216.063 140.58L213.564 139.869Z" fill="#C6D7EF"/>
<path d="M248.999 157.229H226.552L246.509 157.94L248.999 157.229Z" fill="#C6D7EF"/>
<path d="M222.067 136.091H247.381L243.163 136.517L222.067 136.091Z" fill="#C6D7EF"/>
<path d="M217.01 153.001H242.325L238.107 153.427L217.01 153.001Z" fill="#C6D7EF"/>
<path d="M231.053 143.095L232.096 142.973L247.614 143.095L249.147 144.012L248.84 144.067L231.053 143.095Z" fill="#C6D7EF"/>
<path d="M232.581 143.104H248.999L251.934 144.241L232.581 143.104Z" fill="white"/>
<path d="M209.045 143.104H225.462L228.397 144.241L209.045 143.104Z" fill="#C6D7EF"/>
<path d="M230.116 158.358H213.69L210.755 159.495L230.116 158.358Z" fill="#C6D7EF"/>
<path d="M248.999 154.48H262.189L265.124 155.626L248.999 154.48Z" fill="#C6D7EF"/>
<path d="M253.603 149.356H263.832L262.466 148.429L253.603 149.356Z" fill="#C6D7EF"/>
<path opacity="0.6" d="M28.0708 148.303C28.0708 148.303 17.4386 143.422 17.4386 136.877C17.4386 130.333 31.2319 126.12 31.2319 120.996C31.2319 115.873 25.2199 112.872 25.2199 112.872C25.2199 112.872 34.7117 116.107 34.7117 122.576C34.7117 129.046 25.6224 133.442 24.7587 137.546C23.5513 143.272 28.0708 148.303 28.0708 148.303Z" fill="#DBDBDB"/>
<path opacity="0.6" d="M27.551 148.303C27.551 148.303 38.1748 144.467 38.1748 139.318C38.1748 134.169 24.3898 130.859 24.3898 126.839C24.3898 122.819 30.4019 120.453 30.4019 120.453C30.4019 120.453 20.91 122.961 20.91 128.084C20.91 133.208 31.341 136.668 32.0873 140.798C32.8335 144.927 27.551 148.303 27.551 148.303Z" fill="#DBDBDB"/>
<path d="M33.0179 164.753H22.9056V166.324H33.0179V164.753Z" fill="#FFC727"/>
<path opacity="0.1" d="M33.0179 164.753H22.9056V165.789H33.0179V164.753Z" fill="black"/>
<path d="M45.017 160.524C44.4026 161.431 43.5389 162.143 42.5293 162.575C41.5196 163.006 40.4067 163.138 39.3236 162.956C38.9747 162.888 38.6324 162.79 38.3006 162.663C37.7965 162.466 37.3157 162.213 36.8668 161.911L38.1497 160.014C38.3904 160.179 38.6458 160.321 38.9127 160.44C39.6492 160.779 40.4841 160.841 41.2627 160.613C42.0413 160.386 42.7108 159.885 43.1471 159.203C44.5307 157.264 45.0254 152.825 43.6251 151.12C43.5328 150.995 43.122 150.794 41.4953 151.12C41.1934 151.187 40.8496 151.262 40.4639 151.363C40.1661 151.468 39.8562 151.535 39.5416 151.563V150.427L39.4326 149.29C39.5416 149.29 39.7009 149.223 39.9189 149.164C40.6699 148.941 41.4385 148.782 42.2164 148.688C42.7909 148.565 43.3872 148.588 43.9501 148.757C44.513 148.925 45.0242 149.232 45.4362 149.649C47.675 152.458 46.7527 158.091 45.017 160.524Z" fill="#FFC727"/>
<path opacity="0.1" d="M38.1497 160.014C38.3904 160.179 38.6458 160.321 38.9127 160.44L38.3006 162.663C37.7965 162.466 37.3157 162.213 36.8668 161.911L38.1497 160.014Z" fill="black"/>
<path opacity="0.1" d="M42.1743 148.713L41.4951 151.145C41.1933 151.212 40.8495 151.287 40.4638 151.388C40.166 151.493 39.8561 151.56 39.5414 151.588V150.451L39.4324 149.315C39.5414 149.315 39.7008 149.248 39.9188 149.189C40.6561 148.969 41.4105 148.809 42.1743 148.713Z" fill="black"/>
<path d="M14.504 145.847C14.504 145.847 14.5962 146.591 14.7639 147.777C14.7639 147.961 14.8226 148.154 14.8561 148.354C14.9735 149.19 15.1328 150.126 15.3173 151.163V151.338C15.5856 152.826 15.9126 154.439 16.29 155.969C16.29 156.036 16.29 156.102 16.3487 156.161C16.4493 156.571 16.5667 156.997 16.6757 157.365C16.7847 157.732 16.9021 158.125 17.0195 158.493C17.2419 159.155 17.4994 159.805 17.7909 160.44C19.8871 164.762 22.8219 165.238 24.6247 165.238H31.2404C33.0516 165.238 35.9864 164.762 38.0742 160.44C38.1329 160.307 38.2 160.165 38.2587 160.014C38.3174 159.864 38.3593 159.797 38.4012 159.688C38.4432 159.58 38.4935 159.471 38.5354 159.346C38.5773 159.22 38.5941 159.187 38.6276 159.103C39.058 157.876 39.4191 156.626 39.7093 155.359C39.7131 155.306 39.7131 155.253 39.7093 155.2C39.7093 155.2 39.7093 155.2 39.7093 155.133C39.8351 154.598 39.9525 154.055 40.0615 153.52C40.2543 152.634 40.422 151.764 40.5646 150.937C40.6233 150.561 40.6904 150.193 40.7491 149.834L40.7994 149.541C40.8413 149.307 40.8748 149.073 40.9084 148.847C40.9419 148.622 40.9754 148.413 41.009 148.212C41.0425 148.012 41.0593 147.811 41.0928 147.627C41.2522 146.532 41.3276 145.847 41.3276 145.847H14.504Z" fill="#FFC727"/>
<g clip-path="url(#clip0_1_3702)">
<path d="M27.1973 151.54C27.1264 151.983 27.0838 152.354 26.9959 152.714C26.6867 153.975 27.0278 155.079 27.8775 156.059C28.7555 157.071 29.0548 158.179 28.5917 159.449C28.4803 159.753 28.308 159.878 27.9746 159.901C26.9108 159.977 26.159 159.469 25.654 158.672C24.5752 156.97 24.3653 155.141 25.0526 153.26C25.3802 152.362 26.015 151.71 27.1973 151.54Z" fill="#402D1C" fill-opacity="0.74"/>
<path d="M29.2065 159.624C29.2909 159.224 29.3484 158.923 29.4193 158.627C29.6413 157.7 29.4902 156.825 28.7909 156.146C27.4767 154.874 27.3724 153.394 27.7575 151.772C27.849 151.385 28.0306 151.314 28.3859 151.36C29.1661 151.463 29.7767 151.845 30.2172 152.431C31.5647 154.215 31.7562 156.138 30.8392 158.142C30.6907 158.483 30.4688 158.791 30.1876 159.047C29.9065 159.302 29.5723 159.498 29.2065 159.624Z" fill="#402D1C" fill-opacity="0.74"/>
</g>
<defs>
<clipPath id="clip0_1_3702">
<rect width="6.747" height="8.55986" fill="white" transform="translate(24.6561 151.349)"/>
</clipPath>
</defs>
</svg>
